<svg xmlns="http://www.w3.org/2000/svg" viewBox="0 0 400 400"><defs><linearGradient id="a" x1="0%" x2="108.129%" y1="50%" y2="50%"><stop offset="0%" stop-color="#EC6F9D"/><stop offset="100%" stop-color="#EC8C6B"/></linearGradient></defs><g fill="none" fill-rule="evenodd" transform="translate(-3 27)"><path fill="#EB8A6C" d="M397.14 29.297v200.781l-46.874 23.438V13.672z"/><path fill="url(#a)" d="M373.703 29.297v224.219L8.86 228.906V29.296z"/><path fill="#DBDBDB" d="M220.576 284.766l-58.59 15.625-4.08 16.328c-3.133 12.5-16.234 22.734-29.125 22.734h125c-12.89 0-33.205-54.687-33.205-54.687z"/><g fill="#BFBFBF"><path d="M248.094 316.719l-9.938-39.766L203 253.516l-35.156 23.437-5.857 23.438h58.589l4.08 16.328c3.133 12.5 16.235 22.734 29.125 22.734h23.438c-12.89 0-25.992-10.234-29.125-22.734zM373.703 230.078l-23.437 46.875h23.437c12.89 0 23.438-10.547 23.438-23.437v-23.438h-23.438zM373.703 5.86h-23.437l23.437 23.437h23.438c0-12.89-10.547-23.438-23.438-23.438z"/></g><g fill="#DBDBDB"><path d="M373.703 230.078v23.438c0 12.89-10.547 23.437-23.437 23.437H32.296c-12.89 0-23.437-10.547-23.437-23.437v-24.61l364.844 1.172zM373.703 29.297H8.86c0-12.89 10.547-23.438 23.438-23.438h317.969c12.89 0 23.437 10.547 23.437 23.438z"/></g><g fill="#FFF"><path d="M1 27v44.263c15.93 21.227 34.53 30.76 52.667 26.773C77.12 92.901 99.11 66.186 122.6 62.18c24.613-4.17 49.18 16.14 72.733 33.715 23.09 17.212 46.1 23.79 69.8 12.507 12.05-5.737 23.284-17.058 34.817-28.054C330.83 50.905 372 13.336 401 77.172V27H1z" opacity=".25"/><path d="M1 27v15.237c4.333 20.344 9.213 39.56 15.897 54.2C34.137 134.234 56 133.974 75.86 115.258c10.383-9.781 20.03-25.124 29.89-38.356 13.64-18.31 28.243-44.332 43.61-47.869 12.087-2.746 23.633 9.079 32.867 30.416C192.817 83.918 203 119.2 216.77 129.8c13.48 10.399 27.117-6.447 39.71-23.4 12.593-16.951 25.053-37.585 38.973-41.488 19.91-5.638 37.76 22.05 56.3 37.431 10.067 8.346 19.667 5.947 29.03-7.228 7.477-10.495 16-25.953 20.217-47.454V27H1z" opacity=".5"/><path d="M1 27v5.388C50.977 83.463 105.697 95.253 159.61 67.74c14.333-7.312 28.077-19.255 42.537-25.323 19.666-8.259 37.493 11.714 55.186 33.878 19.644 24.605 39 41.85 60.734 36.835 28.843-6.699 57.486-43.744 82.933-81.163V27H1z"/></g><path fill="#000" fill-rule="nonzero" d="M373.703 0H32.297C16.142 0 3 13.142 3 29.297v224.219c0 16.154 13.142 29.297 29.297 29.297h128.042l-8.12 32.482c-2.48 9.918-13.213 18.299-23.438 18.299H81.906a5.859 5.859 0 100 11.719h242.188a5.859 5.859 0 100-11.72h-46.875c-10.225 0-20.958-8.38-23.438-18.298l-8.12-32.483h128.042c16.155 0 29.297-13.142 29.297-29.296V29.296C403 13.143 389.858 0 373.703 0zM32.297 11.719h341.406c7.638 0 14.152 4.899 16.57 11.719H15.727c2.418-6.82 8.932-11.72 16.57-11.72zm210.115 306.417c1.447 5.787 4.552 11.095 8.704 15.458h-96.232c4.153-4.362 7.257-9.67 8.704-15.458l8.83-35.324h61.163l8.83 35.324zm131.291-47.042H32.297c-9.692 0-17.578-7.885-17.578-17.578v-18.75h17.578a5.859 5.859 0 100-11.72H14.719V35.157H391.28v187.89H55.734a5.859 5.859 0 100 11.72h335.547v18.75c0 9.693-7.886 17.578-17.578 17.578z"/><circle cx="203" cy="253.516" r="5.859" fill="#000"/></g></svg>
