<svg xmlns="http://www.w3.org/2000/svg" viewBox="0 0 400 400"><g fill="none" fill-rule="evenodd"><path fill="#F9F9F9" d="M375.93 90H24.07c-8.6 0-15.57 6.99-15.57 15.614v146.772C8.5 261.01 15.47 268 24.07 268h351.86c8.6 0 15.57-6.99 15.57-15.614V105.614C391.5 96.99 384.53 90 375.93 90z"/><g fill="#98A1B3"><path d="M180.78 127h37.44v34.333h-37.44zM249.42 127h37.44v34.333h-37.44zM318.06 127h37.44v34.333h-37.44zM132.705 195.667h48.075V230h-48.075zM218.22 195.667h48.075V230H218.22zM149.58 161.333h-37.44V127h37.44zM80.94 161.333H43.5V127h37.44z"/></g><path fill="#FFCDAC" d="M375.899 223.294c-8.616 0-15.602 7.004-15.602 15.644v-35.511c0-8.64-6.985-15.644-15.601-15.644-8.617 0-15.602 7.004-15.602 15.644v-26.783c0-8.64-6.985-15.644-15.602-15.644-8.616 0-15.602 7.004-15.602 15.644v26.783c0-8.64-6.985-15.644-15.601-15.644-8.617 0-15.602 7.004-15.602 15.644v119.335l-8.753-35.798c-2-8.18-9.984-13.401-18.255-11.939-8.796 1.555-14.603 10.052-12.874 18.839l9.356 47.576a56.964 56.964 0 0015.44 29.12L272.866 392h85.265l16.857-16.997a56.99 56.99 0 0016.512-40.131v-95.934c0-8.64-6.984-15.644-15.601-15.644zM159.32 275.026c-8.27-1.463-16.255 3.759-18.254 11.938l-8.753 35.798V203.427c0-8.64-6.985-15.644-15.601-15.644-8.617 0-15.602 7.004-15.602 15.644v-26.783c0-8.64-6.985-15.644-15.602-15.644-8.616 0-15.601 7.004-15.601 15.644v26.783c0-8.64-6.986-15.644-15.602-15.644s-15.602 7.004-15.602 15.644v35.511c0-8.64-6.985-15.644-15.601-15.644-8.617 0-15.602 7.004-15.602 15.644v95.934a56.992 56.992 0 0016.512 40.13L40.872 392h85.264l21.263-21.44a56.958 56.958 0 0015.44-29.12l9.356-47.576c1.729-8.787-4.078-17.283-12.874-18.838z"/><g fill="#000"><path fill-rule="nonzero" d="M376.121 82.047H322.35a7.793 7.793 0 100 15.586h53.771c4.297 0 7.793 3.496 7.793 7.793v111.873a23.297 23.297 0 00-7.829-1.351c-2.744 0-5.378.48-7.828 1.35v-13.396c0-12.911-10.504-23.414-23.415-23.414-2.744 0-5.378.479-7.828 1.35v-4.681c0-2.745-.479-5.379-1.35-7.828h20.195a7.793 7.793 0 007.793-7.793v-34.29a7.793 7.793 0 00-7.793-7.792h-37.406a7.793 7.793 0 00-7.793 7.793v26.687c-6.407.806-12.017 4.207-15.736 9.12.097-.491.15-.998.15-1.518v-34.29a7.793 7.793 0 00-7.793-7.792h-37.406a7.793 7.793 0 00-7.793 7.793v34.289a7.793 7.793 0 007.793 7.793h37.406c1.898 0 3.635-.68 4.987-1.807a23.271 23.271 0 00-2.082 9.635v4.681a23.297 23.297 0 00-7.83-1.35c-6.79 0-12.914 2.909-17.194 7.544h-46.459a7.793 7.793 0 00-7.793 7.793v34.29a7.793 7.793 0 007.793 7.792h40.24v21.82H141.057v-21.82h40.239a7.793 7.793 0 007.793-7.793v-34.289a7.793 7.793 0 00-7.793-7.793h-46.458c-4.28-4.634-10.404-7.544-17.196-7.544-2.745 0-5.379.479-7.828 1.35v-4.681c0-3.434-.749-6.693-2.082-9.635a7.76 7.76 0 004.987 1.807h37.406a7.793 7.793 0 007.793-7.793v-34.29a7.793 7.793 0 00-7.793-7.792H112.72a7.793 7.793 0 00-7.793 7.793v34.289c0 .52.053 1.026.15 1.518-3.719-4.913-9.329-8.313-15.736-9.12v-26.688a7.793 7.793 0 00-7.793-7.793H44.14a7.793 7.793 0 00-7.793 7.793v34.29a7.793 7.793 0 007.793 7.792h20.196a23.292 23.292 0 00-1.35 7.828v4.681a23.297 23.297 0 00-7.83-1.35c-12.91 0-23.413 10.504-23.413 23.414v13.397a23.297 23.297 0 00-7.83-1.35c-2.744 0-5.378.478-7.827 1.35V105.426c0-4.297 3.496-7.793 7.793-7.793h228.334a7.793 7.793 0 100-15.586h-44.42v-7.793c0-16.329-13.285-29.613-29.614-29.613h-32.73c-7.735 0-14.027-6.293-14.027-14.028 0-7.734 6.292-14.027 14.027-14.027H200A7.793 7.793 0 10200 1h-54.55c-16.329 0-29.613 13.285-29.613 29.613 0 16.329 13.284 29.614 29.613 29.614h32.73c7.735 0 14.028 6.292 14.028 14.027v7.793H23.878C10.989 82.047.5 92.535.5 105.426v229.733c0 17.194 6.677 33.378 18.8 45.57l16.88 16.973A7.77 7.77 0 0041.704 400a7.793 7.793 0 005.526-13.288L30.353 369.74c-9.2-9.252-14.267-21.532-14.267-34.58v-95.797c0-4.317 3.511-7.828 7.829-7.828 4.316 0 7.828 3.511 7.828 7.828v48.094a7.793 7.793 0 1015.586 0v-83.554c0-4.317 3.511-7.828 7.829-7.828 4.316 0 7.828 3.511 7.828 7.828v83.554a7.793 7.793 0 1015.586 0v-110.3c0-4.316 3.511-7.828 7.828-7.828s7.828 3.512 7.828 7.828v110.3a7.793 7.793 0 1015.586 0v-83.554c0-4.317 3.512-7.828 7.83-7.828 4.316 0 7.827 3.511 7.827 7.828v119.166a7.793 7.793 0 0015.362 1.855l8.764-35.747c1.022-4.167 5.13-6.848 9.357-6.102a8.114 8.114 0 015.323 3.428 8.11 8.11 0 011.277 6.201l-9.368 47.509a48.887 48.887 0 01-13.34 25.09l-21.29 21.41a7.793 7.793 0 0011.051 10.99l21.29-21.41a64.426 64.426 0 0017.58-33.066l9.369-47.508c1.245-6.316-.073-12.718-3.712-18.027a24.177 24.177 0 00-1.867-2.378h49.467a24.27 24.27 0 00-1.867 2.378c-3.639 5.31-4.957 11.712-3.712 18.027l9.368 47.508a64.42 64.42 0 0017.58 33.066l21.29 21.41A7.77 7.77 0 00272.92 400a7.793 7.793 0 005.526-13.288l-21.29-21.41a48.884 48.884 0 01-13.34-25.09l-9.369-47.509a8.11 8.11 0 011.277-6.2 8.109 8.109 0 015.322-3.429c4.223-.744 8.335 1.935 9.357 6.102l8.764 35.747a7.789 7.789 0 008.503 5.882 7.793 7.793 0 006.859-7.737V203.902c0-4.317 3.511-7.828 7.829-7.828 4.316 0 7.828 3.511 7.828 7.828v83.554a7.793 7.793 0 1015.586 0v-110.3c0-4.316 3.512-7.828 7.828-7.828 4.317 0 7.828 3.512 7.828 7.828v110.3a7.793 7.793 0 1015.586 0v-83.554c0-4.317 3.512-7.828 7.83-7.828 4.316 0 7.827 3.511 7.827 7.828v83.554a7.793 7.793 0 1015.586 0v-48.094c0-4.317 3.512-7.828 7.829-7.828s7.828 3.511 7.828 7.828v95.797c0 13.047-5.066 25.328-14.267 34.58L352.77 386.71a7.793 7.793 0 0011.052 10.99l16.878-16.973c12.124-12.191 18.801-28.375 18.801-45.569V105.426c0-12.891-10.488-23.38-23.379-23.38zm-96.633 71.695h-21.82V135.04h21.82v18.703zM120.512 135.04h21.82v18.703h-21.82V135.04zm-68.578 0h21.82v18.703h-21.82V135.04zm174.562 87.281v-18.703h32.446v18.703h-32.446zm-85.438-18.703h32.446v18.703h-32.446v-18.703zm185.188-68.578h21.82v18.703h-21.82V135.04z"/><path fill-rule="nonzero" d="M181.297 119.453a7.793 7.793 0 00-7.793 7.793v34.29a7.793 7.793 0 007.793 7.792h37.406a7.793 7.793 0 007.793-7.793v-34.289a7.793 7.793 0 00-7.793-7.793h-37.406zm29.613 34.29h-21.82v-18.704h21.82v18.703z"/><path d="M287.281 97.633c2.05 0 4.06-.834 5.51-2.284a7.852 7.852 0 002.283-5.51c0-2.049-.834-4.06-2.283-5.509a7.852 7.852 0 00-5.51-2.283c-2.05 0-4.06.834-5.51 2.283a7.852 7.852 0 00-2.283 5.51c0 2.05.834 4.06 2.284 5.51a7.852 7.852 0 005.51 2.283z"/></g></g></svg>
