<svg xmlns="http://www.w3.org/2000/svg" viewBox="0 0 307 400"><g fill="none" fill-rule="evenodd"><path fill="#FCCA75" d="M300.753 146.366v155.593a26.694 26.694 0 01-7.819 18.846l-64.47 64.37a26.778 26.778 0 01-18.876 7.807H33.483a26.386 26.386 0 01-18.853-7.821 26.303 26.303 0 01-7.608-18.915v-219.88h293.731z"/><path fill="#F3B141" d="M297.746 313.784a26.382 26.382 0 01-5.38 7.768l-64.046 64.045a26.382 26.382 0 01-7.767 5.38v-50.666c.001-14.65 11.877-26.525 26.526-26.527h50.667z"/><path fill="#95D6A4" d="M74.187 59.738h26.638v46.646H74.187z"/><path fill="#CEBFE2" d="M154.1 146.366V99.72h-26.637v46.646"/><path fill="#9E9797" d="M180.739 33.083h26.638v46.646h-26.638z"/><path fill="#F3B141" d="M234.015 119.711h26.638v26.655h-26.638z"/><path fill="#000" fill-rule="nonzero" d="M9.447 390.109a32.937 32.937 0 0023.662 9.89h175.915a33.124 33.124 0 0023.578-9.766l64.4-64.4a33.125 33.125 0 009.766-23.578V146.584a6.669 6.669 0 00-6.669-6.669h-6.669v-20.007h-13.337v20.007h-13.338v-20.007a6.669 6.669 0 00-6.669-6.668h-26.675a6.669 6.669 0 00-6.669 6.668v20.007h-13.337V99.902h-13.338v40.013H186.73V99.902h-13.338v40.013h-13.338V99.902a6.669 6.669 0 00-6.668-6.669H126.71a6.669 6.669 0 00-6.669 6.669v40.013h-13.337v-13.338H93.366v13.338H80.03v-13.338H66.69v13.338H53.353V93.233H40.016v46.682H26.678v-20.007H13.341v20.007H6.67a6.67 6.67 0 00-6.668 6.669l.004 219.948a32.682 32.682 0 009.44 23.577zM240.08 126.577h13.338v13.338H240.08v-13.338zm-106.7-20.006h13.337v33.344h-13.338v-33.344zm160.05 46.682v149.002a19.877 19.877 0 01-5.86 14.147l-60.828 60.83V339.98c.013-11.044 8.963-19.994 20.007-20.006h20.006v-13.338H246.75c-18.407.02-33.323 14.937-33.344 33.344v46.198a20.164 20.164 0 01-4.38.484H33.108a19.698 19.698 0 01-14.155-5.907 19.444 19.444 0 01-5.61-14.062v-.11l-.005-213.33h280.092z"/><path fill="#000" fill-rule="nonzero" d="M67.17 106.6a6.683 6.683 0 006.683 6.683h26.733a6.683 6.683 0 006.683-6.683V59.816a6.683 6.683 0 00-6.683-6.683H73.853a6.683 6.683 0 00-6.684 6.683V106.6zm13.366-40.1h13.367v33.416H80.536V66.5z"/><path fill="#000" d="M40.102 0h13.032v80.2H40.102zM14.036 0H27.07v27.068H14.036zM14.036 40.1H27.07v67.168H14.036zM280.703 0h13.033v27.068h-13.033zM280.703 40.1h13.033v67.168h-13.033zM67.17 0h13.032v40.1H67.169zM94.237 0h13.032v13.033H94.237zM94.237 27.068h13.032V40.1H94.237zM120.302 47.118h13.033V80.2h-13.033zM147.37 0h13.032v47.118H147.37zM147.37 60.15h13.032V80.2H147.37zM120.302 0h13.033v33.083h-13.033z"/><path fill="#000" fill-rule="nonzero" d="M173.435 80.535a6.683 6.683 0 006.683 6.683h26.734a6.683 6.683 0 006.683-6.683V33.75a6.683 6.683 0 00-6.683-6.683h-26.734a6.683 6.683 0 00-6.683 6.683v46.784zm13.367-40.1h13.366V73.85h-13.366V40.434z"/><path fill="#000" d="M174.437 0h13.033v13.033h-13.033zM200.503 0h13.032v13.033h-13.032zM227.57 40.1h13.033v60.15H227.57zM253.635 0h13.033v67.168h-13.033zM253.635 80.2h13.033v20.05h-13.033zM227.57 0h13.033v27.068H227.57zM80.202 186.466h20.05V199.5h-20.05zM114.287 186.466h93.233V199.5h-93.233zM220.553 186.466h40.1V199.5h-40.1zM47.119 226.566h40.1V239.6h-40.1zM100.252 226.566h106.266V239.6H100.252zM47.119 306.767h73.183v13.032H47.119zM133.335 306.767h67.168v13.032h-67.168zM47.119 346.867h20.05V359.9H47.12zM173.435 346.867h27.068V359.9h-27.068zM80.202 346.867h80.2V359.9h-80.2zM220.553 226.566h40.1V239.6h-40.1zM47.119 266.667h13.033v13.032H47.119zM74.187 266.667h93.233v13.032H74.187zM180.452 266.667h80.2v13.032h-80.2z"/></g></svg>
