<svg xmlns="http://www.w3.org/2000/svg" viewBox="0 0 400 400"><g fill="none" fill-rule="evenodd" transform="translate(39)"><path fill="#01D0FB" d="M164.224 233.086l-36.697-2.374-74.99 64.281 62.716 82.458 78.474-70.622 10.387-25.576z"/><path fill="#62DBFB" d="M200.095 199.901l-28.74-6.755-43.828 37.566 66.2 76.117 44.376-39.937 3.726-20.844z"/><path fill="#99E6FC" d="M252.456 155.748l-35.81-1.428-45.291 38.826 66.748 73.746 44.547-40.094 12.337-24.816z"/><path fill="#C8EFFE" d="M307.91 165.764c10.521 11.632 9.613 29.597-2.019 40.126l-23.24 20.908-66.004-72.478 46.512-39.867 20.086 24.04 24.666 27.271z"/><path fill="#05E39C" d="M134.445 193.21L96.717 206.17 23.214 324.582l102.356 41.895 67.202-97.167 3.755-36.224z"/><path fill="#00F2A6" d="M174.899 142.614l-43.137 7.096-35.045 56.461 96.055 63.14 35.75-51.695 4.452-35.22z"/><path fill="#6CF5C2" d="M263.414 136.833L196.527 93.88l-32.303 3.524-32.462 52.306 96.76 67.906L265.39 164.3z"/><path fill="#9CF8D2" d="M277.296 97.154c12.9 8.923 16.126 26.614 7.202 39.522l-19.108 27.625-101.166-66.897 32.736-52.736 46.325 28.963 34.011 23.523z"/><g><path fill="#FED402" d="M63.6 173.253L11.116 303.256c-13.547 33.557 2.672 71.734 36.228 85.281 33.549 13.544 71.734-2.672 85.281-36.228l51.895-128.547-120.922-50.509z"/><path fill="#FEE45A" d="M202.724 160.827l-89.3-41.78-26.602 8.046-26.168 63.068 118.773 46.219 24.687-61.24z"/><path fill="#FEE97D" d="M226.427 89.631l-95.055-30.473-19.74 8.963-24.502 59.068 117.025 47.937 24.893-61.667z"/><path fill="#FEF0AE" d="M226.788 42.42c14.576 5.816 21.675 22.34 15.867 36.916l-13.605 34.122-117.416-45.339 21.268-51.264c7.31-4.298 16.454-5.307 24.947-1.918l68.94 27.483z"/><path fill="#F9F7F8" d="M6.283 269.224V34.281c0-15.695 12.72-28.407 28.407-28.407h74.215c15.695 0 28.415 12.712 28.415 28.407v294.13c0 36.187-29.339 65.518-65.519 65.518-36.188 0-65.518-29.331-65.518-65.519v-59.186z"/><g><path fill="#F9B1B1" d="M137.32 34.281v36.352H6.283V34.281c0-15.695 12.72-28.407 28.407-28.407h74.215c15.695 0 28.415 12.712 28.415 28.407z"/><path fill="#F79595" d="M6.283 70.633H137.32v66.2H6.283z"/><path fill="#F47C7C" d="M6.283 136.833H137.32v66.192H6.283z"/><path fill="#EE6161" d="M6.283 203.025H137.32v66.2H6.283z"/></g></g><circle cx="70.468" cy="328.629" r="22.283" fill="#E5E1E5"/><g fill="#000" fill-rule="nonzero"><path d="M312.261 161.824l-21.607-23.898c4.2-7.095 5.699-15.366 4.205-23.558-1.642-9.008-6.694-16.837-14.224-22.045L249.46 70.762a34.162 34.162 0 00-2.777-14.853c-3.616-8.412-10.29-14.912-18.797-18.304l-68.942-27.488c-8.356-3.331-17.46-3.241-25.636.115C127.088 3.92 118.448 0 108.908 0h-74.22C15.789 0 .41 15.378.41 34.28v294.134c0 39.364 32.025 71.389 71.389 71.389 17.914 0 34.306-6.634 46.853-17.572.18-.128.356-.265.525-.416L252.83 261.533a5.87 5.87 0 10-7.854-8.728l-5.507 4.955-17.89-19.786 28.087-40.613 25.535 28.241-11.618 10.457a5.872 5.872 0 007.856 8.728l38.385-34.546c6.792-6.14 10.785-14.56 11.245-23.704.46-9.144-2.668-17.922-8.809-24.713zm-28.953-45.35a22.39 22.39 0 01-3.637 16.861l-15.941 23.05-36.293-25.098 19.214-48.19 27.304 18.883a22.384 22.384 0 019.353 14.494zm-55.802 92.29l-24.268-16.784 19.737-49.503 34.075 23.566-29.544 42.72zm-36.224 52.377l-12.243-8.468 19.738-49.503 22.05 15.25-29.545 42.72zm9.037-93.541l-17.015-6.784a5.872 5.872 0 00-4.348 10.907l17.013 6.783-20.167 50.582-32.615-13.004V157.46l12.426 4.955a5.858 5.858 0 002.173.418 5.872 5.872 0 002.177-11.326l-16.776-6.688V86.198l77.3 30.82-20.168 50.582zm-68.873-36.641H64.944a5.871 5.871 0 000 11.742h66.502v54.454H12.15V142.7h27.773a5.871 5.871 0 000-11.742H12.151V76.505h119.295l-.001 54.454zM12.15 208.896h119.294v54.454H12.151v-54.454zm131.036 19.828l28.267 11.27-28.267 70.894v-82.164zm36.584 69.704l6.51 7.2-30.429 27.384 23.919-34.584zM154.4 314.47l20.178-50.607 10.026 6.934L154.4 314.47zm.196-293.445l68.941 27.488a22.387 22.387 0 0112.358 12.033 22.39 22.39 0 011.643 11.884c-.01.046-.014.093-.023.14a22.649 22.649 0 01-1.391 5.224l-11.29 28.317-81.647-32.554V34.279c0-4.992-1.081-9.735-3.009-14.018a22.36 22.36 0 0114.418.764zM34.689 11.742h74.219c12.427 0 22.538 10.11 22.538 22.537v30.485H12.15V34.279c0-12.427 10.11-22.537 22.538-22.537zM12.15 328.414v-53.322h119.294v53.322c0 32.89-26.758 59.647-59.647 59.647-32.89 0-59.647-26.758-59.647-59.647zm218.591-62.798l-35.733 32.157-8.378-9.266 28.088-40.613 16.023 17.722zm78.601-79.67c-.302 6.013-2.927 11.548-7.384 15.577l-18.029 16.225-27.402-30.307 27.331-39.52 19.692 21.778a22.386 22.386 0 015.792 16.248z"/><path d="M70.468 300.475c-15.524 0-28.153 12.63-28.153 28.154s12.629 28.153 28.153 28.153 28.154-12.63 28.154-28.153c0-15.524-12.63-28.154-28.154-28.154zm0 44.566c-9.05 0-16.412-7.362-16.412-16.412 0-9.05 7.362-16.411 16.412-16.411 9.05 0 16.412 7.362 16.412 16.411 0 9.05-7.362 16.412-16.412 16.412z"/></g></g></svg>
