<svg xmlns="http://www.w3.org/2000/svg" viewBox="0 0 266 400"><g fill="none" fill-rule="evenodd"><path fill="#FFCDAC" d="M236.43 185.47c-11.638 0-21.072 9.447-21.072 21.1v-16.782c0-11.653-9.433-21.099-21.07-21.099-11.638 0-21.072 9.446-21.072 21.099 0-11.653-9.434-21.099-21.071-21.099-11.638 0-21.072 9.446-21.072 21.099v-79.69c0-11.652-9.433-21.098-21.07-21.098-11.638 0-21.072 9.446-21.072 21.099V279.473l-25.424-41.771c-6.25-10.27-19.544-13.667-29.945-7.654-10.032 5.8-13.895 18.366-8.858 28.81l35.949 74.533C77.937 369.227 114.177 392 153.923 392c57.204 0 103.577-46.434 103.577-103.713V206.57c0-11.652-9.433-21.098-21.07-21.098z"/><path fill="#000" d="M110.5 64c4.418 0 8-3.508 8-7.837V7.837c0-4.329-3.582-7.837-8-7.837s-8 3.508-8 7.837v48.326c0 4.328 3.582 7.837 8 7.837zM156.5 110c0 4.418 3.508 8 7.837 8h48.326c4.329 0 7.837-3.582 7.837-8s-3.508-8-7.837-8h-48.326c-4.329 0-7.837 3.582-7.837 8zM64.5 110c0-4.418-3.509-8-7.837-8H8.337C4.009 102 .5 105.582.5 110s3.509 8 7.837 8h48.327c4.327 0 7.836-3.582 7.836-8zM60.293 71.734A7.712 7.712 0 0065.763 74a7.738 7.738 0 005.47-13.208L48.71 38.266a7.738 7.738 0 00-10.942 10.942l22.527 22.526zM154.237 74a7.71 7.71 0 005.471-2.266l22.526-22.526a7.738 7.738 0 00-10.942-10.942l-22.526 22.526A7.738 7.738 0 00154.237 74z"/><path fill="#000" d="M236.653 177.62a28.58 28.58 0 00-14.45 3.91c-3.545-11.965-14.597-20.718-27.652-20.718-8.298 0-15.783 3.54-21.051 9.188-5.267-5.649-12.754-9.188-21.05-9.188a28.578 28.578 0 00-13.255 3.25v-54.105c0-15.967-12.94-28.957-28.848-28.957C94.441 81 81.5 93.99 81.5 109.957v41.266c0 4.323 3.49 7.827 7.797 7.827 4.306 0 7.796-3.504 7.796-7.827v-41.266c0-7.336 5.946-13.304 13.254-13.304 7.309 0 13.255 5.968 13.255 13.304v131.02c0 4.322 3.49 7.826 7.796 7.826s7.797-3.504 7.797-7.826v-51.208c0-7.336 5.946-13.305 13.254-13.305 7.309 0 13.254 5.969 13.254 13.305v51.208c0 4.322 3.49 7.826 7.797 7.826 4.306 0 7.797-3.504 7.797-7.826v-51.208c0-7.336 5.945-13.305 13.254-13.305 7.308 0 13.254 5.969 13.254 13.305V240.978c0 4.322 3.49 7.826 7.797 7.826 4.306 0 7.796-3.504 7.796-7.826v-34.402c0-7.336 5.946-13.305 13.255-13.305 7.308 0 13.254 5.969 13.254 13.305v81.843c0 5.83-.523 11.667-1.556 17.349-.773 4.253 2.034 8.328 6.27 9.104a7.86 7.86 0 001.408.128 7.808 7.808 0 007.662-6.424 113.09 113.09 0 001.809-20.157v-81.843c0-15.966-12.94-28.957-28.847-28.957z"/><path fill="#000" d="M220.35 358.556c-17.812 16.634-41.048 25.795-65.424 25.795-36.572 0-70.48-21.3-86.383-54.264L32.535 255.46c-3.248-6.73-.725-14.93 5.742-18.668 6.686-3.863 15.392-1.638 19.41 4.96l25.467 41.825a7.815 7.815 0 0014.492-4.072v-76.68c0-4.321-3.5-7.824-7.817-7.824s-7.817 3.503-7.817 7.824v48.807l-10.975-18.024c-8.54-14.028-26.365-18.582-40.577-10.368-13.52 7.813-18.792 24.955-12.002 39.026l36.007 74.628a111.502 111.502 0 0041.159 46.023A111.352 111.352 0 00154.927 400c28.349 0 55.37-10.655 76.089-30.001a7.83 7.83 0 00.383-11.06 7.812 7.812 0 00-11.048-.383zM245.5 330a8.06 8.06 0 00-5.656 2.344A8.06 8.06 0 00237.5 338c0 2.112.856 4.168 2.344 5.656A8.06 8.06 0 00245.5 346a8.06 8.06 0 005.656-2.344A8.046 8.046 0 00253.5 338a8.06 8.06 0 00-2.344-5.656A8.06 8.06 0 00245.5 330zM89.5 186a8.06 8.06 0 005.656-2.344A8.06 8.06 0 0097.5 178a8.06 8.06 0 00-2.344-5.656A8.06 8.06 0 0089.5 170a8.06 8.06 0 00-5.656 2.344A8.06 8.06 0 0081.5 178a8.06 8.06 0 002.344 5.656A8.06 8.06 0 0089.5 186z"/></g></svg>
