<svg xmlns="http://www.w3.org/2000/svg" viewBox="0 0 400 400"><g fill="none" fill-rule="evenodd"><path fill="#E7EAEE" d="M310.505 41.546C231.273 41.546 176.863.504 138.684.504S20.322 22.451 20.322 198.087s107.87 201.409 149.862 201.409c196.644.011 280.642-357.95 140.321-357.95z"/><path fill="#F3F3F1" d="M306.233 317.411H94.32c-12.658 0-22.91-10.252-22.91-22.91v-171.82h257.732V294.5c0 12.658-10.252 22.91-22.91 22.91z"/><path fill="#FCCA75" d="M329.142 122.68H71.41v-17.182c0-12.657 10.252-22.91 22.91-22.91h211.913c12.657 0 22.909 10.253 22.909 22.91v17.182z"/><path fill="#D5DBE1" d="M100.047 294.502V122.68H71.41v171.822c0 12.657 10.252 22.91 22.91 22.91h28.636c-12.657 0-22.909-10.253-22.909-22.91z"/><path fill="#F3B141" d="M120.093 82.589H94.32c-12.658 0-22.91 10.252-22.91 22.91v17.181h25.773v-17.182c0-12.657 10.252-22.91 22.91-22.91z"/><path fill="#000" fill-rule="nonzero" d="M306.233 326.002H94.32c-17.377 0-31.501-14.123-31.501-31.5V105.498c0-17.377 14.124-31.5 31.5-31.5h211.914c17.376 0 31.5 14.123 31.5 31.5v189.004c0 17.377-14.124 31.5-31.5 31.5zM94.32 91.18C86.427 91.18 80 97.606 80 105.498v189.004c0 7.892 6.426 14.318 14.319 14.318h211.913c7.892 0 14.318-6.426 14.318-14.318V105.498c0-7.892-6.426-14.318-14.318-14.318H94.32z"/><path fill="#000" fill-rule="nonzero" d="M71.41 114.09h257.732v17.181H71.41V114.09zM17 308.82h366.552v17.182H17V308.82z"/><g stroke="#000" stroke-linecap="round" stroke-linejoin="round" stroke-width="17" transform="translate(138 159)"><circle cx="62.5" cy="61" r="24"/><path d="M86.601 36.6V67.1c0 10.106 8.26 18.299 18.45 18.299 10.189 0 18.449-8.193 18.449-18.3V61c-.002-28.346-19.69-52.955-47.522-59.397C48.148-4.84 19.51 8.583 6.858 34-5.794 59.417.875 90.13 22.954 108.127c22.08 17.998 53.749 18.538 76.439 1.304"/></g></g></svg>
