<svg xmlns="http://www.w3.org/2000/svg" viewBox="0 0 498.151 498.151"><path fill="#fdb441" d="M253.094 487.614l32.096 6.196c5.064.977 10.31.076 14.756-2.537l27.425-16.112c2.247-1.32 4.719-2.215 7.29-2.639l31.171-5.138c5.061-.834 9.647-3.475 12.91-7.433l21.054-25.541c1.75-2.123 3.897-3.886 6.321-5.188l26.96-14.491c4.57-2.456 8.081-6.503 9.867-11.375L454.441 372c.854-2.329 2.11-4.49 3.712-6.385l20.865-24.691c3.233-3.826 5.007-8.674 5.007-13.683v-32.733c0-2.536.455-5.052 1.344-7.428l11.439-30.577c1.792-4.79 1.792-10.066 0-14.855l-11.439-30.577c-.889-2.376-1.344-4.891-1.344-7.428V170.91c0-5.009-1.774-9.857-5.007-13.683l-20.865-24.691c-1.601-1.895-2.858-4.056-3.712-6.385l-11.498-31.357c-1.786-4.871-5.297-8.918-9.867-11.375l-26.96-14.491c-2.424-1.303-4.571-3.065-6.321-5.188L378.742 38.2c-3.262-3.958-7.849-6.598-12.91-7.433l-31.171-5.138c-2.572-.424-5.043-1.318-7.29-2.639L299.946 6.878c-4.446-2.612-9.693-3.514-14.756-2.537l-32.096 6.196c-2.654.512-5.382.512-8.036 0l-32.096-6.196c-5.064-.977-10.31-.076-14.756 2.537L170.781 22.99c-2.247 1.32-4.719 2.215-7.291 2.639l-31.171 5.138c-5.061.834-9.647 3.475-12.91 7.433L98.356 63.741c-1.75 2.123-3.897 3.886-6.321 5.188L65.075 83.42c-4.57 2.456-8.081 6.503-9.867 11.375L43.71 126.152c-.854 2.329-2.11 4.49-3.712 6.385l-20.865 24.691c-3.233 3.826-5.007 8.674-5.007 13.683v32.733c0 2.536-.455 5.052-1.344 7.428L1.344 241.648c-1.792 4.79-1.792 10.066 0 14.855l11.439 30.577c.889 2.376 1.344 4.891 1.344 7.428v32.733c0 5.009 1.774 9.857 5.007 13.683l20.865 24.691c1.601 1.895 2.858 4.056 3.712 6.385l11.498 31.357c1.786 4.871 5.297 8.918 9.867 11.375l26.96 14.491c2.424 1.303 4.571 3.065 6.321 5.188l21.054 25.541c3.262 3.958 7.849 6.598 12.91 7.433l31.171 5.138c2.572.424 5.043 1.318 7.291 2.639l27.425 16.112c4.446 2.612 9.693 3.514 14.756 2.537l32.096-6.196c2.652-.513 5.379-.513 8.034-.001z"/><circle cx="249.576" cy="249.076" r="203.418" fill="#f9dd58"/><path fill="#f7d348" d="M114.808 249.076c0-100.644 73.125-184.219 169.122-200.535-11.16-1.897-22.655-2.883-34.355-2.883-112.345 0-203.418 91.073-203.418 203.418s91.073 203.418 203.418 203.418c11.7 0 23.186-.986 34.346-2.883-95.996-16.317-169.113-99.891-169.113-200.535z"/><circle cx="249.576" cy="249.076" r="173.418" fill="#fae88b"/><g fill="#f9dd58"><path d="M201.582 82.412c-72.358 20.864-125.425 87.681-125.425 166.664s53.067 145.797 125.424 166.661c-52.474-36.785-86.774-97.711-86.774-166.661s34.301-129.88 86.775-166.664z"/><ellipse cx="197.685" cy="159.7" rx="32.457" ry="28.4"/><ellipse cx="165.228" cy="248.076" rx="19.962" ry="17.466"/><ellipse cx="322.249" cy="330.247" rx="30.22" ry="26.443"/></g><path fill="#fef0ae" d="M336.086 182.883c-3.264 6.321-8.176 11.13-14.712 14.411-3.068 1.54-3.248 5.887-.294 7.635 5.97 3.532 10.904 8.471 14.637 15.04 1.685 2.966 5.966 3.017 7.619.034 3.603-6.505 8.604-11.586 14.981-15.241 2.997-1.718 2.929-6.005-.101-7.663-6.004-3.284-10.819-8.065-14.4-14.398-1.731-3.062-6.116-2.943-7.73.182zM126.566 329.084c-3.839 7.434-9.615 13.088-17.301 16.948-3.607 1.811-3.82 6.923-.345 8.979 7.021 4.154 12.823 9.962 17.213 17.687 1.982 3.488 7.016 3.548 8.96.04 4.238-7.65 10.119-13.625 17.618-17.923 3.525-2.02 3.445-7.062-.119-9.012-7.061-3.862-12.723-9.484-16.934-16.932-2.037-3.602-7.194-3.462-9.092.213z"/></svg>
