<svg xmlns="http://www.w3.org/2000/svg" viewBox="0 0 404 400"><g fill="none" fill-rule="evenodd"><path fill="#F9F3F1" d="M313.765354 218.985039c-9.084252-24.645669-22.804724-47.784252-40.05433-67.746456l32.151968-31.944095c6.458268-6.416535 6.458268-16.8204723 0-23.2370077-6.458268-6.4165354-16.929921-6.4165354-23.388976 0l-32.151969 31.9440947c-20.090551-17.137008-43.380315-30.7692916-68.187401-39.7952758-8.577166-3.1228347-18.077166 1.2574803-21.217323 9.7795275-3.140945 8.5212603 1.265354 17.9590553 9.842519 21.0795273 20.322835 7.394488 39.447245 18.425197 56.096851 32.251181l-28.473228 28.288977C178.290551 162.466929 155 148.834646 130.194488 139.811024c-8.57874-3.122835-18.076378 1.25748-21.216535 9.779527-3.1409451 8.522047 1.266929 17.959055 9.844094 21.079528 20.320473 7.392913 39.444095 18.422834 56.096063 32.250393l-28.473228 28.288977c-20.092914-17.13937-43.3826773-30.771654-68.1881891-39.795276-8.5771654-3.122047-18.0755906 1.257481-21.2165354 9.779528-3.1409449 8.522047 1.2669291 17.959842 9.8440944 21.079527 20.3212599 7.392914 39.4448821 18.422835 56.0960631 32.250394l-21.4228347 21.284252c-6.4582677 6.416535-6.4582677 16.820472 0 23.237008 3.2291338 3.208661 7.4622047 4.813386 11.6944877 4.813386 4.232284 0 8.464567-1.604725 11.694489-4.813386l21.422834-21.284252c13.916536 16.543307 25.018898 35.544094 32.459843 55.733071 2.453543 6.656693 8.787401 10.785827 15.531496 10.785827 1.888189 0 3.809449-.323623 5.685827-1.007087 8.577165-3.120473 12.984252-12.55748 9.842519-21.079528-9.083464-24.645669-22.804724-47.785039-40.05433-67.746456l28.473228-28.288977c13.916535 16.543307 25.01811 35.543307 32.459843 55.733859 2.453543 6.656692 8.787401 10.785826 15.531496 10.785826 1.888189 0 3.809448-.323622 5.685826-1.007086 8.577166-3.120473 12.984252-12.558268 9.84252-21.079528-9.083465-24.645669-22.803937-47.785039-40.053543-67.747244l28.473228-28.288976c13.916536 16.543307 25.01811 35.542519 32.459843 55.733071 2.453543 6.658267 8.787401 10.785826 15.531496 10.785826 1.888189 0 3.809448-.323622 5.685826-1.007086 8.575591-3.12126 12.982678-12.559843 9.840945-21.081103z"/><g fill="#F3EAE6"><path d="M169.83385828 254.444882c-5.52362204 1.911811-7.79448819 8.484251-4.63464567 13.399212 8.63070869 13.423622 15.81259839 27.765354 21.30157479 42.658268 2.984252 8.097638-.8535433 17.009449-8.6 20.555118.311811.810236.6283465 1.619685.9283465 2.434646 2.4535433 6.656693 8.7874015 10.785826 15.531496 10.785826 1.888189 0 3.8094489-.323622 5.6858268-1.007086 8.5771654-3.120473 12.984252-12.557481 9.8425197-21.079528-9.084252-24.645669-22.8055118-47.785039-40.05511812-67.746456zM273.711024 151.23936972c-5.144095 3.23543307-6.740945 10.03543308-3.503937 15.17716538 8.128346 12.9094488 14.922834 26.6433071 20.170078 40.8795275 2.984252 8.0968504-.853543 17.0094488-8.6 20.5551181.311811.8110237.628347 1.6196851.928347 2.4346457 2.453543 6.6582677 8.787401 10.7858268 15.531496 10.7858268 1.888189 0 3.809449-.3236221 5.685827-1.0062992 8.577165-3.1204725 12.984252-12.5582677 9.842519-21.0795276-9.083464-24.6464567-22.804724-47.7850394-40.05433-67.74645668zM221.7732284 202.8417319c-5.2031496 3.0440945-6.9007874 9.8-3.6811024 14.8952756 8.2070866 12.9913386 15.0622047 26.8220473 20.3472441 41.1622045 2.984252 8.096851-.8535433 17.009449-8.6 20.555118.311811.811024.6283465 1.619685.9283465 2.434646 2.4535433 6.656693 8.7874015 10.785827 15.531496 10.785827 1.888189 0 3.8094488-.323622 5.6858268-1.006299 8.5771653-3.120473 12.9842516-12.558268 9.8425197-21.079528-9.084252-24.6456693-22.8047244-47.7850394-40.0543307-67.7472441z"/></g><path fill="#9E9797" d="M248.266929 68.7708661c-18.393701-13.4716535-13.367716-42.0102362 8.585039-48.315748 16.290552-4.6787402 34.26378-8.72755907 53.479528-11.30944883 23.851181-3.20551181 44.685039-3.48976378 62.148032-2.40393701 14.498425.9015748 25.859055 12.81023624 25.821259 27.24251964-.055118 21.2062993-1.706299 45.9858268-6.342519 73.9149611-2.138583 12.880315-4.712599 25.235433-7.562205 36.977165-5.46063 22.500787-34.80315 28.37559-48.795276 9.870866-10.91496-14.434646-23.545669-29.22126-38.159055-43.835433-16.398425-16.3976378-33.03622-30.3204724-49.174803-42.1409449z"/><path fill="#766E6E" d="M372.479528 6.74094486c-.843308-.05275591-1.700788-.0984252-2.559843-.14488189 3.161417 4.44803149 5.008661 9.86614173 4.993701 15.69763783-.055118 21.2055118-1.706299 45.9858267-6.34252 73.9149606-2.138583 12.8803146-4.712598 25.2354326-7.562205 36.9771656-3.167716 13.051968-14.372441 20.495275-25.95433 20.844882.181102.238582.365354.477952.545669.715748 13.992913 18.504724 43.335433 12.629134 48.796063-9.870866 2.849606-11.740945 5.423622-24.096851 7.562205-36.977166 4.63622-27.9291337 6.288189-52.7086612 6.342519-73.9149605.037008-14.4322834-11.323622-26.34094484-25.821259-27.24251964z"/><path fill="#9E9797" d="M14.08818895 325.556693c-12.88346456-9.436221-9.36299212-29.425197 6.01338585-33.841732 11.4102362-3.277166 23.9992126-6.112599 37.4590551-7.922048 16.7055118-2.244882 31.2984252-2.444094 43.5299213-1.684252 10.1551178.631496 18.1118108 8.972441 18.0858268 19.08189-.038583 14.853543-1.195276 32.209449-4.44252 51.771654-1.497638 9.022047-3.300787 17.67559-5.29685 25.9-3.8244096 15.759842-24.3771655 19.87559-34.1779529 6.914173-7.6456693-10.111024-16.492126-20.467717-26.7275591-30.703937-11.4850393-11.484252-23.1385826-21.236221-34.44330705-29.515748z"/><path fill="#766E6E" d="M101.0905512 282.109449c-2.2299213-.138583-4.5409449-.244095-6.9267717-.312599 1.0496063 2.36063 1.6322835 4.96693 1.6251969 7.704725-.0385827 14.853543-1.1952756 32.210236-4.4425197 51.772441-1.4976378 9.022047-3.3007874 17.67559-5.2968504 25.899212-1.8590551 7.659843-7.6708662 12.557481-14.2771654 14.092914 1.1858268 1.507874 2.3543307 3.012598 3.4866142 4.511023 9.8007874 12.961418 30.3535433 8.84567 34.1779529-6.914173 1.996063-8.223622 3.799212-16.877953 5.29685-25.899212 3.247244-19.562205 4.403937-36.918898 4.44252-51.772441.025984-10.109449-7.930709-18.451182-18.0858268-19.08189z"/><path fill="#000" fill-rule="nonzero" d="M372.394488 1.32677165c-20.429134-1.26929133-41.689764-.4488189-63.188189 2.44173229-17.842519 2.4-36.087401 6.25826776-54.228346 11.47165356-12.280315 3.5283464-21.292914 13.4913386-23.52126 26.0023622-2.232284 12.5307086 2.792126 25.0125984 13.111811 32.5732283 17.174803 12.584252 33.464567 26.548819 48.416535 41.506299 1.414961 1.415748 2.816536 2.849607 4.213386 4.288977l-27.888189 27.718897c-2.174016 2.16063-2.306299 5.635433-.303149 7.955118 16.723622 19.369292 30.186614 42.148032 38.930708 65.867717 1.987402 5.391338-.932283 11.576378-6.353543 13.548031-5.458268 1.98504-11.707087-.864567-13.706299-6.294488-7.679528-20.856693-18.92126-40.170866-33.411811-57.406299-2.159843-2.568504-6.217323-2.756693-8.582677-.383465l-28.432284 28.253544c-2.174803 2.161417-2.307087 5.637008-.30315 7.956693 16.729922 19.368504 30.191339 42.143307 38.930709 65.862992 1.988977 5.397638-.925197 11.570079-6.349606 13.553543-5.441732 1.989764-11.704725-.881102-13.704725-6.304724-7.588189-20.580315-19.144881-40.426772-33.419685-57.396851-2.16063-2.568504-6.214173-2.76063-8.581889-.382677l-28.42441 28.253543c-2.174803 2.161418-2.306299 5.637008-.301575 7.956693 16.729134 19.36063 30.190552 42.134646 38.930709 65.86378 1.991339 5.405512-.941732 11.566929-6.362205 13.554331-5.435433 1.992126-11.696063-.891339-13.692126-6.3063-7.688976-20.86063-18.933071-40.174803-33.418897-57.403937-2.159843-2.568504-6.214174-2.761417-8.582677-.384252l-6.712599 6.671654c-2.286614 2.271653-2.298425 5.968504-.025984 8.255118 2.273228 2.286614 5.969291 2.297638 8.255118.025984l2.131496-2.11811c11.584252 14.816535 21.000787 31.634646 27.39685 48.987402 4.171654 11.317322 17.247245 17.423622 28.656693 13.238582 11.359055-4.166929 17.461418-17.279527 13.307874-28.555905-8.598425-23.346457-21.527559-45.813386-37.540157-65.293701l20.031496-19.910236c11.577953 14.803149 20.993701 31.618897 27.39685 48.984252 4.174016 11.319685 17.244095 17.405512 28.658268 13.23622 11.38189-4.15748 17.47874-17.231496 13.305512-28.558267-8.599213-23.338583-21.527559-45.805512-37.540158-65.291339l20.038583-19.911811c11.587402 14.82126 21.000787 31.637795 27.391339 48.993701 3.218897 8.725984 11.653543 14.588976 20.988976 14.588976 8.552756 0 16.675591-5.155905 20.28189-12.92126 2.500787-5.385039 2.750393-11.41811.7-16.992913-8.604725-23.34252-21.533858-45.811811-37.540945-65.297638l23.855905-23.711024c8.911024 9.714961 17.405512 19.880315 25.346457 30.385827 6.448032 8.530709 16.226772 13.311811 26.588976 13.311811 2.302363 0 4.635434-.23622 6.965355-.719685 12.682677-2.632283 22.450394-12.056693 25.492126-24.595275 3.019685-12.447245 5.588189-25.014174 7.63622-37.351969 4.191339-25.2574802 6.348032-50.4110235 6.411024-74.762992.045669-17.4433071-13.683465-31.96141736-31.254331-33.05354335zM385.720472 107.229134c-2.000787 12.056693-4.511811 24.340157-7.463779 36.510236-1.997638 8.233858-8.173228 14.184252-16.518898 15.915748-8.355905 1.737008-16.734645-1.408661-21.868504-8.2-25.084252-33.182677-54.796063-62.4385826-88.4-87.0582676-6.800787-4.9826772-9.985039-12.8740158-8.51811-21.1086614 1.462992-8.2133859 7.164567-14.5047244 15.251969-16.8283465 17.595275-5.0551181 35.27874-8.7968504 52.559842-11.1204724 20.605512-2.7708662 40.591339-3.6244095 60.907874-2.3606299 11.414961.7102362 20.333858 10.0952755 20.304725 21.3677165-.062205 23.7244094-2.16693 48.2448819-6.255119 72.8826773zM126.66378 250.130709c-17.329922-14.392126-36.7566934-25.56378-57.7433076-33.20315-5.4251968-1.974803-8.3417322-8.138583-6.3480315-13.548031 2.0236221-5.489764 8.1771654-8.317323 13.7125985-6.301575 23.8614173 8.684252 46.7834646 22.067716 66.2889766 38.704724 2.311811 1.972441 5.749606 1.841732 7.903149-.300787l28.42441-28.253544c2.413386-2.373228 2.213386-6.47244-.385827-8.630708-17.340157-14.401575-36.766929-25.574016-57.743307-33.211024-5.42441-1.974803-8.333858-8.129921-6.340158-13.541732 2.022835-5.491339 8.170079-8.31811 13.704725-6.300788 23.886614 8.692126 46.808661 22.074016 66.288189 38.696063 2.311023 1.972441 5.748819 1.84252 7.903937-.3l28.424409-28.253543c2.412599-2.372441 2.213386-6.470866-.384252-8.629921-17.31811-14.389764-36.743307-25.561417-57.733071-33.202362-5.426771-1.975591-8.348031-8.134646-6.351968-13.551969 2.023622-5.4921258 8.174803-8.3188974 13.712598-6.3007872 23.881103 8.6905512 46.8 22.0748032 66.279528 38.7039372 2.311024 1.972441 5.749606 1.842519 7.905512-.299213l15.072441-14.979527c2.286614-2.272441 2.297638-5.968504.025197-8.255118-2.273229-2.286615-5.969292-2.297638-8.255906-.025197l-11.304724 11.234645c-19.604725-15.931496-42.222835-28.7952752-65.726772-37.3496059-11.564567-4.2149607-24.422047 1.7220472-28.662992 13.2338582-2.051181 5.5637797-1.807087 11.5929137.688976 16.9771657 2.510236 5.416535 6.992126 9.529134 12.622047 11.581889 17.454331 6.353544 34.359056 15.698426 49.246457 27.189764l-20.020472 19.9c-19.605512-15.924409-42.226772-28.785827-65.734646-37.340945-11.558268-4.212598-24.414173 1.722048-28.654331 13.233071-2.053543 5.569292-1.807874 11.60315.690552 16.988977 2.510236 5.411811 6.990551 9.51811 12.612598 11.562204 17.44252 6.348819 34.348031 15.696063 49.252756 27.198426l-20.020473 19.9c-19.625984-15.937796-42.248031-28.802363-65.7370074-37.351182-11.5622048-4.205511-24.4181103 1.733071-28.66063 13.240945-2.0488189 5.575591-1.7984252 11.612599.703937 16.998425 2.5125985 5.407875 6.9913386 9.511024 12.6086615 11.554331 17.4503937 6.351969 34.3566929 15.696851 49.2535429 27.191339-3.220472 3.230708-17.9196847 17.143307-20.1196847 20.948819-12.1330708-.330709-24.6173228.340945-37.2220472 2.03622-12.5795276 1.691339-25.4433071 4.411811-38.2322835 8.086614-9.24724408 2.658268-16.03464566 10.162992-17.71338581 19.588189-1.68110236 9.438583 2.1015748 18.838583 9.87244091 24.532284 11.9559055 8.759842 23.2976378 18.482677 33.7094489 28.897638 9.3488188 9.351968 18.1488188 19.465354 26.1566929 30.05748 5.9937008 7.928346 15.7519685 11.448819 25.2527559 9.477953 9.5511806-1.98189 16.9078736-9.081103 19.1999996-18.526772 2.12441-8.75748 3.933071-17.602362 5.374016-26.288189 2.951181-17.783465 4.470079-35.496063 4.514173-52.648031.028347-10.855119-7.025197-20.200788-16.937008-23.588189l19.014174-18.90315c2.412598-2.372441 2.211023-6.472441-.386614-8.629921zm-13.366142 51.091338c-.04252 16.523622-1.508662 33.603937-4.356693 50.766929-1.394488 8.404725-3.144882 16.96693-5.202362 25.447244-1.236221 5.094489-5.0590554 8.775591-10.2259846 9.848032-5.2622047 1.088976-10.3338582-.809449-13.5669291-5.086614-8.3299213-11.019685-17.4858268-21.540945-27.2133858-31.272441C41.9 340.089764 30.1023622 329.975591 17.6661417 320.864567c-4.2125984-3.086614-6.1858267-7.971654-5.2779527-13.067717.9047244-5.081102 4.435433-8.974015 9.4440945-10.413385 12.2440945-3.517323 24.5456693-6.12126 36.5645669-7.736221 14.419685-1.93937 28.6590551-2.490551 42.3196846-1.641732 7.073229.440157 12.599213 6.244882 12.581103 13.216535zM361.203937 59.1708661h-18.704724V40.4653543c0-3.2244094-2.613386-5.8377952-5.837796-5.8377952-3.224409 0-5.837795 2.6133858-5.837795 5.8377952v18.7047244H312.11811c-3.223622 0-5.837795 2.6133859-5.837795 5.8377953 0 3.2244095 2.613386 5.8377953 5.837795 5.8377953h18.705512v18.7055118c0 3.2244095 2.613386 5.8377953 5.837795 5.8377953 3.22441 0 5.837796-2.6133858 5.837796-5.8377953V70.8456693h18.704724c3.223622 0 5.837795-2.6133858 5.837795-5.8377953-.000787-3.2244094-2.614173-5.8370079-5.837795-5.8370079z"/></g></svg>
