<svg xmlns="http://www.w3.org/2000/svg" viewBox="0 0 400 400"><g fill="none" fill-rule="evenodd"><path fill="#FCCA75" d="M347.253 146.366v155.593a26.694 26.694 0 01-7.819 18.846l-64.47 64.37a26.778 26.778 0 01-18.876 7.807H79.983a26.386 26.386 0 01-18.853-7.821 26.303 26.303 0 01-7.608-18.915v-219.88h293.731z"/><path fill="#F3B141" d="M344.246 313.784a26.382 26.382 0 01-5.38 7.768l-64.046 64.045a26.382 26.382 0 01-7.767 5.38v-50.666c.001-14.65 11.877-26.525 26.526-26.527h50.667z"/><path fill="#95D6A4" d="M120.687 59.738h26.638v46.646h-26.638z"/><path fill="#CEBFE2" d="M200.6 146.366V99.72h-26.637v46.646"/><path fill="#9E9797" d="M227.239 33.083h26.638v46.646h-26.638z"/><path fill="#F3B141" d="M280.515 119.711h26.638v26.655h-26.638z"/><path fill="#000" fill-rule="nonzero" d="M55.947 390.109a32.937 32.937 0 0023.662 9.89h175.915a33.124 33.124 0 0023.578-9.766l64.4-64.4a33.125 33.125 0 009.766-23.578V146.584a6.669 6.669 0 00-6.669-6.669h-6.669v-20.007h-13.337v20.007h-13.338v-20.007a6.669 6.669 0 00-6.669-6.668h-26.675a6.669 6.669 0 00-6.669 6.668v20.007h-13.337V99.902h-13.338v40.013H233.23V99.902h-13.338v40.013h-13.338V99.902a6.669 6.669 0 00-6.668-6.669H173.21a6.669 6.669 0 00-6.669 6.669v40.013h-13.337v-13.338h-13.338v13.338H126.53v-13.338H113.19v13.338H99.853V93.233H86.516v46.682H73.178v-20.007H59.841v20.007h-6.67a6.67 6.67 0 00-6.668 6.669l.004 219.948a32.682 32.682 0 009.44 23.577zM286.58 126.577h13.338v13.338H286.58v-13.338zm-106.7-20.006h13.337v33.344h-13.338v-33.344zm160.05 46.682v149.002a19.877 19.877 0 01-5.86 14.147l-60.828 60.83V339.98c.013-11.044 8.963-19.994 20.007-20.006h20.006v-13.338H293.25c-18.407.02-33.323 14.937-33.344 33.344v46.198a20.164 20.164 0 01-4.38.484H79.608a19.698 19.698 0 01-14.155-5.907 19.444 19.444 0 01-5.61-14.062v-.11l-.005-213.33h280.092z"/><path fill="#000" fill-rule="nonzero" d="M113.67 106.6a6.683 6.683 0 006.683 6.683h26.733a6.683 6.683 0 006.683-6.683V59.816a6.683 6.683 0 00-6.683-6.683h-26.733a6.683 6.683 0 00-6.684 6.683V106.6zm13.366-40.1h13.367v33.416h-13.367V66.5z"/><path fill="#000" d="M86.602 0h13.032v80.2H86.602zM60.536 0H73.57v27.068H60.536zM60.536 40.1H73.57v67.168H60.536zM327.203 0h13.033v27.068h-13.033zM327.203 40.1h13.033v67.168h-13.033zM113.67 0h13.032v40.1h-13.033zM140.737 0h13.032v13.033h-13.032zM140.737 27.068h13.032V40.1h-13.032zM166.802 47.118h13.033V80.2h-13.033zM193.87 0h13.032v47.118H193.87zM193.87 60.15h13.032V80.2H193.87zM166.802 0h13.033v33.083h-13.033z"/><path fill="#000" fill-rule="nonzero" d="M219.935 80.535a6.683 6.683 0 006.683 6.683h26.734a6.683 6.683 0 006.683-6.683V33.75a6.683 6.683 0 00-6.683-6.683h-26.734a6.683 6.683 0 00-6.683 6.683v46.784zm13.367-40.1h13.366V73.85h-13.366V40.434z"/><path fill="#000" d="M220.937 0h13.033v13.033h-13.033zM247.003 0h13.032v13.033h-13.032zM274.07 40.1h13.033v60.15H274.07zM300.135 0h13.033v67.168h-13.033zM300.135 80.2h13.033v20.05h-13.033zM274.07 0h13.033v27.068H274.07zM126.702 186.466h20.05V199.5h-20.05zM160.787 186.466h93.233V199.5h-93.233zM267.053 186.466h40.1V199.5h-40.1zM93.619 226.566h40.1V239.6h-40.1zM146.752 226.566h106.266V239.6H146.752zM93.619 306.767h73.183v13.032H93.619zM179.835 306.767h67.168v13.032h-67.168zM93.619 346.867h20.05V359.9H93.62zM219.935 346.867h27.068V359.9h-27.068zM126.702 346.867h80.2V359.9h-80.2zM267.053 226.566h40.1V239.6h-40.1zM93.619 266.667h13.033v13.032H93.619zM120.687 266.667h93.233v13.032h-93.233zM226.952 266.667h80.2v13.032h-80.2z"/></g></svg>
