<svg xmlns="http://www.w3.org/2000/svg" viewBox="0 0 400 400"><g fill="none" fill-rule="evenodd"><path fill="#F9F3F1" d="M311.621 220.272c-8.992-24.391-22.572-47.291-39.646-67.048l31.824-31.614c6.393-6.35 6.393-16.647 0-22.998-6.392-6.35-16.757-6.35-23.15 0l-31.825 31.615c-19.886-16.96-42.94-30.452-67.494-39.385-8.49-3.09-17.893 1.244-21.001 9.679-3.11 8.433 1.252 17.774 9.742 20.862 20.116 7.318 39.046 18.235 55.526 31.919l-28.183 27.997c-19.889-16.962-42.942-30.454-67.495-39.384-8.492-3.091-17.893 1.244-21 9.678-3.11 8.435 1.253 17.774 9.743 20.863 20.114 7.316 39.043 18.233 55.525 31.918l-28.183 27.997c-19.889-16.963-42.941-30.455-67.494-39.385-8.49-3.09-17.892 1.244-21.001 9.679-3.109 8.434 1.254 17.774 9.744 20.862 20.114 7.316 39.043 18.233 55.525 31.918l-21.205 21.065c-6.392 6.35-6.392 16.647 0 22.997a16.375 16.375 0 0011.576 4.764c4.189 0 8.378-1.588 11.575-4.764l21.205-21.065c13.775 16.373 24.764 35.178 32.13 55.159 2.428 6.588 8.697 10.674 15.373 10.674 1.869 0 3.77-.32 5.628-.996 8.49-3.089 12.852-12.428 9.742-20.863-8.99-24.391-22.573-47.292-39.647-67.048l28.184-27.997c13.775 16.373 24.763 35.177 32.13 55.16 2.428 6.587 8.697 10.674 15.373 10.674 1.869 0 3.77-.32 5.628-.997 8.49-3.088 12.852-12.429 9.742-20.862-8.991-24.392-22.572-47.292-39.646-67.049L248.75 176.3c13.774 16.373 24.763 35.176 32.129 55.158 2.429 6.59 8.698 10.675 15.373 10.675 1.87 0 3.771-.32 5.628-.997 8.489-3.089 12.85-12.43 9.741-20.864z"/><g fill="#F3EAE6"><path d="M169.155 255.367c-5.468 1.892-7.716 8.397-4.588 13.26 8.543 13.286 15.652 27.48 21.085 42.22 2.954 8.013-.845 16.833-8.513 20.343.31.801.622 1.603.92 2.41 2.428 6.587 8.697 10.674 15.373 10.674 1.869 0 3.77-.32 5.628-.997 8.49-3.088 12.852-12.428 9.742-20.862-8.992-24.392-22.573-47.293-39.647-67.048zM271.975 153.225c-5.092 3.202-6.673 9.932-3.469 15.02 8.046 12.777 14.771 26.37 19.965 40.459 2.954 8.013-.845 16.834-8.512 20.343.308.803.622 1.603.918 2.41 2.43 6.59 8.698 10.674 15.374 10.674 1.869 0 3.77-.32 5.628-.996 8.49-3.088 12.852-12.428 9.742-20.862-8.99-24.392-22.572-47.292-39.646-67.048zM220.565 204.296c-5.15 3.012-6.83 9.699-3.643 14.741 8.123 12.858 14.909 26.546 20.14 40.738 2.954 8.014-.845 16.834-8.513 20.343.31.803.622 1.603.92 2.41 2.428 6.588 8.697 10.675 15.373 10.675 1.869 0 3.77-.32 5.628-.996 8.49-3.089 12.852-12.43 9.742-20.863-8.992-24.391-22.573-47.292-39.647-67.048z"/></g><path fill="#9E9797" d="M246.79 71.607c-18.207-13.333-13.232-41.577 8.497-47.818 16.125-4.63 33.915-8.637 52.935-11.193 23.609-3.172 44.23-3.453 61.516-2.379 14.35.893 25.596 12.678 25.558 26.962-.054 20.988-1.689 45.512-6.278 73.153a508.108 508.108 0 01-7.485 36.596c-5.405 22.269-34.449 28.083-48.299 9.769a417.128 417.128 0 00-37.77-43.384 418.54 418.54 0 00-48.675-41.706z"/><path fill="#766E6E" d="M369.738 10.216c-.835-.052-1.684-.097-2.534-.143a26.606 26.606 0 014.943 15.536c-.055 20.987-1.69 45.512-6.278 73.153a508.108 508.108 0 01-7.485 36.596c-3.136 12.917-14.227 20.284-25.69 20.63l.54.708c13.85 18.314 42.894 12.5 48.299-9.769a508.022 508.022 0 007.485-36.596c4.59-27.641 6.224-52.165 6.278-73.153.037-14.283-11.208-26.07-25.558-26.962z"/><path fill="#9E9797" d="M14.994 325.745c-12.752-9.338-9.268-29.121 5.952-33.492 11.294-3.244 23.755-6.05 37.078-7.84 16.536-2.223 30.98-2.42 43.087-1.668 10.052.625 17.927 8.88 17.902 18.886-.038 14.7-1.183 31.877-4.398 51.237a355.665 355.665 0 01-5.242 25.633c-3.786 15.598-24.13 19.671-33.83 6.843a292.197 292.197 0 00-26.456-30.387 293.126 293.126 0 00-34.093-29.212z"/><path fill="#766E6E" d="M101.111 282.746a205.9 205.9 0 00-6.856-.31 18.599 18.599 0 011.608 7.626c-.038 14.7-1.183 31.878-4.397 51.239a355.555 355.555 0 01-5.243 25.632c-1.84 7.58-7.593 12.428-14.132 13.948a293.107 293.107 0 013.451 4.464c9.701 12.828 30.045 8.755 33.83-6.843a355.641 355.641 0 005.243-25.632c3.215-19.36 4.36-36.538 4.398-51.239.025-10.005-7.85-18.26-17.902-18.885z"/><path fill="#000" fill-rule="nonzero" d="M369.067 3.574c-20.219-1.258-41.26-.445-62.538 2.42-17.659 2.379-35.716 6.203-53.67 11.37-12.154 3.498-21.074 13.373-23.28 25.774-2.209 12.421 2.764 24.793 12.978 32.287a413.792 413.792 0 0147.918 41.142c1.4 1.403 2.787 2.824 4.17 4.25l-27.601 27.476a5.792 5.792 0 00-.3 7.885c16.551 19.2 29.876 41.778 38.53 65.289 1.967 5.344-.923 11.474-6.288 13.429-5.402 1.967-11.587-.857-13.566-6.24-7.6-20.673-18.726-39.817-33.068-56.901-2.137-2.546-6.153-2.732-8.494-.38l-28.14 28.005a5.793 5.793 0 00-.3 7.887c16.558 19.198 29.881 41.773 38.53 65.284 1.969 5.35-.915 11.468-6.284 13.434-5.386 1.972-11.584-.873-13.564-6.25-7.51-20.399-18.947-40.07-33.075-56.891-2.139-2.546-6.15-2.737-8.494-.38L164.4 250.47a5.792 5.792 0 00-.298 7.887c16.557 19.19 29.88 41.764 38.53 65.285 1.97 5.358-.932 11.465-6.297 13.435-5.38 1.975-11.576-.884-13.551-6.25-7.61-20.678-18.738-39.822-33.075-56.9-2.138-2.546-6.15-2.737-8.494-.381l-6.644 6.613a5.792 5.792 0 00-.026 8.183 5.772 5.772 0 008.17.025l2.11-2.1c11.465 14.687 20.785 31.357 27.115 48.557 4.129 11.218 17.07 17.27 28.362 13.123 11.242-4.13 17.281-17.128 13.17-28.305-8.51-23.141-21.305-45.41-37.153-64.72l19.825-19.735c11.459 14.673 20.778 31.34 27.115 48.554 4.131 11.22 17.067 17.252 28.363 13.12 11.265-4.121 17.3-17.08 13.169-28.308-8.51-23.133-21.306-45.402-37.154-64.717l19.833-19.737c11.468 14.691 20.784 31.36 27.109 48.563 3.186 8.65 11.534 14.46 20.773 14.46 8.465 0 16.504-5.11 20.073-12.807a21.857 21.857 0 00.693-16.843c-8.516-23.138-21.312-45.41-37.155-64.724l23.61-23.502a413.51 413.51 0 0125.086 30.118c6.382 8.456 16.06 13.195 26.316 13.195 2.278 0 4.587-.234 6.893-.713 12.553-2.61 22.22-11.95 25.23-24.38a517.199 517.199 0 007.558-37.023c4.148-25.035 6.283-49.968 6.345-74.105.045-17.29-13.543-31.68-30.933-32.763zm13.189 104.97a505.478 505.478 0 01-7.387 36.19c-1.977 8.162-8.09 14.06-16.349 15.776-8.27 1.722-16.562-1.396-21.643-8.128a422.977 422.977 0 00-87.49-86.293c-6.731-4.939-9.883-12.76-8.431-20.923 1.448-8.141 7.09-14.377 15.095-16.68 17.414-5.01 34.916-8.72 52.019-11.023 20.393-2.746 40.174-3.592 60.281-2.34 11.298.704 20.125 10.007 20.096 21.18-.062 23.516-2.145 47.82-6.191 72.242zM125.866 250.19c-17.152-14.266-36.38-25.339-57.15-32.911-5.37-1.958-8.256-8.067-6.283-13.43 2.003-5.44 8.093-8.243 13.572-6.245 23.616 8.608 46.302 21.873 65.607 38.364a5.769 5.769 0 007.822-.298l28.131-28.005c2.389-2.353 2.191-6.416-.381-8.555-17.162-14.275-36.389-25.35-57.15-32.919-5.368-1.957-8.248-8.058-6.274-13.423 2.002-5.443 8.086-8.245 13.563-6.245 23.641 8.616 46.327 21.88 65.606 38.356a5.77 5.77 0 007.823-.298l28.132-28.005c2.388-2.351 2.19-6.414-.38-8.554-17.14-14.263-36.366-25.336-57.14-32.91-5.37-1.958-8.262-8.063-6.286-13.433 2.003-5.444 8.09-8.246 13.571-6.245 23.636 8.614 46.319 21.88 65.598 38.363a5.773 5.773 0 007.824-.296l14.917-14.848a5.792 5.792 0 00.025-8.183 5.772 5.772 0 00-8.17-.025l-11.189 11.136c-19.403-15.791-41.788-28.542-65.05-37.021-11.446-4.178-24.171 1.707-28.368 13.117a21.837 21.837 0 00.681 16.828c2.485 5.37 6.92 9.446 12.493 11.48 17.274 6.298 34.005 15.56 48.74 26.951l-19.815 19.725c-19.404-15.784-41.792-28.533-65.058-37.012-11.44-4.176-24.163 1.706-28.36 13.116a21.844 21.844 0 00.684 16.84c2.484 5.364 6.918 9.434 12.482 11.46 17.264 6.293 33.995 15.558 48.746 26.96l-19.814 19.725c-19.424-15.798-41.813-28.55-65.06-37.023-11.444-4.169-24.167 1.718-28.366 13.124a21.871 21.871 0 00.696 16.85c2.487 5.36 6.92 9.427 12.48 11.452 17.27 6.296 34.002 15.559 48.746 26.952-3.187 3.203-17.735 16.993-19.913 20.765-12.008-.328-24.364.338-36.839 2.018-12.45 1.677-25.181 4.373-37.838 8.016-9.153 2.635-15.87 10.074-17.532 19.416-1.663 9.355 2.08 18.673 9.771 24.316a288.115 288.115 0 0133.363 28.644 287.534 287.534 0 0125.887 29.793c5.932 7.859 15.59 11.348 24.993 9.395 9.453-1.965 16.734-9.001 19.003-18.364a363.61 363.61 0 005.318-26.057c2.921-17.627 4.424-35.184 4.468-52.185.028-10.76-6.953-20.023-16.763-23.381l18.819-18.737c2.388-2.352 2.188-6.416-.383-8.554zm-13.23 50.642c-.041 16.378-1.492 33.309-4.311 50.32a351.916 351.916 0 01-5.149 25.224c-1.224 5.05-5.007 8.699-10.12 9.762-5.209 1.079-10.228-.803-13.428-5.042a299.072 299.072 0 00-26.933-30.998 299.643 299.643 0 00-34.706-29.796c-4.169-3.06-6.122-7.902-5.223-12.953.895-5.036 4.39-8.895 9.347-10.322 12.118-3.486 24.293-6.067 36.188-7.668 14.271-1.922 28.364-2.469 41.884-1.627 7 .436 12.47 6.19 12.452 13.1zM357.993 60.91H339.48V42.37a5.782 5.782 0 00-5.778-5.787 5.782 5.782 0 00-5.778 5.786v18.54h-18.513a5.782 5.782 0 00-5.778 5.787 5.782 5.782 0 005.778 5.786h18.513v18.541a5.782 5.782 0 005.778 5.787 5.782 5.782 0 005.778-5.787v-18.54h18.512c3.19 0 5.778-2.591 5.778-5.787a5.782 5.782 0 00-5.778-5.786z"/></g></svg>
