<svg xmlns="http://www.w3.org/2000/svg" viewBox="0 0 400 400"><g fill="none" fill-rule="evenodd"><path fill="#D6CED1" d="M314.299 6.439L279.958 199.61l34.341 193.171h34.342V6.44z"/><path fill="#ECE7EA" d="M314.303 6.439v386.342H51.693V66.536l42.927-17.17L111.79 6.44z"/><path fill="#D6CED1" d="M111.79 6.439v60.097H51.694z"/><path fill="#F14742" d="M94.618 264.001h71.205v68.683H94.618z"/><path fill="#000" d="M348.64 0h-8.586a6.438 6.438 0 00-6.439 6.439 6.438 6.438 0 006.44 6.439h2.146v373.464h-2.147a6.438 6.438 0 00-6.439 6.44 6.438 6.438 0 006.44 6.438h8.585a6.438 6.438 0 006.439-6.439V6.44A6.439 6.439 0 00348.639 0zM271.372 120.196H94.622a6.438 6.438 0 00-6.44 6.439 6.438 6.438 0 006.44 6.439H271.37a6.438 6.438 0 006.44-6.44 6.438 6.438 0 00-6.438-6.438zM271.372 223.22H94.622a6.438 6.438 0 00-6.44 6.44 6.438 6.438 0 006.44 6.438H271.37a6.438 6.438 0 006.44-6.439 6.438 6.438 0 00-6.438-6.439zM271.372 257.562h-71.205a6.438 6.438 0 00-6.439 6.439 6.438 6.438 0 006.44 6.439h71.204a6.44 6.44 0 000-12.878z"/><path fill="#000" fill-rule="nonzero" d="M314.298 0H111.791c-.215 0-.43.01-.643.033a6.56 6.56 0 00-.468.07c-.051.01-.104.014-.156.024a6.203 6.203 0 00-.542.137c-.022.007-.045.01-.067.017-.181.054-.36.12-.534.192l-.057.02c-.168.07-.33.147-.49.23-.026.015-.054.026-.08.04-.149.08-.291.168-.433.258-.036.023-.074.042-.11.066-.132.088-.257.186-.382.283-.041.033-.084.06-.125.094a6.26 6.26 0 00-.427.387l-.04.036-60.096 60.097c-.015.016-.028.034-.044.05a6.597 6.597 0 00-.377.417c-.037.046-.07.096-.108.143a6.157 6.157 0 00-.269.364c-.028.042-.051.086-.078.129-.086.135-.171.27-.247.412-.017.032-.03.065-.046.096-.08.155-.156.312-.223.474-.01.023-.017.046-.026.07a6.33 6.33 0 00-.187.524c-.007.022-.011.045-.018.068-.053.178-.1.357-.136.542-.01.05-.015.102-.023.152a6.286 6.286 0 00-.07.471 6.3 6.3 0 00-.033.644v326.244a6.438 6.438 0 006.439 6.44h262.603a6.438 6.438 0 006.44-6.44V6.44A6.439 6.439 0 00314.297 0zM105.352 21.984v38.113H67.24l38.113-38.113zM307.86 386.342H58.133V72.975h53.658a6.438 6.438 0 006.44-6.439V12.878h189.628v373.464z"/><path fill="#000" d="M137.548 72.975H271.37a6.438 6.438 0 006.44-6.439 6.438 6.438 0 00-6.44-6.439H137.548a6.439 6.439 0 100 12.878zM271.372 154.537h-71.205a6.438 6.438 0 00-6.439 6.44 6.438 6.438 0 006.44 6.438h71.204a6.44 6.44 0 000-12.878zM271.372 188.879h-71.205a6.438 6.438 0 00-6.439 6.439 6.438 6.438 0 006.44 6.439h71.204a6.44 6.44 0 000-12.878zM165.826 270.44a6.438 6.438 0 006.439-6.44 6.438 6.438 0 00-6.44-6.438H94.622A6.438 6.438 0 0088.182 264v68.683a6.438 6.438 0 006.44 6.439h71.204a6.438 6.438 0 006.439-6.44v-42.926a6.438 6.438 0 00-6.44-6.44 6.438 6.438 0 00-6.438 6.44v36.488H101.06V270.44h64.766zM94.621 201.757h71.205a6.438 6.438 0 006.439-6.44 6.438 6.438 0 00-6.44-6.438H94.622a6.439 6.439 0 100 12.878zM228.445 326.245h-28.278a6.438 6.438 0 00-6.439 6.439 6.438 6.438 0 006.44 6.439h28.277a6.44 6.44 0 000-12.878zM271.372 291.903h-71.205a6.438 6.438 0 00-6.439 6.44 6.438 6.438 0 006.44 6.438h71.204a6.44 6.44 0 000-12.878z"/><path stroke="#000" stroke-linecap="round" stroke-linejoin="round" stroke-width="15" d="M94.618 160.976h71.208"/></g></svg>
