<svg xmlns="http://www.w3.org/2000/svg" viewBox="0 0 400 400"><g fill="none" fill-rule="evenodd"><path fill="#FCCA75" d="M122.774 19.307v12.87H97.032v-12.87c0-3.54 1.415-6.758 3.797-9.075 2.316-2.38 5.534-3.796 9.074-3.796 7.079 0 12.87 5.791 12.87 12.87z"/><path fill="#E6E9ED" fill-rule="nonzero" d="M45.547 70.79c0-4.955-1.866-9.46-4.955-12.87h43.569v25.742H40.592a19.083 19.083 0 004.955-12.871zm90.098-12.87h43.568a19.083 19.083 0 00-4.955 12.87c0 4.956 1.866 9.461 4.955 12.872h-43.568V57.92z"/><path fill="#9E7FC6" fill-rule="nonzero" d="M40.592 57.92a19.083 19.083 0 014.955 12.87c0 4.956-1.866 9.461-4.955 12.872h-.064c-3.411 3.99-8.56 6.435-14.287 6.435-10.683 0-19.307-8.623-19.307-19.306 0-10.683 8.624-19.307 19.307-19.307 5.727 0 10.876 2.446 14.287 6.436h.064zm152.972-6.436c10.683 0 19.307 8.624 19.307 19.307 0 10.683-8.624 19.306-19.307 19.306-5.727 0-10.876-2.445-14.286-6.435h-.065a19.083 19.083 0 01-4.955-12.871c0-4.956 1.866-9.46 4.955-12.871h.065c3.41-3.99 8.559-6.436 14.286-6.436z"/><path fill="#AAB2BD" d="M135.645 83.662v25.742H84.16V45.049c0-7.08 5.792-12.871 12.87-12.871h25.743c7.079 0 12.87 5.792 12.87 12.87v38.614z"/><path fill="#FCCA75" d="M380.195 173.76h-25.742V199.5c0 7.08-5.792 12.871-12.871 12.871h-90.098c-7.079 0-12.87-5.792-12.87-12.87v-25.743H212.87c-7.079 0-12.871 5.792-12.871 12.871v115.84h193.066V186.63c0-7.079-5.792-12.87-12.871-12.87z"/><path fill="#E6E9ED" d="M341.582 160.888h-90.098c-7.079 0-12.87 5.792-12.87 12.871v25.742c0 7.08 5.791 12.871 12.87 12.871h90.098c7.079 0 12.87-5.792 12.87-12.87v-25.743c0-7.079-5.791-12.87-12.87-12.87z"/><path fill="#F3B141" d="M393.066 302.47v12.87c0 7.08-5.792 12.872-12.871 12.872H277.226l-9.074 9.074a12.91 12.91 0 01-9.138 3.797H212.87c-7.079 0-12.871-5.792-12.871-12.871V302.47h193.066z"/><path fill="#CCD1D9" fill-rule="nonzero" d="M315.84 160.888v25.742h-38.614v-51.484h-128.71l-9.332 18.599c-2.188 4.376-6.628 7.143-11.52 7.143H71.29c-7.08 0-12.872-5.792-12.872-12.87v-25.743c0-7.08 5.792-12.871 12.872-12.871h231.678c7.08 0 12.871 5.792 12.871 12.871v38.613zm0 167.324v51.484c0 7.079-5.793 12.871-12.872 12.871H71.29c-7.08 0-12.872-5.792-12.872-12.871v-25.742c0-7.08 5.792-12.871 12.872-12.871h56.375c4.89 0 9.331 2.767 11.52 7.143l9.33 18.599h128.711v-38.613h38.613z"/><path fill="#AAB2BD" fill-rule="nonzero" d="M109.903 238.114c7.079 0 12.87 5.792 12.87 12.871 0 3.54-1.415 6.758-3.796 9.075-2.317 2.38-5.535 3.796-9.074 3.796H84.16c-7.08 0-12.871-5.791-12.871-12.87 0-3.54 1.415-6.758 3.796-9.075 2.317-2.38 5.535-3.797 9.075-3.797h25.742zm0-25.742c7.079 0 12.87 5.792 12.87 12.871 0 3.54-1.415 6.758-3.796 9.074-2.317 2.382-5.535 3.797-9.074 3.797H84.16c-7.08 0-12.871-5.792-12.871-12.87 0-3.54 1.415-6.758 3.796-9.075 2.317-2.38 5.535-3.797 9.075-3.797h25.742zm0-25.742c7.079 0 12.87 5.792 12.87 12.871 0 3.54-1.415 6.758-3.796 9.074-2.317 2.381-5.535 3.797-9.074 3.797H84.16c-7.08 0-12.871-5.792-12.871-12.87 0-3.54 1.415-6.758 3.796-9.075 2.317-2.381 5.535-3.797 9.075-3.797h25.742zm0 77.226c7.079 0 12.87 5.792 12.87 12.872 0 3.54-1.415 6.757-3.796 9.074-2.317 2.38-5.535 3.797-9.074 3.797H84.16c-7.08 0-12.871-5.792-12.871-12.871 0-3.54 1.415-6.758 3.796-9.075 2.317-2.38 5.535-3.797 9.075-3.797h25.742zm0 25.743c7.079 0 12.87 5.792 12.87 12.87 0 3.54-1.415 6.758-3.796 9.075-2.317 2.38-5.535 3.797-9.074 3.797H84.16c-7.08 0-12.871-5.792-12.871-12.871 0-3.54 1.415-6.758 3.796-9.074 2.317-2.382 5.535-3.797 9.075-3.797h25.742zm0 25.742c7.079 0 12.87 5.792 12.87 12.87 0 3.54-1.415 6.758-3.796 9.075-2.317 2.381-5.535 3.797-9.074 3.797H84.16c-7.08 0-12.871-5.792-12.871-12.871 0-3.54 1.415-6.758 3.796-9.074 2.317-2.382 5.535-3.797 9.075-3.797h25.742zm0-154.453c7.079 0 12.87 5.792 12.87 12.871 0 3.54-1.415 6.757-3.796 9.074-2.317 2.381-5.535 3.797-9.074 3.797H84.16c-7.08 0-12.871-5.792-12.871-12.87 0-3.54 1.415-6.758 3.796-9.075 2.317-2.381 5.535-3.797 9.075-3.797h25.742z"/><path fill="#000" fill-rule="nonzero" d="M380.195 167.324h-20.491c-2.664-7.472-9.743-12.871-18.122-12.871h-19.307v-32.178c0-10.644-8.662-19.307-19.307-19.307H142.08v-12.87h34.636c4.524 3.957 10.374 6.435 16.848 6.435 14.197 0 25.743-11.545 25.743-25.742 0-14.197-11.546-25.742-25.743-25.742-6.474 0-12.324 2.477-16.848 6.435H142.08V45.05c0-8.38-5.4-15.458-12.87-18.123v-7.62C129.21 8.663 120.546 0 109.902 0 99.258 0 90.596 8.662 90.596 19.307v7.62c-7.472 2.664-12.871 9.743-12.871 18.122v6.435H43.089c-4.524-3.958-10.374-6.435-16.848-6.435C12.044 45.049.499 56.594.499 70.79c0 14.197 11.545 25.742 25.742 25.742 6.474 0 12.324-2.478 16.848-6.436h34.636v12.871H71.29c-10.645 0-19.307 8.663-19.307 19.307v25.742c0 8.9 6.082 16.34 14.287 18.56-.895 2.227-1.416 4.64-1.416 7.182 0 4.962 1.937 9.448 5.02 12.871-3.09 3.424-5.02 7.91-5.02 12.871 0 4.962 1.937 9.448 5.02 12.871-3.09 3.424-5.02 7.91-5.02 12.871 0 4.962 1.937 9.448 5.02 12.871-3.09 3.424-5.02 7.91-5.02 12.871 0 4.962 1.937 9.448 5.02 12.871-3.09 3.424-5.02 7.91-5.02 12.872 0 4.961 1.937 9.447 5.02 12.87-3.09 3.424-5.02 7.91-5.02 12.872 0 4.961 1.937 9.447 5.02 12.87-3.09 3.424-5.02 7.91-5.02 12.872 0 2.542.521 4.955 1.416 7.182-8.205 2.22-14.287 9.66-14.287 18.56v25.742c0 10.644 8.662 19.306 19.307 19.306h231.678c10.645 0 19.307-8.662 19.307-19.306v-45.049h57.92c10.644 0 19.306-8.662 19.306-19.306V186.63c0-10.645-8.662-19.307-19.306-19.307zm6.435 19.306v70.791h-12.87v12.871h12.87v25.742H206.436v-25.742h12.87v-12.871h-12.87v-70.79a6.438 6.438 0 016.435-6.436h19.307V199.5c0 10.645 8.662 19.307 19.306 19.307h90.098c10.644 0 19.306-8.662 19.306-19.307v-19.306h19.307a6.438 6.438 0 016.435 6.435zM77.725 328.212a6.438 6.438 0 016.436-6.436h25.742a6.438 6.438 0 016.435 6.436 6.438 6.438 0 01-6.435 6.435H84.16a6.438 6.438 0 01-6.436-6.435zm0-25.742a6.438 6.438 0 016.436-6.436h25.742a6.438 6.438 0 016.435 6.436 6.438 6.438 0 01-6.435 6.435H84.16a6.438 6.438 0 01-6.436-6.435zm0-25.742a6.438 6.438 0 016.436-6.436h25.742a6.438 6.438 0 016.435 6.436 6.438 6.438 0 01-6.435 6.435H84.16a6.438 6.438 0 01-6.436-6.435zm0-25.743a6.438 6.438 0 016.436-6.435h25.742a6.438 6.438 0 016.435 6.435 6.438 6.438 0 01-6.435 6.436H84.16a6.438 6.438 0 01-6.436-6.436zm0-25.742a6.438 6.438 0 016.436-6.435h25.742a6.438 6.438 0 016.435 6.435 6.438 6.438 0 01-6.435 6.436H84.16a6.438 6.438 0 01-6.436-6.436zm0-25.742a6.438 6.438 0 016.436-6.435h25.742a6.438 6.438 0 016.435 6.435 6.438 6.438 0 01-6.435 6.436H84.16a6.438 6.438 0 01-6.436-6.436zm0-25.742a6.438 6.438 0 016.436-6.435h25.742a6.438 6.438 0 016.435 6.435 6.438 6.438 0 01-6.435 6.436H84.16a6.438 6.438 0 01-6.436-6.436zm46.465 141.582c3.089-3.424 5.02-7.91 5.02-12.871 0-4.962-1.938-9.448-5.02-12.871 3.089-3.424 5.02-7.91 5.02-12.871 0-4.962-1.938-9.448-5.02-12.872 3.089-3.423 5.02-7.909 5.02-12.87 0-4.962-1.938-9.448-5.02-12.872 3.089-3.423 5.02-7.909 5.02-12.87 0-4.962-1.938-9.448-5.02-12.872 3.089-3.423 5.02-7.909 5.02-12.87 0-4.963-1.938-9.448-5.02-12.872 3.089-3.423 5.02-7.91 5.02-12.87 0-2.279-.47-4.428-1.191-6.462 7.227-.122 13.7-4.17 16.944-10.65l7.53-15.066h118.298v12.87h-19.307c-8.379 0-15.458 5.4-18.122 12.872H212.87c-10.644 0-19.307 8.662-19.307 19.306v141.582c0 10.644 8.663 19.306 19.307 19.306h46.156c4.33 0 8.398-1.493 11.764-4.106v16.977H152.493l-7.536-15.072c-3.244-6.48-9.718-10.528-16.945-10.65.727-2.028 1.197-4.177 1.197-6.455 0-4.962-1.937-9.448-5.02-12.871zm217.392-148.017a6.438 6.438 0 016.435 6.435v25.742a6.438 6.438 0 01-6.435 6.436h-90.098a6.438 6.438 0 01-6.435-6.436V173.76a6.438 6.438 0 016.435-6.435h19.307v25.742h51.484v-25.742h19.307zM193.564 57.92c7.099 0 12.872 5.772 12.872 12.87 0 7.1-5.773 12.872-12.872 12.872-7.098 0-12.87-5.773-12.87-12.871 0-7.099 5.772-12.871 12.87-12.871zm-24.828 6.435c-.54 2.072-.914 4.203-.914 6.436 0 2.233.374 4.363.914 6.435H142.08v-12.87h26.656zm-58.833-51.484a6.438 6.438 0 016.435 6.436v6.435h-12.87v-6.435a6.438 6.438 0 016.435-6.436zM26.24 83.661c-7.099 0-12.871-5.772-12.871-12.87 0-7.099 5.772-12.871 12.87-12.871 7.1 0 12.872 5.772 12.872 12.87 0 7.1-5.773 12.872-12.871 12.872zm24.828-6.435c.54-2.072.914-4.202.914-6.435 0-2.233-.373-4.364-.914-6.436h26.656v12.871H51.069zM90.596 45.05a6.438 6.438 0 016.436-6.436h25.742a6.438 6.438 0 016.435 6.436v57.92H90.596v-57.92zm-25.742 77.226a6.438 6.438 0 016.436-6.436h231.678a6.438 6.438 0 016.436 6.436v57.92h-25.742V128.71H144.539l-11.095 22.184a6.388 6.388 0 01-5.754 3.559h-56.4a6.438 6.438 0 01-6.436-6.436v-25.742zm244.55 257.42a6.438 6.438 0 01-6.436 6.436H71.29a6.438 6.438 0 01-6.436-6.435v-25.742a6.438 6.438 0 016.436-6.436h56.4a6.398 6.398 0 015.76 3.56l11.089 22.182h139.123v-38.613h25.742v45.049zm70.79-57.919H274.563l-10.985 10.986a6.468 6.468 0 01-4.55 1.885H212.87a6.438 6.438 0 01-6.435-6.435v-19.307H386.63v6.436a6.438 6.438 0 01-6.435 6.435z"/><path fill="#000" fill-rule="nonzero" d="M247.88 265.982h6.401v5.833l.35.118c.891.393 1.87.717 2.938.972 1.066.255 2.201.383 3.404.383 2.172 0 3.86-.442 5.062-1.326 1.202-.884 1.804-2.072 1.804-3.564 0-1.336-.495-2.416-1.484-3.24-.99-.826-2.211-1.552-3.666-2.18a87.819 87.819 0 00-4.771-1.886 22.658 22.658 0 01-4.772-2.386 13.219 13.219 0 01-3.666-3.624c-.989-1.453-1.483-3.339-1.483-5.656 0-1.768.34-3.388 1.018-4.86a11.16 11.16 0 012.851-3.801c1.222-1.06 2.686-1.886 4.393-2.475 1.707-.589 3.608-.884 5.703-.884 2.366 0 4.694.217 6.982.649 2.289.432 4.112 1.02 5.47 1.767v11.96h-6.4v-6.54c-.117 0-.233-.019-.35-.058a21.521 21.521 0 00-2.764-.56 21.326 21.326 0 00-2.938-.206c-1.862 0-3.327.373-4.393 1.12-1.067.746-1.6 1.747-1.6 3.004 0 1.296.494 2.357 1.483 3.182.99.825 2.211 1.57 3.666 2.239a84.825 84.825 0 004.771 2.003 24.889 24.889 0 014.772 2.445 13.219 13.219 0 013.666 3.623c.989 1.454 1.483 3.28 1.483 5.48 0 2.121-.387 3.977-1.163 5.568a11.212 11.212 0 01-3.259 4.006c-1.396 1.08-3.045 1.886-4.946 2.416-1.9.53-3.957.795-6.168.795-1.474 0-2.841-.118-4.102-.353a26.716 26.716 0 01-3.491-.884 23.683 23.683 0 01-2.822-1.12 46.198 46.198 0 01-1.979-1.001v-10.959zm49.737 2.394h.3l8.278-29.972h8.518l-12.597 40.898h-9.358L279.8 238.404h9.179l8.638 29.972zm37.257-10.407h13.754v18.618c-1.304 1.218-3.002 2.141-5.093 2.77-2.09.628-4.23.942-6.416.942-2.57 0-4.978-.451-7.223-1.355a15.665 15.665 0 01-5.84-4.095c-1.65-1.826-2.955-4.085-3.914-6.775-.96-2.691-1.439-5.843-1.439-9.457 0-3.81.576-7.05 1.727-9.721 1.15-2.671 2.637-4.861 4.46-6.57 1.822-1.708 3.865-2.956 6.129-3.741 2.263-.786 4.508-1.179 6.733-1.179 2.302 0 4.22.187 5.755.56 1.534.373 2.935.855 4.2 1.444v12.196h-6.33v-6.54l-.92-.236a12.643 12.643 0 00-2.533-.235c-1.573 0-3.03.275-4.373.824-1.343.55-2.504 1.405-3.482 2.563-.978 1.16-1.736 2.642-2.273 4.449-.537 1.807-.806 3.967-.806 6.48 0 2.24.269 4.243.806 6.01.537 1.768 1.285 3.26 2.244 4.478.96 1.218 2.1 2.141 3.424 2.77 1.324.628 2.753.942 4.288.942.997 0 1.908-.118 2.733-.353.825-.236 1.391-.472 1.698-.707v-8.19h-7.309v-5.892z"/></g></svg>
