<svg xmlns="http://www.w3.org/2000/svg" viewBox="0 0 400 400"><g fill="none" fill-rule="evenodd"><path fill="#FCCA75" d="M244.757 193.587l-137.8-137.8-44.244 44.246 137.8 137.8 16.61-27.635z"/><path fill="#FFF7D2" d="M200.512 237.833l5.512 5.511 44.17-.075.075-44.17-5.512-5.512-27.635 16.61z"/><path fill="#FEE9AB" d="M51.69 89.01l11.023 11.024 44.246-44.246-11.024-11.024c-12.176-12.176-31.953-12.143-44.17.075-12.218 12.217-12.252 31.995-.076 44.17z"/><path fill="#000" fill-rule="nonzero" d="M199.845 249.524a7.763 7.763 0 005.517 2.276l44.17-.075c4.307-.007 7.813-3.513 7.82-7.82l.075-44.17a7.763 7.763 0 00-2.276-5.518L100.816 39.883c-15.218-15.22-39.943-15.178-55.213.092-15.27 15.27-15.312 39.995-.093 55.214l154.335 154.335z"/><path fill="#FCCA75" fill-rule="nonzero" d="M217.705 201.016L106.253 89.564l-11.06 11.06 111.451 111.453-8.305 13.818L73.107 100.663l33.185-33.184L231.523 192.71l-13.818 8.306z"/><path fill="#F9F9FD" fill-rule="nonzero" d="M56.628 51c9.164-9.165 23.994-9.19 33.128-.057l5.511 5.512-33.184 33.184-5.512-5.512c-9.133-9.133-9.108-23.963.057-33.128zM241.752 236.124l-31.405.053 11.81-19.648 19.649-11.81z"/><g transform="translate(148 154)"><path fill="#FCCA75" stroke="#000" stroke-width="18" d="M1.539 231.532L230.596 1.561a2 2 0 013.417 1.41v229.973a2 2 0 01-2 2H2.956a2 2 0 01-1.417-3.412z"/><path fill="#F9F9FD" stroke="#000" stroke-width="18" d="M113.079 180.13l68.147-68.423a2 2 0 013.417 1.411v68.424a2 2 0 01-2 2h-68.147a2 2 0 01-1.417-3.412z"/><rect width="15.542" height="22.947" x="39.277" y="211.078" fill="#000" rx="7.771"/><rect width="15.542" height="22.947" x="70.361" y="211.078" fill="#000" rx="7.771"/><rect width="15.542" height="22.947" x="101.446" y="211.078" fill="#000" rx="7.771"/><rect width="15.542" height="22.947" x="132.531" y="211.078" fill="#000" rx="7.771"/><rect width="15.542" height="22.947" x="163.615" y="211.078" fill="#000" rx="7.771"/><rect width="15.542" height="22.947" x="194.7" y="211.078" fill="#000" rx="7.771"/><path fill="#000" d="M210.242 204.194a7.802 7.802 0 017.802-7.802h7.252a7.802 7.802 0 010 15.604h-7.252a7.802 7.802 0 01-7.802-7.802zM210.242 172.986a7.802 7.802 0 017.802-7.802h7.252a7.802 7.802 0 010 15.604h-7.252a7.802 7.802 0 01-7.802-7.802zM210.242 141.778a7.802 7.802 0 017.802-7.802h7.252a7.802 7.802 0 010 15.604h-7.252a7.802 7.802 0 01-7.802-7.802zM210.242 110.57a7.802 7.802 0 017.802-7.803h7.252a7.802 7.802 0 010 15.604h-7.252a7.802 7.802 0 01-7.802-7.802zM210.242 78.443a7.802 7.802 0 017.802-7.802h7.252a7.802 7.802 0 010 15.604h-7.252a7.802 7.802 0 01-7.802-7.802zM210.242 47.235a7.802 7.802 0 017.802-7.802h7.252a7.802 7.802 0 010 15.604h-7.252a7.802 7.802 0 01-7.802-7.802z"/></g></g></svg>
