<svg xmlns="http://www.w3.org/2000/svg" viewBox="0 0 400 400"><g fill="none" fill-rule="evenodd"><path fill="#FAC800" fill-rule="nonzero" d="M59.19 8.577v383.626h282.307L59.19 8.577zM113.78 196.5l101.636 141.131-101.636-.01v-141.12z"/><path fill="#000" fill-rule="nonzero" d="M347.778 387.582L65.47 3.957a7.807 7.807 0 00-8.714-2.79 7.805 7.805 0 00-5.367 7.41v383.626a7.797 7.797 0 007.8 7.797h282.307c6.244 0 9.978-7.395 6.28-12.418zm-62.43-3.177v-15.594a7.8 7.8 0 00-15.598 0v15.594h-15.598v-7.797a7.8 7.8 0 00-15.598 0v7.797h-15.597v-15.594a7.8 7.8 0 00-15.598 0v15.594h-15.594v-7.797a7.8 7.8 0 00-15.597 0v7.797H160.57v-15.594a7.797 7.797 0 00-7.8-7.797 7.797 7.797 0 00-7.798 7.797v15.594h-15.597v-7.797a7.8 7.8 0 00-15.598 0v7.797h-46.79v-15.594h15.595a7.8 7.8 0 007.8-7.797 7.8 7.8 0 00-7.8-7.798H66.987v-15.594h7.798a7.8 7.8 0 007.8-7.797 7.8 7.8 0 00-7.8-7.798h-7.798v-15.594h15.598a7.799 7.799 0 007.797-7.798 7.797 7.797 0 00-7.797-7.797H66.987v-15.594h7.798a7.8 7.8 0 007.8-7.798 7.8 7.8 0 00-7.8-7.797h-7.798v-15.594h15.598a7.799 7.799 0 007.797-7.798 7.797 7.797 0 00-7.797-7.797H66.987v-15.595h7.798a7.8 7.8 0 007.8-7.797 7.8 7.8 0 00-7.8-7.797h-7.798v-15.595h15.598a7.799 7.799 0 007.797-7.797 7.797 7.797 0 00-7.797-7.797H66.987v-15.595h7.798a7.8 7.8 0 007.8-7.797 7.8 7.8 0 00-7.8-7.797h-7.798V119.2h15.598a7.799 7.799 0 007.797-7.797 7.797 7.797 0 00-7.797-7.798H66.987V88.11h7.798a7.8 7.8 0 007.8-7.797 7.8 7.8 0 00-7.8-7.797h-7.798V32.33l259.09 352.074h-40.73z"/><path fill="#000" fill-rule="nonzero" d="M113.777 345.42l101.639.008c5.89 0 10.024-7.224 6.329-12.354l-101.636-141.13c-4.322-5.997-14.13-2.854-14.13 4.556v141.122a7.797 7.797 0 007.798 7.797zm7.8-124.748L200.19 329.83l-78.613-.006V220.672z"/><path fill="#000" d="M244.375 328.296c2.501 3.405 7.505 4.163 10.901 1.669 3.366-2.47 4.13-7.55 1.67-10.901l-36.109-49.154c-2.458-3.347-7.562-4.12-10.9-1.669-3.406 2.498-4.158 7.514-1.67 10.901l36.108 49.154zM171.34 228.865c2.491 3.393 7.52 4.152 10.904 1.67 3.423-2.514 4.179-7.487 1.666-10.902l-36.924-50.277c-2.446-3.329-7.581-4.106-10.904-1.669-3.47 2.543-4.219 7.432-1.67 10.901l36.928 50.277zM204.24 249.513a7.797 7.797 0 01-7.797 7.797 7.797 7.797 0 01-7.797-7.797 7.797 7.797 0 017.797-7.798 7.797 7.797 0 017.798 7.798z"/></g></svg>
