<svg xmlns="http://www.w3.org/2000/svg" viewBox="0 0 504.911 504.911"><circle cx="252.062" cy="252.455" r="237.883" fill="#2aa0da"/><g fill="#183651"><path d="M339.495 504.517c-4.726 0-7.877-3.151-7.877-7.877v-28.357l-32.295-32.295c-1.575-1.575-2.363-3.151-2.363-5.514v-91.372c0-4.726 3.151-7.877 7.877-7.877s7.877 3.151 7.877 7.877v88.222l32.295 32.295c1.575 1.575 2.363 3.151 2.363 5.514v31.508c0 4.725-3.15 7.876-7.877 7.876zM164.628 504.517c-4.726 0-7.877-3.151-7.877-7.877v-31.508c0-2.363.788-3.938 2.363-5.514l32.295-32.295v-88.222c0-4.726 3.151-7.877 7.877-7.877s7.877 3.151 7.877 7.877v92.16c0 2.363-.788 3.938-2.363 5.514l-32.295 32.295v28.357c0 3.939-3.939 7.09-7.877 7.09zM252.062 504.517c-4.726 0-7.877-3.151-7.877-7.877V384.788c0-4.726 3.151-7.877 7.877-7.877s7.877 3.151 7.877 7.877V496.64c-.001 4.726-3.151 7.877-7.877 7.877zM198.498 173.686c-4.726 0-7.877-3.151-7.877-7.877V77.588l-32.295-32.295c-1.575-1.575-2.363-3.151-2.363-5.514V8.271c0-4.726 3.151-7.877 7.877-7.877s7.877 3.151 7.877 7.877v28.357l32.295 32.295c1.575 1.575 2.363 3.151 2.363 5.514v92.16c0 3.938-3.15 7.089-7.877 7.089zM305.625 173.686c-4.726 0-7.877-3.151-7.877-7.877V74.437c0-2.363.788-3.938 2.363-5.514l32.295-32.295V8.271c0-4.726 3.151-7.877 7.877-7.877s7.877 3.151 7.877 7.877v31.508c0 2.363-.788 3.938-2.363 5.514l-32.295 32.295v88.222c0 4.725-3.939 7.876-7.877 7.876zM252.062 128c-4.726 0-7.877-3.151-7.877-7.877V8.271c0-4.726 3.151-7.877 7.877-7.877s7.877 3.151 7.877 7.877v111.852c-.001 4.726-3.151 7.877-7.877 7.877zM430.08 206.769h-91.372c-4.726 0-7.877-3.151-7.877-7.877s3.151-7.877 7.877-7.877h88.222l32.295-32.295c1.575-1.575 3.151-2.363 5.514-2.363h31.508c4.726 0 7.877 3.151 7.877 7.877s-3.151 7.877-7.877 7.877H467.89l-32.295 32.295c-.789 1.576-3.152 2.363-5.515 2.363zM496.246 347.766h-31.508c-2.363 0-3.938-.788-5.514-2.363l-32.295-32.295h-88.222c-4.726 0-7.877-3.151-7.877-7.877s3.151-7.877 7.877-7.877h92.16c2.363 0 3.938.788 5.514 2.363l32.295 32.295h28.357c4.726 0 7.877 3.151 7.877 7.877-.787 4.726-3.938 7.877-8.664 7.877zM496.246 260.332H384.394c-4.726 0-7.877-3.151-7.877-7.877s3.151-7.877 7.877-7.877h111.852c4.726 0 7.877 3.151 7.877 7.877 0 4.727-3.151 7.877-7.877 7.877zM39.385 348.554H7.877c-4.726 0-7.877-3.151-7.877-7.877s3.151-7.877 7.877-7.877h28.357l32.295-32.295c1.575-1.575 3.151-2.363 5.514-2.363h92.16c4.726 0 7.877 3.151 7.877 7.877s-3.151 7.877-7.877 7.877H77.194l-32.295 32.295c-1.576.787-3.151 2.363-5.514 2.363zM165.415 206.769h-92.16c-2.363 0-3.938-.788-5.514-2.363l-32.295-32.295H7.877c-4.726 0-7.877-3.151-7.877-7.877s3.151-7.877 7.877-7.877h31.508c2.363 0 3.938.788 5.514 2.363l32.295 32.295h88.222c4.726 0 7.877 3.151 7.877 7.877s-3.151 7.877-7.878 7.877zM119.729 260.332H7.877c-4.726 0-7.877-3.151-7.877-7.877s3.151-7.877 7.877-7.877h111.852c4.726 0 7.877 3.151 7.877 7.877 0 4.727-3.151 7.877-7.877 7.877z"/></g><path fill="#fff" d="M384.394 269.785v-33.871l-32.295-5.514c-2.363-11.028-7.089-22.055-13.391-31.508l18.905-26.782-24.418-24.418-26.782 18.905c-9.452-6.302-20.48-10.24-31.508-13.391l-5.514-32.295H235.52l-5.514 32.295c-11.028 2.363-22.055 7.089-31.508 13.391l-26.782-18.905-24.418 24.418 18.905 26.782c-6.302 9.452-10.24 20.48-13.391 31.508l-32.295 5.514v33.871l32.295 5.514c2.363 11.028 7.089 22.055 13.391 31.508l-18.905 26.782 24.418 24.418 26.782-18.905c9.452 6.302 20.48 10.24 31.508 13.391l5.514 32.295h33.871l5.514-32.295c11.028-2.363 22.055-7.089 31.508-13.391l26.782 18.905 24.418-24.418-18.905-26.782c6.302-9.452 10.24-20.48 13.391-31.508l32.295-5.514z"/><path fill="#183651" d="M269.391 392.665H235.52c-3.938 0-7.089-2.363-7.877-6.302l-5.514-27.569c-8.665-2.363-16.542-5.514-24.418-10.24l-22.843 15.754c-3.151 2.363-7.089 1.575-10.24-.788l-24.418-24.418c-2.363-2.363-3.151-7.089-.788-10.24l15.754-22.843c-4.726-7.877-7.877-15.754-10.24-24.418l-27.569-4.726c-3.938-.788-6.302-3.938-6.302-7.877v-33.871c0-3.938 2.363-7.089 6.302-7.877l27.569-4.726c2.363-8.665 5.514-16.542 10.24-24.418l-15.754-22.843c-2.363-3.151-1.575-7.089.788-10.24l24.418-24.418c2.363-2.363 7.089-3.151 10.24-.788l22.843 15.754c7.877-4.726 15.754-7.877 24.418-10.24l4.726-27.569c.788-3.938 3.938-6.302 7.877-6.302h33.871c3.938 0 7.089 2.363 7.877 6.302l4.726 27.569c8.665 2.363 16.542 5.514 24.418 10.24l22.843-15.754c3.151-2.363 7.089-1.575 10.24.788l24.418 24.418c2.363 2.363 3.151 7.089.788 10.24l-15.754 22.843c4.726 7.877 7.877 15.754 10.24 24.418l27.569 4.726c3.938.788 6.302 3.938 6.302 7.877v33.871c0 3.938-2.363 7.089-6.302 7.877l-27.569 5.514c-2.363 8.665-5.514 16.542-10.24 24.418l15.754 22.843c2.363 3.151 1.575 7.089-.788 10.24l-24.418 24.418c-2.363 2.363-7.089 3.151-10.24.788l-22.843-15.754c-7.877 4.726-15.754 7.877-24.418 10.24l-4.726 27.569c0 2.363-3.151 5.514-7.089 5.514zm-27.569-15.754h21.268l4.726-25.994c.788-3.151 3.151-5.514 6.302-6.302 10.24-2.363 20.48-6.302 29.145-11.815 2.363-1.575 6.302-1.575 8.665 0l21.268 14.966L348.16 332.8l-15.754-21.268c-1.575-2.363-1.575-6.302 0-8.665 5.514-8.665 9.452-18.905 11.815-29.145.788-3.151 3.151-5.514 6.302-6.302l25.994-4.726v-21.268l-25.994-3.938c-3.151-.788-5.514-3.151-6.302-6.302-2.363-10.24-6.302-20.48-11.815-29.145-1.575-2.363-1.575-6.302 0-8.665l14.966-21.268-14.966-14.966-21.268 14.966c-2.363 1.575-6.302 1.575-8.665 0-8.665-5.514-18.905-9.452-29.145-11.815-3.151-.788-5.514-3.151-6.302-6.302L262.302 128h-21.268l-3.938 25.994c-.788 3.151-3.151 5.514-6.302 6.302-10.24 2.363-20.48 6.302-29.145 11.815-2.363 1.575-6.302 1.575-8.665 0l-21.268-14.966-14.966 14.966 14.966 21.268c1.575 2.363 1.575 6.302 0 8.665-5.514 8.665-9.452 18.905-11.815 29.145-.788 3.151-3.151 5.514-6.302 6.302l-25.994 4.726v21.268l25.994 4.726c3.151.788 5.514 3.151 6.302 6.302 2.363 10.24 6.302 20.48 11.815 29.145 1.575 2.363 1.575 6.302 0 8.665l-14.966 21.268 14.966 14.966 21.268-14.966c2.363-1.575 6.302-1.575 8.665 0 8.665 5.514 18.905 9.452 29.145 11.815 3.151.788 5.514 3.151 6.302 6.302l4.726 25.203z"/><circle cx="252.062" cy="252.455" r="73.255" fill="#fcbd5e"/><circle cx="252.062" cy="252.455" r="30.72" fill="#fff"/><g fill="#183651"><path d="M252.062 291.052c-21.268 0-38.597-17.329-38.597-38.597s17.329-38.597 38.597-38.597 38.597 17.329 38.597 38.597-17.33 38.597-38.597 38.597zm0-61.44c-12.603 0-22.843 10.24-22.843 22.843s10.24 22.843 22.843 22.843 22.843-10.24 22.843-22.843-10.24-22.843-22.843-22.843zM97.1674375 142.1031533l-11.1396534 11.1396534-11.1396534-11.1396534 11.1396534-11.1396534zM124.4555353 114.0973407l-11.1396534 11.1396534-11.1396534-11.1396534 11.1396534-11.1396534zM152.8570302 86.075244l-11.1396534 11.1396534-11.1396534-11.1396534 11.1396534-11.1396534zM373.5382716 418.8373214l-11.1412288 11.138078-11.138078-11.1412288 11.1412288-11.138078zM401.9461152 390.8546408l-11.1412288 11.138078-11.138078-11.1412288 11.1412288-11.138078zM429.231471 362.8092668l-11.1412288 11.138078-11.138078-11.1412288 11.1412288-11.138078zM373.320014 86.6026726l-11.18534 11.0939668-11.0939668-11.18534 11.18534-11.0939668zM402.0239166 114.3995636l-11.18534 11.0939668-11.0939668-11.18534 11.18534-11.0939668zM429.6106567 142.2023175l-11.1869154 11.0923914-11.0923914-11.1869154 11.1869154-11.0923914zM96.828767 361.1881604l-11.18534 11.0939668-11.0939668-11.18534 11.18534-11.0939668zM124.4505844 388.9408428l-11.18534 11.0939668-11.0939668-11.18534 11.18534-11.0939668zM152.6005554 416.1865228l-11.18534 11.0939668-11.0939668-11.18534 11.18534-11.0939668z"/></g></svg>
