<svg xmlns="http://www.w3.org/2000/svg" viewBox="0 0 319 399"><g fill="none" fill-rule="evenodd"><path fill="#EDEBEC" d="M55.842 244.978l-17.68 17.68c-4.882 4.882-4.882 12.799 0 17.68 4.881 4.882 12.798 4.882 17.68 0l17.68-17.68c9.765 9.765 25.597 9.765 35.362 0L247.5 124.042 194.458 71 55.842 209.616c-9.765 9.765-9.765 25.597 0 35.362z"/><path fill="#DCD7D8" d="M238.355 115L105.366 247.902c-9.765 9.76-25.598 9.76-35.363 0l-17.681 17.67c-4.58 4.577-11.828 4.86-16.74.852-2.044 4.589-1.196 10.153 2.571 13.917 4.882 4.879 12.8 4.879 17.681 0l17.682-17.67c9.765 9.76 25.597 9.76 35.363 0L247.5 124.141 238.355 115z"/><path fill="#FCCA75" d="M91.618 174L56.8 208.798c-9.746 9.741-9.746 25.534 0 35.275L39.154 261.71c-4.872 4.87-4.872 12.768 0 17.638 4.873 4.87 12.775 4.87 17.647 0l17.647-17.638c9.746 9.742 25.548 9.742 35.294 0L197.5 174H91.618z"/><path fill="#F3B141" d="M178.782 174l-72.55 72.508c-9.747 9.741-25.55 9.741-35.297 0l-17.647 17.637c-4.524 4.52-11.65 4.838-16.547.968-2.242 4.643-1.449 10.384 2.405 14.235 4.873 4.87 12.775 4.87 17.648 0L74.44 261.71c9.747 9.742 25.55 9.742 35.297 0L197.5 174h-18.718z"/><path fill="#F97BBB" d="M216.906 22.013l79.52 79.55-35.343 35.356-79.518-79.55z"/><g fill="#F74FA4"><path d="M260.856 135.744l-10.608-10.145 35.959-34.477 10.608 10.145zM296.818 12.723l8.868 8.855c9.794 9.78 9.794 25.637 0 35.418l-26.602 26.562-44.335-44.272 26.6-26.564c9.795-9.779 25.675-9.779 35.47.001z"/></g><path fill="#F2387F" d="M305.232 22.51l-8.775-8.784a25.096 25.096 0 00-1.91-1.726c7.927 9.758 7.354 24.136-1.725 33.224L266.5 71.577 278.909 84l26.322-26.353c9.692-9.702 9.692-25.433 0-35.136z"/><path fill="#FCCA75" d="M6.5 362.571c0-17.357 31-56.571 31-56.571s31 39.214 31 56.571S54.62 394 37.5 394c-17.12 0-31-14.072-31-31.429z"/><path fill="#F3B141" d="M56.5 387.714c-17.259 0-31.25-14.071-31.25-31.429 0-10.185 10.76-27.894 19.652-40.792C40.755 309.772 37.75 306 37.75 306S6.5 345.214 6.5 362.571 20.491 394 37.75 394c7.036 0 13.527-2.34 18.75-6.286z"/><path fill="#000" fill-rule="nonzero" d="M309.488 17.84l-8.828-8.827c-12.016-12.017-31.568-12.018-43.585 0l-22.344 22.344-13.518-13.516a5.85 5.85 0 00-8.275 0l-35.31 35.31c-2.254 2.252-2.254 6.023 0 8.275l9.103 9.102-34.254 34.255a5.85 5.85 0 000 8.275 5.85 5.85 0 008.275 0l34.255-34.254 44.689 44.69-44.765 44.764h-89.377l33.443-33.443a5.85 5.85 0 000-8.276 5.85 5.85 0 00-8.275 0l-78.266 78.264c-10.601 10.602-11.85 27.07-3.744 39.054l-13.91 13.912c-7.069 7.067-7.069 18.863 0 25.93 7.067 7.068 18.862 7.068 25.93 0l13.91-13.911c11.986 8.107 28.453 6.86 39.055-3.744L247.972 131.77l9.103 9.103c2.253 2.253 6.023 2.253 8.275 0l35.31-35.31a5.85 5.85 0 000-8.275l-13.518-13.517 22.345-22.345c12.017-12.017 12.017-31.57.001-43.585zM105.421 257.769c-7.453 7.453-19.58 7.453-27.033 0a5.85 5.85 0 00-8.276 0l-17.655 17.654a6.64 6.64 0 01-9.38 0 6.64 6.64 0 010-9.38l17.655-17.653a5.85 5.85 0 000-8.276c-7.453-7.453-7.453-19.58 0-27.033l33.118-33.118h89.378l-77.807 77.806zm155.791-129.31l-71.171-71.17 27.034-27.034 71.171 71.171-27.034 27.034zm40-75.308l-22.344 22.345-35.862-35.862L265.35 17.29c7.453-7.454 19.58-7.454 27.034 0l8.828 8.828c7.454 7.453 7.454 19.58 0 27.033zM37.5 300c-1.773 0-3.45.806-4.56 2.19C29.622 306.338.5 343.24.5 361.973.5 382.39 17.098 399 37.5 399s37-16.61 37-37.028c0-18.733-29.12-55.635-32.44-59.781A5.842 5.842 0 0037.5 300zm0 87.306c-13.959 0-25.316-11.365-25.316-25.334 0-9.67 14.065-31.594 25.317-46.581 11.253 14.981 25.315 36.9 25.315 46.58 0 13.97-11.356 25.335-25.316 25.335z"/></g></svg>
