<svg xmlns="http://www.w3.org/2000/svg" viewBox="0 0 512.001 512.001"><path fill="#fee9ab" d="M110.933 8.534h392.533V483.2c0 11.196-9.071 20.267-20.267 20.267H110.933V8.534z"/><g fill="#fff7d2"><path d="M476.16 502.614c1.203.188 2.398.401 3.627.521-1.238-.12-2.432-.333-3.627-.521zM469.478 501.266c1.161.299 2.304.632 3.482.853-1.178-.222-2.321-.555-3.482-.853zM438.255 483.593c-.853-.853-1.604-1.707-2.398-2.611.794.879 1.562 1.783 2.398 2.611zM463.036 499.277c1.109.41 2.21.853 3.345 1.195-1.135-.35-2.236-.785-3.345-1.195zM431.659 475.879c.717.964 1.399 1.954 2.167 2.876-.768-.888-1.451-1.912-2.167-2.876zM418.807 444.288c.213 1.587.41 3.174.725 4.719-.315-1.544-.545-3.131-.725-4.719zM418.133 435.2c0 2.338.119 4.676.358 7.006-.238-2.329-.358-4.667-.358-7.006zM420.233 451.73c.316 1.289.597 2.56.99 3.84-.393-1.255-.675-2.552-.99-3.84zM424.789 464.461c.538 1.135 1.041 2.287 1.638 3.413-.614-1.1-1.1-2.278-1.638-3.413zM422.195 458.24c.435 1.212.853 2.449 1.34 3.635-.504-1.194-.905-2.431-1.34-3.635zM456.892 496.692c1.058.512 2.099 1.05 3.191 1.51-1.092-.461-2.133-.998-3.191-1.51zM427.981 470.4c.623 1.033 1.212 2.091 1.886 3.081-.64-.99-1.263-2.048-1.886-3.081zM440.525 485.658c.853.785 1.707 1.604 2.611 2.347-.904-.751-1.749-1.562-2.611-2.347zM445.594 489.814c.939.708 1.852 1.434 2.825 2.091-.974-.632-1.887-1.357-2.825-2.091zM451.089 493.551c.99.606 1.963 1.237 2.987 1.783-1.024-.545-1.997-1.177-2.987-1.783zM440.525 485.658c-.759-.691-1.545-1.34-2.27-2.065.725.725 1.51 1.374 2.27 2.065z"/></g><path fill="#fcca75" d="M476.16 502.614c-1.067-.154-2.142-.273-3.191-.486-1.05-.213-2.321-.563-3.482-.853s-2.082-.478-3.098-.794c-1.015-.316-2.236-.785-3.345-1.195-1.109-.41-1.988-.674-2.953-1.075-.964-.401-2.133-.998-3.191-1.51-1.058-.512-1.903-.853-2.816-1.357s-1.997-1.178-2.987-1.783c-.99-.606-1.809-1.041-2.671-1.621-.862-.58-1.886-1.382-2.825-2.091-.939-.708-1.707-1.186-2.458-1.835s-1.707-1.562-2.611-2.347-1.545-1.34-2.27-2.065c-.725-.725-1.604-1.707-2.398-2.611-.674-.742-1.391-1.459-2.031-2.227-.768-.922-1.451-1.911-2.167-2.876-.589-.802-1.229-1.57-1.792-2.398-.674-.99-1.263-2.048-1.886-3.081-.512-.853-1.075-1.707-1.553-2.56-.597-1.101-1.101-2.253-1.638-3.413-.418-.853-.853-1.707-1.254-2.56-.503-1.186-.905-2.423-1.34-3.635-.316-.853-.691-1.758-.973-2.662-.393-1.254-.674-2.56-.99-3.84-.23-.905-.512-1.801-.7-2.722-.316-1.545-.512-3.132-.725-4.719-.094-.691-.247-1.374-.316-2.082-.247-2.33-.367-4.668-.367-7.014v-17.067H42.667V435.2c0 37.7 30.566 68.267 68.267 68.267H486.4c-1.126 0-2.219-.111-3.328-.171-1.109-.06-2.21-.06-3.294-.162-1.229-.119-2.423-.332-3.618-.52z"/><g fill="#fff7d2"><path d="M483.072 503.296c-1.101-.051-2.21-.06-3.294-.162 1.084.103 2.193.111 3.294.162zM472.96 502.127c1.05.213 2.125.333 3.191.486-1.066-.153-2.141-.272-3.191-.486zM421.222 455.57c.282.905.657 1.766.973 2.662-.316-.896-.648-1.758-.973-2.662zM419.533 449.007c.188.922.469 1.818.7 2.722-.231-.904-.512-1.8-.7-2.722zM426.428 467.849c.478.853 1.041 1.707 1.553 2.56-.512-.862-1.075-1.69-1.553-2.56zM418.492 442.206c.068.708.222 1.391.316 2.082-.094-.691-.248-1.408-.316-2.082zM429.867 473.481c.563.853 1.203 1.596 1.792 2.398-.589-.802-1.229-1.57-1.792-2.398zM448.418 491.93c.853.58 1.775 1.084 2.671 1.621-.896-.537-1.809-1.041-2.671-1.621zM443.136 488.005c.785.649 1.638 1.229 2.458 1.835-.82-.606-1.673-1.187-2.458-1.835zM433.826 478.72c.64.768 1.357 1.485 2.031 2.227-.657-.708-1.391-1.424-2.031-2.227zM460.083 498.202c.964.401 1.963.717 2.953 1.075-.99-.358-1.989-.674-2.953-1.075zM466.381 500.472c1.015.316 2.065.529 3.098.794-.999-.265-2.083-.478-3.098-.794zM423.535 461.867c.375.853.853 1.707 1.254 2.56-.418-.836-.879-1.672-1.254-2.56zM454.076 495.335c.913.495 1.877.905 2.816 1.357-.939-.453-1.903-.862-2.816-1.357z"/></g><path fill="#fcca75" d="M273.067 162.134H59.733V230.4h213.334l-8.534-34.133z"/><path fill="#fff7d2" d="M273.067 230.4h8.533l34.133-34.133-34.133-34.133h-8.533l-8.534 34.133z"/><path fill="#fee9ab" d="M42.667 230.4h17.067v-68.267H42.667c-18.85 0-34.133 15.283-34.133 34.133S23.817 230.4 42.667 230.4z"/><path fill="#fcca75" d="M196.267 358.4h256v-256l-256 256zm204.8-51.2h-81.195l81.195-81.195V307.2z"/><path fill="#fee9ab" d="M401.067 226.006L319.872 307.2h81.195z"/><path d="M503.467 0h-384c-4.71 0-8.533 3.823-8.533 8.533v128H128V17.067h366.933V486.4c.085 4.489-3.379 8.243-7.859 8.533-.734 0-1.468-.06-2.202-.077-1.51-.043-3.021-.077-4.506-.23-.128 0-.247 0-.375-.051-27.87-3.046-49.886-25.037-52.958-52.907 0-.119-.043-.247-.06-.367-.205-2.031-.307-4.062-.307-6.101v-17.067c0-4.71-3.823-8.533-8.533-8.533H128V256h-17.067v153.6H42.667c-4.71 0-8.533 3.823-8.533 8.533V435.2c.051 42.394 34.406 76.749 76.8 76.8h376.32c13.85-.358 24.858-11.75 24.747-25.6V8.534C512 3.823 508.177 0 503.467 0zM110.933 494.934C77.961 494.9 51.234 468.173 51.2 435.2v-8.533h358.4v8.533c.009 2.816.171 5.623.486 8.422.077.742.222 1.459.324 2.193.282 2.065.623 4.122 1.075 6.144.154.708.35 1.408.529 2.116.521 2.057 1.109 4.079 1.792 6.076.196.572.401 1.135.614 1.707.777 2.116 1.655 4.181 2.62 6.221.205.418.393.853.597 1.237 1.067 2.159 2.244 4.267 3.524 6.306.171.273.324.555.495.853 1.391 2.176 2.893 4.284 4.497 6.315l.273.367c1.86 2.338 3.857 4.574 5.973 6.682 1.835 1.818 3.746 3.524 5.717 5.12l-327.183-.025z"/><path d="M281.6 238.934c2.261 0 4.437-.896 6.033-2.5l34.133-34.133c3.328-3.328 3.328-8.738 0-12.066l-34.133-34.133c-1.596-1.604-3.772-2.5-6.033-2.5H42.667C19.106 153.6 0 172.707 0 196.267s19.106 42.667 42.667 42.667H281.6zm-23.723-51.2H85.333V204.8h172.544l4.267 17.067H68.267v-51.2h193.877l-4.267 17.067zm45.79 8.533l-24.269 24.269-6.067-24.269 6.067-24.269 24.269 24.269zm-286.6 0c0-14.14 11.46-25.6 25.6-25.6H51.2v51.2h-8.533c-14.14 0-25.6-11.46-25.6-25.6zM196.267 366.934h256c4.71 0 8.533-3.823 8.533-8.533v-256c0-4.71-3.823-8.533-8.533-8.533-2.261 0-4.429.896-6.033 2.5l-256 256c-3.328 3.337-3.328 8.738 0 12.066 1.604 1.604 3.771 2.5 6.033 2.5zM443.733 123v22.067h-17.067v17.067h17.067V179.2h-17.067v17.067h17.067v17.067h-17.067V230.4h17.067v17.067h-17.067v17.067h17.067V281.6h-17.067v17.067h17.067v17.067h-17.067V332.8h17.067v17.067h-17.067V332.8H409.6v17.067h-17.067V332.8h-17.067v17.067H358.4V332.8h-17.067v17.067h-17.067V332.8H307.2v17.067h-17.067V332.8h-17.067v17.067H256V332.8h-17.067v17.067h-22.067L443.733 123z"/><path d="M319.872 315.734h81.195c4.71 0 8.533-3.823 8.533-8.533v-81.195c0-4.71-3.823-8.533-8.533-8.533-2.261 0-4.429.896-6.033 2.5l-81.195 81.195c-3.328 3.337-3.328 8.738 0 12.066 1.604 1.604 3.772 2.5 6.033 2.5zm72.661-69.12v52.053H340.48l52.053-52.053zM221.867 51.2h170.667v17.067H221.867zM196.267 85.334h221.867v17.067H196.267zM145.067 264.534h51.2v17.067h-51.2zM145.067 298.667H179.2v17.067h-34.133z"/></svg>
