<svg xmlns="http://www.w3.org/2000/svg" viewBox="0 0 401 400"><g fill="none" fill-rule="evenodd"><path fill="#FCCA75" d="M345.710938 359.416406s-33.146094-33.146093-62.346094-99.4375C250.279688 184.866406 251.007812 92.6703125 200.5 92.6703125c-50.507812 0-49.779688 92.1960935-82.864844 167.3078125-29.1999998 66.292188-62.3460935 99.438281-62.3460935 99.438281H345.710938z"/><path fill="#B3E59F" d="M394.640625 359.416406s-22.157031-20.59375-41.676563-61.78125c-22.116406-46.667187-21.629687-103.949219-55.39375-103.949219-33.764062 0-33.276562 57.282032-55.39375 103.949219-19.519531 41.1875-41.676562 61.78125-41.676562 61.78125h194.140625z"/><path fill="#95D6A4" d="M352.964062 297.635156c-22.116406-46.667187-21.629687-103.949219-55.39375-103.949219-3.835156 0-7.225.746094-10.259375 2.125 23.68125 10.758594 25.529688 60.457813 45.133594 101.824219 19.519531 41.1875 41.676563 61.78125 41.676563 61.78125h20.519531s-22.157031-20.59375-41.676563-61.78125z"/><path fill="#F3B141" d="M283.364844 259.978125C250.279687 184.866406 251.007812 92.6703125 200.5 92.6703125c-3.532031 0-6.804688.4664062-9.864844 1.3304688 31.660938 8.9429687 39.620313 62.1406247 56.079688 118.2156247 1.732812 5.904688 1.684375 12.19375-.136719 18.071875-1.451563 4.683594-2.857813 9.535938-4.297656 14.5125-4.410157 15.240625-8.969532 31-15.79375 45.399219-17.642969 37.228125-37.655469 56.355469-37.807032 56.499219l-13.682812 12.717187h170.714062s-33.146093-33.146094-62.346093-99.438281z"/><path fill="#CEBFE2" d="M268.670312 219.634375c-8.550781 20.940625-13.8 51.217187-26.49375 78.000781-19.519531 41.1875-41.676562 61.78125-41.676562 61.78125h145.210938s-33.146094-33.146094-62.346094-99.4375c-5.779688-13.121094-10.525-26.763281-14.694532-40.344531z"/><g fill="#000"><path d="M394.640625 375.653906H24.8460938V199.428125c2.6742187-.542969 4.6875-2.907031 4.6875-5.741406 0-2.834375-2.0132813-5.198438-4.6875-5.741407V98.4125c2.6742187-.5429687 4.6875-2.9070312 4.6875-5.7414062s-2.0132813-5.1984375-4.6875-5.7414063V5.859375C24.8460938 2.62265625 22.2226563 0 18.9867188 0s-5.859375 2.62265625-5.859375 5.859375v30.44375H6.359375C3.1234375 36.303125.5 38.9257813.5 42.1625c0 3.2367188 2.6234375 5.859375 5.859375 5.859375h6.7679688v38.7890625H6.359375C3.1234375 86.8109375.5 89.4335938.5 92.6703125c0 3.2367188 2.6234375 5.859375 5.859375 5.859375h6.7679688V137.31875H6.359375C3.1234375 137.31875.5 139.941406.5 143.178125s2.6234375 5.859375 5.859375 5.859375h6.7679688v38.789063H6.359375C3.1234375 187.826563.5 190.449219.5 193.685938c0 3.236718 2.6234375 5.859375 5.859375 5.859375h6.7679688v38.789062H6.359375C3.1234375 238.334375.5 240.957031.5 244.19375s2.6234375 5.859375 5.859375 5.859375h6.7679688v38.789063H6.359375C3.1234375 288.842188.5 291.464844.5 294.701563c0 3.236718 2.6234375 5.859374 5.859375 5.859374h6.7679688V339.35H6.359375C3.1234375 339.35.5 341.972656.5 345.209375s2.6234375 5.859375 5.859375 5.859375h6.7679688v30.442969c0 3.236718 2.6234375 5.859375 5.859375 5.859375h30.4429687v6.767968c0 3.236719 2.6234375 5.859375 5.859375 5.859375s5.859375-2.622656 5.859375-5.859375v-6.767968H99.9375v6.767968c0 3.236719 2.623438 5.859375 5.859375 5.859375 3.235938 0 5.859375-2.622656 5.859375-5.859375v-6.767968h38.789062v6.767968c0 3.236719 2.623438 5.859375 5.859376 5.859375 3.235937 0 5.859374-2.622656 5.859374-5.859375v-6.767968h38.789063v6.767968c0 3.236719 2.622656 5.859375 5.859375 5.859375s5.859375-2.622656 5.859375-5.859375v-6.767968h38.789062v6.767968c0 3.236719 2.622657 5.859375 5.859375 5.859375 3.236719 0 5.859375-2.622656 5.859375-5.859375v-6.767968h38.789063v6.767968c0 3.236719 2.622656 5.859375 5.859375 5.859375s5.859375-2.622656 5.859375-5.859375v-6.767968h38.789062v6.767968c0 3.236719 2.622657 5.859375 5.859375 5.859375 3.236719 0 5.859375-2.622656 5.859375-5.859375v-6.767968h30.445313c3.236719 0 5.859375-2.622657 5.859375-5.859375 0-3.236719-2.622656-5.857813-5.859375-5.857813zM356.0625 304.103906c-2.854688 1.523438-3.935156 5.072656-2.411719 7.927344 18.089844 33.905469 36.2375 50.964844 37.000782 51.675 1.127343 1.048437 2.557031 1.565625 3.983593 1.565625 1.569531 0 3.135938-.627344 4.289844-1.866406 2.203125-2.365625 2.071875-6.071875-.290625-8.278906-.174219-.1625-17.555469-16.582032-34.644531-48.611719-1.523438-2.853125-5.072657-3.934375-7.927344-2.410938z"/><path d="M51.1429687 355.273438c-2.2851562 2.288281-2.284375 5.996093.0023438 8.283593 1.1445312 1.144532 2.64375 1.716407 4.14375 1.716407 1.4992187 0 2.9984375-.571875 4.1429687-1.715625 1.3851563-1.384376 34.2625-34.682813 63.5632808-101.219532 8.998438-20.427343 15.586719-42.292968 21.242969-62.792187h16.014844c3.235937 0 5.859375-2.622656 5.859375-5.859375s-2.623438-5.859375-5.859375-5.859375h-12.825781c.325-1.207813.65-2.414844.971094-3.607813 1.511718-5.620312 2.939062-10.928906 4.396093-16.174218.866406-3.117969-.958593-6.347657-4.076562-7.214063-3.116407-.864063-6.347656.959375-7.214063 4.077344-1.470312 5.291406-2.903906 10.624218-4.421875 16.26875-6.507812 24.202344-13.884375 51.635156-24.810156 76.438281-28.3421875 64.355469-60.8046875 97.332031-61.1289063 97.657813zM308.571875 297.19375c-1.596875-2.815625-5.173438-3.799219-7.988281-2.203125-2.814844 1.597656-3.800782 5.174219-2.203125 7.988281 22.585156 39.788282 42.357812 59.749219 43.188281 60.579688 1.14375 1.142969 2.641406 1.714062 4.139844 1.714062 1.498437 0 2.996875-.571875 4.141406-1.714062 2.288281-2.285938 2.290625-5.994532.007031-8.284375-.192969-.194532-19.557812-19.80625-41.285156-58.080469z"/><path d="M149.590625 138.396094c-1.0625 3.057031.553906 6.396094 3.610938 7.458594 3.055468 1.061718 6.396093-.553907 7.457812-3.610157C171.453125 111.196094 182.995313 98.53125 200.5 98.53125c29.063281 0 39.232031 37.817187 52.105469 85.695312.320312 1.190626.644531 2.395313.96875 3.6h-.2c-3.236719 0-5.859375 2.622657-5.859375 5.859375 0 3.236719 2.622656 5.859375 5.859375 5.859375h3.388281c1.79375 6.502344 3.684375 13.139063 5.713281 19.827344-3.348437 8.596875-6.19375 18.416406-9.145312 28.619531-4.535157 15.680469-9.225 31.89375-16.446875 47.130469-18.7375 39.532813-40.164844 59.803906-40.378907 60.003906-2.364843 2.203907-2.498437 5.907813-.297656 8.276563 1.154688 1.241406 2.721094 1.870313 4.292969 1.870313 1.428125 0 2.860156-.518751 3.988281-1.567969.9375-.871875 23.207031-21.838281 42.985156-63.563282C255.1 284.051562 260.140625 266.625 264.5875 251.249219c1.353906-4.682032 2.65-9.090625 3.929687-13.220313 2.85625 8.210156 5.988282 16.367969 9.485938 24.307031 2.377344 5.401563 4.89375 10.828125 7.478906 16.130469 1.015625 2.082031 3.100781 3.292969 5.271094 3.292969.861719 0 1.7375-.191406 2.563281-.594531 2.909375-1.417969 4.117188-4.926563 2.698438-7.834375-2.519532-5.165625-4.970313-10.453125-7.286719-15.716407-5.347656-12.140625-9.841406-24.910937-13.803125-37.624218 5.6125-13.067969 12.139844-20.442969 22.64375-20.442969 17.153906 0 23.707812 19.646094 32.980469 51.702344 3.328125 11.505468 6.76875 23.401562 11.338281 35.317968 1.158594 3.021094 4.545312 4.532813 7.56875 3.372657 3.021094-1.158594 4.53125-4.546875 3.372656-7.56875-4.391406-11.453125-7.763281-23.107032-11.022656-34.378125-4.458594-15.411719-8.669531-29.967969-14.746875-40.717188-1.648438-2.915625-3.414844-5.477344-5.292188-7.729687H330.975c3.236719 0 5.859375-2.622657 5.859375-5.859375 0-3.236719-2.622656-5.859375-5.859375-5.859375h-9.3125c-3.236719 0-5.859375 2.622656-5.859375 5.859375 0 .033593.004687.065625.004687.099218-5.280468-3.9875-11.326562-5.957812-18.239062-5.957812-.149219 0-.292969.0125-.440625.014062-.099219-.004687-.197656-.014843-.298438-.014843h-9.311718c-2.671094 0-4.920313 1.789062-5.625782 4.232812-4.39375 2.663281-8.292187 6.600781-11.742187 11.84375-2.204688-7.760156-4.257813-15.389062-6.228906-22.719531-9.365625-34.832813-17.853125-66.397656-34.622657-82.709375 2.877344-.3726563 5.101563-2.8257813 5.101563-5.8046875 0-3.2367188-2.622656-5.859375-5.859375-5.859375h-9.311719c-1.904687 0-3.591406.9125-4.661719 2.3195312-4.255468-1.5109375-8.919531-2.3179687-14.06875-2.3179687-.049218 0-.095312.0039062-.144531.0039062-.035937-.0007812-.061719-.0054687-.099219-.0054687h-15.171093c-3.2125 0-5.817188 2.5851562-5.855469 5.7890625-14.875 9.095312-23.307031 27.5875-29.6375 45.796094zM355.808594 98.5296875h9.3125c3.236718 0 5.859375-2.6226563 5.859375-5.859375s-2.622657-5.859375-5.859375-5.859375h-9.3125c-3.236719 0-5.859375 2.6226563-5.859375 5.859375s2.622656 5.859375 5.859375 5.859375zM321.664062 98.5296875h9.3125c3.236719 0 5.859376-2.6226563 5.859376-5.859375s-2.622657-5.859375-5.859376-5.859375h-9.3125c-3.236718 0-5.859374 2.6226563-5.859374 5.859375s2.622656 5.859375 5.859374 5.859375zM287.519531 98.5296875h9.311719c3.236719 0 5.859375-2.6226563 5.859375-5.859375s-2.622656-5.859375-5.859375-5.859375h-9.311719c-3.236718 0-5.859375 2.6226563-5.859375 5.859375s2.622657 5.859375 5.859375 5.859375zM253.375 98.5296875h9.311719c3.236718 0 5.859375-2.6226563 5.859375-5.859375s-2.622657-5.859375-5.859375-5.859375H253.375c-3.236719 0-5.859375 2.6226563-5.859375 5.859375s2.622656 5.859375 5.859375 5.859375zM150.940625 98.5296875h9.311719c3.235937 0 5.859375-2.6226563 5.859375-5.859375s-2.623438-5.859375-5.859375-5.859375h-9.311719c-3.235938 0-5.859375 2.6226563-5.859375 5.859375s2.623437 5.859375 5.859375 5.859375zM116.795313 98.5296875h9.312499c3.235938 0 5.859375-2.6226563 5.859375-5.859375s-2.623437-5.859375-5.859375-5.859375h-9.312499c-3.235938 0-5.859375 2.6226563-5.859375 5.859375s2.623437 5.859375 5.859375 5.859375zM82.6507813 98.5296875h9.3125c3.2359375 0 5.859375-2.6226563 5.859375-5.859375s-2.6234375-5.859375-5.859375-5.859375h-9.3125c-3.2359375 0-5.859375 2.6226563-5.859375 5.859375s2.6234375 5.859375 5.859375 5.859375zM48.50625 98.5296875h9.3117188c3.2359374 0 5.859375-2.6226563 5.859375-5.859375s-2.6234376-5.859375-5.859375-5.859375H48.50625c-3.2359375 0-5.859375 2.6226563-5.859375 5.859375s2.6234375 5.859375 5.859375 5.859375zM389.953125 98.5296875h4.6875c3.236719 0 5.859375-2.6226563 5.859375-5.859375s-2.622656-5.859375-5.859375-5.859375h-4.6875c-3.236719 0-5.859375 2.6226563-5.859375 5.859375s2.622656 5.859375 5.859375 5.859375zM116.795313 199.546094h9.312499c3.235938 0 5.859375-2.622656 5.859375-5.859375s-2.623437-5.859375-5.859375-5.859375h-9.312499c-3.235938 0-5.859375 2.622656-5.859375 5.859375s2.623437 5.859375 5.859375 5.859375zM48.50625 199.546094h9.3117188c3.2359374 0 5.859375-2.622656 5.859375-5.859375s-2.6234376-5.859375-5.859375-5.859375H48.50625c-3.2359375 0-5.859375 2.622656-5.859375 5.859375s2.6234375 5.859375 5.859375 5.859375zM355.808594 199.546094h9.3125c3.236718 0 5.859375-2.622656 5.859375-5.859375s-2.622657-5.859375-5.859375-5.859375h-9.3125c-3.236719 0-5.859375 2.622656-5.859375 5.859375s2.622656 5.859375 5.859375 5.859375z"/><path d="M228.542188 199.546094c3.236718 0 5.859375-2.622656 5.859375-5.859375s-2.622657-5.859375-5.859375-5.859375h-9.311719c-3.236719 0-5.859375 2.622656-5.859375 5.859375s2.622656 5.859375 5.859375 5.859375h9.311719zM200.25625 193.686719c0-3.236719-2.623438-5.859375-5.859375-5.859375h-9.311719c-3.235937 0-5.859375 2.622656-5.859375 5.859375s2.623438 5.859375 5.859375 5.859375h9.311719c3.236719 0 5.859375-2.622656 5.859375-5.859375zM82.6507813 199.546094h9.3125c3.2359375 0 5.859375-2.622656 5.859375-5.859375s-2.6234375-5.859375-5.859375-5.859375h-9.3125c-3.2359375 0-5.859375 2.622656-5.859375 5.859375s2.6234375 5.859375 5.859375 5.859375zM394.640625 187.827344h-4.6875c-3.236719 0-5.859375 2.622656-5.859375 5.859375s2.622656 5.859375 5.859375 5.859375h4.6875c3.236719 0 5.859375-2.622656 5.859375-5.859375s-2.622656-5.859375-5.859375-5.859375z"/></g></g></svg>
