<?xml version="1.0" encoding="UTF-8"?>
<svg width="401px" height="400px" viewBox="0 0 401 400" version="1.1" xmlns="http://www.w3.org/2000/svg" xmlns:xlink="http://www.w3.org/1999/xlink">
    <!-- Generator: Sketch 52.5 (67469) - http://www.bohemiancoding.com/sketch -->
    <title>curved-dividers</title>
    <desc>Created with Sketch.</desc>
    <g id="Page-1" stroke="none" stroke-width="1" fill="none" fill-rule="evenodd">
        <g id="curved-dividers" transform="translate(0.500000, 0.000000)">
            <path d="M345.210938,359.416406 C345.210938,359.416406 312.064844,326.270313 282.864844,259.978906 C249.779688,184.866406 250.507812,92.6703125 200,92.6703125 C149.492188,92.6703125 150.220312,184.866406 117.135156,259.978125 C87.9351562,326.270313 54.7890625,359.416406 54.7890625,359.416406 L345.210938,359.416406 Z" id="Path" fill="#FCCA75"></path>
            <path d="M394.140625,359.416406 C394.140625,359.416406 371.983594,338.822656 352.464062,297.635156 C330.347656,250.967969 330.834375,193.685937 297.070312,193.685937 C263.30625,193.685937 263.79375,250.967969 241.676562,297.635156 C222.157031,338.822656 200,359.416406 200,359.416406 L394.140625,359.416406 Z" id="Path" fill="#B3E59F"></path>
            <path d="M352.464062,297.635156 C330.347656,250.967969 330.834375,193.685937 297.070312,193.685937 C293.235156,193.685937 289.845312,194.432031 286.810937,195.810937 C310.492187,206.569531 312.340625,256.26875 331.944531,297.635156 C351.464062,338.822656 373.621094,359.416406 373.621094,359.416406 L394.140625,359.416406 C394.140625,359.416406 371.983594,338.822656 352.464062,297.635156 Z" id="Path" fill="#95D6A4"></path>
            <path d="M282.864844,259.978125 C249.779687,184.866406 250.507812,92.6703125 200,92.6703125 C196.467969,92.6703125 193.195312,93.1367187 190.135156,94.0007813 C221.796094,102.94375 229.755469,156.141406 246.214844,212.216406 C247.947656,218.121094 247.899219,224.410156 246.078125,230.288281 C244.626562,234.971875 243.220312,239.824219 241.780469,244.800781 C237.370312,260.041406 232.810937,275.800781 225.986719,290.2 C208.34375,327.428125 188.33125,346.555469 188.179687,346.699219 L174.496875,359.416406 L325.48125,359.416406 L337.31875,359.416406 L345.210937,359.416406 C345.210937,359.416406 312.064844,326.270312 282.864844,259.978125 Z" id="Path" fill="#F3B141"></path>
            <path d="M268.170312,219.634375 C259.619531,240.575 254.370312,270.851562 241.676562,297.635156 C222.157031,338.822656 200,359.416406 200,359.416406 L345.210938,359.416406 C345.210938,359.416406 312.064844,326.270312 282.864844,259.978906 C277.085156,246.857812 272.339844,233.215625 268.170312,219.634375 Z" id="Path" fill="#CEBFE2"></path>
            <g id="Group" fill="#000000">
                <path d="M394.140625,375.653906 L24.3460938,375.653906 L24.3460938,199.428125 C27.0203125,198.885156 29.0335938,196.521094 29.0335938,193.686719 C29.0335938,190.852344 27.0203125,188.488281 24.3460938,187.945312 L24.3460938,98.4125 C27.0203125,97.8695313 29.0335938,95.5054688 29.0335938,92.6710938 C29.0335938,89.8367188 27.0203125,87.4726563 24.3460938,86.9296875 L24.3460938,5.859375 C24.3460938,2.62265625 21.7226563,1.42108547e-14 18.4867188,1.42108547e-14 C15.2507813,1.42108547e-14 12.6273438,2.62265625 12.6273438,5.859375 L12.6273438,36.303125 L5.859375,36.303125 C2.6234375,36.303125 1.0658141e-14,38.9257813 1.0658141e-14,42.1625 C1.0658141e-14,45.3992188 2.6234375,48.021875 5.859375,48.021875 L12.6273438,48.021875 L12.6273438,86.8109375 L5.859375,86.8109375 C2.6234375,86.8109375 1.0658141e-14,89.4335938 1.0658141e-14,92.6703125 C1.0658141e-14,95.9070313 2.6234375,98.5296875 5.859375,98.5296875 L12.6273438,98.5296875 L12.6273438,137.31875 L5.859375,137.31875 C2.6234375,137.31875 1.0658141e-14,139.941406 1.0658141e-14,143.178125 C1.0658141e-14,146.414844 2.6234375,149.0375 5.859375,149.0375 L12.6273438,149.0375 L12.6273438,187.826563 L5.859375,187.826563 C2.6234375,187.826563 1.0658141e-14,190.449219 1.0658141e-14,193.685938 C1.0658141e-14,196.922656 2.6234375,199.545313 5.859375,199.545313 L12.6273438,199.545313 L12.6273438,238.334375 L5.859375,238.334375 C2.6234375,238.334375 1.0658141e-14,240.957031 1.0658141e-14,244.19375 C1.0658141e-14,247.430469 2.6234375,250.053125 5.859375,250.053125 L12.6273438,250.053125 L12.6273438,288.842188 L5.859375,288.842188 C2.6234375,288.842188 1.0658141e-14,291.464844 1.0658141e-14,294.701563 C1.0658141e-14,297.938281 2.6234375,300.560937 5.859375,300.560937 L12.6273438,300.560937 L12.6273438,339.35 L5.859375,339.35 C2.6234375,339.35 1.0658141e-14,341.972656 1.0658141e-14,345.209375 C1.0658141e-14,348.446094 2.6234375,351.06875 5.859375,351.06875 L12.6273438,351.06875 L12.6273438,381.511719 C12.6273438,384.748437 15.2507813,387.371094 18.4867188,387.371094 L48.9296875,387.371094 L48.9296875,394.139062 C48.9296875,397.375781 51.553125,399.998437 54.7890625,399.998437 C58.025,399.998437 60.6484375,397.375781 60.6484375,394.139062 L60.6484375,387.371094 L99.4375,387.371094 L99.4375,394.139062 C99.4375,397.375781 102.060938,399.998437 105.296875,399.998437 C108.532813,399.998437 111.15625,397.375781 111.15625,394.139062 L111.15625,387.371094 L149.945312,387.371094 L149.945312,394.139062 C149.945312,397.375781 152.56875,399.998437 155.804688,399.998437 C159.040625,399.998437 161.664062,397.375781 161.664062,394.139062 L161.664062,387.371094 L200.453125,387.371094 L200.453125,394.139062 C200.453125,397.375781 203.075781,399.998437 206.3125,399.998437 C209.549219,399.998437 212.171875,397.375781 212.171875,394.139062 L212.171875,387.371094 L250.960937,387.371094 L250.960937,394.139062 C250.960937,397.375781 253.583594,399.998437 256.820312,399.998437 C260.057031,399.998437 262.679687,397.375781 262.679687,394.139062 L262.679687,387.371094 L301.46875,387.371094 L301.46875,394.139062 C301.46875,397.375781 304.091406,399.998437 307.328125,399.998437 C310.564844,399.998437 313.1875,397.375781 313.1875,394.139062 L313.1875,387.371094 L351.976562,387.371094 L351.976562,394.139062 C351.976562,397.375781 354.599219,399.998437 357.835937,399.998437 C361.072656,399.998437 363.695312,397.375781 363.695312,394.139062 L363.695312,387.371094 L394.140625,387.371094 C397.377344,387.371094 400,384.748437 400,381.511719 C400,378.275 397.377344,375.653906 394.140625,375.653906 Z" id="Path"></path>
                <path d="M355.5625,304.103906 C352.707812,305.627344 351.627344,309.176562 353.150781,312.03125 C371.240625,345.936719 389.388281,362.996094 390.151563,363.70625 C391.278906,364.754687 392.708594,365.271875 394.135156,365.271875 C395.704687,365.271875 397.271094,364.644531 398.425,363.405469 C400.628125,361.039844 400.496875,357.333594 398.134375,355.126563 C397.960156,354.964063 380.578906,338.544531 363.489844,306.514844 C361.966406,303.661719 358.417187,302.580469 355.5625,304.103906 Z" id="Path"></path>
                <path d="M50.6429687,355.273438 C48.3578125,357.561719 48.3585937,361.269531 50.6453125,363.557031 C51.7898437,364.701563 53.2890625,365.273438 54.7890625,365.273438 C56.2882812,365.273438 57.7875,364.701563 58.9320312,363.557813 C60.3171875,362.173437 93.1945312,328.875 122.495312,262.338281 C131.49375,241.910938 138.082031,220.045313 143.738281,199.546094 L159.753125,199.546094 C162.989062,199.546094 165.6125,196.923438 165.6125,193.686719 C165.6125,190.45 162.989062,187.827344 159.753125,187.827344 L146.927344,187.827344 C147.252344,186.619531 147.577344,185.4125 147.898438,184.219531 C149.410156,178.599219 150.8375,173.290625 152.294531,168.045313 C153.160937,164.927344 151.335938,161.697656 148.217969,160.83125 C145.101562,159.967187 141.870313,161.790625 141.003906,164.908594 C139.533594,170.2 138.1,175.532812 136.582031,181.177344 C130.074219,205.379688 122.697656,232.8125 111.771875,257.615625 C83.4296875,321.971094 50.9671875,354.947656 50.6429687,355.273438 Z" id="Path"></path>
                <path d="M308.071875,297.19375 C306.475,294.378125 302.898437,293.394531 300.083594,294.990625 C297.26875,296.588281 296.282812,300.164844 297.880469,302.978906 C320.465625,342.767188 340.238281,362.728125 341.06875,363.558594 C342.2125,364.701563 343.710156,365.272656 345.208594,365.272656 C346.707031,365.272656 348.205469,364.700781 349.35,363.558594 C351.638281,361.272656 351.640625,357.564062 349.357031,355.274219 C349.164062,355.079687 329.799219,335.467969 308.071875,297.19375 Z" id="Path"></path>
                <path d="M149.090625,138.396094 C148.028125,141.453125 149.644531,144.792188 152.701563,145.854688 C155.757031,146.916406 159.097656,145.300781 160.159375,142.244531 C170.953125,111.196094 182.495313,98.53125 200,98.53125 C229.063281,98.53125 239.232031,136.348437 252.105469,184.226562 C252.425781,185.417188 252.75,186.621875 253.074219,187.826562 L252.874219,187.826562 C249.6375,187.826562 247.014844,190.449219 247.014844,193.685937 C247.014844,196.922656 249.6375,199.545312 252.874219,199.545312 L256.2625,199.545312 C258.05625,206.047656 259.946875,212.684375 261.975781,219.372656 C258.627344,227.969531 255.782031,237.789062 252.830469,247.992187 C248.295312,263.672656 243.605469,279.885937 236.383594,295.122656 C217.646094,334.655469 196.21875,354.926562 196.004687,355.126562 C193.639844,357.330469 193.50625,361.034375 195.707031,363.403125 C196.861719,364.644531 198.428125,365.273438 200,365.273438 C201.428125,365.273438 202.860156,364.754687 203.988281,363.705469 C204.925781,362.833594 227.195312,341.867188 246.973437,300.142187 C254.6,284.051562 259.640625,266.625 264.0875,251.249219 C265.441406,246.567187 266.7375,242.158594 268.017187,238.028906 C270.873437,246.239062 274.005469,254.396875 277.503125,262.335937 C279.880469,267.7375 282.396875,273.164062 284.982031,278.466406 C285.997656,280.548437 288.082812,281.759375 290.253125,281.759375 C291.114844,281.759375 291.990625,281.567969 292.816406,281.164844 C295.725781,279.746875 296.933594,276.238281 295.514844,273.330469 C292.995312,268.164844 290.544531,262.877344 288.228125,257.614062 C282.880469,245.473437 278.386719,232.703125 274.425,219.989844 C280.0375,206.921875 286.564844,199.546875 297.06875,199.546875 C314.222656,199.546875 320.776562,219.192969 330.049219,251.249219 C333.377344,262.754687 336.817969,274.650781 341.3875,286.567187 C342.546094,289.588281 345.932812,291.1 348.95625,289.939844 C351.977344,288.78125 353.4875,285.392969 352.328906,282.371094 C347.9375,270.917969 344.565625,259.264062 341.30625,247.992969 C336.847656,232.58125 332.636719,218.025 326.559375,207.275781 C324.910937,204.360156 323.144531,201.798437 321.267187,199.546094 L330.475,199.546094 C333.711719,199.546094 336.334375,196.923437 336.334375,193.686719 C336.334375,190.45 333.711719,187.827344 330.475,187.827344 L321.1625,187.827344 C317.925781,187.827344 315.303125,190.45 315.303125,193.686719 C315.303125,193.720312 315.307812,193.752344 315.307812,193.785937 C310.027344,189.798437 303.98125,187.828125 297.06875,187.828125 C296.919531,187.828125 296.775781,187.840625 296.628125,187.842187 C296.528906,187.8375 296.430469,187.827344 296.329687,187.827344 L287.017969,187.827344 C284.346875,187.827344 282.097656,189.616406 281.392187,192.060156 C276.998437,194.723437 273.1,198.660937 269.65,203.903906 C267.445312,196.14375 265.392187,188.514844 263.421094,181.184375 C254.055469,146.351562 245.567969,114.786719 228.798437,98.475 C231.675781,98.1023437 233.9,95.6492187 233.9,92.6703125 C233.9,89.4335937 231.277344,86.8109375 228.040625,86.8109375 L218.728906,86.8109375 C216.824219,86.8109375 215.1375,87.7234375 214.067187,89.1304687 C209.811719,87.6195312 205.147656,86.8125 199.998437,86.8125 C199.949219,86.8125 199.903125,86.8164062 199.853906,86.8164062 C199.817969,86.815625 199.792187,86.8109375 199.754687,86.8109375 L184.583594,86.8109375 C181.371094,86.8109375 178.766406,89.3960937 178.728125,92.6 C163.853125,101.695312 155.421094,120.1875 149.090625,138.396094 Z" id="Path"></path>
                <path d="M355.308594,98.5296875 L364.621094,98.5296875 C367.857812,98.5296875 370.480469,95.9070312 370.480469,92.6703125 C370.480469,89.4335938 367.857812,86.8109375 364.621094,86.8109375 L355.308594,86.8109375 C352.071875,86.8109375 349.449219,89.4335938 349.449219,92.6703125 C349.449219,95.9070312 352.071875,98.5296875 355.308594,98.5296875 Z" id="Path"></path>
                <path d="M321.164062,98.5296875 L330.476562,98.5296875 C333.713281,98.5296875 336.335938,95.9070312 336.335938,92.6703125 C336.335938,89.4335938 333.713281,86.8109375 330.476562,86.8109375 L321.164062,86.8109375 C317.927344,86.8109375 315.304688,89.4335938 315.304688,92.6703125 C315.304688,95.9070312 317.927344,98.5296875 321.164062,98.5296875 Z" id="Path"></path>
                <path d="M287.019531,98.5296875 L296.33125,98.5296875 C299.567969,98.5296875 302.190625,95.9070312 302.190625,92.6703125 C302.190625,89.4335938 299.567969,86.8109375 296.33125,86.8109375 L287.019531,86.8109375 C283.782813,86.8109375 281.160156,89.4335938 281.160156,92.6703125 C281.160156,95.9070312 283.782813,98.5296875 287.019531,98.5296875 Z" id="Path"></path>
                <path d="M252.875,98.5296875 L262.186719,98.5296875 C265.423437,98.5296875 268.046094,95.9070312 268.046094,92.6703125 C268.046094,89.4335938 265.423437,86.8109375 262.186719,86.8109375 L252.875,86.8109375 C249.638281,86.8109375 247.015625,89.4335938 247.015625,92.6703125 C247.015625,95.9070312 249.638281,98.5296875 252.875,98.5296875 Z" id="Path"></path>
                <path d="M150.440625,98.5296875 L159.752344,98.5296875 C162.988281,98.5296875 165.611719,95.9070312 165.611719,92.6703125 C165.611719,89.4335938 162.988281,86.8109375 159.752344,86.8109375 L150.440625,86.8109375 C147.204687,86.8109375 144.58125,89.4335938 144.58125,92.6703125 C144.58125,95.9070312 147.204687,98.5296875 150.440625,98.5296875 Z" id="Path"></path>
                <path d="M116.295313,98.5296875 L125.607812,98.5296875 C128.84375,98.5296875 131.467187,95.9070312 131.467187,92.6703125 C131.467187,89.4335938 128.84375,86.8109375 125.607812,86.8109375 L116.295313,86.8109375 C113.059375,86.8109375 110.435938,89.4335938 110.435938,92.6703125 C110.435938,95.9070312 113.059375,98.5296875 116.295313,98.5296875 Z" id="Path"></path>
                <path d="M82.1507813,98.5296875 L91.4632813,98.5296875 C94.6992188,98.5296875 97.3226563,95.9070312 97.3226563,92.6703125 C97.3226563,89.4335938 94.6992188,86.8109375 91.4632813,86.8109375 L82.1507813,86.8109375 C78.9148438,86.8109375 76.2914063,89.4335938 76.2914063,92.6703125 C76.2914063,95.9070312 78.9148438,98.5296875 82.1507813,98.5296875 Z" id="Path"></path>
                <path d="M48.00625,98.5296875 L57.3179688,98.5296875 C60.5539062,98.5296875 63.1773438,95.9070312 63.1773438,92.6703125 C63.1773438,89.4335938 60.5539062,86.8109375 57.3179688,86.8109375 L48.00625,86.8109375 C44.7703125,86.8109375 42.146875,89.4335938 42.146875,92.6703125 C42.146875,95.9070312 44.7703125,98.5296875 48.00625,98.5296875 Z" id="Path"></path>
                <path d="M389.453125,98.5296875 L394.140625,98.5296875 C397.377344,98.5296875 400,95.9070312 400,92.6703125 C400,89.4335938 397.377344,86.8109375 394.140625,86.8109375 L389.453125,86.8109375 C386.216406,86.8109375 383.59375,89.4335938 383.59375,92.6703125 C383.59375,95.9070312 386.216406,98.5296875 389.453125,98.5296875 Z" id="Path"></path>
                <path d="M116.295313,199.546094 L125.607812,199.546094 C128.84375,199.546094 131.467187,196.923438 131.467187,193.686719 C131.467187,190.45 128.84375,187.827344 125.607812,187.827344 L116.295313,187.827344 C113.059375,187.827344 110.435938,190.45 110.435938,193.686719 C110.435938,196.923438 113.059375,199.546094 116.295313,199.546094 Z" id="Path"></path>
                <path d="M48.00625,199.546094 L57.3179688,199.546094 C60.5539062,199.546094 63.1773438,196.923438 63.1773438,193.686719 C63.1773438,190.45 60.5539062,187.827344 57.3179688,187.827344 L48.00625,187.827344 C44.7703125,187.827344 42.146875,190.45 42.146875,193.686719 C42.146875,196.923438 44.7703125,199.546094 48.00625,199.546094 Z" id="Path"></path>
                <path d="M355.308594,199.546094 L364.621094,199.546094 C367.857812,199.546094 370.480469,196.923438 370.480469,193.686719 C370.480469,190.45 367.857812,187.827344 364.621094,187.827344 L355.308594,187.827344 C352.071875,187.827344 349.449219,190.45 349.449219,193.686719 C349.449219,196.923438 352.071875,199.546094 355.308594,199.546094 Z" id="Path"></path>
                <path d="M228.042188,199.546094 C231.278906,199.546094 233.901563,196.923438 233.901563,193.686719 C233.901563,190.45 231.278906,187.827344 228.042188,187.827344 L218.730469,187.827344 C215.49375,187.827344 212.871094,190.45 212.871094,193.686719 C212.871094,196.923438 215.49375,199.546094 218.730469,199.546094 L228.042188,199.546094 Z" id="Path"></path>
                <path d="M199.75625,193.686719 C199.75625,190.45 197.132812,187.827344 193.896875,187.827344 L184.585156,187.827344 C181.349219,187.827344 178.725781,190.45 178.725781,193.686719 C178.725781,196.923438 181.349219,199.546094 184.585156,199.546094 L193.896875,199.546094 C197.133594,199.546094 199.75625,196.923438 199.75625,193.686719 Z" id="Path"></path>
                <path d="M82.1507813,199.546094 L91.4632813,199.546094 C94.6992188,199.546094 97.3226563,196.923438 97.3226563,193.686719 C97.3226563,190.45 94.6992188,187.827344 91.4632813,187.827344 L82.1507813,187.827344 C78.9148438,187.827344 76.2914063,190.45 76.2914063,193.686719 C76.2914063,196.923438 78.9148438,199.546094 82.1507813,199.546094 Z" id="Path"></path>
                <path d="M394.140625,187.827344 L389.453125,187.827344 C386.216406,187.827344 383.59375,190.45 383.59375,193.686719 C383.59375,196.923438 386.216406,199.546094 389.453125,199.546094 L394.140625,199.546094 C397.377344,199.546094 400,196.923438 400,193.686719 C400,190.45 397.377344,187.827344 394.140625,187.827344 Z" id="Path"></path>
            </g>
        </g>
    </g>
</svg>