<svg xmlns="http://www.w3.org/2000/svg" viewBox="0 0 400 400"><g fill="none" fill-rule="evenodd"><path fill="#FCCA75" d="M345.21 359.416s-33.145-33.146-62.345-99.437C249.78 184.866 250.508 92.67 200 92.67c-50.508 0-49.78 92.196-82.865 167.308-29.2 66.292-62.346 99.438-62.346 99.438h290.422z"/><path fill="#B3E59F" d="M394.14 359.416s-22.156-20.593-41.676-61.78c-22.116-46.668-21.63-103.95-55.394-103.95-33.764 0-33.276 57.282-55.393 103.95-19.52 41.187-41.677 61.78-41.677 61.78h194.14z"/><path fill="#95D6A4" d="M352.464 297.635c-22.116-46.667-21.63-103.95-55.394-103.95-3.835 0-7.225.747-10.26 2.126 23.682 10.759 25.53 60.458 45.135 101.824 19.52 41.188 41.676 61.781 41.676 61.781h20.52s-22.157-20.593-41.677-61.78z"/><path fill="#F3B141" d="M282.865 259.978C249.78 184.866 250.508 92.67 200 92.67c-3.532 0-6.805.467-9.865 1.33 31.661 8.944 39.62 62.141 56.08 118.216a31.3 31.3 0 01-.137 18.072c-1.451 4.684-2.858 9.536-4.298 14.513-4.41 15.24-8.97 31-15.793 45.399-17.643 37.228-37.656 56.355-37.807 56.5l-13.683 12.716H345.21s-33.146-33.146-62.346-99.438z"/><path fill="#CEBFE2" d="M268.17 219.634c-8.55 20.941-13.8 51.218-26.493 78.001C222.157 338.823 200 359.416 200 359.416h145.21s-33.145-33.146-62.345-99.437c-5.78-13.121-10.525-26.763-14.695-40.345z"/><g fill="#000"><path d="M394.14 375.654H24.347V199.428a5.861 5.861 0 000-11.483V98.413a5.861 5.861 0 000-11.483V5.86a5.859 5.859 0 10-11.719 0v30.443H5.86a5.859 5.859 0 100 11.719h6.768V86.81H5.86a5.859 5.859 0 100 11.719h6.768v38.789H5.86a5.859 5.859 0 100 11.719h6.768v38.789H5.86a5.859 5.859 0 100 11.718h6.768v38.79H5.86a5.859 5.859 0 100 11.718h6.768v38.79H5.86a5.859 5.859 0 100 11.718h6.768v38.789H5.86a5.859 5.859 0 100 11.719h6.768v30.443a5.859 5.859 0 005.86 5.86H48.93v6.767a5.859 5.859 0 1011.718 0v-6.768h38.79v6.768a5.859 5.859 0 1011.718 0v-6.768h38.79v6.768a5.859 5.859 0 1011.718 0v-6.768h38.79v6.768a5.859 5.859 0 005.858 5.86 5.859 5.859 0 005.86-5.86v-6.768h38.789v6.768a5.859 5.859 0 005.86 5.86 5.859 5.859 0 005.859-5.86v-6.768h38.789v6.768a5.859 5.859 0 005.86 5.86 5.859 5.859 0 005.858-5.86v-6.768h38.79v6.768a5.859 5.859 0 005.859 5.86 5.859 5.859 0 005.86-5.86v-6.768h30.445a5.859 5.859 0 100-11.717zM355.563 304.104a5.86 5.86 0 00-2.412 7.927c18.09 33.906 36.237 50.965 37 51.675a5.829 5.829 0 003.984 1.566c1.57 0 3.136-.627 4.29-1.867a5.864 5.864 0 00-.29-8.278c-.175-.163-17.556-16.582-34.645-48.612a5.86 5.86 0 00-7.928-2.411z"/><path d="M50.643 355.273a5.86 5.86 0 008.289 8.285c1.385-1.385 34.263-34.683 63.563-101.22 8.999-20.427 15.587-42.293 21.243-62.792h16.015a5.859 5.859 0 100-11.719h-12.826l.971-3.607c1.512-5.62 2.94-10.93 4.397-16.175a5.859 5.859 0 10-11.291-3.136c-1.47 5.291-2.904 10.624-4.422 16.268-6.508 24.203-13.884 51.636-24.81 76.439-28.342 64.355-60.805 97.332-61.129 97.657zM308.072 297.194a5.86 5.86 0 10-10.192 5.785c22.586 39.788 42.358 59.75 43.189 60.58a5.837 5.837 0 004.14 1.714 5.861 5.861 0 004.148-9.998c-.193-.195-19.558-19.807-41.285-58.081z"/><path d="M149.09 138.396a5.86 5.86 0 0011.07 3.849C170.952 111.196 182.494 98.53 200 98.53c29.063 0 39.232 37.817 52.105 85.696l.97 3.6h-.2a5.859 5.859 0 00-5.86 5.859 5.859 5.859 0 005.86 5.86h3.387c1.794 6.502 3.685 13.138 5.714 19.827-3.349 8.597-6.194 18.416-9.146 28.62-4.535 15.68-9.225 31.893-16.446 47.13-18.738 39.532-40.165 59.804-40.38 60.004A5.861 5.861 0 00200 365.273c1.428 0 2.86-.518 3.988-1.568.938-.871 23.207-21.838 42.985-63.563 7.627-16.09 12.668-33.517 17.114-48.893 1.354-4.682 2.65-9.09 3.93-13.22 2.856 8.21 5.988 16.368 9.486 24.307a457.663 457.663 0 007.479 16.13 5.86 5.86 0 007.834 2.699 5.858 5.858 0 002.699-7.835 443.927 443.927 0 01-7.287-15.716c-5.348-12.14-9.841-24.91-13.803-37.624 5.613-13.068 12.14-20.443 22.644-20.443 17.154 0 23.708 19.646 32.98 51.702 3.328 11.506 6.769 23.402 11.339 35.318a5.86 5.86 0 0010.941-4.196c-4.392-11.453-7.763-23.107-11.023-34.378-4.458-15.412-8.67-29.968-14.747-40.717-1.648-2.916-3.414-5.478-5.292-7.73h9.208a5.859 5.859 0 005.86-5.86 5.859 5.859 0 00-5.86-5.859h-9.313a5.859 5.859 0 00-5.859 5.86c0 .033.005.065.005.099-5.28-3.988-11.327-5.958-18.24-5.958-.148 0-.292.013-.44.014-.1-.005-.198-.015-.298-.015h-9.312a5.858 5.858 0 00-5.626 4.233c-4.394 2.663-8.292 6.6-11.742 11.844-2.205-7.76-4.258-15.39-6.229-22.72-9.366-34.832-17.853-66.397-34.623-82.709a5.856 5.856 0 00-.757-11.664h-9.312a5.844 5.844 0 00-4.662 2.32c-4.255-1.511-8.92-2.319-14.069-2.319-.049 0-.095.004-.144.004-.036 0-.062-.005-.1-.005h-15.17a5.857 5.857 0 00-5.856 5.789c-14.875 9.095-23.307 27.588-29.637 45.796zM355.309 98.53h9.312a5.859 5.859 0 005.86-5.86 5.859 5.859 0 00-5.86-5.86h-9.312a5.859 5.859 0 00-5.86 5.86 5.859 5.859 0 005.86 5.86zM321.164 98.53h9.313a5.859 5.859 0 005.859-5.86 5.859 5.859 0 00-5.86-5.86h-9.312a5.859 5.859 0 00-5.86 5.86 5.859 5.859 0 005.86 5.86zM287.02 98.53h9.311a5.859 5.859 0 005.86-5.86 5.859 5.859 0 00-5.86-5.86h-9.311a5.859 5.859 0 00-5.86 5.86 5.859 5.859 0 005.86 5.86zM252.875 98.53h9.312a5.859 5.859 0 005.86-5.86 5.859 5.859 0 00-5.86-5.86h-9.312a5.859 5.859 0 00-5.86 5.86 5.859 5.859 0 005.86 5.86zM150.44 98.53h9.312a5.859 5.859 0 100-11.72h-9.311a5.859 5.859 0 100 11.72zM116.295 98.53h9.313a5.859 5.859 0 100-11.72h-9.313a5.859 5.859 0 100 11.72zM82.15 98.53h9.313a5.859 5.859 0 100-11.72h-9.312a5.859 5.859 0 100 11.72zM48.006 98.53h9.312a5.859 5.859 0 100-11.72h-9.312a5.859 5.859 0 100 11.72zM389.453 98.53h4.688A5.859 5.859 0 00400 92.67a5.859 5.859 0 00-5.86-5.86h-4.687a5.859 5.859 0 00-5.86 5.86 5.859 5.859 0 005.86 5.86zM116.295 199.546h9.313a5.859 5.859 0 100-11.719h-9.313a5.859 5.859 0 100 11.72zM48.006 199.546h9.312a5.859 5.859 0 100-11.719h-9.312a5.859 5.859 0 100 11.72zM355.309 199.546h9.312a5.859 5.859 0 005.86-5.86 5.859 5.859 0 00-5.86-5.859h-9.312a5.859 5.859 0 00-5.86 5.86 5.859 5.859 0 005.86 5.86z"/><path d="M228.042 199.546a5.859 5.859 0 005.86-5.86 5.859 5.859 0 00-5.86-5.859h-9.312a5.859 5.859 0 00-5.859 5.86 5.859 5.859 0 005.86 5.86h9.311zM199.756 193.687a5.859 5.859 0 00-5.86-5.86h-9.31a5.859 5.859 0 100 11.72h9.31a5.859 5.859 0 005.86-5.86zM82.15 199.546h9.313a5.859 5.859 0 100-11.719h-9.312a5.859 5.859 0 100 11.72zM394.14 187.827h-4.687a5.859 5.859 0 00-5.86 5.86 5.859 5.859 0 005.86 5.86h4.688a5.859 5.859 0 005.859-5.86 5.859 5.859 0 00-5.86-5.86z"/></g></g></svg>
