<svg xmlns="http://www.w3.org/2000/svg" viewBox="0 0 400 400"><g fill="none" fill-rule="evenodd"><path fill="#965353" d="M296 82v38l-25.467-25.333S238.7 107.333 200.5 107.333s-70.033-12.666-70.033-12.666L105 120V88.333C105 42.797 142.053 6 187.767 6h63.666v31.667C276.073 37.667 296 57.489 296 82z"/><path fill="#844747" d="M251.455 63c10.524 0 19.09 8.526 19.09 19v12.667L296 120V82c0-24.51-19.917-44.333-44.545-44.333V6H226v31.667C226 51.657 237.397 63 251.455 63z"/><path fill="#EAC6BB" d="M200.5 107.68c38.2 0 70.033-12.68 70.033-12.68L296 120.36V152h-25.467v-25.36H130.467V152H105v-31.64L130.467 95s31.833 12.68 70.033 12.68z"/><path fill="#FCCA75" d="M270 152.32v19.051C270 209.792 238.915 241 200.5 241c-38.35 0-69.5-31.208-69.5-69.629V127h139v25.32z"/><path fill="#F3B141" d="M251.021 127v44.371c0 35.2-26.113 64.254-60.021 68.909 3.104.423 6.258.72 9.48.72 38.426 0 69.52-31.208 69.52-69.629V127h-18.979z"/><path fill="#EAC6BB" d="M296 153v19.052c0 36.396-20.63 68.046-50.933 83.932v.065A95.768 95.768 0 01200.5 267a95.843 95.843 0 01-44.567-10.95v-.066C125.63 240.098 105 208.448 105 172.052V153h25.467v19.052c0 38.42 31.388 69.628 70.033 69.628 38.71 0 70.033-31.207 70.033-69.628V153H296z"/><path fill="#545C66" d="M340 343.5v44.188a6.293 6.293 0 01-6.316 6.312H220l37.895-50.5-12.632-12.625 25.263-25.25L257.895 293h31.579C317.389 293 340 315.6 340 343.5z"/><path fill="#656D78" d="M257.273 292.667L270 305.333l-25.455 25.334 12.728 12.666L219.09 394H200l19.79-50.667 14.893-38L244.545 280z"/><path fill="#E6E9ED" d="M180.387 296L193 311.028 179.694 343 165 304.633zM235 304.633L220.275 343 207 311.028 219.584 296z"/><path fill="#F5F7FA" d="M245 279.644L235.148 305l-15.577-8.558-19.071-10.459-19.071 10.459L165.918 305 156 279.644V256a95.401 95.401 0 0044.5 10.966A95.476 95.476 0 00245 256v23.644z"/><path fill="#F3B141" d="M220 296.312L207.333 311h-12.666L182 296.312 201 286z"/><path fill="#FCCA75" d="M206.77 312L220 343.538 200.5 394 181 343.538 194.23 312z"/><path fill="#656D78" d="M180.21 343.333L200 394h-19.09l-38.183-50.667 12.728-12.666L130 305.333 155.455 280l9.927 25.333z"/><path fill="#545C66" d="M142.105 343.5L180 394H66.316c-3.473 0-6.316-2.842-6.316-6.313V343.5c0-27.9 22.611-50.5 50.526-50.5h31.58l-12.632 12.625 25.263 25.25-12.632 12.625z"/><path fill="#000" d="M60.299 349A6.291 6.291 0 0154 342.701C54 311.435 79.435 286 110.701 286a6.291 6.291 0 016.299 6.299 6.291 6.291 0 01-6.299 6.299c-24.318 0-44.103 19.785-44.103 44.103a6.291 6.291 0 01-6.3 6.299zM339.7 349a6.292 6.292 0 01-6.3-6.3c0-24.311-19.789-44.1-44.1-44.1a6.292 6.292 0 01-6.3-6.3c0-3.482 2.815-6.3 6.3-6.3 31.266 0 56.7 25.434 56.7 56.7 0 3.485-2.815 6.3-6.3 6.3z"/><path fill="#000" d="M142.713 299h-31.426c-3.475 0-6.287-2.904-6.287-6.5s2.812-6.5 6.287-6.5h31.426c3.478 0 6.287 2.904 6.287 6.5s-2.809 6.5-6.287 6.5zM60.503 394c-3.585 0-6.497-2.83-6.497-6.335L54 343.335c0-3.496 2.903-6.335 6.497-6.335 3.585 0 6.497 2.833 6.497 6.335l.006 44.33c0 3.496-2.903 6.335-6.497 6.335z"/><path fill="#000" d="M66.667 400C59.68 400 54 394.32 54 387.333A6.328 6.328 0 0160.333 381a6.326 6.326 0 016.334 6.333v.013A6.322 6.322 0 0173 393.673 6.324 6.324 0 0166.667 400zM333.333 400a6.326 6.326 0 01-6.333-6.333 6.326 6.326 0 016.333-6.334h.013a6.322 6.322 0 016.327-6.333 6.324 6.324 0 016.327 6.333c0 6.986-5.68 12.667-12.667 12.667z"/><path fill="#000" d="M339.5 394c-3.596 0-6.5-2.83-6.5-6.335v-44.33c0-3.502 2.904-6.335 6.5-6.335s6.5 2.833 6.5 6.335v44.33c0 3.505-2.904 6.335-6.5 6.335z"/><path fill="#000" d="M333.659 400H67.341c-3.505 0-6.341-2.904-6.341-6.5s2.836-6.5 6.341-6.5h266.318c3.508 0 6.341 2.904 6.341 6.5s-2.833 6.5-6.341 6.5zM155.5 286c-3.596 0-6.5-2.807-6.5-6.283v-23.434c0-3.476 2.904-6.283 6.5-6.283s6.5 2.807 6.5 6.283v23.434c0 3.476-2.904 6.283-6.5 6.283zM244.5 286c-3.596 0-6.5-2.807-6.5-6.283v-23.434c0-3.476 2.904-6.283 6.5-6.283s6.5 2.807 6.5 6.283v23.434c0 3.476-2.904 6.283-6.5 6.283z"/><path fill="#000" d="M200.5 274C144.537 274 99 228.397 99 172.353a6.34 6.34 0 016.344-6.353 6.34 6.34 0 016.344 6.353c0 49.046 39.837 88.941 88.812 88.941 48.975 0 88.813-39.895 88.813-88.941a6.34 6.34 0 016.343-6.353 6.34 6.34 0 016.344 6.353C302 228.397 256.463 274 200.5 274z"/><path fill="#000" d="M200.5 248c-42.185 0-76.5-33.953-76.5-75.692 0-3.49 2.848-6.308 6.375-6.308s6.375 2.818 6.375 6.308c0 34.781 28.597 63.077 63.75 63.077s63.75-28.296 63.75-63.077c0-3.49 2.848-6.308 6.375-6.308s6.375 2.818 6.375 6.308C277 214.047 242.685 248 200.5 248zM165.324 312a6.306 6.306 0 01-5.536-3.308c-1.687-3.095-.577-6.99 2.481-8.692l34.364-19.203c3.062-1.708 6.9-.58 8.58 2.515 1.686 3.095.573 6.99-2.482 8.692l-34.364 19.203a6.246 6.246 0 01-3.043.793z"/><path fill="#000" d="M234.678 312a6.247 6.247 0 01-3.043-.793l-34.37-19.205c-3.05-1.71-4.162-5.598-2.482-8.694 1.693-3.09 5.526-4.217 8.581-2.514l34.37 19.204c3.053 1.71 4.163 5.598 2.482 8.694a6.3 6.3 0 01-5.538 3.308zM130.335 311a6.32 6.32 0 01-4.477-1.855 6.322 6.322 0 010-8.952l25.33-25.336a6.326 6.326 0 018.954 0 6.322 6.322 0 010 8.952l-25.33 25.336a6.32 6.32 0 01-4.477 1.855z"/><path fill="#000" d="M155.665 337a6.318 6.318 0 01-4.477-1.856l-25.33-25.328a6.329 6.329 0 010-8.958 6.323 6.323 0 018.954 0l25.33 25.328a6.329 6.329 0 010 8.958 6.318 6.318 0 01-4.477 1.856z"/><path fill="#000" d="M142.251 349c-1.599 0-3.2-.613-4.418-1.83a6.242 6.242 0 010-8.838l12.498-12.499a6.24 6.24 0 018.836 0 6.242 6.242 0 010 8.837l-12.498 12.5a6.236 6.236 0 01-4.418 1.83z"/><path fill="#000" d="M180.635 400c-1.945 0-3.85-.87-5.105-2.52l-38.252-50.402c-2.117-2.777-1.544-6.727 1.273-8.813 2.811-2.092 6.802-1.532 8.919 1.258l38.252 50.402c2.117 2.778 1.544 6.731-1.273 8.814a6.352 6.352 0 01-3.814 1.261zM199.671 400a6.34 6.34 0 01-5.904-4.052L149.431 281.65c-1.265-3.268.35-6.945 3.606-8.216 3.253-1.275 6.934.35 8.196 3.615l44.336 114.297c1.265 3.267-.35 6.945-3.606 8.216a6.076 6.076 0 01-2.292.437zM269.665 311a6.32 6.32 0 01-4.477-1.855l-25.33-25.336a6.322 6.322 0 010-8.952 6.326 6.326 0 018.954 0l25.33 25.336a6.322 6.322 0 010 8.952 6.32 6.32 0 01-4.477 1.855z"/><path fill="#000" d="M244.335 337a6.318 6.318 0 01-4.477-1.856 6.329 6.329 0 010-8.958l25.33-25.328a6.323 6.323 0 018.954 0 6.329 6.329 0 010 8.958l-25.33 25.328a6.318 6.318 0 01-4.477 1.856z"/><path fill="#000" d="M257.749 349c-1.599 0-3.2-.613-4.418-1.83l-12.498-12.5a6.242 6.242 0 010-8.837 6.24 6.24 0 018.836 0l12.498 12.499a6.242 6.242 0 010 8.837 6.236 6.236 0 01-4.418 1.831z"/><path fill="#000" d="M219.37 400c-1.331 0-2.67-.41-3.819-1.261-2.817-2.083-3.39-6.036-1.273-8.815l38.252-50.405c2.117-2.785 6.108-3.344 8.919-1.259 2.817 2.086 3.39 6.037 1.273 8.815L224.47 397.48c-1.242 1.65-3.154 2.52-5.1 2.52zM200.331 400a6.19 6.19 0 01-2.291-.431 6.346 6.346 0 01-3.606-8.216l44.332-114.3a6.307 6.307 0 018.194-3.614 6.346 6.346 0 013.606 8.216l-44.332 114.299a6.343 6.343 0 01-5.903 4.046zM288.714 299h-31.428c-3.478 0-6.286-2.904-6.286-6.5 0-3.593 2.808-6.5 6.286-6.5h31.428c3.478 0 6.286 2.907 6.286 6.5 0 3.596-2.808 6.5-6.286 6.5zM179.326 349a6.273 6.273 0 01-2.46-.497c-3.218-1.351-4.725-5.042-3.366-8.238l13.351-31.427c1.359-3.199 5.07-4.688 8.285-3.343 3.217 1.35 4.724 5.041 3.362 8.237L185.15 345.16a6.33 6.33 0 01-5.824 3.841z"/><path fill="#000" d="M220.674 349c-2.464 0-4.805-1.44-5.824-3.84l-13.348-31.425c-1.362-3.2.145-6.884 3.362-8.234 3.215-1.36 6.926.144 8.285 3.342L226.5 340.27c1.359 3.2-.148 6.884-3.365 8.234a6.275 6.275 0 01-2.461.497z"/><path fill="#000" d="M206.75 318h-12.5c-3.458 0-6.25-2.904-6.25-6.5 0-3.593 2.792-6.5 6.25-6.5h12.5c3.458 0 6.25 2.907 6.25 6.5 0 3.596-2.792 6.5-6.25 6.5z"/><path fill="#000" d="M207.247 318a6.106 6.106 0 01-4.05-1.538c-2.63-2.301-2.944-6.37-.698-9.074l12.5-15.12c2.23-2.717 6.172-3.037 8.803-.72 2.63 2.298 2.944 6.367.702 9.074l-12.5 15.117a6.167 6.167 0 01-4.757 2.261zM192.754 318c-1.764 0-3.519-.767-4.758-2.267l-12.502-15.118c-2.237-2.704-1.929-6.772.702-9.07a6.105 6.105 0 018.806.72l12.501 15.118c2.24 2.704 1.932 6.772-.699 9.073a6.084 6.084 0 01-4.05 1.544zM129.5 177c-3.596 0-6.5-2.829-6.5-6.332v-44.336c0-3.503 2.904-6.332 6.5-6.332s6.5 2.829 6.5 6.332v44.336c0 3.503-2.904 6.332-6.5 6.332zM270.5 177c-3.596 0-6.5-2.829-6.5-6.332v-44.336c0-3.503 2.904-6.332 6.5-6.332s6.5 2.829 6.5 6.332v44.336c0 3.503-2.904 6.332-6.5 6.332zM104.5 177c-3.593 0-6.5-2.829-6.5-6.332V88.332c0-3.503 2.907-6.332 6.5-6.332 3.596 0 6.5 2.829 6.5 6.332v82.336c0 3.503-2.904 6.332-6.5 6.332zM295.5 177c-3.593 0-6.5-2.82-6.5-6.312V82.312c0-3.489 2.907-6.312 6.5-6.312 3.596 0 6.5 2.823 6.5 6.312v88.376c0 3.492-2.904 6.312-6.5 6.312z"/><path fill="#000" d="M295.667 89c-3.501 0-6.334-2.83-6.334-6.333 0-20.958-17.042-38-38-38-3.5 0-6.333-2.83-6.333-6.334A6.33 6.33 0 01251.333 32C279.271 32 302 54.73 302 82.667A6.326 6.326 0 01295.667 89z"/><path fill="#000" d="M251.5 44c-3.593 0-6.5-2.808-6.5-6.284V6.284C245 2.808 247.907 0 251.5 0c3.596 0 6.5 2.808 6.5 6.284v31.432c0 3.476-2.904 6.284-6.5 6.284z"/><path fill="#000" d="M250.667 13h-63.334c-3.5 0-6.333-2.904-6.333-6.5s2.833-6.5 6.333-6.5h63.334C254.17 0 257 2.904 257 6.5s-2.83 6.5-6.333 6.5z"/><path fill="#000" d="M104.333 95c-3.5 0-6.333-2.83-6.333-6.333C98 39.772 137.772 0 186.667 0A6.326 6.326 0 01193 6.333a6.326 6.326 0 01-6.333 6.334c-41.91 0-76 34.09-76 76A6.326 6.326 0 01104.333 95zM295.665 127a6.32 6.32 0 01-4.477-1.855l-25.33-25.332a6.325 6.325 0 010-8.955 6.324 6.324 0 018.954 0l25.33 25.331a6.325 6.325 0 010 8.956 6.32 6.32 0 01-4.477 1.855z"/><path fill="#000" d="M200.499 114c-39.027 0-71.144-12.413-72.489-12.938-3.268-1.28-4.855-4.917-3.557-8.123 1.307-3.197 4.999-4.78 8.289-3.487.305.125 31.273 12.053 67.757 12.053 36.599 0 67.445-11.928 67.757-12.053 3.24-1.278 6.981.277 8.289 3.487 1.304 3.206-.29 6.842-3.558 8.123-1.345.525-33.461 12.938-72.488 12.938z"/><path fill="#000" d="M104.335 127a6.32 6.32 0 01-4.477-1.855 6.325 6.325 0 010-8.956l25.33-25.331a6.324 6.324 0 018.954 0 6.325 6.325 0 010 8.955l-25.33 25.332a6.32 6.32 0 01-4.477 1.855zM270.625 133h-140.25c-3.527 0-6.375-2.907-6.375-6.5 0-3.596 2.848-6.5 6.375-6.5h140.25c3.527 0 6.375 2.904 6.375 6.5 0 3.593-2.848 6.5-6.375 6.5zM200.503 223c-13.47 0-26.131-5.34-35.656-15.045-2.463-2.507-2.463-6.565 0-9.072a6.216 6.216 0 018.912 0c7.15 7.276 16.64 11.281 26.744 11.281s19.59-4.005 26.739-11.281a6.212 6.212 0 018.91 0c2.464 2.507 2.464 6.565 0 9.072C226.634 217.66 213.973 223 200.502 223zM186.667 171c-3.501 0-6.334-2.792-6.334-6.25 0-3.448-2.835-6.25-6.333-6.25-3.494 0-6.333 2.802-6.333 6.25 0 3.458-2.83 6.25-6.334 6.25-3.5 0-6.333-2.792-6.333-6.25 0-10.336 8.526-18.75 19-18.75s19 8.414 19 18.75c0 3.458-2.83 6.25-6.333 6.25zM238.667 171c-3.501 0-6.334-2.792-6.334-6.25 0-3.448-2.835-6.25-6.333-6.25-3.494 0-6.333 2.802-6.333 6.25 0 3.458-2.83 6.25-6.334 6.25-3.5 0-6.333-2.792-6.333-6.25 0-10.336 8.526-18.75 19-18.75s19 8.414 19 18.75c0 3.458-2.83 6.25-6.333 6.25zM295.666 158h-25.332c-3.5 0-6.334-2.907-6.334-6.5 0-3.596 2.833-6.5 6.334-6.5h25.332c3.504 0 6.334 2.904 6.334 6.5 0 3.593-2.83 6.5-6.334 6.5zM129.667 158h-25.334c-3.503 0-6.333-2.907-6.333-6.5 0-3.596 2.83-6.5 6.333-6.5h25.334c3.503 0 6.333 2.904 6.333 6.5 0 3.593-2.83 6.5-6.333 6.5z"/></g></svg>
