<svg xmlns="http://www.w3.org/2000/svg" viewBox="0 0 388 400"><g fill="none" fill-rule="evenodd"><path fill="#E7DFF1" d="M5.8828125 68.4929687H381.616406V331.507031H5.8828125z"/><path fill="#855FB8" d="M5.8828125 68.4929687h75.146875V331.507031H5.8828125z"/><path fill="#7B49AD" d="M24.6695312 312.720312V68.4929687H5.8828125V331.507031h75.146875v-18.786719z"/><path fill="#9E7FC6" d="M81.0296875 68.4929687h75.1468755V331.507031H81.0296875z"/><path fill="#B69FD4" d="M156.176563 68.4929687h75.146874V331.507031h-75.146874z"/><path fill="#CEBFE2" d="M231.323437 68.4929687h75.146875V331.507031h-75.146875z"/><path fill="#855FB8" d="M81.0296875 312.720312h75.1468755v18.786719H81.0296875z"/><path fill="#9E7FC6" d="M156.176563 312.720312h75.146874v18.786719h-75.146874z"/><path fill="#B69FD4" d="M231.323437 312.720312h75.146875v18.786719h-75.146875z"/><path fill="#CEBFE2" d="M306.470312 312.720312h75.146876v18.786719h-75.146876z"/><path fill="#FCCA75" d="M143.652344 43.4445312L118.603125 55.96875 93.5546875 43.4445312V5.87109375h50.0976565z"/><path fill="#F3B141" d="M106.078906 5.87109375H93.5546875V43.4445312L118.603125 55.96875l12.524219-6.2625-25.048438-12.5242187z"/><path fill="#FCCA75" d="M243.847656 356.555469l25.049219-12.524219 25.048437 12.524219v37.573437h-50.097656z"/><path fill="#F3B141" d="M256.372656 362.817969l25.048438-12.524219-12.524219-6.2625-25.049219 12.524219v37.573437h12.525z"/><path fill="#000" fill-rule="nonzero" d="M381.617188 62.6226563H5.8828125c-3.24296875 0-5.87109375 2.6289062-5.87109375 5.8710937v263.014062c0 3.242188 2.628125 5.871094 5.87109375 5.871094H381.617188c3.242968 0 5.871093-2.628906 5.871093-5.871094V68.4929688c-.000781-3.2421875-2.628125-5.8703125-5.871093-5.8703125zM11.7539062 74.3640625H75.159375V325.635937H11.7539062V74.3640625zm75.146875 251.2718755V74.3640625H150.30625v32.4851565c0 3.242187 2.628125 5.871094 5.871094 5.871094 3.242968 0 5.871093-2.628907 5.871093-5.871094V74.3640625h63.405469V325.635938h-63.405469V134.246875c0-3.242187-2.628125-5.871094-5.871093-5.871094-3.242969 0-5.871094 2.628907-5.871094 5.871094v191.389063H86.9007812zm150.2937498-.000001V74.3640625H300.6V325.635937h-63.405469zm138.551563 0h-63.405469V74.3640625h63.405469V325.635937zM90.9289062 48.6953125l25.0492188 12.5242187c1.638281.81875 3.613281.81875 5.251562 0l25.049219-12.5242187c1.988281-.99375 3.245313-3.0273438 3.245313-5.2507813V5.87109375C149.524219 2.62890625 146.896094 0 143.653125 0H93.5554688C90.3125 0 87.684375 2.62890625 87.684375 5.87109375V43.4445312c-.0007812 2.2234375 1.2554688 4.25625 3.2445313 5.2507813zM99.425 11.7414062h38.35625V39.815625l-19.178125 9.5890625L99.425 39.815625V11.7414062zM296.571094 351.304688l-25.049219-12.524219c-1.652344-.826563-3.599219-.826563-5.251563 0l-25.049218 12.524219c-1.988282.99375-3.245313 3.027343-3.245313 5.250781v37.573437c0 3.242188 2.628125 5.871094 5.871094 5.871094h50.097656c3.242969 0 5.871094-2.628906 5.871094-5.871094v-37.573437c.000781-2.223438-1.255469-4.25625-3.244531-5.250781zM288.075 388.258594h-38.35625v-28.074219l19.178125-9.589063 19.178125 9.589063v28.074219z"/></g></svg>
