<?xml version="1.0" encoding="UTF-8"?>
<svg width="388px" height="400px" viewBox="0 0 388 400" version="1.1" xmlns="http://www.w3.org/2000/svg" xmlns:xlink="http://www.w3.org/1999/xlink">
    <!-- Generator: Sketch 52.5 (67469) - http://www.bohemiancoding.com/sketch -->
    <title>gradient-generator</title>
    <desc>Created with Sketch.</desc>
    <g id="Page-1" stroke="none" stroke-width="1" fill="none" fill-rule="evenodd">
        <g id="gradient-generator">
            <polygon id="Path" fill="#E7DFF1" points="5.8828125 68.4929687 381.616406 68.4929687 381.616406 331.507031 5.8828125 331.507031"></polygon>
            <polygon id="Path" fill="#855FB8" points="5.8828125 68.4929687 81.0296875 68.4929687 81.0296875 331.507031 5.8828125 331.507031"></polygon>
            <polygon id="Path" fill="#7B49AD" points="24.6695312 312.720312 24.6695312 68.4929687 5.8828125 68.4929687 5.8828125 331.507031 81.0296875 331.507031 81.0296875 312.720312"></polygon>
            <polygon id="Path" fill="#9E7FC6" points="81.0296875 68.4929687 156.176563 68.4929687 156.176563 331.507031 81.0296875 331.507031"></polygon>
            <polygon id="Path" fill="#B69FD4" points="156.176563 68.4929687 231.323437 68.4929687 231.323437 331.507031 156.176563 331.507031"></polygon>
            <polygon id="Path" fill="#CEBFE2" points="231.323437 68.4929687 306.470312 68.4929687 306.470312 331.507031 231.323437 331.507031"></polygon>
            <polygon id="Path" fill="#855FB8" points="81.0296875 312.720312 156.176563 312.720312 156.176563 331.507031 81.0296875 331.507031"></polygon>
            <polygon id="Path" fill="#9E7FC6" points="156.176563 312.720312 231.323437 312.720312 231.323437 331.507031 156.176563 331.507031"></polygon>
            <polygon id="Path" fill="#B69FD4" points="231.323437 312.720312 306.470312 312.720312 306.470312 331.507031 231.323437 331.507031"></polygon>
            <polygon id="Path" fill="#CEBFE2" points="306.470312 312.720312 381.617188 312.720312 381.617188 331.507031 306.470312 331.507031"></polygon>
            <polygon id="Path" fill="#FCCA75" points="143.652344 43.4445312 118.603125 55.96875 93.5546875 43.4445312 93.5546875 5.87109375 143.652344 5.87109375"></polygon>
            <polygon id="Path" fill="#F3B141" points="106.078906 5.87109375 93.5546875 5.87109375 93.5546875 43.4445312 118.603125 55.96875 131.127344 49.70625 106.078906 37.1820313"></polygon>
            <polygon id="Path" fill="#FCCA75" points="243.847656 356.555469 268.896875 344.03125 293.945312 356.555469 293.945312 394.128906 243.847656 394.128906"></polygon>
            <polygon id="Path" fill="#F3B141" points="256.372656 362.817969 281.421094 350.29375 268.896875 344.03125 243.847656 356.555469 243.847656 394.128906 256.372656 394.128906"></polygon>
            <path d="M381.617188,62.6226563 L5.8828125,62.6226563 C2.63984375,62.6226563 0.01171875,65.2515625 0.01171875,68.49375 L0.01171875,331.507812 C0.01171875,334.75 2.63984375,337.378906 5.8828125,337.378906 L381.617188,337.378906 C384.860156,337.378906 387.488281,334.75 387.488281,331.507812 L387.488281,68.4929688 C387.4875,65.2507813 384.860156,62.6226563 381.617188,62.6226563 Z M11.7539062,74.3640625 L75.159375,74.3640625 L75.159375,325.635937 L11.7539062,325.635937 L11.7539062,74.3640625 Z M86.9007812,325.635938 L86.9007812,74.3640625 L150.30625,74.3640625 L150.30625,106.849219 C150.30625,110.091406 152.934375,112.720313 156.177344,112.720313 C159.420312,112.720313 162.048437,110.091406 162.048437,106.849219 L162.048437,74.3640625 L225.453906,74.3640625 L225.453906,325.635938 L162.048437,325.635938 L162.048437,134.246875 C162.048437,131.004688 159.420312,128.375781 156.177344,128.375781 C152.934375,128.375781 150.30625,131.004688 150.30625,134.246875 L150.30625,325.635938 L86.9007812,325.635938 Z M237.194531,325.635937 L237.194531,74.3640625 L300.6,74.3640625 L300.6,325.635937 L237.194531,325.635937 Z M375.746094,325.635937 L312.340625,325.635937 L312.340625,74.3640625 L375.746094,74.3640625 L375.746094,325.635937 Z M90.9289062,48.6953125 L115.978125,61.2195312 C117.616406,62.0382812 119.591406,62.0382812 121.229687,61.2195312 L146.278906,48.6953125 C148.267187,47.7015625 149.524219,45.6679687 149.524219,43.4445312 L149.524219,5.87109375 C149.524219,2.62890625 146.896094,0 143.653125,0 L93.5554688,0 C90.3125,0 87.684375,2.62890625 87.684375,5.87109375 L87.684375,43.4445312 C87.6835938,45.6679687 88.9398438,47.7007812 90.9289063,48.6953125 Z M99.425,11.7414062 L137.78125,11.7414062 L137.78125,39.815625 L118.603125,49.4046875 L99.425,39.815625 L99.425,11.7414062 Z M296.571094,351.304688 L271.521875,338.780469 C269.869531,337.953906 267.922656,337.953906 266.270312,338.780469 L241.221094,351.304688 C239.232812,352.298438 237.975781,354.332031 237.975781,356.555469 L237.975781,394.128906 C237.975781,397.371094 240.603906,400 243.846875,400 L293.944531,400 C297.1875,400 299.815625,397.371094 299.815625,394.128906 L299.815625,356.555469 C299.816406,354.332031 298.560156,352.299219 296.571094,351.304688 Z M288.075,388.258594 L249.71875,388.258594 L249.71875,360.184375 L268.896875,350.595312 L288.075,360.184375 L288.075,388.258594 Z" id="Shape" fill="#000000" fill-rule="nonzero"></path>
        </g>
    </g>
</svg>