<svg xmlns="http://www.w3.org/2000/svg" viewBox="0 0 400 400"><g fill="none" fill-rule="evenodd"><path fill="#E7DFF1" d="M11.883 68.493h375.733v263.014H11.883z"/><path fill="#855FB8" d="M11.883 68.493H87.03v263.014H11.883z"/><path fill="#7B49AD" d="M30.67 312.72V68.493H11.883v263.014H87.03V312.72z"/><path fill="#9E7FC6" d="M87.03 68.493h75.147v263.014H87.03z"/><path fill="#B69FD4" d="M162.177 68.493h75.146v263.014h-75.146z"/><path fill="#CEBFE2" d="M237.323 68.493h75.147v263.014h-75.147z"/><path fill="#855FB8" d="M87.03 312.72h75.147v18.787H87.03z"/><path fill="#9E7FC6" d="M162.177 312.72h75.146v18.787h-75.146z"/><path fill="#B69FD4" d="M237.323 312.72h75.147v18.787h-75.147z"/><path fill="#CEBFE2" d="M312.47 312.72h75.147v18.787H312.47z"/><path fill="#FCCA75" d="M149.652 43.445l-25.049 12.524-25.048-12.524V5.87h50.097z"/><path fill="#F3B141" d="M112.079 5.871H99.555v37.574l25.048 12.524 12.524-6.263-25.048-12.524z"/><path fill="#FCCA75" d="M249.848 356.555l25.049-12.524 25.048 12.524v37.574h-50.097z"/><path fill="#F3B141" d="M262.373 362.818l25.048-12.524-12.524-6.263-25.05 12.524v37.574h12.526z"/><path fill="#000" fill-rule="nonzero" d="M387.617 62.623H11.883a5.871 5.871 0 00-5.871 5.87v263.015a5.871 5.871 0 005.87 5.87h375.735a5.871 5.871 0 005.871-5.87V68.493a5.87 5.87 0 00-5.87-5.87zM17.754 74.364h63.405v251.272H17.754V74.364zM92.9 325.636V74.364h63.405v32.485a5.871 5.871 0 1011.742 0V74.364h63.406v251.272h-63.406v-191.39a5.871 5.871 0 10-11.742 0v191.39H92.901zm150.294 0V74.364H306.6v251.272h-63.405zm138.551 0h-63.405V74.364h63.405v251.272zM96.93 48.696l25.05 12.524a5.921 5.921 0 005.25 0l25.05-12.525a5.871 5.871 0 003.245-5.25V5.87A5.871 5.871 0 00149.654 0H99.554a5.871 5.871 0 00-5.87 5.871v37.574a5.868 5.868 0 003.244 5.25zm8.496-36.955h38.356v28.075l-19.178 9.589-19.178-9.59V11.742zm197.146 339.564l-25.05-12.525a5.87 5.87 0 00-5.25 0l-25.05 12.525a5.871 5.871 0 00-3.245 5.25v37.574a5.871 5.871 0 005.87 5.871h50.099a5.871 5.871 0 005.87-5.871v-37.574a5.868 5.868 0 00-3.244-5.25zm-8.496 36.954h-38.356v-28.075l19.178-9.589 19.178 9.59v28.074z"/></g></svg>
