<svg xmlns="http://www.w3.org/2000/svg" viewBox="0 0 512 512"><path fill="#e7dff1" d="M15.53 87.671h480.939v336.658H15.53z"/><path fill="#855fb8" d="M15.53 87.671h96.188v336.658H15.53z"/><path fill="#7b49ad" d="M39.577 400.282V87.671H15.53v336.658h96.188v-24.047z"/><path fill="#9e7fc6" d="M111.718 87.671h96.188v336.658h-96.188z"/><path fill="#b69fd4" d="M207.906 87.671h96.188v336.658h-96.188z"/><path fill="#cebfe2" d="M304.094 87.671h96.188v336.658h-96.188z"/><path fill="#855fb8" d="M111.718 400.282h96.188v24.047h-96.188z"/><path fill="#9e7fc6" d="M207.906 400.282h96.188v24.047h-96.188z"/><path fill="#b69fd4" d="M304.094 400.282h96.188v24.047h-96.188z"/><path fill="#cebfe2" d="M400.282 400.282h96.188v24.047h-96.188z"/><path fill="#ff9d4a" d="M191.875 55.609L159.812 71.64 127.75 55.609V7.515h64.125z"/><path fill="#f48a16" d="M143.781 7.515H127.75v48.094l32.062 16.031 16.031-8.016-32.062-16.031z"/><path fill="#ff9d4a" d="M320.125 456.391l32.063-16.031 32.062 16.031v48.094h-64.125z"/><path fill="#f48a16" d="M336.157 464.407l32.062-16.031-16.031-8.016-32.063 16.031v48.094h16.032z"/><path d="M496.47 80.157H15.53c-4.151 0-7.515 3.365-7.515 7.515V424.33c0 4.15 3.364 7.515 7.515 7.515h480.94c4.151 0 7.515-3.365 7.515-7.515V87.671c-.001-4.15-3.364-7.514-7.515-7.514zM23.045 95.186h81.159v321.628H23.045V95.186zm96.188 321.628V95.186h81.159v41.581c0 4.15 3.364 7.515 7.515 7.515s7.515-3.365 7.515-7.515V95.186h81.159v321.628h-81.159V171.836c0-4.15-3.364-7.515-7.515-7.515s-7.515 3.365-7.515 7.515v244.978h-81.159zm192.376 0V95.186h81.159v321.628h-81.159zm177.346 0h-81.159V95.186h81.159v321.628zM124.389 62.33l32.063 16.031c2.097 1.048 4.625 1.048 6.722 0l32.063-16.031c2.545-1.272 4.154-3.875 4.154-6.721V7.515c0-4.15-3.364-7.515-7.515-7.515h-64.125c-4.151 0-7.515 3.365-7.515 7.515v48.094c-.001 2.846 1.607 5.448 4.153 6.721zm10.875-47.301h49.096v35.935l-24.548 12.274-24.548-12.274V15.029zM387.611 449.67l-32.063-16.031c-2.115-1.058-4.607-1.058-6.722 0l-32.063 16.031c-2.545 1.272-4.154 3.875-4.154 6.721v48.094c0 4.15 3.364 7.515 7.515 7.515h64.125c4.151 0 7.515-3.365 7.515-7.515v-48.094c.001-2.846-1.607-5.448-4.153-6.721zm-10.875 47.301H327.64v-35.935l24.548-12.274 24.548 12.274v35.935z"/></svg>
