<svg xmlns="http://www.w3.org/2000/svg" viewBox="0 0 330 400"><g fill="none" fill-rule="evenodd"><path fill="#FCCA75" d="M308.789184 206.396484c0 57.962036-46.990966 104.9469-104.953003 104.9469-3.915404 0-7.775878-.210571-11.578369-.634766-20.477295-2.23999-39.181518-10.38208-54.37622-22.671509-5.123901-4.147339-9.86023-8.773804-14.126587-13.796996-11.264038-13.287354-19.28711-29.421997-22.827149-47.171021-1.3366693-6.680298-2.038574-13.586426-2.038574-20.657349v-.015259c0-15.53955 3.375245-30.288696 9.436035-43.554687 16.546631-36.221313 53.088379-61.392212 95.510864-61.392212 57.962037 0 104.953003 46.984863 104.953003 104.946899z"/><path fill="#FA0" d="M192.257812 310.708618c-20.477295-2.23999-39.181518-10.38208-54.37622-22.671509l-6.80542-19.757079c-2.11792 1.843261-4.571533 3.875732-7.321167 5.960082-11.264038-13.287353-19.28711-29.421996-22.827149-47.17102h9.069824l4.421998-2.728272c5.908203-3.64685 12.670899-5.578613 19.561767-5.578613 4.275513 0 8.508301.735473 12.564087 2.18811 10.726929 3.829956 19.009399 12.20398 22.720337 22.970581l22.991943 66.78772z"/><path fill="#FA0" d="M213.9375 206.491089c-1.376343 14.077759-13.070679 24.685669-27.203369 24.685669-.891114 0-1.797486-.039673-2.688599-.131226-7.037353-.689697-13.406372-4.000854-18.014526-9.338379l-47.009278-4.598998c-3.445434-.34485-6.781005-1.556397-9.649658-3.515625l-10.482788-7.180787v-.015259c0-15.53955 3.375245-30.288696 9.436035-43.554687l20.001221 13.693237 43.554688 4.266357c4.275512-2.749633 9.359741-4.336547 14.813232-4.336547.891113 0 1.797486.048828 2.688598.134277 15.014649 1.467895 26.031495 14.874268 24.554444 29.891968z"/><path fill="#F3B141" d="M203.839234 296.411133c-49.633789 0-90.014649-40.38086-90.014649-90.014649 0-49.63684 40.38086-90.0177 90.014649-90.0177 49.633789 0 90.014648 40.38086 90.014648 90.0177 0 49.633789-40.380859 90.014649-90.014648 90.014649z"/><path fill="#B69FD4" d="M284.47583 206.396484c0 44.540406-36.102295 80.639649-80.639649 80.639649-7.141112 0-14.056396-.927735-20.648193-2.670288-30.236816-7.983399-53.518676-33.093262-58.831786-64.3219-.146485-.811767-.271607-1.63269-.372315-2.453613-.515747-3.656005-.78125-7.397461-.78125-11.193848 0-10.531616 2.01416-20.587157 5.685425-29.806518 11.853027-29.782105 40.93933-50.836182 74.948119-50.836182 44.537354 0 80.639649 36.102295 80.639649 80.6427z"/><path fill="#9E7FC6" d="M183.187988 284.365845c-30.236816-7.983399-53.518676-33.093262-58.831786-64.3219 3.125-.842285 6.359862-1.281738 9.625243-1.281738 4.275513 0 8.508301.735473 12.564087 2.18811 10.726929 3.829956 19.009399 12.20398 22.720337 22.970581l13.922119 40.444947z"/><path fill="#9E7FC6" d="M213.9375 206.491089c-1.376343 14.077759-13.070679 24.685669-27.203369 24.685669-.891114 0-1.797486-.039673-2.688599-.131226-7.037353-.689697-13.406372-4.000854-18.014526-9.338379l-42.047119-4.116821c-.515747-3.656005-.78125-7.397461-.78125-11.193848 0-10.531616 2.01416-20.587157 5.685425-29.806518l42.993164 4.211425c4.275512-2.749633 9.359741-4.336547 14.813232-4.336547.891113 0 1.797486.048828 2.688598.134277 15.014649 1.467895 26.031495 14.874268 24.554444 29.891968z"/><path fill="#B69FD4" d="M34.0668945 40.3778078c-2.1148679-.9613039-4.0069578-2.4810797-5.4107664-4.5410156-2.5085453-3.6834719-2.8808594-8.190918-1.4038086-12.0605469-1.7669679-.6378172-3.3599851-1.8096922-4.5013429-3.4820562-2.8717039-4.2175289-1.779175-9.9639891 2.4353031-12.83569301 4.2175289-2.87475546 9.9670406-1.78222656 12.8387445 2.43530235 1.1383055 1.66931176 1.6448977 3.58276406 1.5899664 5.45959536 4.1442867.0457765 8.2000727 2.0385742 10.7116696 5.7250976 1.4038086 2.0599367 2.1240234 4.3762203 2.2430421 6.6955563 4.3182368.6744382 8.3557125 3.0609132 11.0107422 6.9580078 5.0903321 7.476807 3.1585696 17.6635742-4.3151859 22.7569586-7.4768063 5.0903312-17.6635742 3.1585687-22.7569578-4.3182375-2.6519774-3.8970953-3.3935547-8.5296633-2.4414063-12.7929688z"/><path fill="#F4A58C" d="M114.315918 114.404297c0 16.659546-13.504028 30.163574-30.1605227 30.163574-16.6564937 0-30.1605219-13.504028-30.1605219-30.163574 0-16.6564939 13.5040282-30.1605228 30.1605219-30.1605228 16.6564947 0 30.1605227 13.5040289 30.1605227 30.1605228z"/><path fill="#4159A5" d="M58.1116945 394.140625c6.9824219 0 12.6403805-5.661011 12.6403805-12.640381V257.632446c0-6.979369-5.6579586-12.64038-12.6403805-12.64038-6.9824218 0-12.6403812 5.661011-12.6403812 12.64038v123.867798c0 6.97937 5.6579594 12.640381 12.6403812 12.640381z"/><path fill="#FF4E61" d="M43.786743 170.15686v77.941895c0 19.229126 15.5914304 34.811401 34.8175054 34.811401 15.209961 0 27.5360106-12.32605 27.5360106-27.536011V170.15686c0-17.221069-13.9526371-31.173705-31.1737059-31.173705-8.6120609 0-16.4031984 3.488158-22.0428469 9.127807-5.6488039 5.639648-9.1369632 13.430786-9.1369632 22.045898z"/><path fill="#5C73BC" d="M189.572266 331.723023l-29.174805-84.747315c-2.7771-8.062744-8.97522-14.331055-17.001343-17.199707-8.032227-2.865601-16.796875-1.940918-24.050903 2.539062l-13.204956 8.15735v-4.025269H43.786743v11.651611c0 19.229126 15.5914304 34.811401 34.8175054 34.811401 27.5360106 0 54.0252676-29.086304 54.0252676-29.086304.888062-.549316 1.721192-.433349 2.264405-.238036.543213.192261 1.260376.631714 1.599121 1.617431l29.177856 84.750366c1.80359 5.236817 6.704712 8.526612 11.950684 8.529664 1.364136 0 2.749634-.222779 4.11377-.69275 6.600952-2.273559 10.110473-9.466552 7.836914-16.067504z"/><path fill="#FF4E61" d="M97.7937016 84.994507l-41.5283203 16.992188-7.7514657-18.945313-4.7668453-11.6546632c-2.6824953-6.5521243.4577641-14.0350344 7.0098875-16.7175297l17.7917485-7.2845454c6.5521234-2.6824953 14.0380859.4547118 16.7205812 7.0098875l4.7912594 11.694336 7.7331547 18.9056398z"/><path fill="#5C73BC" d="M97.7937016 84.994507l-41.5313727 16.992188-7.7484133-18.945313 41.5466313-16.9525148z"/><path stroke="#4159A5" stroke-linecap="round" stroke-linejoin="round" stroke-width="15.00015" d="M102.859103 242.44904l-11.2182203 6.765722"/><path fill="#F5F6E3" d="M99.4324953 180.969238l-61.0534672 54.769898c-.8270265.738525-1.3000484 1.797485-1.3000484 2.908325v11.245727c0 3.381348 4.0008547 5.163574 6.5155031 2.908326l67.3004152-60.372925-11.4624027-11.459351z"/><path fill="#FF4E61" d="M186.099366 214.257812l-66.159058-6.484985c-1.889038-.186157-3.698731-.845336-5.264283-1.916504l-41.1102289-28.146362c-5.133057-3.515625-6.4453125-10.528564-2.9296875-15.661621 3.5125727-5.133057 10.5255125-6.448364 15.6616211-2.929688l38.7207033 26.510621 63.278198 6.204223c6.195068.6073 10.720825 6.118774 10.113525 12.310791-.6073 6.192017-6.118774 10.717774-12.31079 10.113525z"/><path stroke="#5C73BC" stroke-linecap="round" stroke-width="15.00015" d="M203.838347 197.341173l42.169034-18.337945"/><path fill="#F4A58C" d="M204.696777 203.823852c0 9.930421-8.050536 17.977906-17.980957 17.977906-9.93042 0-17.980957-8.047485-17.980957-17.977906 0-9.933471 8.050537-17.980957 17.980957-17.980957 9.930421 0 17.980957 8.047486 17.980957 17.980957z"/><g stroke="#FCCA75" stroke-linecap="round" stroke-width="15.00015"><path d="M296.8891526 108.040964l6.069924-6.0363549M279.81463032 96.12694485l2.23998255-8.26412951M316.9788004 122.9914705l-8.2763367 2.191154M301.4423583 301.222628l6.0363549 6.072975M313.3563775 284.151157l8.2641295 2.239982M286.49185178 321.315327l-2.19115395-8.276336"/></g><path fill="#FF4E61" d="M151.47107 77.1209719c-1.498414 0-2.996827-.5706789-4.144288-1.7150883-2.285766-2.288818-2.285766-5.9997555 0-8.2855227l6.549073-6.5490718c2.288818-2.2888188 5.996704-2.2888188 8.285522 0 2.288818 2.2888187 2.288818 5.9997562 0 8.2855226l-6.546021 6.5490719c-1.144409 1.1444094-2.642822 1.7150883-4.144286 1.7150883zM18.8386234 153.69873c-1.4984132 0-2.9968265-.570678-4.1412359-1.715088-2.288818-2.288818-2.288818-5.999755 0-8.285522l6.5460203-6.549072c2.2888188-2.285767 5.9997563-2.285767 8.288575 0 2.2857664 2.288818 2.2857664 5.999756-.0030523 8.288574l-6.5460203 6.54602c-1.1444094 1.14441-2.6428227 1.715088-4.1442868 1.715088z"/><path fill="#5C73BC" d="M6.515625 316.430664c-1.49841328 0-2.99987812-.570679-4.14123516-1.715087-2.28881875-2.288819-2.28881875-5.999757-.00305234-8.288575l6.54907266-6.546021c2.28881794-2.288818 5.99975544-2.288818 8.28552264 0 2.288818 2.288819 2.288818 5.996705 0 8.285523l-6.5460203 6.549073c-1.14440937 1.144408-2.64587422 1.715087-4.1442875 1.715087z"/><path fill="#95D6A4" d="M135.110595 42.2241211c-1.498412 0-2.999877-.5706789-4.144286-1.7150883-2.288818-2.288818-2.288818-5.9997555 0-8.2855219l6.54602-6.5490726c2.288819-2.288818 5.999756-2.288818 8.288574 0 2.288819 2.2888187 2.288819 5.9997562 0 8.2855226l-6.549072 6.5490719c-1.141358 1.1444094-2.642822 1.7150883-4.141236 1.7150883z"/><path fill="#000" fill-rule="nonzero" d="M313.308838 223.626709c.500489-3.198242-1.687622-6.195068-4.882813-6.692505-3.19519-.500488-6.195068 1.687623-6.695556 4.882812-7.571411 48.480225-48.742676 83.666993-97.891235 83.666993-5.929566 0-11.849976-.531006-17.642212-1.568604l-4.80957-13.964843c7.278442 1.953125 14.791869 2.941894 22.451782 2.941894 47.695922 0 86.499023-38.803101 86.499023-86.499023 0-19.839478-6.887818-39.221192-19.393921-54.577637-12.322998-15.133667-29.556274-25.756836-48.519898-29.910279-3.167724-.6958-6.283569 1.309205-6.976318 4.467774-.692749 3.161621 1.309204 6.286621 4.470825 6.976318 34.011841 7.452393 58.700562 38.171387 58.700562 73.043824 0 41.235351-33.544922 74.780273-74.780273 74.780273-9.411621 0-18.563843-1.721191-27.230836-5.111694l-10.671996-30.996704c-3.356934-9.753418-10.855104-17.340088-20.5719-20.806885-4.751587-1.699829-9.716797-2.29187-14.578247-1.824951-.564575-2.581788-.985717-5.200195-1.275635-7.836914l38.311768 3.756714c.155639.201415.308228.405883.473022.601196 4.043579 4.922485 9.759521 7.974243 16.098023 8.59375.784301.076294 1.565551.115966 2.340698.115966 12.109375 0 22.503662-9.222411 23.709107-21.517943.17395-1.785279.14038-3.543092-.073243-5.255128L248.34607 184.375c2.966308-1.290894 4.327392-4.742431 3.036499-7.708741-1.290894-2.966307-4.742432-4.327392-7.708741-3.036498l-37.576294 16.339111c-3.863525-5.39856-9.942627-9.176636-17.056275-9.875488-5.960082-.585938-11.630248 1.098632-16.162109 4.336547l-39.233398-3.842162c9.640503-26.083374 33.627319-45.24231 61.499023-48.468018 3.213502-.372314 5.517578-3.28064 5.145264-6.494141-.372314-3.216552-3.28064-5.523681-6.494141-5.148315-17.254639 1.99585-33.340453 9.075928-46.517944 20.474243-11.26709 9.744263-19.72351 22.045899-24.743652 35.873414l-10.549927-7.22046c0-.146484-.006103-.286865-.009155-.430297.003052-.012208.009155-.021363.012207-.030518 15.252686-37.567139 51.306152-61.837769 91.851807-61.837769 51.220703 0 93.609618 38.38501 98.605346 89.285279.299072 3.027343 2.84729 5.288696 5.825806 5.288696.189209 0 .384521-.012207.576782-.030517 3.222656-.314332 5.578613-3.182984 5.26123-6.402589-2.673339-27.23999-15.328979-52.438354-35.632324-70.953369-20.443726-18.640136-46.951294-28.9062502-74.63684-28.9062502-22.485352 0-44.134522 6.6955572-62.609864 19.3695072-14.126587 9.689331-25.680542 22.36023-33.972168 37.100219-1.345825-2.392578-2.941894-4.623412-4.766846-6.646728 10.745239-6.365967 17.684937-18.057251 17.684937-31.005859 0-12.518311-6.344605-23.8311767-16.604614-30.3588868-.070191-.4302977-.183106-.8544922-.354004-1.2725829L90.6922609 52.1728516c-3.137207-7.6660157-10.8245851-12.127686-18.6706547-11.5509032-.4943843-3.2592773-1.7028804-6.4056398-3.5980218-9.1888429-2.6275641-3.8574219-6.4178469-6.7718508-10.751343-8.3618164-.552368-1.8798829-1.3946539-3.665161-2.5024414-5.2948-2.5268555-3.707886-6.262207-6.3537594-10.4888922-7.5561524-.4333492-1.27563436-1.0406492-2.49328592-1.8127437-3.62853982-4.6844485-6.8786625-14.0991211-8.66394063-20.9777829-3.97644063-3.3355718 2.27050781-5.5847171 5.70068359-6.33545 9.66491715-.750732 3.9642336.08545 7.9803469 2.3559579 11.315918.7720945 1.1322023 1.6815179 2.1423336 2.7099609 3.0120852-.4272469 4.3731687.6683344 8.8195796 3.1921383 12.5274656 1.1108398 1.6265867 2.4658203 3.0670164 4.0100101 4.2694094-.109864 4.6142578 1.2176508 9.2102046 3.8452141 13.064575 1.5655523 2.301025 3.5186773 4.2419437 5.7586672 5.7861328-.8941649 3.7658687-.5981445 7.7026367.8972172 11.3555906l11.8316648 28.909302c-1.333618 3.808593-2.0202633 7.794189-2.0202633 11.886596 0 8.718872 3.1555172 16.998292 8.6975094 23.45276-2.9113766 1.638794-5.6213375 3.677368-8.0505375 6.106567-7.000732 6.988525-10.8551023 16.290283-10.8551023 26.190185v58.114624l-3.460693 3.103638c-2.0629883 1.849365-3.2440188 4.501343-3.2440188 7.272339v11.24878c0 3.90625 2.2155766 7.324218 5.7830813 8.917236.8392328.372314 1.6998289.610351 2.5665281.744628.0640867.213623.1342774.424195.2014156.634766-.1007078.433349-.1617429.881958-.1617429 1.348877v32.919311c0 3.234864 2.6214601 5.859375 5.859375 5.859375 3.2379148 0 5.859375-2.624511 5.859375-5.859375v-16.278075c3.9245609 3.549194 8.5266117 6.344603 13.5620117 8.169555v95.147705c0 3.738404-3.0426023 6.781006-6.7810055 6.781006-3.7384039 0-6.7810062-3.042602-6.7810062-6.781006v-60.339355c0-3.234864-2.6245117-5.859375-5.859375-5.859375-3.2379149 0-5.859375 2.624511-5.859375 5.859375v60.339355C39.6119383 391.70227 47.909668 400 58.1116945 400c10.2020258 0 18.4997555-8.300781 18.4997555-18.499756v-92.782592c.6622312.033568 1.3275148.051879 1.9927984.051879 14.1021727 0 27.6702876-6.66809 38.1744386-13.821411 8.157348 10.360717 17.977905 19.088746 29.266357 25.997925l14.083862 40.914917c2.572632 7.4646 9.60083 12.478638 17.492676 12.48169 2.04773 0 4.074097-.341797 6.021118-1.013184 4.672241-1.608277 8.441163-4.937745 10.604859-9.381104 2.166747-4.440308 2.474975-9.460449.866699-14.132691l-4.620361-13.418578c4.418945.531006 8.880615.808716 13.345337.808716 26.58081 0 52.288818-9.558106 72.381591-26.907349 19.882202-17.172242 33.056641-40.85083 37.088013-66.671753zM42.9383547 245.516968v-5.999756l47.842407-42.919922 3.7963867 2.600097-51.6387937 46.319581zm57.3425289-35.693359v20.76416H77.1333008l23.1475828-20.76416zm11.7187504 1.272582c1.724243 1.074219 3.634643 1.831055 5.621338 2.236939.32959 4.129028.952148 8.221436 1.864623 12.243652-1.09558.524902-2.172851 1.104737-3.219604 1.754761l-4.266357 2.633667v-18.869019zm8.511352-9.155273c-.90332-.088501-1.776123-.405884-2.526855-.918579l-41.1071779-28.149414c-1.1932375-.81482-1.99585-2.044678-2.2613523-3.466797-.2655031-1.419067.0366211-2.856445.8544922-4.049683.8148195-1.190186 2.0477289-1.992797 3.4667968-2.2583 1.4190672-.265504 2.8564454.036621 4.0496821.854492l38.7207031 26.51062c.81482.558471 1.757813.900268 2.740479.997924l39.978027 3.918458c-.72937 1.925659-1.226806 3.973388-1.434326 6.118774-.152588 1.550293-.152588 3.088379-.009155 4.605103l-42.471314-4.162598zm66.195679-10.238648c.393677 0 .790405.018311 1.190186.057984 3.222656.314331 6.127929 1.867676 8.184814 4.367066 2.053833 2.502441 3.012085 5.654907 2.697754 8.877563-.317383 3.222656-1.867676 6.127929-4.370117 8.184814-2.499389 2.053833-5.654907 3.015137-8.874512 2.697755-3.222656-.317383-6.130981-1.867677-8.184814-4.370118-2.056885-2.502442-3.012085-5.654907-2.697754-8.874512.610351-6.253052 5.899048-10.940552 12.054443-10.940552zM59.4727781 94.345093l-3.3142086-8.0932618 30.6915282-12.524414L90.1521 81.7901609 59.4727781 94.345093zm20.3735352-37.7288821l2.5665289 6.2652586-30.6945805 12.5244141-2.5512695-6.2347414c-.7049563-1.7211906-.6958008-3.6132813.0213625-5.3283688.7202148-1.7150875 2.0629883-3.0487062 3.7841797-3.7506101l17.7917476-7.2845461c.8636477-.3509524 1.7517094-.5187985 2.6306157-.5187985 2.7435304 0 5.3497312 1.6326899 6.4514156 4.3273922zM33.4992672 32.5378422c-1.3305656-1.953125-1.6204828-4.4494633-.7720945-6.6741945.5615234-1.4709477.5065921-3.1036383-.149536-4.5318602-.6561281-1.431275-1.8585203-2.5360109-3.3355711-3.0700688-.4730226-.1678468-1.1444093-.5279539-1.6448976-1.2664796-1.0498047-1.538086-.6500242-3.64685.8911133-4.6966547 1.5411375-1.0498047 3.6468507-.6469735 4.6966554.8911125.5035399.7385258.5889891 1.4923101.5767821 1.9927984-.0488282 1.574707.5401609 3.0975344 1.6326906 4.2327875 1.0894773 1.1352547 2.5878906 1.7822266 4.1625976 1.7974859 2.3803711.0244141 4.5959469 1.2084961 5.9265133 3.1616211.7507328 1.1016844 1.1657719 2.3468016 1.2359625 3.6956789.1403805 2.7709954 2.2064203 5.0628657 4.9468992 5.4931641 2.908325.4547117 5.4199219 2.0416258 7.0709227 4.4647211 1.2725828 1.8676758 1.8951414 4.0771484 1.8157961 6.2957766l-12.0178227 4.9194336c-1.8280031.7476804-3.4881593 1.7700195-4.9591062 3.0059812-.8514406-.6652828-1.5991211-1.4617922-2.2247313-2.3773187-1.6510015-2.4261477-2.2064211-5.3436282-1.5655515-8.2183844.6042476-2.7069094-.7720953-5.46875-3.2958985-6.6131594-1.2359625-.5584711-2.2399906-1.4007562-2.9907234-2.5024406zm26.3549812 81.8664548c0-2.801514.4730219-5.526734 1.3946532-8.12378L94.796875 92.5506594c8.352661 4.0557859 13.659668 12.4511716 13.659668 21.8536376 0 10.40039-6.628418 19.592285-16.3208008 22.955322-5.1361086-2.700806-10.9741211-4.235839-17.1691891-4.235839-1.9439703 0-3.8665773.152587-5.752564.445556-5.8868407-4.595947-9.3597407-11.639405-9.3597407-19.165039zM49.646118 170.153809c0-6.762696 2.6336672-13.119507 7.4188234-17.901612 4.7790524-4.779052 11.1389164-7.409667 17.9016117-7.409667 10.4217524 0 19.3878172 6.329345 23.2635492 15.344237l-8.6242671-5.905151c-3.7750243-2.584839-8.3282477-3.543091-12.8265383-2.700805-4.4952391.839233-8.395386 3.381347-10.980225 7.156372-2.5848383 3.775024-3.5430906 8.331298-2.7038571 12.826537.8422852 4.49524 3.3843993 8.395386 7.1594243 10.980225l10.5743406 7.23877-31.1828617 27.975464v-47.60437zm76.489258 97.735596c2.597046-2.154542 4.803467-4.153443 6.533813-5.795289l6.747437 19.598389c-4.849243-4.150391-9.289551-8.755493-13.28125-13.8031zm57.580566 70.922851c-.793457 1.626587-2.175903 2.84729-3.887939 3.436279-.720215.247192-1.461792.372315-2.206421.372315-2.893066 0-5.46875-1.84021-6.411743-4.574585l-29.174805-84.750367c-.845337-2.450561-2.731323-4.35791-5.166626-5.227661-2.441406-.872803-5.111694-.595092-7.321167.772095-.460815.286865-.881958.634766-1.251221 1.037598-.247192.271606-25.030517 27.172851-49.6917716 27.172851-13.5070804 0-25.2471929-9.506226-28.2226562-22.463989l13.6901851-12.280273h27.6824954l-3.1372071 1.89209c-2.7709961 1.672363-3.6651609 5.273437-1.9927984 8.044433 1.1016851 1.824951 3.0364992 2.835083 5.0231937 2.835083 1.0314938 0 2.0751954-.271606 3.0212407-.845337l14.4989004-8.743286c.009156-.006104.018311-.012207.027467-.018311.009154-.006104.01831-.009155.024414-.015258l13.204955-8.154297c5.731202-3.540039 12.658692-4.272461 19.000245-2.005005 6.344605 2.264404 11.239623 7.217407 13.430786 13.586425l29.177856 84.750367c.588989 1.708984.476074 3.549194-.317383 5.178833z"/><path fill="#000" d="M296.887329 113.900757c1.495362 0 2.987671-.567627 4.13208-1.702881l6.072998-6.039429c2.294922-2.279663 2.307129-5.9906.024414-8.285522-2.279663-2.2949219-5.990601-2.3040773-8.285523-.0244141l-6.072997 6.0394281c-2.294922 2.279663-2.307129 5.990601-.024414 8.285523 1.144409 1.150513 2.648925 1.727295 4.153442 1.727295zM278.280762 101.785278c.512695.13733 1.028442.204468 1.538086.204468 2.581786 0 4.943847-1.71814 5.651855-4.3273929l2.239991-8.2672117c.848388-3.1219477-.997925-6.3415523-4.119874-7.1868898-3.121948-.8483883-6.341553.997925-7.189941 4.1198734l-2.23999 8.2672117c-.848389 3.1219485.997924 6.3415533 4.119873 7.1899413zM303.039673 126.68457c.6958 2.624512 3.067016 4.360962 5.657959 4.360962.497437 0 1.000977-.064087 1.504516-.198364l8.279419-2.191162c3.128052-.830078 4.992676-4.037476 4.162598-7.165528-.830078-3.128051-4.037476-4.989623-7.165528-4.162597l-8.276367 2.191162c-3.128051.830078-4.992675 4.037476-4.162597 7.165527zM305.600098 297.094727c-2.282715-2.294922-5.990601-2.307129-8.285523-.024415-2.294922 2.279664-2.307129 5.990601-.024414 8.285523l6.036377 6.072998c1.144409 1.150512 2.651978 1.727295 4.156494 1.727295 1.49231 0 2.987671-.567627 4.129029-1.702881 2.294922-2.282715 2.307128-5.9906.024414-8.285522l-6.036377-6.072998zM323.153809 280.737305l-8.264161-2.239991c-3.121948-.848388-6.341553.997925-7.189941 4.122925-.845337 3.121949 1.000977 6.338502 4.122925 7.18689l8.267212 2.23999c.512695.140381 1.028442.20752 1.535034.20752 2.581787 0 4.943848-1.71814 5.651856-4.330444.848388-3.121949-.997925-6.341554-4.122925-7.18689zM289.965942 311.538696c-.830078-3.128051-4.040527-4.992676-7.165527-4.165649-3.128052.830078-4.992676 4.037476-4.162598 7.165527l2.191163 8.279419c.6958 2.624512 3.067016 4.360962 5.661011 4.360962.497436 0 1.000976-.064087 1.504516-.198364 3.128052-.827027 4.992676-4.037475 4.162598-7.162475l-2.191163-8.27942z"/></g></svg>
