<?xml version="1.0" encoding="UTF-8"?>
<svg width="886px" height="187px" viewBox="0 0 886 187" version="1.1" xmlns="http://www.w3.org/2000/svg" xmlns:xlink="http://www.w3.org/1999/xlink">
    <title>logo-text-white</title>
    <g id="Page-1" stroke="none" stroke-width="1" fill="none" fill-rule="evenodd">
        <g id="logos" transform="translate(-355.000000, -582.000000)">
            <g id="logo-text-white" transform="translate(355.000000, 582.000000)">
                <g id="logo-small">
                    <path d="M143,97 C143,124.062636 121.060425,146 93.9985751,146 C92.1705149,146 90.3681015,145.901684 88.5927596,145.703626 C79.0321313,144.657769 70.2993312,140.856204 63.205089,135.118236 C60.8127946,133.181831 58.6014541,131.021722 56.6095377,128.676379 C51.3504801,122.472477 47.6045944,114.939167 45.9517883,106.652098 C45.3277117,103.533048 45,100.308558 45,97.0071243 C45,97.0028496 45,97.0028496 45,97 C45,89.7445404 46.5758653,82.8581233 49.405583,76.6641949 C57.1310266,59.7523627 74.1919744,48 93.9985751,48 C121.060425,48 143,69.9373637 143,97 L143,97 Z" id="Path" fill="#FCCA75"></path>
                    <path d="M90,145 C80.3588731,143.952438 71.5525445,140.144678 64.3985701,134.397358 L61.1944399,125.157689 C60.1972799,126.019715 59.0420693,126.970228 57.7474855,127.945003 C52.4441477,121.73099 48.6667224,114.185403 47,105.884829 L51.2702576,105.884829 L53.352224,104.608915 C56.1339261,102.903415 59.3179406,102 62.5623017,102 C64.5752999,102 66.5681826,102.343954 68.4777291,103.0233 C73.5281853,104.814431 77.4277407,108.730658 79.1749255,113.765807 L90,145 Z" id="Path" fill="#FFAA00"></path>
                    <path d="M98.9389044,95.4401573 C98.3055865,102.032512 92.9244921,107 86.4214003,107 C86.0113583,107 85.5942955,106.981422 85.1842538,106.938549 C81.9460484,106.615577 79.0153739,105.065023 76.8949533,102.565559 L55.2638518,100.411933 C53.6784511,100.250446 52.1436035,99.6831011 50.8236065,98.7656308 L46,95.403001 C46,95.3987136 46,95.3987136 46,95.3958557 C46,88.1189711 47.5531031,81.2122187 50.3419479,75 L59.5454171,81.4122902 L79.5869047,83.4101464 C81.5542619,82.1225438 83.8937463,81.3794212 86.4031448,81.3794212 C86.8131864,81.3794212 87.2302496,81.4022865 87.6402909,81.4423008 C94.5492118,82.1296891 99.6185625,88.4076458 98.9389044,95.4401573 L98.9389044,95.4401573 Z" id="Path" fill="#FFAA00"></path>
                    <path d="M94,138 C70.8413344,138 52,119.383283 52,96.5007034 C52,73.6167173 70.8413344,55 94,55 C117.158666,55 136,73.6167173 136,96.5007034 C136,119.383283 117.158666,138 94,138 Z" id="Path" fill="#F3B141"></path>
                    <path d="M131,95.000719 C131,115.989196 114.21065,133 93.4985807,133 C90.1776107,133 86.9616623,132.56283 83.8961511,131.741698 C69.8345381,127.979735 59.0073233,116.147382 56.5364646,101.431721 C56.4683422,101.049197 56.4101539,100.662359 56.3633198,100.275521 C56.1234721,98.5527258 56,96.7896649 56,95.000719 C56,90.037976 56.936684,85.2995706 58.6440034,80.9551929 C64.1562466,66.9211714 77.6828141,57 93.4985807,57 C114.21065,57 131,74.0122423 131,95.000719 Z" id="Path" fill="#B69FD4"></path>
                    <path d="M86,134 C72.1232492,130.349258 61.4383753,118.866726 59,104.586128 C60.4341737,104.200958 61.9187672,104 63.4173668,104 C65.3795516,104 67.3221287,104.336326 69.1834732,105.000605 C74.1064425,106.752012 77.9075628,110.581383 79.610644,115.504861 L86,134 Z" id="Path" fill="#9E7FC6"></path>
                    <path d="M99.9386302,95.2689648 C99.3024696,101.958947 93.8972217,107 87.3649404,107 C86.9530579,107 86.5341231,106.981147 86.1222409,106.937639 C82.8695006,106.609884 79.9256716,105.036368 77.7957332,102.499888 L58.3611022,100.543507 C58.1227184,98.8061135 58,97.0281124 58,95.2240071 C58,90.2192101 58.9309665,85.4406517 60.6278646,81.05946 L80.4997677,83.0607987 C82.4759556,81.7541276 84.8259409,81 87.3466029,81 C87.7584851,81 88.1774203,81.0232039 88.589302,81.0638108 C95.5292341,81.7613788 100.621339,88.1323072 99.9386302,95.2689648 L99.9386302,95.2689648 Z" id="Path" fill="#9E7FC6"></path>
                    <path d="M15.7068049,18.4770352 C14.7725634,18.0182428 13.9367341,17.2929139 13.3166026,16.3097878 C12.2084545,14.5518121 12.043985,12.4005861 12.6964712,10.553765 C11.9159143,10.24936 11.2122001,9.69007038 10.7080061,8.89191705 C9.43943287,6.87905705 9.92205675,4.13649853 11.7837995,2.76594766 C13.6468899,1.39394039 16.1867327,1.9153613 17.4553059,3.9282213 C17.9581515,4.72491787 18.1819383,5.63813311 18.1576724,6.53387055 C19.9884082,6.5557179 21.7800488,7.50680153 22.889545,9.26623359 C23.5096764,10.24936 23.8278308,11.3548307 23.8804073,12.4617582 C25.7879853,12.783641 27.5715374,13.9226112 28.7443949,15.7825406 C30.9930455,19.3509253 30.1396908,24.212667 26.8381645,26.6435383 C23.5352906,29.0729524 19.035293,28.1509984 16.7852944,24.582614 C15.6137853,22.7226843 15.286194,20.5117426 15.7068049,18.4770352 Z" id="Path" fill="#B69FD4"></path>
                    <path d="M52,54.4992665 C52,62.5081197 45.9555297,69 38.5,69 C31.0444703,69 25,62.5081197 25,54.4992665 C25,46.4918807 31.0444703,40 38.5,40 C45.9555297,40 52,46.4918807 52,54.4992665 Z" id="Path" fill="#F4A58C"></path>
                    <path d="M28.5,185 C31.538146,185 34,182.343114 34,179.067481 L34,120.932519 C34,117.656886 31.538146,115 28.5,115 C25.4618543,115 23,117.656886 23,120.932519 L23,179.067481 C23,182.343114 25.4618543,185 28.5,185 L28.5,185 Z" id="Path" fill="#4159A5"></path>
                    <path d="M21,78.7283828 L21,115.552945 C21,124.637971 28.0013703,132 36.6348867,132 C43.4649572,132 49,126.176413 49,118.990289 L49,78.7283828 C49,70.5920865 42.7345341,64 35.0013707,64 C31.1341035,64 27.6354739,65.6480214 25.1029759,68.3125395 C22.5663666,70.9770575 21,74.6580722 21,78.7283828 Z" id="Path" fill="#FF4E61"></path>
                    <path d="M87.6785826,155.200975 L74.134649,115.76563 C72.845425,112.013805 69.9680478,109.096981 66.2420492,107.762115 C62.5132173,106.42867 58.4443703,106.858951 55.0768045,108.943614 L48.9466161,112.739461 L48.9466161,110.866389 L20,110.866389 L20,116.288216 C20,125.236078 27.2380707,132.486955 36.1634665,132.486955 C48.9466161,132.486955 61.2438277,118.952267 61.2438277,118.952267 C61.656096,118.696655 62.0428631,118.750618 62.2950411,118.841502 C62.5472188,118.930967 62.8801503,119.135457 63.0374074,119.594139 L76.5827575,159.030904 C77.4200447,161.467744 79.695312,162.99858 82.13067,163 C82.7639482,163 83.4071432,162.896335 84.0404213,162.677644 C87.1048072,161.619692 88.7340459,158.272587 87.6785826,155.200975 L87.6785826,155.200975 Z" id="Path" fill="#5C73BC"></path>
                    <path d="M46,40.0484515 L26.3703163,48 L22.7063391,39.1344804 L20.4531378,33.6806434 C19.1851709,30.6145559 20.6695146,27.1129042 23.7665844,25.8576219 L32.1764212,22.4487956 C35.2734911,21.1935133 38.8119698,22.6615794 40.0799367,25.7290949 L42.3446781,31.2014968 L46,40.0484515 Z" id="Path" fill="#FF4E61"></path>
                    <polygon id="Path" fill="#5C73BC" points="47 39.4264219 26.7735943 47 23 38.5558957 43.2338369 31"></polygon>
                    <line x1="49" y1="114" x2="43" y2="116" id="Path" stroke="#4159A5" stroke-width="15.00015" stroke-linecap="round" stroke-linejoin="round"></line>
                    <path d="M45.5650736,87 L16.6164212,111.813947 C16.2242845,112.148542 16,112.628312 16,113.131587 L16,118.226555 C16,119.758502 17.8970151,120.565955 19.0893419,119.544196 L51,92.191752 L45.5650736,87 Z" id="Path" fill="#F5F6E3"></path>
                    <path d="M85.2841045,99.9753905 L54.7021812,97.0259298 C53.8289761,96.9412631 52.9924487,96.641459 52.2687745,96.1542774 L33.2656341,83.3529238 C30.8928863,81.7539691 30.2862982,78.5643878 31.9113905,76.2298027 C33.5350718,73.8952176 36.7767925,73.2969978 39.1509509,74.8973404 L57.0495367,86.954736 L86.2997871,89.7765023 C89.1634478,90.0527107 91.2554721,92.5594051 90.9747486,95.3756199 C90.6940251,98.1918343 88.1463546,100.250211 85.2841045,99.9753905 Z" id="Path" fill="#FF4E61"></path>
                    <line x1="94" y1="92" x2="114" y2="83" id="Path" stroke="#5C73BC" stroke-width="15.00015" stroke-linecap="round"></line>
                    <path d="M94,96.0006789 C94,100.419248 90.4181943,104 86,104 C81.5818057,104 78,100.419248 78,96.0006789 C78,91.5807522 81.5818057,88 86,88 C90.4181943,88 94,91.5807522 94,96.0006789 L94,96.0006789 Z" id="Path" fill="#F4A58C"></path>
                    <path d="M68.8867217,36 C68.1484065,36 67.4100914,35.7188204 66.8447015,35.1549576 C65.7184328,34.0272325 65.7184328,32.1988139 66.8447015,31.0725919 L70.0716346,27.8457941 C71.1994068,26.7180686 73.0263983,26.7180686 74.1541705,27.8457941 C75.2819432,28.9735196 75.2819432,30.8019383 74.1541705,31.9281598 L70.9287414,35.1549576 C70.3648551,35.7188204 69.6265404,36 68.8867217,36 Z" id="Path" fill="#FF4E61"></path>
                    <path d="M8.88640598,73 C8.14807545,73 7.40974492,72.7187852 6.84584684,72.1548517 C5.71805105,71.0269853 5.71805105,69.1983375 6.84584684,68.0719747 L10.0713432,64.8447721 C11.1991394,63.7184093 13.0276726,63.7184093 14.1554688,64.8447721 C15.2817609,65.9726389 15.2817609,67.8012867 14.1539648,68.9291532 L10.9284684,72.1548517 C10.3645703,72.7187852 9.62623976,73 8.88640598,73 Z" id="Path" fill="#FF4E61"></path>
                    <path d="M2.88659398,148 C2.14826345,148 1.40842929,147.71882 0.846035224,147.154958 C-0.281760946,146.027232 -0.281760946,144.198814 0.844531207,143.071088 L4.07153162,139.845794 C5.19932741,138.718069 7.02786062,138.718069 8.15415316,139.845794 C9.28194895,140.973519 9.28194895,142.800435 8.15415316,143.92816 L4.92865676,147.154958 C4.36475868,147.71882 3.62492451,148 2.88659398,148 Z" id="Path" fill="#5C73BC"></path>
                    <path d="M62.8874872,19 C62.1492649,19 61.4095389,18.7188204 60.8457232,18.1549576 C59.7180923,17.0272325 59.7180923,15.1988138 60.8457232,14.0725922 L64.0707482,10.8457939 C65.1983796,9.71806871 67.0266455,9.71806871 68.1542765,10.8457939 C69.2819078,11.9735194 69.2819078,13.8019381 68.1542765,14.9281597 L64.9277481,18.1549576 C64.3654358,18.7188204 63.6257098,19 62.8874872,19 Z" id="Path" fill="#95D6A4"></path>
                    <path d="M143.612015,104.54553 C143.846475,103.050353 142.821429,101.649337 141.324605,101.416785 C139.827781,101.182807 138.422453,102.205749 138.187994,103.699499 C134.641079,126.363992 115.353922,142.813797 92.3297095,142.813797 C89.5519357,142.813797 86.7784509,142.565552 84.0650108,142.080476 L81.8119119,135.551915 C85.2215825,136.465 88.7413347,136.92725 92.3297095,136.92725 C114.673418,136.92725 132.85118,118.78681 132.85118,96.4889775 C132.85118,87.2140263 129.624502,78.1530802 123.765873,70.9739457 C117.993021,63.8989601 109.919894,58.9326313 101.036164,56.9908977 C99.5522071,56.6656114 98.0925532,57.6029506 97.7680271,59.0795807 C97.4435007,60.5576381 98.3813389,62.0185749 99.862437,62.341008 C115.795678,65.8249995 127.361396,80.1861219 127.361396,96.4889775 C127.361396,115.766494 111.646888,131.448737 92.3297095,131.448737 C87.9207265,131.448737 83.633262,130.64408 79.573109,129.059021 L74.5736883,114.56807 C73.0010938,110.008349 69.4884893,106.461583 64.9365432,104.840856 C62.7106072,104.046186 60.384597,103.769407 58.1071943,103.987692 C57.8427126,102.780707 57.6454237,101.556602 57.5096086,100.323936 L75.4572003,102.080199 C75.5301116,102.174361 75.6015933,102.26995 75.6787932,102.361258 C77.5730547,104.662519 80.2507541,106.089215 83.2200986,106.378834 C83.5875138,106.414502 83.9534994,106.433049 84.316626,106.433049 C89.9894031,106.433049 94.8587273,102.121573 95.4234317,96.3734152 C95.5049206,95.5387977 95.4891946,94.7170208 95.3891206,93.9166445 L113.179453,86.1953656 C114.569055,85.591873 115.20667,83.9782801 114.601936,82.5915312 C113.997202,81.204783 112.380289,80.5684764 110.990687,81.1719689 L93.3876367,88.8104993 C91.5777233,86.2866741 88.7298976,84.5204242 85.3974269,84.1937109 C82.605357,83.9197853 79.9491021,84.7073215 77.8260993,86.2210459 L59.4467588,84.4248359 C63.9629643,72.2308649 75.1998666,63.2740674 88.2566896,61.7660494 C89.7620916,61.5919927 90.841463,60.2323511 90.6670482,58.7300403 C90.4926333,57.2263028 89.1301944,56.1477206 87.6247927,56.3232043 C79.5416569,57.2562634 72.0060704,60.5661981 65.8329221,65.8949079 C60.5547232,70.4503482 56.593215,76.20136 54.2414712,82.6657198 L49.2992357,79.2901568 C49.2992357,79.2216754 49.2963767,79.1560472 49.2949468,79.0889927 C49.2963767,79.083286 49.2992357,79.0790058 49.3006653,79.0747256 C56.4459629,61.5120977 73.3356274,50.1655839 92.3297095,50.1655839 C116.324642,50.1655839 136.182221,68.1105667 138.522527,91.9064298 C138.662632,93.3217123 139.856374,94.378894 141.251694,94.378894 C141.340331,94.378894 141.431827,94.3731872 141.521894,94.3646272 C143.031585,94.2176774 144.13526,92.8765831 143.986579,91.3714187 C142.734222,78.6367302 136.80554,66.8565008 127.294203,58.2007359 C117.717103,49.486477 105.299325,44.6870712 92.3297095,44.6870712 C81.7961858,44.6870712 71.6543809,47.8172425 62.999393,53.742311 C56.3816292,58.2720709 50.9690451,64.1957128 47.0847369,71.0866545 C46.4542692,69.9681248 45.7065723,68.9252103 44.8516525,67.9793107 C49.8853844,65.0032226 53.1363663,59.5375504 53.1363663,53.4840791 C53.1363663,47.6317718 50.1641626,42.3430099 45.3577422,39.291307 C45.3248606,39.0901429 45.2719643,38.8918321 45.191905,38.6963748 L39.324698,24.3908937 C37.855037,20.8070333 34.2537955,18.7212035 30.5782132,18.9908493 C30.3466132,17.467138 29.7804791,15.9962143 28.8926782,14.6950675 C27.6617653,12.8917237 25.8861634,11.5292289 23.8560869,10.7859204 C23.5973237,9.90707564 23.2027451,9.07245855 22.6837892,8.31060269 C21.5000544,6.57716693 19.7501857,5.34022175 17.770146,4.77810333 C17.5671385,4.18174457 17.2826418,3.61249277 16.9209452,3.08176185 C14.726461,-0.134011179 10.3160484,-0.968628263 7.0936595,1.22277683 C5.53107217,2.28423868 4.47743397,3.88784501 4.12574448,5.74112324 C3.77405535,7.59440147 4.16577452,9.47193344 5.22942024,11.0313121 C5.59111687,11.5606164 6.01714683,12.0328525 6.49893287,12.4394612 C6.29878411,14.4839165 6.81202185,16.5626125 7.99432706,18.2960483 C8.51471287,19.0564772 9.14946919,19.7298777 9.87286283,20.2919961 C9.82139573,22.4491605 10.4432855,24.5977645 11.674198,26.3996817 C12.4075991,27.4754103 13.3225632,28.3827894 14.3719124,29.1046974 C13.9530305,30.8652401 14.0917046,32.7056781 14.7922242,34.4134332 L20.3349048,47.9285246 C19.710156,49.7090412 19.388489,51.5723064 19.388489,53.4855057 C19.388489,57.5615761 20.8667276,61.4322027 23.4629382,64.4496649 C22.09907,65.2158006 20.8295574,66.1688335 19.6915705,67.3044836 C16.4119964,70.5716173 14.6063719,74.9201868 14.6063719,79.5483887 L14.6063719,106.716961 L12.9851702,108.167911 C12.0187394,109.032489 11.465472,110.272288 11.465472,111.567728 L11.465472,116.826529 C11.465472,118.6527 12.5033845,120.2506 14.1746234,120.995335 C14.5677718,121.169392 14.970928,121.280674 15.3769433,121.343449 C15.4069655,121.443317 15.4398471,121.54176 15.4712988,121.640202 C15.424121,121.842792 15.3955284,122.052517 15.3955284,122.270801 L15.3955284,137.660571 C15.3955284,139.172869 16.6235818,140.399828 18.1404206,140.399828 C19.6572594,140.399828 20.8853128,139.172869 20.8853128,137.660571 L20.8853128,130.050575 C22.7238189,131.709822 24.8797029,133.016676 27.2385944,133.86984 L27.2385944,178.351369 C27.2385944,180.099071 25.8132521,181.521487 24.0619538,181.521487 C22.3106551,181.521487 20.8853128,180.099071 20.8853128,178.351369 L20.8853128,150.142735 C20.8853128,148.630437 19.6558298,147.403479 18.1404206,147.403479 C16.6235818,147.403479 15.3955284,148.630437 15.3955284,150.142735 L15.3955284,178.351369 C15.3955284,183.120813 19.2826961,187 24.0619538,187 C28.8412111,187 32.7283788,183.119387 32.7283788,178.351369 L32.7283788,134.975529 C33.0386087,134.991223 33.3502685,134.999783 33.6619283,134.999783 C40.2682547,134.999783 46.6243954,131.882453 51.5451867,128.538277 C55.3665911,133.38191 59.967145,137.462261 65.255351,140.692301 L71.8530998,159.820014 C73.0582791,163.309713 76.3507198,165.653774 80.0477466,165.655201 C81.0070293,165.655201 81.9563045,165.495411 82.8684091,165.181538 C85.0571748,164.429669 86.8227696,162.873143 87.8363781,160.795874 C88.8514162,158.720031 88.9958092,156.373116 88.2423934,154.188845 L86.0779318,147.915662 C88.148038,148.163908 90.2381588,148.293737 92.3297095,148.293737 C104.781798,148.293737 116.825013,143.825325 126.237705,135.714558 C135.551754,127.686539 141.723472,116.616805 143.612015,104.54553 Z M16.9538268,114.779221 L16.9538268,111.974336 L39.3661572,91.9092831 L41.1446186,93.1248281 L16.9538268,114.779221 Z M43.8165995,98.0925838 L43.8165995,107.799824 L32.9728458,107.799824 L43.8165995,98.0925838 Z M49.3063838,98.687516 C50.1141254,99.189713 51.0090748,99.5435336 51.9397649,99.7332841 C52.0941651,101.663604 52.3858099,103.576803 52.8132694,105.457189 C52.300032,105.70258 51.7953719,105.973653 51.3050086,106.277539 L49.3063838,107.508778 L49.3063838,98.687516 Z M53.2936255,94.4074279 C52.8704546,94.3660538 52.4615803,94.2176774 52.1098911,93.9779925 L32.8527568,80.8181483 C32.2937709,80.4372204 31.9177777,79.8622618 31.7934001,79.1974216 C31.6690221,78.5340081 31.8105556,77.8620342 32.1936968,77.3041959 C32.5754085,76.7477843 33.1529792,76.3725635 33.817758,76.2484409 C34.4825365,76.1243182 35.155893,76.2655612 35.7148786,76.6479158 L53.854041,89.0416242 C54.2357527,89.3027093 54.6775087,89.4624993 55.1378501,89.5081536 L73.8660207,91.3400316 C73.5243387,92.2402765 73.2913091,93.1975897 73.1940938,94.2005571 C73.1226124,94.9253186 73.1226124,95.6443734 73.1898052,96.3534413 L53.2936255,94.4074279 Z M84.303759,89.6208626 C84.4881817,89.6208626 84.6740336,89.629423 84.8613154,89.6479699 C86.3710061,89.7949197 87.7320151,90.5211079 88.6955865,91.689572 C89.6577286,92.8594628 90.1066327,94.3332397 89.9593806,95.8398307 C89.8106989,97.3464217 89.0844462,98.7046363 87.9121485,99.6662293 C86.7412807,100.626396 85.2630417,101.075805 83.7547806,100.927429 C82.2450899,100.779053 80.8826513,100.054291 79.9205095,98.8844002 C78.9569378,97.7145091 78.5094633,96.2407322 78.6567154,94.7355678 C78.9426417,91.8122677 81.4201927,89.6208626 84.303759,89.6208626 Z M24.6995692,44.1064062 L23.1469897,40.3228083 L37.524792,34.4676478 L39.0716533,38.2369785 L24.6995692,44.1064062 Z M34.243788,26.4681631 L35.4461082,29.39717 L21.066876,35.2523305 L19.8717042,32.3375904 C19.5414593,31.5329342 19.5457483,30.6483823 19.8817117,29.8465793 C20.2191047,29.0447763 20.8481425,28.4213099 21.6544546,28.09317 L29.9892051,24.6876465 C30.3937909,24.5235763 30.8098137,24.4451083 31.2215475,24.4451083 C32.5067862,24.4451083 33.7276912,25.2083904 34.243788,26.4681631 Z M12.5319768,15.2115316 C11.9086579,14.2984462 11.7728428,13.1314087 12.1702801,12.0913473 C12.4333323,11.4036797 12.4075991,10.6403972 12.1002283,9.97270384 C11.7928574,9.30358313 11.2295829,8.78711935 10.5376413,8.53744745 C10.3160484,8.45897908 10.0015295,8.29062913 9.76706993,7.94536851 C9.27527675,7.22631371 9.46255854,6.24046703 10.1845223,5.7496836 C10.906486,5.25890017 11.8929318,5.44722368 12.384725,6.16627847 C12.6206141,6.51153909 12.6606438,6.8639331 12.6549252,7.09791125 C12.6320511,7.8340864 12.9079699,8.54600781 13.4197781,9.07673837 C13.9301564,9.60746965 14.6321055,9.90992885 15.3697952,9.9170626 C16.4849077,9.92847617 17.5228199,10.4820342 18.1461391,11.3951197 C18.4978286,11.9101569 18.6922585,12.4922488 18.7251401,13.1228487 C18.7909029,14.4182883 19.7587633,15.4897371 21.0425724,15.6909015 C22.405011,15.9034791 23.5815977,16.6453611 24.3550281,17.7781575 C24.9511843,18.6512955 25.2428291,19.6842234 25.2056589,20.7214315 L19.5757705,23.0212655 C18.7194212,23.3708059 17.9417017,23.8487492 17.2526196,24.426561 C16.8537524,24.1155415 16.5034928,23.7431735 16.2104185,23.3151651 C15.4369876,22.1809416 15.1767949,20.8170202 15.4770177,19.4730724 C15.7600845,18.2075929 15.1153207,16.9164331 13.9330158,16.381422 C13.3540149,16.1203369 12.8836662,15.7265688 12.5319768,15.2115316 Z M24.8782734,53.4840791 C24.8782734,52.1743719 25.099866,50.9003325 25.5316148,49.6862141 L41.247552,43.2675089 C45.1604529,45.1635878 47.6465819,49.0884287 47.6465819,53.4840791 C47.6465819,58.3462591 44.5414226,62.6434676 40.0009135,64.2156864 C37.5948439,62.9530605 34.8599592,62.2354327 31.9578078,62.2354327 C31.0471323,62.2354327 30.1464648,62.3067673 29.2629524,62.4437301 C26.5051937,60.2951261 24.8782734,57.0023113 24.8782734,53.4840791 Z M20.0961563,79.5469621 C20.0961563,76.3854037 21.3299282,73.4135958 23.5715901,71.177963 C25.8103926,68.9437572 28.7897447,67.7139454 31.9578078,67.7139454 C36.8399985,67.7139454 41.0402556,70.6729128 42.8558872,74.8873727 L38.8157492,72.1267161 C37.0472953,70.9183045 34.914285,70.4703218 32.8070086,70.8640902 C30.7011617,71.2564314 28.8740927,72.4448691 27.6631949,74.2096923 C26.4522974,75.9745152 26.003393,78.1045723 26.3965417,80.2060955 C26.7911199,82.307619 27.9820027,84.1309363 29.750457,85.3393479 L34.7041295,88.7234709 L20.0961563,101.801993 L20.0961563,79.5469621 Z M55.9284362,125.238329 C57.1450525,124.231082 58.1786761,123.296596 58.9892768,122.529033 L62.1501918,131.691275 C59.8785077,129.750968 57.798394,127.598084 55.9284362,125.238329 Z M82.9027203,158.394745 C82.5310161,159.155174 81.8833932,159.725852 81.0813701,160.001204 C80.7439772,160.116767 80.3965766,160.175261 80.0477466,160.175261 C78.6924561,160.175261 77.4858472,159.314964 77.0440912,158.036644 L63.3768156,118.415869 C62.9808075,117.270232 62.0972955,116.378547 60.9564495,115.971938 C59.8127444,115.563903 58.5618173,115.693733 57.5267642,116.332892 C57.3108898,116.467002 57.1136005,116.629645 56.9406152,116.817969 C56.8248151,116.944945 45.2147791,129.52127 33.6619283,129.52127 C27.3343798,129.52127 21.834588,125.077112 20.4406977,119.019361 L26.8540237,113.278336 L39.8222097,113.278336 L38.3525487,114.162888 C37.0544434,114.944717 36.6355615,116.628219 37.4189991,117.923659 C37.9350963,118.776823 38.8414824,119.249059 39.7721725,119.249059 C40.2553877,119.249059 40.7443218,119.122083 41.1875077,118.853864 L47.9796859,114.76638 C47.9839749,114.763527 47.9882639,114.760674 47.9925529,114.75782 C47.9968415,114.754966 48.0011305,114.75354 48.0039899,114.750687 L54.1900045,110.938555 C56.8748523,109.283587 60.1201153,108.94118 63.0908894,110.001216 C66.063093,111.059824 68.3562213,113.375352 69.3826968,116.352866 L83.051402,155.973641 C83.3273207,156.772591 83.2744244,157.632889 82.9027203,158.394745 Z" id="Shape" fill="#000000" fill-rule="nonzero"></path>
                    <path d="M136.963212,54 C137.719642,54 138.474528,53.7122786 139.053429,53.1368362 L142.12546,50.0755446 C143.286349,48.9200195 143.292524,47.0390036 142.13781,45.8757438 C140.984641,44.7124839 139.107459,44.7078432 137.946571,45.8633687 L134.87454,48.9246599 C133.713651,50.0801854 133.707476,51.9612013 134.86219,53.1244611 C135.44109,53.7076383 136.202151,54 136.963212,54 L136.963212,54 Z" id="Path" fill="#F1F3F5"></path>
                    <path d="M128.859056,47.9079329 C129.079376,47.9697692 129.301008,48 129.520017,48 C130.629486,48 131.644532,47.2263626 131.948784,46.051478 L132.911373,42.3289496 C133.27595,40.9232109 132.482536,39.4734997 131.140943,39.0928643 C129.799351,38.7108553 128.415793,39.5422062 128.051216,40.9479452 L127.088627,44.6704736 C126.724049,46.0762126 127.517464,47.5259239 128.859056,47.9079329 Z" id="Path" fill="#F1F3F5"></path>
                    <path d="M141.088812,59.1194601 C141.401935,60.2512056 142.469025,61 143.634996,61 C143.858852,61 144.085454,60.9723644 144.312056,60.9144612 L148.037944,59.9695854 C149.445623,59.611638 150.284738,58.2285396 149.911188,56.8796565 C149.537638,55.5307738 148.094251,54.7280242 146.686571,55.0846558 L142.962056,56.0295315 C141.554377,56.387479 140.715262,57.7705774 141.088812,59.1194601 L141.088812,59.1194601 Z" id="Path" fill="#F1F3F5"></path>
                    <path d="M142.076227,137.874616 C140.919132,136.713626 139.039626,136.707451 137.876343,137.862265 C136.713061,139.015535 136.706873,140.89288 137.863968,142.05387 L140.923773,145.12617 C141.503867,145.708208 142.268045,146 143.030676,146 C143.787119,146 144.545109,145.71284 145.123657,145.138521 C146.28694,143.983707 146.293127,142.107906 145.136032,140.946916 L142.076227,137.874616 Z" id="Path" fill="#F1F3F5"></path>
                    <path d="M150.050734,131.051115 L146.32967,130.088613 C144.923966,129.724069 143.47429,130.517411 143.09229,131.860193 C142.711664,133.201664 143.542995,134.583785 144.9487,134.948329 L148.671138,135.910831 C148.901986,135.971151 149.134209,136 149.36231,136 C150.524799,136 151.588353,135.261732 151.907144,134.139251 C152.289144,132.79778 151.457813,131.414348 150.050734,131.051115 Z" id="Path" fill="#F1F3F5"></path>
                    <path d="M132.970023,146.962592 C132.612076,145.555111 131.227665,144.716114 129.8801,145.088239 C128.53122,145.461736 127.727156,146.90492 128.085103,148.312401 L129.029977,152.037765 C129.330021,153.218676 130.352537,154 131.471121,154 C131.685626,154 131.902763,153.971164 132.1199,153.910745 C133.46878,153.538621 134.272844,152.094064 133.914897,150.687956 L132.970023,146.962592 Z" id="Path" fill="#F1F3F5"></path>
                </g>
                <path d="M201,118.09375 C201,108.588494 202.416001,99.6204849 205.248047,91.1894531 C208.080092,82.7584214 211.888648,74.9785513 216.673828,67.8496094 C221.459008,60.7206675 226.992807,54.3242471 233.275391,48.6601562 C239.557974,42.9960654 246.133429,38.1946812 253.001953,34.2558594 C259.870477,30.3170376 266.836553,27.2897241 273.900391,25.1738281 C280.964228,23.0579321 287.686166,22 294.066406,22 C299.730497,22 305.117813,22.6510352 310.228516,23.953125 C315.339218,25.2552148 319.896464,27.2408721 323.900391,29.9101562 C327.904317,32.5794404 331.240872,35.9485474 333.910156,40.0175781 C336.57944,44.0866089 338.369787,48.8554414 339.28125,54.3242188 C339.346354,54.6497412 339.378906,54.942707 339.378906,55.203125 L339.378906,56.0820312 C339.378906,58.6211064 338.646492,60.557936 337.181641,61.8925781 C335.71679,63.2272202 334.138029,63.8945312 332.445312,63.8945312 C330.557282,63.8945312 328.799487,62.8854268 327.171875,60.8671875 C325.544263,58.8489482 323.981778,55.9843936 322.484375,52.2734375 C320.075509,47.716123 316.592471,44.3958438 312.035156,42.3125 C307.477842,40.2291562 302.334664,39.1875 296.605469,39.1875 C291.592423,39.1875 286.335314,40.0989492 280.833984,41.921875 C275.332655,43.7448008 269.896511,46.3163896 264.525391,49.6367188 C259.15427,52.9570479 254.027368,56.9446382 249.144531,61.5996094 C244.261694,66.2545806 239.964862,71.3977583 236.253906,77.0292969 C232.54295,82.6608354 229.597016,88.7317383 227.416016,95.2421875 C225.235015,101.752637 224.144531,108.490851 224.144531,115.457031 C224.144531,121.251331 224.86067,126.134095 226.292969,130.105469 C227.725268,134.076843 229.61327,137.299467 231.957031,139.773438 C234.300793,142.247408 236.937485,144.037755 239.867188,145.144531 C242.79689,146.251308 245.7591,146.804688 248.753906,146.804688 C255.459669,146.804688 261.856089,144.981789 267.943359,141.335938 C274.030629,137.690086 279.385394,132.465529 284.007812,125.662109 C288.630231,118.85869 292.30858,110.557992 295.042969,100.759766 C297.777357,90.9615396 299.144531,79.9102178 299.144531,67.6054688 C299.144531,66.3684834 299.128255,65.1477925 299.095703,63.9433594 C299.063151,62.7389263 299.046875,61.4856836 299.046875,60.1835938 C299.046875,56.9283691 299.632807,54.5358149 300.804688,53.0058594 C301.976568,51.4759038 303.31119,50.7109375 304.808594,50.7109375 C307.347669,50.7109375 309.414706,51.4108003 311.009766,52.8105469 C312.604826,54.2102935 313.858068,56.0657437 314.769531,58.3769531 C315.680994,60.6881626 316.315753,63.324855 316.673828,66.2871094 C317.031903,69.2493638 317.210938,72.2929531 317.210938,75.4179688 C317.210938,84.2721797 316.266937,92.6217056 314.378906,100.466797 C312.490876,108.311888 309.870459,115.57093 306.517578,122.244141 C303.164697,128.917351 299.193382,134.906875 294.603516,140.212891 C290.013649,145.518907 285.049506,150.011049 279.710938,153.689453 C274.372369,157.367857 268.757191,160.19986 262.865234,162.185547 C256.973278,164.171234 251.032582,165.164062 245.042969,165.164062 C239.509087,165.164062 234.105495,164.366544 228.832031,162.771484 C223.558567,161.176424 218.854838,158.539732 214.720703,154.861328 C210.586568,151.182924 207.266289,146.332712 204.759766,140.310547 C202.253243,134.288381 201,126.882856 201,118.09375 Z M485.960938,109.597656 C482.901026,109.597656 479.938816,110.378898 477.074219,111.941406 C474.209621,113.503914 471.670584,115.554675 469.457031,118.09375 C467.243479,120.632825 465.485684,123.481104 464.183594,126.638672 C462.881504,129.79624 462.230469,132.970036 462.230469,136.160156 C462.230469,137.462246 462.311848,138.813144 462.474609,140.212891 C462.637371,141.612637 463.011716,142.898432 463.597656,144.070312 C464.183597,145.242193 465.013667,146.218746 466.087891,147 C467.162115,147.781254 468.610668,148.171875 470.433594,148.171875 C471.865893,148.171875 473.542308,147.537116 475.462891,146.267578 C477.383473,144.998041 479.36913,143.370453 481.419922,141.384766 C483.470713,139.399079 485.472646,137.218111 487.425781,134.841797 C489.378916,132.465483 491.136711,130.138032 492.699219,127.859375 C494.261727,125.580718 495.531245,123.529957 496.507812,121.707031 C497.48438,119.884105 497.972656,118.549483 497.972656,117.703125 C497.972656,116.46614 497.549483,115.343104 496.703125,114.333984 C495.856767,113.324865 494.81511,112.462243 493.578125,111.746094 C492.34114,111.029944 491.022793,110.49284 489.623047,110.134766 C488.2233,109.776691 487.002609,109.597656 485.960938,109.597656 Z M592.015625,47.4882812 C593.96876,47.4882812 595.759106,48.0091094 597.386719,49.0507812 C599.014331,50.0924531 599.828125,51.8176963 599.828125,54.2265625 C599.828125,55.4635479 599.551435,56.7167905 598.998047,57.9863281 C598.444659,59.2558657 597.712244,60.7369707 596.800781,62.4296875 C596.214841,63.5364639 595.498702,64.8548101 594.652344,66.3847656 C593.805985,67.9147212 592.910812,69.5423091 591.966797,71.2675781 C591.022782,72.9928472 590.046229,74.7994697 589.037109,76.6875 C588.02799,78.5755303 587.035161,80.3984287 586.058594,82.15625 C583.845041,86.3229375 581.501314,90.7174248 579.027344,95.3398438 L610.863281,95.3398438 L611.281135,95.3421217 C612.558076,94.4668913 613.916179,93.7337149 615.355469,93.1425781 C617.178395,92.3938765 619.066396,92.0195312 621.019531,92.0195312 C622.45183,92.0195312 623.786452,92.2148418 625.023438,92.6054688 C626.260423,92.9960957 627.302079,93.5006479 628.148438,94.1191406 C628.994796,94.7376333 629.662107,95.4212202 630.150391,96.1699219 C630.638674,96.9186235 630.882812,97.6184863 630.882812,98.2695312 C630.882812,99.1809941 630.65495,100.059892 630.199219,100.90625 C629.743487,101.752608 629.14128,102.566402 628.392578,103.347656 C627.643876,104.12891 626.797531,104.910152 625.853516,105.691406 C624.9095,106.47266 623.981775,107.221351 623.070312,107.9375 C627.041687,110.020844 630.589828,112.397122 633.714844,115.066406 C636.839859,117.73569 639.492828,120.551417 641.673828,123.513672 C643.854829,126.475926 645.514968,129.486964 646.654297,132.546875 C647.793625,135.606786 648.363281,138.601548 648.363281,141.53125 C648.363281,145.242206 647.305349,148.578761 645.189453,151.541016 C643.073557,154.50327 640.306658,157.009755 636.888672,159.060547 C633.470686,161.111338 629.564475,162.673823 625.169922,163.748047 C620.775369,164.822271 616.332054,165.359375 611.839844,165.359375 C608.45441,165.359375 605.166683,164.98503 601.976562,164.236328 C598.786442,163.487626 595.87306,162.332039 593.236328,160.769531 C590.599596,159.207023 588.337249,157.20509 586.449219,154.763672 C585.599845,153.665344 584.862473,152.471497 584.2371,151.182123 C581.494577,153.192651 578.765112,155.037263 576.048828,156.716797 C571.784484,159.353529 567.569031,161.453117 563.402344,163.015625 C559.235656,164.578133 555.199238,165.359375 551.292969,165.359375 C548.688789,165.359375 546.507821,165.017582 544.75,164.333984 C542.992179,163.650387 541.576177,162.706386 540.501953,161.501953 C539.427729,160.29752 538.662763,158.897794 538.207031,157.302734 C537.7513,155.707674 537.523438,153.998707 537.523438,152.175781 C537.523438,151.394409 537.555322,150.605538 537.619091,149.809166 C536.525435,150.74064 535.40212,151.676592 534.251953,152.615234 C531.419908,154.926444 528.522801,157.026032 525.560547,158.914062 C522.598292,160.802093 519.68491,162.348301 516.820312,163.552734 C513.955715,164.757167 511.253919,165.359375 508.714844,165.359375 C506.436187,165.359375 504.483081,164.871099 502.855469,163.894531 C501.227856,162.917964 499.876958,161.648445 498.802734,160.085938 C497.72851,158.52343 496.930992,156.749359 496.410156,154.763672 C495.88932,152.777985 495.628906,150.7435 495.628906,148.660156 C495.628906,147.292962 495.726562,145.942064 495.921875,144.607422 C496.117188,143.27278 496.442706,142.019537 496.898438,140.847656 C494.880198,143.582045 492.585299,146.397772 490.013672,149.294922 C487.442044,152.192072 484.675145,154.828764 481.712891,157.205078 C478.750636,159.581392 475.658219,161.534498 472.435547,163.064453 C469.212875,164.594409 465.941423,165.359375 462.621094,165.359375 C460.928377,165.359375 458.958996,165.017582 456.712891,164.333984 C454.466786,163.650387 452.334646,162.527352 450.316406,160.964844 C448.298167,159.402336 446.605476,157.384127 445.238281,154.910156 C444.337407,153.280002 443.73334,151.409599 443.426074,149.298921 C439.753237,152.387385 436.042336,155.121733 432.298828,157.498047 C428.55532,159.874361 424.811868,161.778639 421.068359,163.210938 C417.324851,164.643236 413.597675,165.359375 409.886719,165.359375 C405.068986,165.359375 401.179051,164.220063 398.216797,161.941406 C395.254542,159.662749 393.773438,156.049504 393.773438,151.101562 C393.773438,147.846338 394.391921,144.786473 395.628906,141.921875 C396.865892,139.057277 398.395824,136.306654 400.21875,133.669922 C402.041676,131.03319 403.962229,128.477877 405.980469,126.003906 C407.998708,123.529936 409.756503,121.056002 411.253906,118.582031 C411.904951,117.540359 412.425779,116.547531 412.816406,115.603516 C413.207033,114.6595 413.402344,113.699224 413.402344,112.722656 C413.402344,111.680984 413.109378,110.818363 412.523438,110.134766 C411.937497,109.451168 411.091151,109.109375 409.984375,109.109375 C407.315091,109.109375 404.743502,109.679031 402.269531,110.818359 C399.795561,111.957688 397.419282,113.455069 395.140625,115.310547 C392.861968,117.166025 390.697276,119.298165 388.646484,121.707031 C386.595693,124.115897 384.675139,126.606107 382.884766,129.177734 C381.094392,131.749362 379.417977,134.304675 377.855469,136.84375 C376.292961,139.382825 374.860684,141.694 373.558594,143.777344 C372.386713,145.925792 371.312505,148.269519 370.335938,150.808594 C369.35937,153.347669 368.301438,155.691396 367.162109,157.839844 C366.022781,159.988292 364.736986,161.794915 363.304688,163.259766 C361.872389,164.724617 360.082042,165.457031 357.933594,165.457031 C357.15234,165.457031 356.305994,165.310548 355.394531,165.017578 C354.483068,164.724608 353.652999,164.317711 352.904297,163.796875 C352.155595,163.276039 351.537112,162.657556 351.048828,161.941406 C350.560544,161.225257 350.283854,160.444015 350.21875,159.597656 C350.21875,156.472641 350.918613,153.282568 352.318359,150.027344 C353.718106,146.772119 355.492177,143.419288 357.640625,139.96875 C359.789073,136.518212 362.1328,133.018898 364.671875,129.470703 C367.21095,125.922508 369.61978,122.292987 371.898438,118.582031 C372.549482,117.540359 373.070311,116.547531 373.460938,115.603516 C373.851564,114.6595 374.046875,113.699224 374.046875,112.722656 C374.046875,111.680984 373.753909,110.818363 373.167969,110.134766 C372.582028,109.451168 371.735683,109.109375 370.628906,109.109375 C367.959622,109.109375 365.388033,109.679031 362.914062,110.818359 C360.440092,111.957688 358.063813,113.455069 355.785156,115.310547 C353.506499,117.166025 351.341807,119.298165 349.291016,121.707031 C347.240224,124.115897 345.31967,126.606107 343.529297,129.177734 C341.738923,131.749362 340.062508,134.304675 338.5,136.84375 C336.937492,139.382825 335.505215,141.694 334.203125,143.777344 C333.161453,145.687076 332.196955,147.751101 331.309608,149.96947 L330.980469,150.808594 C330.003901,153.347669 328.945969,155.691396 327.806641,157.839844 C326.667312,159.988292 325.381518,161.794915 323.949219,163.259766 C322.51692,164.724617 320.726573,165.457031 318.578125,165.457031 C316.234363,165.457031 314.378913,164.708341 313.011719,163.210938 C311.644524,161.713534 310.960938,159.923188 310.960938,157.839844 C310.960938,156.667963 311.38411,154.845064 312.230469,152.371094 C313.076827,149.897123 314.167311,147.016292 315.501953,143.728516 C316.836595,140.440739 318.350252,136.941425 320.042969,133.230469 C321.735686,129.519513 323.412101,125.841164 325.072266,122.195312 C326.73243,118.549461 328.294915,115.11525 329.759766,111.892578 C331.224617,108.669906 332.445308,105.919282 333.421875,103.640625 C334.593756,100.841132 336.139964,98.7578193 338.060547,97.390625 C339.981129,96.0234307 341.885407,95.3398438 343.773438,95.3398438 C345.40105,95.3398438 346.849603,95.9420513 348.119141,97.1464844 C349.388678,98.3509175 350.023438,100.092437 350.023438,102.371094 C350.023438,104.063811 349.632816,105.919261 348.851562,107.9375 C350.609384,106.309888 352.497386,104.552093 354.515625,102.664062 C356.533864,100.776032 358.731108,99.0345132 361.107422,97.4394531 C363.483736,95.8443931 366.136704,94.5260469 369.066406,93.484375 C371.996108,92.4427031 375.283836,91.921875 378.929688,91.921875 C380.752613,91.921875 382.477856,92.1497373 384.105469,92.6054688 C385.733081,93.0612002 387.181634,93.7773389 388.451172,94.7539062 C389.720709,95.7304736 390.762366,96.9999922 391.576172,98.5625 C392.389978,100.125008 392.861979,102.01301 392.992188,104.226562 C394.489591,102.729159 396.117179,101.248054 397.875,99.7832031 C399.632821,98.3183521 401.537099,97.0000059 403.587891,95.828125 C405.638682,94.6562441 407.868478,93.7122432 410.277344,92.9960938 C412.68621,92.2799443 415.355454,91.921875 418.285156,91.921875 C420.433604,91.921875 422.484365,92.1497373 424.4375,92.6054688 C426.390635,93.0612002 428.132154,93.8261665 429.662109,94.9003906 C431.192065,95.9746147 432.39648,97.3580645 433.275391,99.0507812 C434.154301,100.743498 434.59375,102.826811 434.59375,105.300781 C434.59375,109.207051 433.698577,112.917951 431.908203,116.433594 C430.11783,119.949236 428.018241,123.17186 425.609375,126.101562 C424.828121,127.07813 423.786465,128.315097 422.484375,129.8125 C421.182285,131.309903 419.912767,132.904939 418.675781,134.597656 C417.438796,136.290373 416.364588,138.031892 415.453125,139.822266 C414.541662,141.612639 414.085938,143.289055 414.085938,144.851562 C414.085938,146.283861 414.525386,147.195311 415.404297,147.585938 C416.283208,147.976564 417.438795,148.171875 418.871094,148.171875 C421.605482,148.171875 424.567692,147.358081 427.757812,145.730469 C430.947933,144.102856 434.056625,142.133475 437.083984,139.822266 C439.985061,137.607465 442.70674,135.303018 445.249096,132.908862 C445.995307,130.23918 446.952782,127.498529 448.119141,124.685547 C449.779305,120.681621 451.895169,116.726582 454.466797,112.820312 C457.038424,108.914043 460.082014,105.414729 463.597656,102.322266 C467.113299,99.2298022 471.117165,96.7233169 475.609375,94.8027344 C480.101585,92.8821519 485.114556,91.921875 490.648438,91.921875 C493.513035,91.921875 496.019521,92.2799443 498.167969,92.9960938 C500.316417,93.7122432 502.139315,94.4934854 503.636719,95.3398438 C505.329436,96.3815156 506.826816,97.5208271 508.128906,98.7578125 C509.235683,98.1718721 510.374994,97.6184922 511.546875,97.0976562 C512.523442,96.6419248 513.548823,96.2350278 514.623047,95.8769531 C515.697271,95.5188784 516.624996,95.3398438 517.40625,95.3398438 C519.880221,95.3398438 521.89843,96.0234307 523.460938,97.390625 C525.023445,98.7578193 525.804688,100.2552 525.804688,101.882812 C525.804688,102.338544 525.772136,102.696613 525.707031,102.957031 C525.381509,104.194017 524.876957,105.756501 524.193359,107.644531 C523.509762,109.532562 522.744796,111.63215 521.898438,113.943359 C521.052079,116.254569 520.189458,118.663399 519.310547,121.169922 C518.431636,123.676445 517.634118,126.134103 516.917969,128.542969 C516.201819,130.951835 515.615888,133.214182 515.160156,135.330078 C514.704425,137.445974 514.476562,139.252597 514.476562,140.75 C514.476562,142.703135 514.80208,144.314447 515.453125,145.583984 C516.10417,146.853522 517.21093,147.488281 518.773438,147.488281 C519.750005,147.488281 520.905592,147.17904 522.240234,146.560547 C523.574876,145.942054 525.02343,145.111984 526.585938,144.070312 C528.148445,143.028641 529.759757,141.840501 531.419922,140.505859 C533.080086,139.171217 534.691398,137.820319 536.253906,136.453125 C539.034305,133.970626 541.947195,131.22311 544.992626,128.21053 C546.237844,125.636441 547.474795,123.079132 548.705078,120.535156 C550.625661,116.563782 552.497387,112.755227 554.320312,109.109375 L550.121094,109.109375 C546.475242,109.109375 543.968757,108.523443 542.601562,107.351562 C541.234368,106.179682 540.550781,104.84506 540.550781,103.347656 C540.550781,102.696611 540.762368,101.899093 541.185547,100.955078 C541.608726,100.011063 542.227209,99.1321655 543.041016,98.3183594 C543.854822,97.5045532 544.84765,96.8046904 546.019531,96.21875 C547.191412,95.6328096 548.526034,95.3398438 550.023438,95.3398438 L560.570312,95.3398438 L581.175781,54.421875 C582.477871,51.9479043 584.089183,50.1738335 586.009766,49.0996094 C587.930348,48.0253853 589.932281,47.4882812 592.015625,47.4882812 Z M728.246094,91.8242188 C730.589855,91.8242188 732.445306,92.5729092 733.8125,94.0703125 C735.179694,95.5677158 735.863281,97.3580625 735.863281,99.4414062 C735.863281,100.613287 735.423833,102.224599 734.544922,104.275391 C733.666011,106.326182 732.559251,108.669909 731.224609,111.306641 C729.889967,113.943373 728.441414,116.7591 726.878906,119.753906 C725.316398,122.748713 723.867845,125.792302 722.533203,128.884766 C721.198561,131.977229 720.091801,135.004542 719.212891,137.966797 C718.33398,140.929051 717.894531,143.679675 717.894531,146.21875 C717.894531,148.562512 719.326809,149.734375 722.191406,149.734375 C724.209646,149.734375 726.716131,149.148443 729.710938,147.976562 C732.705744,146.804682 735.846989,145.160818 739.134766,143.044922 C741.159346,141.741974 743.183907,140.297088 745.208473,138.710246 C745.322507,138.465072 745.438099,138.216977 745.554688,137.966797 C747.117195,134.613916 748.923818,130.772808 750.974609,126.443359 C753.025401,122.113911 755.450507,117.117216 758.25,111.453125 C757.338537,110.671871 756.573571,109.711594 755.955078,108.572266 C755.336585,107.432937 755.027344,106.016936 755.027344,104.324219 C755.027344,102.761711 755.352861,101.410813 756.003906,100.271484 C756.654951,99.1321558 757.533849,98.2044307 758.640625,97.4882812 C759.747401,96.7721318 761.033196,96.2350278 762.498047,95.8769531 C763.962898,95.5188784 765.509106,95.3398438 767.136719,95.3398438 C768.829436,95.3398438 770.522127,95.4863267 772.214844,95.7792969 C773.907561,96.0722671 775.421217,96.5117158 776.755859,97.0976562 C778.090501,97.6835967 779.180985,98.3997354 780.027344,99.2460938 C780.873702,100.092452 781.296875,101.069005 781.296875,102.175781 C781.296875,102.371095 781.231771,102.631509 781.101562,102.957031 C781.003906,103.201173 780.897095,103.463623 780.781128,103.744384 L780.662109,104.03125 C780.499348,104.421877 780.352865,104.779946 780.222656,105.105469 C780.092447,105.430991 780.027344,105.691405 780.027344,105.886719 C780.027344,106.016928 780.059896,106.082031 780.125,106.082031 L780.222656,106.082031 L780.417969,105.984375 C782.957044,104.421867 785.57746,102.98959 788.279297,101.6875 C790.981133,100.38541 793.60155,99.2623745 796.140625,98.3183594 C798.6797,97.3743442 801.104806,96.6256538 803.416016,96.0722656 C805.727225,95.5188774 807.794262,95.2421875 809.617188,95.2421875 C812.54689,95.2421875 814.809237,95.9420503 816.404297,97.3417969 C817.999357,98.7415435 818.796875,101.101546 818.796875,104.421875 C818.796875,105.138024 818.764323,105.902991 818.699219,106.716797 C818.634114,107.530603 818.503907,108.393225 818.308594,109.304688 C817.983071,110.997404 817.006519,112.983062 815.378906,115.261719 C813.751294,117.540376 811.847016,119.916654 809.666016,122.390625 C807.485015,124.864596 805.141289,127.354805 802.634766,129.861328 L795.701172,136.794922 C793.585276,138.910818 791.827481,140.749992 790.427734,142.3125 C789.027988,143.875008 788.328125,144.949216 788.328125,145.535156 C788.328125,146.055992 788.360677,146.414062 788.425781,146.609375 C788.490886,146.804688 788.783852,146.902344 789.304688,146.902344 C792.82033,145.40494 796.742817,143.598318 801.072266,141.482422 C805.401714,139.366526 809.714822,137.201834 814.011719,134.988281 C818.308615,132.774729 822.377585,130.610037 826.21875,128.494141 C826.652165,128.255395 827.078119,128.020173 827.496613,127.788473 C828.15025,126.400288 828.823744,125.040855 829.515625,123.708984 C830.817715,121.202461 831.924475,118.809907 832.835938,116.53125 C833.16146,115.684892 833.731116,114.382821 834.544922,112.625 C835.358728,110.867179 836.22135,109.076832 837.132812,107.253906 C838.174484,105.105458 839.281244,102.826835 840.453125,100.417969 C841.559901,98.595043 842.82942,97.2929727 844.261719,96.5117188 C845.694018,95.7304648 847.158847,95.3398438 848.65625,95.3398438 C851.130221,95.3398438 853.262361,96.1373618 855.052734,97.7324219 C856.843108,99.3274819 857.738281,101.361967 857.738281,103.835938 C857.673177,104.421878 857.591797,105.00781 857.494141,105.59375 C857.396484,106.17969 857.184897,106.765622 856.859375,107.351562 C855.947912,109.044279 855.199222,110.476557 854.613281,111.648438 C854.027341,112.820318 853.490237,113.910802 853.001953,114.919922 C852.513669,115.929042 852.041669,116.92187 851.585938,117.898438 C851.130206,118.875005 850.576826,120.046868 849.925781,121.414062 C849.144527,123.041675 848.26563,124.815746 847.289062,126.736328 C846.312495,128.656911 845.38477,130.626292 844.505859,132.644531 C843.626949,134.662771 842.878258,136.648428 842.259766,138.601562 C841.641273,140.554697 841.332031,142.345044 841.332031,143.972656 C841.332031,145.730478 841.77148,146.886065 842.650391,147.439453 C843.529301,147.992841 844.782544,148.269531 846.410156,148.269531 C848.233082,148.269531 850.13736,147.87891 852.123047,147.097656 C854.108734,146.316402 856.110667,145.307298 858.128906,144.070312 C860.147146,142.833327 862.132803,141.417326 864.085938,139.822266 C866.039072,138.227206 867.878247,136.615894 869.603516,134.988281 C871.328785,133.360669 872.923821,131.798185 874.388672,130.300781 C875.853523,128.803378 877.074214,127.468756 878.050781,126.296875 C879.352871,125.05989 880.654941,124.441406 881.957031,124.441406 C883.128912,124.441406 884.089189,124.962234 884.837891,126.003906 C885.586592,127.045578 885.960938,128.3802 885.960938,130.007812 C885.960938,131.505216 885.586592,133.100252 884.837891,134.792969 C884.089189,136.485686 882.868498,138.080722 881.175781,139.578125 C877.855452,142.963559 874.470069,146.202458 871.019531,149.294922 C867.568993,152.387385 864.037127,155.121733 860.423828,157.498047 C856.810529,159.874361 853.181008,161.778639 849.535156,163.210938 C845.889305,164.643236 842.210956,165.359375 838.5,165.359375 C833.226536,165.359375 829.076187,164.008477 826.048828,161.306641 C823.021469,158.604804 821.507812,154.389352 821.507812,148.660156 C821.507812,147.711902 821.550238,146.77018 821.63509,145.834986 C820.687693,146.428572 819.724361,147.028423 818.748047,147.634766 C815.655583,149.555348 812.530615,151.427074 809.373047,153.25 C806.215479,155.072926 803.17189,156.700514 800.242188,158.132812 C797.312485,159.565111 794.561862,160.720699 791.990234,161.599609 C789.418607,162.47852 787.188812,162.917969 785.300781,162.917969 C780.808571,162.917969 777.439464,161.843761 775.193359,159.695312 C772.947254,157.546864 771.824219,154.779965 771.824219,151.394531 C771.824219,150.873695 771.856771,150.483074 771.921875,150.222656 C772.377606,147.358059 773.223952,144.591159 774.460938,141.921875 C775.697923,139.252591 777.097648,136.713554 778.660156,134.304688 C780.222664,131.895821 781.850252,129.600922 783.542969,127.419922 C785.235686,125.238921 786.781894,123.188161 788.181641,121.267578 C789.581387,119.346996 790.736975,117.572925 791.648438,115.945312 C792.5599,114.3177 793.015625,112.820319 793.015625,111.453125 C793.015625,111.127603 792.950521,110.802085 792.820312,110.476562 C792.690104,110.15104 792.397138,109.988281 791.941406,109.988281 C791.160152,109.988281 789.874358,110.281247 788.083984,110.867188 C786.293611,111.453128 784.389333,112.23437 782.371094,113.210938 C780.352854,114.187505 778.432301,115.310541 776.609375,116.580078 C774.786449,117.849616 773.484379,119.200514 772.703125,120.632812 C771.661453,122.455738 770.457038,124.766913 769.089844,127.566406 C767.722649,130.365899 766.306648,133.295558 764.841797,136.355469 C763.376946,139.41538 761.960944,142.442693 760.59375,145.4375 C759.226556,148.432307 758.054692,151.003896 757.078125,153.152344 C756.296871,155.040374 755.271491,156.733065 754.001953,158.230469 C752.732416,159.727872 751.348966,160.997391 749.851562,162.039062 C748.354159,163.080734 746.824227,163.894528 745.261719,164.480469 C743.699211,165.066409 742.266934,165.359375 740.964844,165.359375 C739.46744,165.359375 738.279301,164.968754 737.400391,164.1875 C736.52148,163.406246 736.082031,162.136728 736.082031,160.378906 C736.082031,159.662757 736.195962,158.767583 736.423828,157.693359 L736.433,157.648 L736.131073,157.827042 C732.371802,160.016575 728.669289,161.794915 725.023438,163.162109 C721.117168,164.62696 717.601578,165.359375 714.476562,165.359375 C711.351547,165.359375 708.81251,164.480478 706.859375,162.722656 C704.90624,160.964835 703.929688,157.970073 703.929688,153.738281 C703.929688,150.743475 704.450516,147.260437 705.492188,143.289062 C703.799471,145.828138 701.683606,148.399727 699.144531,151.003906 C696.605456,153.608086 693.70835,155.984364 690.453125,158.132812 C687.1979,160.281261 683.552104,162.02278 679.515625,163.357422 C675.479146,164.692064 671.084659,165.359375 666.332031,165.359375 C664.183583,165.359375 662.116546,165.131513 660.130859,164.675781 C658.145172,164.22005 656.403653,163.438808 654.90625,162.332031 C653.408847,161.225255 652.204432,159.74415 651.292969,157.888672 C650.381506,156.033194 649.925781,153.705743 649.925781,150.90625 C649.925781,150.841146 650.055988,149.848317 650.316406,147.927734 C650.576824,146.007152 651.406894,142.979838 652.806641,138.845703 C654.206387,134.711568 656.371079,129.356804 659.300781,122.78125 C662.230483,116.205696 666.364557,108.230516 671.703125,98.8554688 C673.070319,96.381498 674.64908,94.6074272 676.439453,93.5332031 C678.229827,92.458979 680.166656,91.921875 682.25,91.921875 C683.161463,91.921875 684.105464,92.0358062 685.082031,92.2636719 C686.058599,92.4915376 686.970048,92.8496069 687.816406,93.3378906 C688.662765,93.8261743 689.346352,94.4446577 689.867188,95.1933594 C690.388023,95.942061 690.648438,96.8046826 690.648438,97.78125 C690.648438,98.4322949 690.550782,99.0507783 690.355469,99.6367188 C690.029946,100.743495 689.330083,102.192048 688.255859,103.982422 C687.181635,105.772795 685.928393,107.823556 684.496094,110.134766 C683.063795,112.445975 681.550138,114.936185 679.955078,117.605469 C678.360018,120.274753 676.878913,123.041652 675.511719,125.90625 C674.144524,128.770848 672.972661,131.68423 671.996094,134.646484 C671.019526,137.608739 670.466146,140.489569 670.335938,143.289062 C670.335938,144.460943 670.661455,145.535151 671.3125,146.511719 C671.963545,147.488286 673.037753,147.976562 674.535156,147.976562 C678.766948,147.976562 682.803366,146.804699 686.644531,144.460938 C690.485696,142.117176 694.033838,139.203793 697.289062,135.720703 C700.544287,132.237613 703.490221,128.494161 706.126953,124.490234 C708.763685,120.486308 710.960929,116.824235 712.71875,113.503906 C713.955735,111.290354 715.046219,108.914075 715.990234,106.375 C716.93425,103.835925 717.95963,101.492198 719.066406,99.34375 C720.173183,97.1953018 721.442701,95.4049551 722.875,93.9726562 C724.307299,92.5403574 726.097646,91.8242188 728.246094,91.8242188 Z M602.315835,108.407708 L572.582031,108.621094 C570.173165,113.308617 567.894542,117.882139 565.746094,122.341797 C563.597646,126.801455 561.579437,130.919252 559.691406,134.695312 C558.910152,136.25782 558.145186,138.064443 557.396484,140.115234 C556.647783,142.166026 556.273438,143.972648 556.273438,145.535156 C556.273438,146.446619 556.485024,147.162758 556.908203,147.683594 C557.331382,148.20443 558.031245,148.464844 559.007812,148.464844 C560.375007,148.464844 562.10025,148.057947 564.183594,147.244141 C566.266938,146.430334 568.513009,145.356126 570.921875,144.021484 C573.330741,142.686842 575.869778,141.15691 578.539062,139.431641 C581.208347,137.706372 583.828763,135.916025 586.400391,134.060547 C588.972018,132.205069 591.429676,130.349619 593.773438,128.494141 C596.117199,126.638663 598.200512,124.929695 600.023438,123.367188 C601.065109,122.651038 602.041662,122.292969 602.953125,122.292969 C604.059901,122.292969 604.971351,122.781245 605.6875,123.757812 C606.403649,124.73438 606.761719,125.971347 606.761719,127.46875 C606.761719,128.966153 606.403649,130.496086 605.6875,132.058594 C604.971351,133.621102 603.66928,135.151034 601.78125,136.648438 C599.35731,138.84863 596.91737,140.984723 594.461407,143.056738 C594.971347,143.616848 595.540074,144.15017 596.166016,144.65625 C597.695971,145.893235 599.404938,146.951167 601.292969,147.830078 C603.180999,148.708989 605.182932,149.392576 607.298828,149.880859 C609.414724,150.369143 611.481761,150.613281 613.5,150.613281 C615.583344,150.613281 617.585277,150.417971 619.505859,150.027344 C621.426442,149.636717 623.119133,149.018233 624.583984,148.171875 C626.048835,147.325517 627.204423,146.251309 628.050781,144.949219 C628.89714,143.647129 629.320312,142.052093 629.320312,140.164062 C629.320312,136.843733 628.571622,133.783868 627.074219,130.984375 C625.576815,128.184882 623.639986,125.597017 621.263672,123.220703 C618.887358,120.844389 616.185562,118.63087 613.158203,116.580078 C610.130844,114.529287 607.119807,112.559905 604.125,110.671875 C603.799478,110.476562 603.311201,109.906906 602.660156,108.962891 C602.532956,108.778451 602.418183,108.59339 602.315835,108.407708 Z M864.574219,64.96875 C868.350279,64.96875 870.986972,65.7011646 872.484375,67.1660156 C873.981778,68.6308667 874.730469,70.470041 874.730469,72.6835938 C874.730469,73.9205791 874.486331,75.2877529 873.998047,76.7851562 C873.509763,78.2825596 872.777349,79.6660093 871.800781,80.9355469 C870.824214,82.2050845 869.554695,83.2630166 867.992188,84.109375 C866.42968,84.9557334 864.574229,85.3789062 862.425781,85.3789062 C858.389303,85.3789062 855.5573,84.744147 853.929688,83.4746094 C852.302075,82.2050718 851.390626,80.5286563 851.195312,78.4453125 C851.195312,76.9479092 851.472002,75.4017007 852.025391,73.8066406 C852.578779,72.2115806 853.408849,70.7630273 854.515625,69.4609375 C855.622401,68.1588477 857.005851,67.0846396 858.666016,66.2382812 C860.32618,65.3919229 862.295562,64.96875 864.574219,64.96875 Z" id="Omatsuri" fill="#F1F3F5"></path>
            </g>
        </g>
    </g>
</svg>