<svg xmlns="http://www.w3.org/2000/svg" viewBox="0 0 886 187"><g fill="none" fill-rule="evenodd"><path fill="#FCCA75" d="M143 97c0 27.062636-21.939575 49-49.0014249 49-1.8280602 0-3.6304736-.098316-5.4058155-.296374-9.5606283-1.045857-18.2934284-4.847422-25.3876706-10.58539-2.3922944-1.936405-4.6036349-4.096514-6.5955513-6.441857-5.2590576-6.203902-9.0049433-13.737212-10.6577494-22.024281C45.3277117 103.533048 45 100.308558 45 97.0071243V97c0-7.2554596 1.5758653-14.1418767 4.405583-20.3358051C57.1310266 59.7523627 74.1919744 48 93.9985751 48 121.060425 48 143 69.9373637 143 97z"/><path fill="#FA0" d="M90 145c-9.6411269-1.047562-18.4474555-4.855322-25.6014299-10.602642l-3.2041302-9.239669c-.99716.862026-2.1523706 1.812539-3.4469544 2.787314C52.4441477 121.73099 48.6667224 114.185403 47 105.884829h4.2702576l2.0819664-1.275914C56.1339261 102.903415 59.3179406 102 62.5623017 102c2.0129982 0 4.0058809.343954 5.9154274 1.0233 5.0504562 1.791131 8.9500116 5.707358 10.6971964 10.742507L90 145z"/><path fill="#FA0" d="M98.9389044 95.4401573C98.3055865 102.032512 92.9244921 107 86.4214003 107c-.410042 0-.8271048-.018578-1.2371465-.061451-3.2382054-.322972-6.1688799-1.873526-8.2893005-4.37299l-21.6311015-2.153626c-1.5854007-.161487-3.1202483-.7288319-4.4402453-1.6463022L46 95.403001v-.0071453C46 88.1189711 47.5531031 81.2122187 50.3419479 75l9.2034692 6.4122902 20.0414876 1.9978562c1.9673572-1.2876026 4.3068416-2.0307252 6.8162401-2.0307252.4100416 0 .8271048.0228653 1.2371461.0628796 6.9089209.6873883 11.9782716 6.965345 11.2986135 13.9978565z"/><path fill="#F3B141" d="M94 138c-23.1586656 0-42-18.616717-42-41.4992966C52 73.6167173 70.8413344 55 94 55c23.158666 0 42 18.6167173 42 41.5007034C136 119.383283 117.158666 138 94 138z"/><path fill="#B69FD4" d="M131 95.000719C131 115.989196 114.21065 133 93.4985807 133c-3.32097 0-6.5369184-.43717-9.6024296-1.258302-14.061613-3.761963-24.8888278-15.594316-27.3596865-30.309977-.0681224-.382524-.1263107-.769362-.1731448-1.1562C56.1234721 98.5527258 56 96.7896649 56 95.000719c0-4.962743.936684-9.7011484 2.6440034-14.0455261C64.1562466 66.9211714 77.6828141 57 93.4985807 57 114.21065 57 131 74.0122423 131 95.000719z"/><path fill="#9E7FC6" d="M86 134c-13.8767508-3.650742-24.5616247-15.133274-27-29.413872C60.4341737 104.200958 61.9187672 104 63.4173668 104c1.9621848 0 3.9047619.336326 5.7661064 1.000605 4.9229693 1.751407 8.7240896 5.580778 10.4271708 10.504256L86 134zM99.9386302 95.2689648C99.3024696 101.958947 93.8972217 107 87.3649404 107c-.4118825 0-.8308173-.018853-1.2426995-.062361-3.2527403-.327755-6.1965693-1.901271-8.3265077-4.437751l-19.434631-1.956381C58.1227184 98.8061135 58 97.0281124 58 95.2240071c0-5.004797.9309665-9.7833554 2.6278646-14.1645471l19.8719031 2.0013387C82.4759556 81.7541276 84.8259409 81 87.3466029 81c.4118822 0 .8308174.0232039 1.2426991.0638108 6.9399321.697568 12.032037 7.0684964 11.3493282 14.205154z"/><path fill="#B69FD4" d="M15.7068049 18.4770352c-.9342415-.4587924-1.7700708-1.1841213-2.3902023-2.1672474-1.1081481-1.7579757-1.2726176-3.9092017-.6201314-5.7560228-.7805569-.304405-1.4842711-.86369462-1.9884651-1.66184795-1.26857323-2.01286-.78594935-4.75541852 1.0757934-6.12596939 1.8630904-1.37200727 4.4029332-.85058636 5.6715064 1.16227364.5028456.79669657.7266324 1.70991181.7023665 2.60564925 1.8307358.02184735 3.6223764.97293098 4.7318726 2.73236304.6201314.98312641.9382858 2.08859711.9908623 3.19552461 1.907578.3218828 3.6911301 1.460853 4.8639876 3.3207824 2.2486506 3.5683847 1.3952959 8.4301264-1.9062304 10.8609977-3.3028739 2.4294141-7.8028715 1.5074601-10.0528701-2.0609243-1.1715091-1.8599297-1.4991004-4.0708714-1.0784895-6.1055788z"/><path fill="#F4A58C" d="M52 54.4992665C52 62.5081197 45.9555297 69 38.4999998 69 31.0444703 69 25 62.5081197 25 54.4992665 25 46.4918807 31.0444703 40 38.4999998 40 45.9555297 40 52 46.4918807 52 54.4992665z"/><path fill="#4159A5" d="M28.5000002 185C31.538146 185 34 182.343114 34 179.067481v-58.134962C34 117.656886 31.538146 115 28.5000002 115 25.4618543 115 23 117.656886 23 120.932519v58.134962C23 182.343114 25.4618543 185 28.5000002 185z"/><path fill="#FF4E61" d="M21 78.7283828v36.8245622C21 124.637971 28.0013703 132 36.6348867 132 43.4649572 132 49 126.176413 49 118.990289V78.7283828C49 70.5920865 42.7345341 64 35.0013707 64c-3.8672672 0-7.3658968 1.6480214-9.8983948 4.3125395C22.5663666 70.9770575 21 74.6580722 21 78.7283828z"/><path fill="#5C73BC" d="M87.6785826 155.200975L74.134649 115.76563c-1.289224-3.751825-4.1666012-6.668649-7.8925998-8.003515-3.7288319-1.333445-7.7976789-.903164-11.1652447 1.181499l-6.1301884 3.795847v-1.873072H20v5.421827c0 8.947862 7.2380707 16.198739 16.1634665 16.198739 12.7831496 0 25.0803612-13.534688 25.0803612-13.534688.4122683-.255612.7990354-.201649 1.0512134-.110765.2521777.089465.5851092.293955.7423663.752637l13.5453501 39.436765c.8372872 2.43684 3.1125545 3.967676 5.5479125 3.969096.6332782 0 1.2764732-.103665 1.9097513-.322356 3.0643859-1.057952 4.6936246-4.405057 3.6381613-7.476669z"/><path fill="#FF4E61" d="M46 40.0484515L26.3703163 48l-3.6639772-8.8655196-2.2532013-5.453837c-1.2679669-3.0660875.2163768-6.5677392 3.3134466-7.8230215l8.4098368-3.4088263c3.0970699-1.2552823 6.6355486.2127838 7.9035155 3.2802993l2.2647414 5.4724019L46 40.0484515z"/><path fill="#5C73BC" d="M47 39.4264219L26.7735943 47 23 38.5558957 43.2338369 31z"/><path stroke="#4159A5" stroke-linecap="round" stroke-linejoin="round" stroke-width="15.00015" d="M49 114l-6 2"/><path fill="#F5F6E3" d="M45.5650736 87l-28.9486524 24.813947c-.3921367.334595-.6164212.814365-.6164212 1.31764v5.094968c0 1.531947 1.8970151 2.3394 3.0893419 1.317641L51 92.191752 45.5650736 87z"/><path fill="#FF4E61" d="M85.2841045 99.9753905l-30.5819233-2.9494607c-.8732051-.0846667-1.7097325-.3844708-2.4334067-.8716524L33.2656341 83.3529238c-2.3727478-1.5989547-2.9793359-4.788536-1.3542436-7.1231211 1.6236813-2.3345851 4.865402-2.9328049 7.2395604-1.3324623L57.0495367 86.954736l29.2502504 2.8217663c2.8636607.2762084 4.955685 2.7829028 4.6749615 5.5991176-.2807235 2.8162144-2.828394 4.8745911-5.6906441 4.5997706z"/><path stroke="#5C73BC" stroke-linecap="round" stroke-width="15.00015" d="M94 92l20-9"/><path fill="#F4A58C" d="M94 96.0006789C94 100.419248 90.4181943 104 86 104s-8-3.580752-8-7.9993211C78 91.5807522 81.5818057 88 86 88s8 3.5807522 8 8.0006789z"/><path fill="#FF4E61" d="M68.8867217 36c-.7383152 0-1.4766303-.2811796-2.0420202-.8450424-1.1262687-1.1277251-1.1262687-2.9561437 0-4.0823657l3.2269331-3.2267978c1.1277722-1.1277255 2.9547637-1.1277255 4.0825359 0 1.1277727 1.1277255 1.1277727 2.9561442 0 4.0823657l-3.2254291 3.2267978C70.3648551 35.7188204 69.6265404 36 68.8867217 36zM8.88640598 73c-.73833053 0-1.47666106-.2812148-2.04055914-.8451483-1.12779579-1.1278664-1.12779579-2.9565142 0-4.082877l3.22549636-3.2272026c1.1277962-1.1263628 2.9563294-1.1263628 4.0841256 0 1.1262921 1.1278668 1.1262921 2.9565146-.001504 4.0843811l-3.2254964 3.2256985C10.3645703 72.7187852 9.62623976 73 8.88640598 73z"/><path fill="#5C73BC" d="M2.88659398 148c-.73833053 0-1.47816469-.28118-2.04055876-.845042-1.12779617-1.127726-1.12779617-2.956144-.00150401-4.08387l3.22700041-3.225294c1.12779579-1.127725 2.956329-1.127725 4.08262154 0 1.12779579 1.127725 1.12779579 2.954641 0 4.082366l-3.2254964 3.226798C4.36475868 147.71882 3.62492451 148 2.88659398 148z"/><path fill="#95D6A4" d="M62.8874872 19c-.7382223 0-1.4779483-.2811796-2.041764-.8450424-1.1276309-1.1277251-1.1276309-2.9561438 0-4.0823654l3.225025-3.2267983c1.1276314-1.12772519 2.9558973-1.12772519 4.0835283 0 1.1276313 1.1277255 1.1276313 2.9561442 0 4.0823658l-3.2265284 3.2267979C64.3654358 18.7188204 63.6257098 19 62.8874872 19z"/><path fill="#000" fill-rule="nonzero" d="M143.612015 104.54553c.23446-1.495177-.790586-2.896193-2.28741-3.128745-1.496824-.233978-2.902152.788964-3.136611 2.282714-3.546915 22.664493-22.834072 39.114298-45.8582845 39.114298-2.7777738 0-5.5512586-.248245-8.2646987-.733321l-2.2530989-6.528561c3.4096706.913085 6.9294228 1.375335 10.5177976 1.375335 22.3437085 0 40.5214705-18.14044 40.5214705-40.4382725 0-9.2749512-3.226678-18.3358973-9.085307-25.5150318-5.772852-7.0749856-13.845979-12.0413144-22.729709-13.983048-1.4839569-.3252863-2.9436108.6120529-3.2681369 2.088683-.3245264 1.4780574.6133118 2.9389942 2.0944099 3.2614273 15.933241 3.4839915 27.498959 17.8451139 27.498959 34.1479695 0 19.2775165-15.714508 34.9597595-35.0316865 34.9597595-4.408983 0-8.6964475-.804657-12.7566005-2.389716l-4.9994207-14.490951c-1.5725945-4.559721-5.085199-8.106487-9.6371451-9.727214-2.225936-.79467-4.5519462-1.071449-6.8293489-.853164-.2644817-1.206985-.4617706-2.43109-.5975857-3.663756l17.9475917 1.756263c.0729113.094162.144393.189751.2215929.281059 1.8942615 2.301261 4.5719609 3.727957 7.5413054 4.017576.3674152.035668.7334008.054215 1.0965274.054215 5.6727771 0 10.5421013-4.311476 11.1068057-10.0596338.0814889-.8346175.0657629-1.6563944-.0343111-2.4567707l17.7903324-7.7212789c1.389602-.6034926 2.027217-2.2170855 1.422483-3.6038344-.604734-1.3867482-2.221647-2.0230548-3.611249-1.4195623l-17.6030503 7.6385304c-1.8099134-2.5238252-4.6577391-4.2900751-7.9902098-4.6167884-2.7920699-.2739256-5.4483248.5136106-7.5713276 2.027335l-18.3793405-1.79621c4.5162055-12.193971 15.7531078-21.1507685 28.8099308-22.6587865 1.505402-.1740567 2.5847734-1.5336983 2.4103586-3.0360091-.1744149-1.5037375-1.5368538-2.5823197-3.0422555-2.406836-8.0831358.9330591-15.6187223 4.2429938-21.7918706 9.5717036-5.2781989 4.5554403-9.2397071 10.3064521-11.5914509 16.7708119l-4.9422355-3.375563c0-.0684814-.002859-.1341096-.0042889-.2011641.0014299-.0057067.0042889-.0099869.0057185-.0142671 7.1452976-17.5626279 24.0349621-28.9091417 43.0290442-28.9091417 23.9949325 0 43.8525115 17.9449828 46.1928175 41.7408459.140105 1.4152825 1.333847 2.4724642 2.729167 2.4724642.088637 0 .180133-.0057068.2702-.0142668 1.509691-.1469498 2.613366-1.4880441 2.464685-2.9932085-1.252357-12.7346885-7.181039-24.5149179-16.692376-33.1706828-9.5771-8.7142589-21.994878-13.5136647-34.9644935-13.5136647-10.5335237 0-20.6753286 3.1301713-29.3303165 9.0552398-6.6177638 4.5297599-12.0303479 10.4534018-15.9146561 17.3443435-.6304677-1.1185297-1.3781646-2.1614442-2.2330844-3.1073438 5.0337319-2.9760881 8.2847138-8.4417603 8.2847138-14.4952316 0-5.8523073-2.9722037-11.1410692-7.7786241-14.1927721-.0328816-.2011641-.0857779-.3994749-.1658372-.5949322l-5.867207-14.3054811c-1.469661-3.5838604-5.0709025-5.6696902-8.7464848-5.4000444-.2316-1.5237113-.7977341-2.994635-1.685535-4.2957818-1.2309129-1.8033438-3.0065148-3.1658386-5.0365913-3.9091471-.2587632-.87884476-.6533418-1.71346185-1.1722977-2.47531771-1.1837348-1.73343576-2.9336035-2.97038094-4.9136432-3.53249936-.2030075-.59635876-.4875042-1.16561056-.8492008-1.69634148C14.726461-.13401118 10.3160484-.96862826 7.0936595 1.22277683 5.53107217 2.28423868 4.47743397 3.88784501 4.12574448 5.74112324c-.35168913 1.85327823.04003004 3.7308102 1.10367576 5.29018886.36169663.5293043.78772659 1.0015404 1.26951263 1.4081491-.20014876 2.0444553.31308898 4.1231513 1.49539419 5.8565871.52038581.7604289 1.15514213 1.4338294 1.87853577 1.9959478-.0514671 2.1571644.57042267 4.3057684 1.80133517 6.1076856.7334011 1.0757286 1.6483652 1.9831077 2.6977144 2.7050157-.4188819 1.7605427-.2802078 3.6009807.4203118 5.3087358l5.5426806 13.5150914c-.6247488 1.7805166-.9464158 3.6437818-.9464158 5.5569811 0 4.0760704 1.4782386 7.946697 4.0744492 10.9641592-1.3638682.7661357-2.6333808 1.7191686-3.7713677 2.8548187-3.2795741 3.2671337-5.0851986 7.6157032-5.0851986 12.2439051v27.1685723l-1.6212017 1.45095c-.9664308.864578-1.5196982 2.104377-1.5196982 3.399817v5.258801c0 1.826171 1.0379125 3.424071 2.7091514 4.168806.3931484.174057.7963046.285339 1.2023199.348114.0300222.099868.0629038.198311.0943555.296753-.0471778.20259-.0757704.412315-.0757704.630599v15.38977c0 1.512298 1.2280534 2.739257 2.7448922 2.739257 1.5168388 0 2.7448922-1.226959 2.7448922-2.739257v-7.609996c1.8385061 1.659247 3.9943901 2.966101 6.3532816 3.819265v44.481529c0 1.747702-1.4253423 3.170118-3.1766406 3.170118-1.7512987 0-3.176641-1.422416-3.176641-3.170118v-28.208634c0-1.512298-1.229483-2.739256-2.7448922-2.739256-1.5168388 0-2.7448922 1.226958-2.7448922 2.739256v28.208634c0 4.769444 3.8871677 8.648631 8.6664254 8.648631 4.7792573 0 8.666425-3.880613 8.666425-8.648631v-43.37584c.3102299.015694.6218897.024254.9335495.024254 6.6063264 0 12.9624671-3.11733 17.8832584-6.461506 3.8214044 4.843633 8.4219583 8.923984 13.7101643 12.154024l6.5977488 19.127713c1.2051793 3.489699 4.49762 5.83376 8.1946468 5.835187.9592827 0 1.9085579-.15979 2.8206625-.473663 2.1887657-.751869 3.9543605-2.308395 4.967969-4.385664 1.0150381-2.075843 1.1594311-4.422758.4060153-6.607029l-2.1644616-6.273183c2.0701062.248246 4.160227.378075 6.2517777.378075 12.4520885 0 24.4953035-4.468412 33.9079955-12.579179 9.314049-8.028019 15.485767-19.097753 17.37431-31.169028zM16.9538268 114.779221v-2.804885l22.4123304-20.0650529 1.7784614 1.215545-24.1907918 21.6543929zm26.8627727-16.6866372v9.7072402H32.9728458l10.8437537-9.7072402zm5.4897843.5949322c.8077416.502197 1.702691.8560176 2.6333811 1.0457681.1544002 1.9303199.446045 3.8435189.8735045 5.7239049-.5132374.245391-1.0178975.516464-1.5082608.82035l-1.9986248 1.231239v-8.821262zm3.9872417-4.2800881c-.4231709-.0413741-.8320452-.1897505-1.1837344-.4294354L32.8527568 80.8181483c-.5589859-.3809279-.9349791-.9558865-1.0593567-1.6207267-.124378-.6634135.0171555-1.3353874.4002967-1.8932257.3817117-.5564116.9592824-.9316324 1.6240612-1.055755.6647785-.1241227 1.338135.0171203 1.8971206.3994749L53.854041 89.0416242c.3817117.2610851.8234677.4208751 1.2838091.4665294l18.7281706 1.831878c-.341682.9002449-.5747116 1.8575581-.6719269 2.8605255-.0714814.7247615-.0714814 1.4438163-.0042886 2.1528842l-19.8961797-1.9460134zm31.0101335-4.7865653c.1844227 0 .3702746.0085604.5575564.0271073 1.5096907.1469498 2.8706997.873138 3.8342711 2.0416021.9621421 1.1698908 1.4110462 2.6436677 1.2637941 4.1502587-.1486817 1.506591-.8749344 2.8648056-2.0472321 3.8263986-1.1708678.9601667-2.6491068 1.4095757-4.1573679 1.2611997-1.5096907-.148376-2.8721293-.873138-3.8342711-2.0430288-.9635717-1.1698911-1.4110462-2.643668-1.2637941-4.1488324.2859263-2.9233001 2.7634773-5.1147052 5.6470436-5.1147052zM24.6995692 44.1064062l-1.5525795-3.7835979 14.3778023-5.8551605 1.5468613 3.7693307-14.3720841 5.8694277zm9.5442188-17.6382431l1.2023202 2.9290069-14.3792322 5.8551605-1.1951718-2.9147401c-.3302449-.8046562-.3259559-1.6892081.0100075-2.4910111.337393-.801803.9664308-1.4252694 1.7727429-1.7534093l8.3347505-3.4055235c.4045858-.1640702.8206086-.2425382 1.2323424-.2425382 1.2852387 0 2.5061437.7632821 3.0222405 2.0230548zM12.5319768 15.2115316c-.6233189-.9130854-.759134-2.0801229-.3616967-3.1201843.2630522-.6876676.237319-1.4509501-.0700518-2.11864346-.3073709-.66912071-.8706454-1.18558449-1.562587-1.43525639-.2215929-.07846837-.5361118-.24681832-.77057137-.59207894-.49179318-.7190548-.30451139-1.70490148.41745237-2.19568491.7219637-.49078343 1.7084095-.30245992 2.2002027.41659487.2358891.34526062.2759188.69765463.2702002.93163278-.0228741.73617515.2530447 1.44809656.7648529 1.97882712.5103783.53073128 1.2123274.83319048 1.9500171.84032423 1.1151125.01141357 2.1530247.5649716 2.7763439 1.4780571.3516895.5150372.5461194 1.0971291.579001 1.727729.0657628 1.2954396 1.0336232 2.3668884 2.3174323 2.5680528 1.3624386.2125776 2.5390253.9544596 3.3124557 2.087256.5961562.873138.887801 1.9060659.8506308 2.943274l-5.6298884 2.299834c-.8563493.3495404-1.6340688.8274837-2.3231509 1.4052955-.3988672-.3110195-.7491268-.6833875-1.0422011-1.1113959-.7734309-1.1342235-1.0336236-2.4981449-.7334008-3.8420927.2830668-1.2654795-.361697-2.5566393-1.5440019-3.0916504-.5790009-.2610851-1.0493496-.6548532-1.401039-1.1698904zm12.3462966 38.2725475c0-1.3097072.2215926-2.5837466.6533414-3.797865l15.7159372-6.4187052c3.9129009 1.8960789 6.3990299 5.8209198 6.3990299 10.2165702 0 4.86218-3.1051593 9.1593885-7.6456684 10.7316073-2.4060696-1.2626259-5.1409543-1.9802537-8.0431057-1.9802537-.9106755 0-1.811343.0713346-2.6948554.2082974-2.7577587-2.148604-4.384679-5.4414188-4.384679-8.959651zm-4.7821171 26.062883c0-3.1615584 1.2337719-6.1333663 3.4754338-8.3689991 2.2388025-2.2342058 5.2181546-3.4640176 8.3862177-3.4640176 4.8821907 0 9.0824478 2.9589674 10.8980794 7.1734273l-4.040138-2.7606566c-1.7684539-1.2084116-3.9014642-1.6563943-6.0087406-1.2626259-2.1058469.3923412-3.9329159 1.5807789-5.1438137 3.3456021-1.2108975 1.7648229-1.6598019 3.89488-1.2666532 5.9964032.3945782 2.1015235 1.585461 3.9248408 3.3539153 5.1332524l4.9536725 3.384123-14.6079732 13.0785221V79.5469621zm35.8322799 45.6913669c1.2166163-1.007247 2.2502399-1.941733 3.0608406-2.709296l3.160915 9.162242c-2.2716841-1.940307-4.3517978-4.093191-6.2217556-6.452946zm26.9742841 33.156416c-.3717042.760429-1.0193271 1.331107-1.8213502 1.606459-.3373929.115563-.6847935.174057-1.0336235.174057-1.3552905 0-2.5618994-.860297-3.0036554-2.138617l-13.6672756-39.620775c-.3960081-1.145637-1.2795201-2.037322-2.4203661-2.443931-1.1437051-.408035-2.3946322-.278205-3.4296853.360954-.2158744.13411-.4131637.296753-.586149.485077-.1158001.126976-11.7258361 12.703301-23.2786869 12.703301-6.3275485 0-11.8273403-4.444158-13.2212306-10.501909l6.413326-5.741025h12.968186l-1.469661.884552c-1.2981053.781829-1.7169872 2.465331-.9335496 3.760771.5160972.853164 1.4224833 1.3254 2.3531734 1.3254.4832152 0 .9721493-.126976 1.4153352-.395195l6.7921782-4.087484c.004289-.002853.008578-.005706.012867-.00856.0042886-.002854.0085776-.00428.011437-.007133l6.1860146-3.812132c2.6848478-1.654968 5.9301108-1.997375 8.9008849-.937339 2.9722036 1.058608 5.2653319 3.374136 6.2918074 6.35165l13.6687052 39.620775c.2759187.79895.2230224 1.659248-.1486817 2.421104z"/><path fill="#000" d="M136.963212 54c.75643 0 1.511316-.2877214 2.090217-.8631638l3.072031-3.0612916c1.160889-1.1555251 1.167064-3.036541.01235-4.1998008-1.153169-1.1632599-3.030351-1.1679006-4.191239-.0123751l-3.072031 3.0612912c-1.160889 1.1555255-1.167064 3.0365414-.01235 4.1998012.5789.5831772 1.339961.8755389 2.101022.8755389zM128.859056 47.9079329c.22032.0618363.441952.0920671.660961.0920671 1.109469 0 2.124515-.7736374 2.428767-1.948522l.962589-3.7225284c.364577-1.4057387-.428837-2.8554499-1.77043-3.2360853-1.341592-.382009-2.72515.4493419-3.089727 1.8550809l-.962589 3.7225284c-.364578 1.405739.428837 2.8554503 1.770429 3.2374593zM141.088812 59.1194601C141.401935 60.2512056 142.469025 61 143.634996 61c.223856 0 .450458-.0276356.67706-.0855388l3.725888-.9448758c1.407679-.3579474 2.246794-1.7410458 1.873244-3.0899289-.37355-1.3488827-1.816937-2.1516323-3.224617-1.7950007l-3.724515.9448757c-1.407679.3579475-2.246794 1.7410459-1.873244 3.0899286zM142.076227 137.874616c-1.157095-1.16099-3.036601-1.167165-4.199884-.012351-1.163282 1.15327-1.16947 3.030615-.012375 4.191605l3.059805 3.0723c.580094.582038 1.344272.87383 2.106903.87383.756443 0 1.514433-.28716 2.092981-.861479 1.163283-1.154814 1.16947-3.030615.012375-4.191605l-3.059805-3.0723zM150.050734 131.051115l-3.721064-.962502c-1.405704-.364544-2.85538.428798-3.23738 1.77158-.380626 1.341471.450705 2.723592 1.85641 3.088136l3.722438.962502c.230848.06032.463071.089169.691172.089169 1.162489 0 2.226043-.738268 2.544834-1.860749.382-1.341471-.449331-2.724903-1.85641-3.088136zM132.970023 146.962592c-.357947-1.407481-1.742358-2.246478-3.089923-1.874353-1.34888.373497-2.152944 1.816681-1.794997 3.224162l.944874 3.725364c.300044 1.180911 1.32256 1.962235 2.441144 1.962235.214505 0 .431642-.028836.648779-.089255 1.34888-.372124 2.152944-1.816681 1.794997-3.222789l-.944874-3.725364zM201 118.09375c0-9.505256 1.416001-18.4732651 4.248047-26.9042969 2.832045-8.4310317 6.640601-16.2109018 11.425781-23.3398437 4.78518-7.1289419 10.318979-13.5253623 16.601563-19.1894532 6.282583-5.6640908 12.858038-10.465475 19.726562-14.4042968 6.868524-3.9388218 13.8346-6.9661353 20.898438-9.0820313C280.964228 23.0579321 287.686166 22 294.066406 22c5.664091 0 11.051407.6510352 16.16211 1.953125 5.110702 1.3020898 9.667948 3.2877471 13.671875 5.9570312 4.003926 2.6692842 7.340481 6.0383912 10.009765 10.1074219 2.669284 4.0690308 4.459631 8.8378633 5.371094 14.3066407.065104.3255224.097656.6184882.097656.8789062v.8789062c0 2.5390752-.732414 4.4759048-2.197265 5.8105469s-3.043612 2.0019531-4.736329 2.0019531c-1.88803 0-3.645825-1.0091044-5.273437-3.0273437-1.627612-2.0182393-3.190097-4.8827939-4.6875-8.59375-2.408866-4.5573145-5.891904-7.8775937-10.449219-9.9609375-4.557314-2.0833438-9.700492-3.125-15.429687-3.125-5.013046 0-10.270155.9114492-15.771485 2.734375-5.501329 1.8229258-10.937473 4.3945146-16.308593 7.7148438-5.371121 3.3203291-10.498023 7.3079194-15.38086 11.9628906-4.882837 4.6549712-9.179669 9.7981489-12.890625 15.4296875-3.710956 5.6315385-6.65689 11.7024414-8.83789 18.2128906-2.181001 6.5104495-3.271485 13.2486635-3.271485 20.2148435 0 5.7943.716139 10.677064 2.148438 14.648438 1.432299 3.971374 3.320301 7.193998 5.664062 9.667969 2.343762 2.47397 4.980454 4.264317 7.910157 5.371093 2.929702 1.106777 5.891912 1.660157 8.886718 1.660157 6.705763 0 13.102183-1.822899 19.189453-5.46875 6.08727-3.645852 11.442035-8.870409 16.064453-15.673829 4.622419-6.803419 8.300768-15.104117 11.035157-24.902343 2.734388-9.7982264 4.101562-20.8495482 4.101562-33.1542972 0-1.2369854-.016276-2.4576763-.048828-3.6621094-.032552-1.2044331-.048828-2.4576758-.048828-3.7597656 0-3.2552247.585932-5.6477789 1.757813-7.1777344 1.17188-1.5299556 2.506502-2.2949219 4.003906-2.2949219 2.539075 0 4.606112.6998628 6.201172 2.0996094 1.59506 1.3997466 2.848302 3.2551968 3.759765 5.5664062.911463 2.3112095 1.546222 4.9479019 1.904297 7.9101563.358075 2.9622544.53711 6.0058437.53711 9.1308594 0 8.8542109-.944001 17.2037368-2.832032 25.0488282-1.88803 7.845091-4.508447 15.104133-7.861328 21.777344-3.352881 6.67321-7.324196 12.662734-11.914062 17.96875-4.589867 5.306016-9.55401 9.798158-14.892578 13.476562-5.338569 3.678404-10.953747 6.510407-16.845704 8.496094-5.891956 1.985687-11.832652 2.978515-17.822265 2.978515-5.533882 0-10.937474-.797518-16.210938-2.392578-5.273464-1.59506-9.977193-4.231752-14.111328-7.910156-4.134135-3.678404-7.454414-8.528616-9.960937-14.550781C202.253243 134.288381 201 126.882856 201 118.09375zm284.960938-8.496094c-3.059912 0-6.022122.781242-8.886719 2.34375-2.864598 1.562508-5.403635 3.613269-7.617188 6.152344-2.213552 2.539075-3.971347 5.387354-5.273437 8.544922-1.30209 3.157568-1.953125 6.331364-1.953125 9.521484 0 1.30209.081379 2.652988.24414 4.052735.162762 1.399746.537107 2.685541 1.123047 3.857421.585941 1.171881 1.416011 2.148434 2.490235 2.929688 1.074224.781254 2.522777 1.171875 4.345703 1.171875 1.432299 0 3.108714-.634759 5.029297-1.904297 1.920582-1.269537 3.906239-2.897125 5.957031-4.882812 2.050791-1.985687 4.052724-4.166655 6.005859-6.542969 1.953135-2.376314 3.71093-4.703765 5.273438-6.982422 1.562508-2.278657 2.832026-4.329418 3.808593-6.152344.976568-1.822926 1.464844-3.157548 1.464844-4.003906 0-1.236985-.423173-2.360021-1.269531-3.369141-.846358-1.009119-1.888015-1.871741-3.125-2.58789-1.236985-.71615-2.555332-1.253254-3.955078-1.611328-1.399747-.358075-2.620438-.53711-3.662109-.53711zm341.532924 18.192341c.655514-1.387943 1.329433-2.748277 2.021763-4.081013 1.30209-2.506523 2.40885-4.899077 3.320313-7.177734.325522-.846358.895178-2.148429 1.708984-3.90625.813806-1.757821 1.676428-3.548168 2.58789-5.371094 1.041672-2.148448 2.148432-4.427071 3.320313-6.835937 1.106776-1.822926 2.376295-3.1249963 3.808594-3.9062502 1.432299-.781254 2.897128-1.171875 4.394531-1.171875 2.473971 0 4.606111.797518 6.396484 2.3925781 1.790374 1.59506 2.685547 3.6295451 2.685547 6.1035161-.065104.58594-.146484 1.171872-.24414 1.757812-.097657.58594-.309244 1.171872-.634766 1.757812-.911463 1.692717-1.660153 3.124995-2.246094 4.296876-.58594 1.17188-1.123044 2.262364-1.611328 3.271484-.488284 1.00912-.960284 2.001948-1.416015 2.978516-.455732.976567-1.009112 2.14843-1.660157 3.515624-.781254 1.627613-1.660151 3.401684-2.636719 5.322266-.976567 1.920583-1.904292 3.889964-2.783203 5.908203-.87891 2.01824-1.627601 4.003897-2.246093 5.957031-.618493 1.953135-.927735 3.743482-.927735 5.371094 0 1.757822.439449 2.913409 1.31836 3.466797.87891.553388 2.132153.830078 3.759765.830078 1.822926 0 3.727204-.390621 5.712891-1.171875s3.98762-1.790358 6.005859-3.027344c2.01824-1.236985 4.003897-2.652986 5.957032-4.248046 1.953134-1.59506 3.792309-3.206372 5.517578-4.833985 1.725269-1.627612 3.320305-3.190096 4.785156-4.6875 1.464851-1.497403 2.685542-2.832025 3.662109-4.003906 1.30209-1.236985 2.60416-1.855469 3.90625-1.855469 1.171881 0 2.132158.520828 2.88086 1.5625.748701 1.041672 1.123047 2.376294 1.123047 4.003906 0 1.497404-.374346 3.09244-1.123047 4.785157-.748702 1.692717-1.969393 3.287753-3.66211 4.785156-3.320329 3.385434-6.705712 6.624333-10.15625 9.716797-3.450538 3.092463-6.982404 5.826811-10.595703 8.203125-3.613299 2.376314-7.24282 4.280592-10.888672 5.712891-3.645851 1.432298-7.3242 2.148437-11.035156 2.148437-5.273464 0-9.423813-1.350898-12.451172-4.052734-3.027359-2.701837-4.541016-6.917289-4.541016-12.646485 0-.947512.04236-1.888503.127079-2.822975-.949329.592718-1.91161 1.191913-2.886844 1.797585-3.092464 1.920582-6.217432 3.792308-9.375 5.615234-3.157568 1.822926-6.201157 3.450514-9.130859 4.882812-2.929703 1.432299-5.680326 2.587887-8.251954 3.466797-2.571627.878911-4.801422 1.31836-6.689453 1.31836-4.49221 0-7.861317-1.074208-10.107422-3.222657-2.246105-2.148448-3.36914-4.915347-3.36914-8.300781 0-.520836.032552-.911457.097656-1.171875.455731-2.864597 1.302077-5.631497 2.539063-8.300781 1.236985-2.669284 2.63671-5.208321 4.199218-7.617187 1.562508-2.408867 3.190096-4.703766 4.882813-6.884766 1.692717-2.181001 3.238925-4.231761 4.638672-6.152344 1.399746-1.920582 2.555334-3.694653 3.466797-5.322266.911462-1.627612 1.367187-3.124993 1.367187-4.492187 0-.325522-.065104-.65104-.195313-.976563-.130208-.325522-.423174-.488281-.878906-.488281-.781254 0-2.067048.292966-3.857422.878907-1.790373.58594-3.694651 1.367182-5.71289 2.34375-2.01824.976567-3.938793 2.099603-5.761719 3.36914-1.822926 1.269538-3.124996 2.620436-3.90625 4.052734-1.041672 1.822926-2.246087 4.134101-3.613281 6.933594-1.367195 2.799493-2.783196 5.729152-4.248047 8.789063-1.464851 3.059911-2.880853 6.087224-4.248047 9.082031-1.367194 2.994807-2.539058 5.566396-3.515625 7.714844-.781254 1.88803-1.806634 3.580721-3.076172 5.078125-1.269537 1.497403-2.652987 2.766922-4.150391 3.808593-1.497403 1.041672-3.027335 1.855466-4.589843 2.441407-1.562508.58594-2.994785.878906-4.296875.878906-1.497404 0-2.685543-.390621-3.564453-1.171875-.878911-.781254-1.31836-2.050772-1.31836-3.808594 0-.716149.113931-1.611323.341797-2.685547.003038-.014321.006119-.028663.009244-.043025-3.863017 2.270744-7.666193 4.107985-11.409634 5.511775-3.90627 1.464851-7.42186 2.197266-10.546876 2.197266-3.125015 0-5.664052-.878897-7.617187-2.636719-1.953135-1.757821-2.929687-4.752583-2.929687-8.984375 0-2.994806.520828-6.477844 1.5625-10.449219-1.692717 2.539076-3.808582 5.110665-6.347657 7.714844-2.539075 2.60418-5.436181 4.980458-8.691406 7.128906-3.255225 2.148449-6.901021 3.889968-10.9375 5.22461s-8.430966 2.001953-13.183594 2.001953c-2.148448 0-4.215485-.227862-6.201172-.683594-1.985687-.455731-3.727206-1.236973-5.224609-2.34375-1.497403-1.106776-2.701818-2.587881-3.613281-4.443359-.911463-1.855478-1.367188-4.182929-1.367188-6.982422 0-.065104.130207-1.057933.390625-2.978516.260418-1.920582 1.090488-4.947896 2.490235-9.082031 1.399746-4.134135 3.564438-9.488899 6.49414-16.064453s7.063776-14.550734 12.402344-23.9257812c1.367194-2.4739708 2.945955-4.2480416 4.736328-5.3222657 1.790374-1.0742241 3.727203-1.6113281 5.810547-1.6113281.911463 0 1.855464.1139312 2.832031.3417969.976568.2278657 1.888017.585935 2.734375 1.0742187.846359.4882837 1.529946 1.1067671 2.050782 1.8554688.520835.7487016.78125 1.6113232.78125 2.5878906 0 .6510449-.097656 1.2695283-.292969 1.8554688-.325523 1.1067762-1.025386 2.5553292-2.09961 4.3457032-1.074224 1.790373-2.327466 3.841134-3.759765 6.152344-1.432299 2.311209-2.945956 4.801419-4.541016 7.470703-1.59506 2.669284-3.076165 5.436183-4.443359 8.300781-1.367195 2.864598-2.539058 5.77798-3.515625 8.740234-.976568 2.962255-1.529948 5.843085-1.660156 8.642578 0 1.171881.325517 2.246089.976562 3.222657.651045.976567 1.725253 1.464843 3.222656 1.464843 4.231792 0 8.26821-1.171863 12.109375-3.515624 3.841165-2.343762 7.389307-5.257145 10.644531-8.740235 3.255225-3.48309 6.201159-7.226542 8.837891-11.230469 2.636732-4.003926 4.833976-7.665999 6.591797-10.986328 1.236985-2.213552 2.327469-4.589831 3.271484-7.128906.944016-2.539075 1.969396-4.882802 3.076172-7.03125 1.106777-2.1484482 2.376295-3.9387949 3.808594-5.3710938 1.432299-1.4322988 3.222646-2.1484374 5.371094-2.1484374 2.343761 0 4.199212.7486904 5.566406 2.2460937 1.367194 1.4974033 2.050781 3.28775 2.050781 5.3710937 0 1.1718808-.439448 2.7831928-1.318359 4.8339848-.878911 2.050791-1.985671 4.394518-3.320313 7.03125-1.334642 2.636732-2.783195 5.452459-4.345703 8.447265-1.562508 2.994807-3.011061 6.038396-4.345703 9.13086-1.334642 3.092463-2.441402 6.119776-3.320312 9.082031-.878911 2.962254-1.31836 5.712878-1.31836 8.251953 0 2.343762 1.432278 3.515625 4.296875 3.515625 2.01824 0 4.524725-.585932 7.519532-1.757813 2.994806-1.17188 6.136051-2.815744 9.423828-4.93164 2.02449-1.30289 4.048962-2.747706 6.073438-4.334466.114499-.245805.229994-.493692.346484-.743659 1.562507-3.352881 3.36913-7.193989 5.419921-11.523438 2.050792-4.329448 4.475898-9.326143 7.275391-14.990234-.911463-.781254-1.676429-1.741531-2.294922-2.880859-.618493-1.139329-.927734-2.55533-.927734-4.248047 0-1.562508.325517-2.913406.976562-4.052735.651045-1.1393282 1.529943-2.0670533 2.636719-2.7832028 1.106776-.7161494 2.392571-1.2532534 3.857422-1.6113281 1.464851-.3580747 3.011059-.5371093 4.638672-.5371093 1.692717 0 3.385408.1464829 5.078125.4394531 1.692717.2929702 3.206373.7324189 4.541015 1.3183593 1.334642.5859405 2.425126 1.3020792 3.271485 2.1484376.846358.8463582 1.269531 1.8229112 1.269531 2.9296872 0 .195314-.065104.455728-.195313.78125-.130208.325523-.276691.683592-.439453 1.074219-.162761.390627-.309244.748696-.439453 1.074219-.130209.325522-.195312.585936-.195312.78125 0 .130209.032552.195312.097656.195312h.097656l.195313-.097656c2.539075-1.562508 5.159491-2.994785 7.861328-4.296875 2.701836-1.30209 5.322253-2.4251255 7.861328-3.3691406 2.539075-.9440152 4.964181-1.6927056 7.275391-2.2460938 2.311209-.5533882 4.378246-.8300781 6.201172-.8300781 2.929702 0 5.192049.6998628 6.787109 2.0996094 1.59506 1.3997466 2.392578 3.7597491 2.392578 7.0800781 0 .716149-.032552 1.481116-.097656 2.294922-.065105.813806-.195312 1.676428-.390625 2.587891-.325523 1.692716-1.302075 3.678374-2.929688 5.957031-1.627612 2.278657-3.53189 4.654935-5.71289 7.128906-2.181001 2.473971-4.524727 4.96418-7.03125 7.470703l-6.933594 6.933594c-2.115896 2.115896-3.873691 3.95507-5.273438 5.517578-1.399746 1.562508-2.099609 2.636716-2.099609 3.222656 0 .520836.032552.878906.097656 1.074219.065105.195313.358071.292969.878907.292969 3.515642-1.497404 7.438129-3.304026 11.767578-5.419922 4.329448-2.115896 8.642556-4.280588 12.939453-6.494141 4.296896-2.213552 8.365866-4.378244 12.207031-6.49414.432465-.238223.857502-.472937 1.275112-.704144zM611.281579 95.3418173c1.276812-.875096 2.634767-1.6081709 4.07389-2.1992392 1.822926-.7487016 3.710927-1.1230469 5.664062-1.1230469 1.432299 0 2.766921.1953106 4.003907.5859376 1.236985.3906269 2.278641.8951791 3.125 1.5136718.846358.6184927 1.513669 1.3020796 2.001953 2.0507813.488283.7487016.732421 1.4485644.732421 2.0996093 0 .9114629-.227862 1.7903608-.683593 2.6367188-.455732.846358-1.057939 1.660152-1.806641 2.441406-.748702.781254-1.595047 1.562496-2.539062 2.34375-.944016.781254-1.871741 1.529945-2.783204 2.246094 3.971375 2.083344 7.519516 4.459622 10.644532 7.128906 3.125015 2.669284 5.777984 5.485011 7.958984 8.447266 2.181001 2.962254 3.84114 5.973292 4.980469 9.033203 1.139328 3.059911 1.708984 6.054673 1.708984 8.984375 0 3.710956-1.057932 7.047511-3.173828 10.009766-2.115896 2.962254-4.882795 5.468739-8.300781 7.519531-3.417986 2.050791-7.324197 3.613276-11.71875 4.6875s-8.837868 1.611328-13.330078 1.611328c-3.385434 0-6.673161-.374345-9.863282-1.123047-3.19012-.748702-6.103502-1.904289-8.740234-3.466797-2.636732-1.562508-4.899079-3.564441-6.787109-6.005859-.849223-1.098133-1.586484-2.291751-2.211787-3.580862-2.742739 2.009762-5.472262 3.854417-8.188604 5.533987-4.264344 2.636732-8.479797 4.73632-12.646484 6.298828-4.166688 1.562508-8.203106 2.34375-12.109375 2.34375-2.60418 0-4.785148-.341793-6.542969-1.025391-1.757821-.683597-3.173823-1.627598-4.248047-2.832031-1.074224-1.204433-1.83919-2.604159-2.294922-4.199219-.455731-1.59506-.683593-3.304027-.683593-5.126953 0-.78116.031867-1.569816.095601-2.365969-1.09556.932458-2.21792 1.867598-3.367086 2.805422-2.832045 2.31121-5.729152 4.410798-8.691406 6.298828-2.962255 1.888031-5.875637 3.434239-8.740235 4.638672-2.864597 1.204433-5.566393 1.806641-8.105468 1.806641-2.278657 0-4.231763-.488276-5.859375-1.464844-1.627613-.976567-2.978511-2.246086-4.052735-3.808593-1.074224-1.562508-1.871742-3.336579-2.392578-5.322266-.520836-1.985687-.78125-4.020172-.78125-6.103516 0-1.367194.097656-2.718092.292969-4.052734.195313-1.334642.520831-2.587885.976563-3.759766-2.01824 2.734389-4.313139 5.550116-6.884766 8.447266-2.571628 2.89715-5.338527 5.533842-8.300781 7.910156-2.962255 2.376314-6.054672 4.32942-9.277344 5.859375-3.222672 1.529956-6.494124 2.294922-9.814453 2.294922-1.692717 0-3.662098-.341793-5.908203-1.025391-2.246105-.683597-4.378245-1.806632-6.396485-3.36914-2.018239-1.562508-3.71093-3.580717-5.078125-6.054688-.900788-1.629997-1.504826-3.500199-1.812118-5.610629-3.67661 3.090573-7.385685 5.823386-11.127335 8.19852-3.743508 2.376314-7.48696 4.280592-11.230469 5.712891-3.743508 1.432298-7.470684 2.148437-11.18164 2.148437-4.817733 0-8.707668-1.139312-11.669922-3.417969-2.962255-2.278657-4.443359-5.891902-4.443359-10.839844 0-3.255224.618483-6.315089 1.855468-9.179687 1.236986-2.864598 2.766918-5.615221 4.589844-8.251953 1.822926-2.636732 3.743479-5.192045 5.761719-7.666016 2.018239-2.47397 3.776034-4.947904 5.273437-7.421875.651045-1.041672 1.171873-2.0345 1.5625-2.978515.390627-.944016.585938-1.904292.585938-2.88086 0-1.041672-.292966-1.904293-.878906-2.58789-.585941-.683598-1.432287-1.025391-2.539063-1.025391-2.669284 0-5.240873.569656-7.714844 1.708984-2.47397 1.139329-4.850249 2.63671-7.128906 4.492188-2.278657 1.855478-4.443349 3.987618-6.494141 6.396484-2.050791 2.408866-3.971345 4.899076-5.761718 7.470703-1.790374 2.571628-3.466789 5.126941-5.029297 7.666016-1.562508 2.539075-2.994785 4.85025-4.296875 6.933594-1.171881 2.148448-2.246089 4.492175-3.222656 7.03125-.976568 2.539075-2.0345 4.882802-3.173829 7.03125-1.139328 2.148448-2.425123 3.955071-3.857421 5.419922-1.432299 1.464851-3.222646 2.197265-5.371094 2.197265-.781254 0-1.6276-.146483-2.539063-.439453-.911463-.29297-1.741532-.699867-2.490234-1.220703-.748702-.520836-1.367185-1.139319-1.855469-1.855469-.488284-.716149-.764974-1.497391-.830078-2.34375 0-3.125015.699863-6.315088 2.099609-9.570312 1.399747-3.255225 3.173818-6.608056 5.322266-10.058594 2.148448-3.450538 4.492175-6.949852 7.03125-10.498047 2.539075-3.548195 4.947905-7.177716 7.226563-10.888672.651044-1.041672 1.171873-2.0345 1.5625-2.978515.390626-.944016.585937-1.904292.585937-2.88086 0-1.041672-.292966-1.904293-.878906-2.58789-.585941-.683598-1.432286-1.025391-2.539063-1.025391-2.669284 0-5.240873.569656-7.714844 1.708984-2.47397 1.139329-4.850249 2.63671-7.128906 4.492188-2.278657 1.855478-4.443349 3.987618-6.49414 6.396484-2.050792 2.408866-3.971346 4.899076-5.761719 7.470703-1.790374 2.571628-3.466789 5.126941-5.029297 7.666016-1.562508 2.539075-2.994785 4.85025-4.296875 6.933594-1.171881 2.148448-2.246089 4.492175-3.222656 7.03125-.976568 2.539075-2.0345 4.882802-3.173828 7.03125-1.139329 2.148448-2.425123 3.955071-3.857422 5.419922s-3.222646 2.197265-5.371094 2.197265c-2.343762 0-4.199212-.74869-5.566406-2.246093-1.367195-1.497404-2.050781-3.28775-2.050781-5.371094 0-1.171881.423172-2.99478 1.269531-5.46875.846358-2.473971 1.936842-5.354802 3.271484-8.642578 1.334642-3.287777 2.848299-6.787091 4.541016-10.498047 1.692717-3.710956 3.369132-7.389305 5.029297-11.035157 1.660164-3.645851 3.222649-7.080062 4.6875-10.302734 1.464851-3.222672 2.685542-5.973296 3.662109-8.251953 1.171881-2.799493 2.718089-4.8828057 4.638672-6.25 1.920582-1.3671943 3.82486-2.0507812 5.712891-2.0507812 1.627612 0 3.076165.6022075 4.345703 1.8066406 1.269537 1.2044331 1.904297 2.9459526 1.904297 5.2246096 0 1.692717-.390622 3.548167-1.171876 5.566406 1.757822-1.627612 3.645824-3.385407 5.664063-5.273438 2.018239-1.88803 4.215483-3.6295488 6.591797-5.2246089 2.376314-1.59506 5.029282-2.9134062 7.958984-3.9550781 2.929702-1.0416719 6.21743-1.5625 9.863282-1.5625 1.822925 0 3.548168.2278623 5.175781.6835938 1.627612.4557314 3.076165 1.1718701 4.345703 2.1484374 1.269537.9765674 2.311194 2.246086 3.125 3.8085938.813806 1.562508 1.285807 3.45051 1.416016 5.664062 1.497403-1.497403 3.124991-2.978508 4.882812-4.4433589 1.757821-1.464851 3.662099-2.7831972 5.712891-3.9550781 2.050791-1.1718809 4.280587-2.1158818 6.689453-2.8320312 2.408866-.7161495 5.07811-1.0742188 8.007812-1.0742188 2.148448 0 4.199209.2278623 6.152344.6835938 1.953135.4557314 3.694654 1.2206977 5.224609 2.2949218 1.529956 1.0742241 2.734371 2.4576739 3.613282 4.1503906.87891 1.6927168 1.318359 3.7760298 1.318359 6.2499998 0 3.90627-.895173 7.61717-2.685547 11.132813-1.790373 3.515642-3.889962 6.738266-6.298828 9.667968-.781254.976568-1.82291 2.213535-3.125 3.710938-1.30209 1.497403-2.571608 3.092439-3.808594 4.785156-1.236985 1.692717-2.311193 3.434236-3.222656 5.22461-.911463 1.790373-1.367187 3.466789-1.367187 5.029296 0 1.432299.439448 2.343749 1.318359 2.734376.878911.390626 2.034498.585937 3.466797.585937 2.734388 0 5.696598-.813794 8.886718-2.441406 3.190121-1.627613 6.298813-3.596994 9.326172-5.908203 2.899649-2.213711 5.620077-4.516979 8.161358-6.909869.748804-2.669891 1.706732-5.412161 2.873799-8.22685 1.660164-4.003926 3.776028-7.958965 6.347656-11.865235 2.571627-3.906269 5.615217-7.405583 9.130859-10.498046 3.515643-3.0924638 7.519509-5.5989491 12.011719-7.5195316 4.49221-1.9205825 9.505181-2.8808594 15.039063-2.8808594 2.864597 0 5.371083.3580693 7.519531 1.0742188 2.148448.7161494 3.971346 1.4973916 5.46875 2.34375 1.692717 1.0416718 3.190097 2.1809833 4.492187 3.4179687 1.106777-.5859404 2.246088-1.1393203 3.417969-1.6601563.976567-.4557314 2.001948-.8626284 3.076172-1.2207031 1.074224-.3580747 2.001949-.5371093 2.783203-.5371093 2.473971 0 4.49218.6835869 6.054688 2.0507812 1.562507 1.3671943 2.34375 2.864575 2.34375 4.492187 0 .455732-.032552.813801-.097657 1.074219-.325522 1.236986-.830074 2.79947-1.513672 4.6875-.683597 1.888031-1.448563 3.987619-2.294921 6.298828-.846359 2.31121-1.70898 4.72004-2.587891 7.226563-.878911 2.506523-1.676429 4.964181-2.392578 7.373047-.71615 2.408866-1.302081 4.671213-1.757813 6.787109-.455731 2.115896-.683594 3.922519-.683594 5.419922 0 1.953135.325518 3.564447.976563 4.833984.651045 1.269538 1.757805 1.904297 3.320313 1.904297.976567 0 2.132154-.309241 3.466796-.927734s2.783196-1.448563 4.345704-2.490235c1.562507-1.041671 3.173819-2.229811 4.833984-3.564453 1.660164-1.334642 3.271476-2.68554 4.833984-4.052734 2.78036-2.482464 5.693207-5.229938 8.738592-8.242469 1.24421-2.571866 2.481732-5.130355 3.71258-7.6755 1.920583-3.971374 3.792309-7.779929 5.615234-11.425781h-4.199218c-3.645852 0-6.152337-.585932-7.519532-1.757813-1.367194-1.17188-2.050781-2.506502-2.050781-4.003906 0-.651045.211587-1.448563.634766-2.392578.423179-.944015 1.041662-1.8229125 1.855469-2.6367186.813806-.8138062 1.806634-1.513669 2.978515-2.0996094 1.171881-.5859404 2.506503-.8789062 4.003907-.8789062h10.546874l20.605469-40.9179688c1.30209-2.4739707 2.913402-4.2480415 4.833985-5.3222656 1.920582-1.0742241 3.922515-1.6113282 6.005859-1.6113282 1.953135 0 3.743481.5208282 5.371094 1.5625 1.627612 1.0416719 2.441406 2.7669151 2.441406 5.1757813 0 1.2369854-.27669 2.490228-.830078 3.7597656s-1.285803 2.7506426-2.197266 4.4433594c-.58594 1.1067764-1.302079 2.4251226-2.148437 3.9550781-.846359 1.5299556-1.741532 3.1575435-2.685547 4.8828125-.944015 1.7252691-1.920568 3.5318916-2.929688 5.4199219-1.009119 1.8880303-2.001948 3.7109287-2.978515 5.46875-2.213553 4.1666875-4.55728 8.5611748-7.03125 13.1835938h31.835937c.140486-1e-7.279918.0006578.418298.0019735zm-8.966315 13.0648537l-29.733233.214423c-2.408866 4.687523-4.687489 9.261045-6.835937 13.720703-2.148448 4.459658-4.166657 8.577455-6.054688 12.353515-.781254 1.562508-1.54622 3.369131-2.294922 5.419922-.748701 2.050792-1.123046 3.857414-1.123046 5.419922 0 .911463.211586 1.627602.634765 2.148438.423179.520836 1.123042.78125 2.099609.78125 1.367195 0 3.092438-.406897 5.175782-1.220703 2.083344-.813807 4.329415-1.888015 6.738281-3.222657 2.408866-1.334642 4.947903-2.864574 7.617187-4.589843 2.669285-1.725269 5.289701-3.515616 7.861329-5.371094 2.571627-1.855478 5.029285-3.710928 7.373047-5.566406 2.343761-1.855478 4.427074-3.564446 6.25-5.126953 1.041671-.71615 2.018224-1.074219 2.929687-1.074219 1.106776 0 2.018226.488276 2.734375 1.464843.716149.976568 1.074219 2.213535 1.074219 3.710938 0 1.497403-.35807 3.027336-1.074219 4.589844-.716149 1.562508-2.01822 3.09244-3.90625 4.589844-2.424157 2.200388-4.864316 4.336666-7.3205 6.408855.511278.560195 1.079699 1.09318 1.705266 1.598957 1.529955 1.236985 3.238922 2.294917 5.126953 3.173828 1.88803.878911 3.889963 1.562498 6.005859 2.050781 2.115896.488284 4.182933.732422 6.201172.732422 2.083344 0 4.085277-.19531 6.005859-.585937 1.920583-.390627 3.613274-1.009111 5.078125-1.855469 1.464851-.846358 2.620439-1.920566 3.466797-3.222656.846359-1.30209 1.269531-2.897126 1.269531-4.785157 0-3.320329-.74869-6.380194-2.246093-9.179687-1.497404-2.799493-3.434233-5.387358-5.810547-7.763672s-5.07811-4.589833-8.105469-6.640625c-3.027359-2.050791-6.038396-4.020173-9.033203-5.908203-.325522-.195313-.813799-.764969-1.464844-1.708984-.127436-.184784-.242401-.37019-.344892-.55622zm248.880048-29.9613585c0-1.4974033.27669-3.0436118.830079-4.6386719.553388-1.59506 1.383458-3.0436133 2.490234-4.3457031 1.106776-1.3020898 2.490226-2.3762979 4.150391-3.2226563 1.660164-.8463583 3.629546-1.2695312 5.908203-1.2695312 3.77606 0 6.412753.7324146 7.910156 2.1972656 1.497403 1.4648511 2.246094 3.3040254 2.246094 5.5175782 0 1.2369853-.244138 2.6041591-.732422 4.1015624-.488284 1.4974034-1.220698 2.8808531-2.197266 4.1503907-.976567 1.2695376-2.246086 2.3274697-3.808593 3.1738281-1.562508.8463584-3.417959 1.2695312-5.566407 1.2695312-4.036478 0-6.868481-.6347592-8.496093-1.9042968-1.627613-1.2695376-2.539062-2.9459531-2.734376-5.0292969z"/></g></svg>
