<svg xmlns="http://www.w3.org/2000/svg" viewBox="0 0 400 400"><g fill="none" fill-rule="evenodd"><path fill="#FCCA75" d="M345.133 206.396c0 57.963-46.991 104.947-104.953 104.947-3.915 0-7.776-.21-11.578-.634-20.478-2.24-39.182-10.382-54.377-22.672A106.264 106.264 0 01160.1 274.24c-11.264-13.287-19.287-29.422-22.827-47.17a105.195 105.195 0 01-2.039-20.658v-.016c0-15.54 3.375-30.288 9.436-43.554 16.547-36.222 53.088-61.392 95.51-61.392 57.963 0 104.954 46.984 104.954 104.946z"/><path fill="#FA0" d="M228.602 310.709c-20.478-2.24-39.182-10.382-54.377-22.672l-6.805-19.757a139.9 139.9 0 01-7.321 5.96c-11.264-13.287-19.287-29.422-22.827-47.17h9.07l4.421-2.73c5.909-3.646 12.671-5.578 19.562-5.578 4.276 0 8.508.736 12.564 2.188 10.727 3.83 19.01 12.204 22.72 22.97l22.993 66.789z"/><path fill="#FA0" d="M250.281 206.491c-1.376 14.078-13.07 24.686-27.203 24.686-.891 0-1.798-.04-2.689-.131-7.037-.69-13.406-4.001-18.014-9.339l-47.01-4.599a20.83 20.83 0 01-9.65-3.515l-10.482-7.181v-.016c0-15.54 3.375-30.288 9.436-43.554l20.001 13.693 43.555 4.266a27.289 27.289 0 0114.813-4.336c.891 0 1.798.049 2.689.134 15.014 1.468 26.031 14.874 24.554 29.892z"/><path fill="#F3B141" d="M240.183 296.411c-49.634 0-90.015-40.38-90.015-90.015 0-49.636 40.381-90.017 90.015-90.017s90.015 40.38 90.015 90.017c0 49.634-40.381 90.015-90.015 90.015z"/><path fill="#B69FD4" d="M320.82 206.396c0 44.54-36.103 80.64-80.64 80.64a80.662 80.662 0 01-20.648-2.67c-30.237-7.984-53.519-33.093-58.832-64.322a44.033 44.033 0 01-.372-2.454 80.15 80.15 0 01-.782-11.194c0-10.531 2.015-20.587 5.686-29.806 11.853-29.782 40.94-50.836 74.948-50.836 44.537 0 80.64 36.102 80.64 80.642z"/><path fill="#9E7FC6" d="M219.532 284.366c-30.237-7.984-53.519-33.093-58.832-64.322a36.986 36.986 0 0122.19.906c10.726 3.83 19.009 12.204 22.72 22.97l13.922 40.446z"/><path fill="#9E7FC6" d="M250.281 206.491c-1.376 14.078-13.07 24.686-27.203 24.686-.891 0-1.798-.04-2.689-.131-7.037-.69-13.406-4.001-18.014-9.339l-42.047-4.117a80.15 80.15 0 01-.782-11.194c0-10.531 2.015-20.587 5.686-29.806l42.993 4.211a27.289 27.289 0 0114.813-4.336c.891 0 1.798.049 2.689.134 15.014 1.468 26.031 14.874 24.554 29.892z"/><path fill="#B69FD4" d="M70.41 40.378A13.047 13.047 0 0165 35.837c-2.509-3.684-2.881-8.191-1.404-12.06a9.21 9.21 0 01-4.501-3.483c-2.872-4.217-1.78-9.964 2.435-12.836 4.218-2.874 9.967-1.782 12.839 2.436a9.178 9.178 0 011.59 5.46c4.144.045 8.2 2.038 10.711 5.724a13.019 13.019 0 012.243 6.696 16.325 16.325 0 0111.011 6.958c5.09 7.477 3.159 17.664-4.315 22.757-7.477 5.09-17.664 3.159-22.757-4.318a16.339 16.339 0 01-2.441-12.793z"/><path fill="#F4A58C" d="M150.66 114.404c0 16.66-13.504 30.164-30.16 30.164-16.657 0-30.161-13.504-30.161-30.164 0-16.656 13.504-30.16 30.16-30.16 16.657 0 30.16 13.504 30.16 30.16z"/><path fill="#4159A5" d="M94.455 394.14c6.983 0 12.64-5.66 12.64-12.64V257.632c0-6.979-5.657-12.64-12.64-12.64-6.982 0-12.64 5.661-12.64 12.64V381.5c0 6.98 5.658 12.64 12.64 12.64z"/><path fill="#FF4E61" d="M80.13 170.157v77.942c0 19.229 15.592 34.811 34.818 34.811 15.21 0 27.536-12.326 27.536-27.536v-85.217c0-17.221-13.953-31.174-31.174-31.174-8.612 0-16.403 3.488-22.043 9.128a31.042 31.042 0 00-9.137 22.046z"/><path fill="#5C73BC" d="M225.916 331.723l-29.175-84.747c-2.777-8.063-8.975-14.331-17.001-17.2-8.032-2.866-16.797-1.94-24.051 2.54l-13.205 8.156v-4.025H80.13V248.1c0 19.229 15.592 34.811 34.818 34.811 27.536 0 54.025-29.086 54.025-29.086a2.543 2.543 0 012.265-.238c.543.192 1.26.632 1.599 1.617l29.178 84.75c1.803 5.237 6.704 8.527 11.95 8.53 1.364 0 2.75-.223 4.114-.692 6.601-2.274 10.11-9.467 7.837-16.068z"/><path fill="#FF4E61" d="M134.137 84.995L92.61 101.987 84.858 83.04 80.09 71.387c-2.683-6.552.458-14.035 7.01-16.718l17.791-7.284c6.553-2.683 14.039.454 16.721 7.01l4.791 11.694 7.733 18.906z"/><path fill="#5C73BC" d="M134.137 84.995l-41.53 16.992-7.75-18.946 41.547-16.952z"/><path stroke="#4159A5" stroke-linecap="round" stroke-linejoin="round" stroke-width="15" d="M139.203 242.449l-11.218 6.766"/><path fill="#F5F6E3" d="M135.776 180.97l-61.053 54.77a3.9 3.9 0 00-1.3 2.907v11.246c0 3.382 4 5.164 6.515 2.909l67.3-60.373-11.462-11.46z"/><path fill="#FF4E61" d="M222.443 214.258l-66.159-6.485a11.28 11.28 0 01-5.264-1.917l-41.11-28.146c-5.134-3.516-6.446-10.529-2.93-15.662 3.512-5.133 10.525-6.448 15.661-2.93l38.721 26.511 63.278 6.204c6.195.608 10.721 6.12 10.114 12.311-.607 6.192-6.119 10.718-12.31 10.114z"/><path stroke="#5C73BC" stroke-linecap="round" stroke-width="15" d="M240.182 197.341l42.17-18.338"/><path fill="#F4A58C" d="M241.04 203.824c0 9.93-8.05 17.978-17.98 17.978s-17.981-8.048-17.981-17.978c0-9.934 8.05-17.981 17.98-17.981 9.931 0 17.982 8.047 17.982 17.98z"/><g stroke="#FCCA75" stroke-linecap="round" stroke-width="15"><path d="M333.233 108.041l6.07-6.036M316.158 96.127l2.24-8.264M353.323 122.991l-8.277 2.192M337.786 301.223l6.036 6.073M349.7 284.151l8.264 2.24M322.836 321.315l-2.192-8.276"/></g><path fill="#FF4E61" d="M187.815 77.121a5.849 5.849 0 01-4.144-1.715 5.863 5.863 0 010-8.286l6.549-6.549a5.857 5.857 0 018.285 0 5.857 5.857 0 010 8.286l-6.546 6.549a5.838 5.838 0 01-4.144 1.715zM55.182 153.699a5.857 5.857 0 01-4.141-10l6.546-6.55a5.866 5.866 0 018.289 0 5.864 5.864 0 01-.003 8.289l-6.546 6.546a5.838 5.838 0 01-4.145 1.715z"/><path fill="#5C73BC" d="M42.86 316.43c-1.499 0-3-.57-4.142-1.714a5.864 5.864 0 01-.003-8.289l6.55-6.546a5.857 5.857 0 018.285 0 5.857 5.857 0 010 8.286l-6.546 6.549a5.844 5.844 0 01-4.145 1.715z"/><path fill="#95D6A4" d="M171.454 42.224a5.857 5.857 0 01-4.144-10l6.546-6.55a5.86 5.86 0 018.289 8.286l-6.55 6.549a5.831 5.831 0 01-4.14 1.715z"/><path fill="#000" fill-rule="nonzero" d="M349.653 223.627a5.856 5.856 0 00-4.883-6.693 5.862 5.862 0 00-6.696 4.883c-7.571 48.48-48.742 83.667-97.891 83.667-5.93 0-11.85-.531-17.642-1.569l-4.81-13.964a86.424 86.424 0 0022.452 2.941c47.696 0 86.499-38.803 86.499-86.499 0-19.839-6.888-39.22-19.394-54.577-12.323-15.134-29.556-25.757-48.52-29.91a5.853 5.853 0 00-6.976 4.467 5.857 5.857 0 004.47 6.977c34.013 7.452 58.701 38.171 58.701 73.043 0 41.236-33.545 74.78-74.78 74.78-9.412 0-18.564-1.72-27.23-5.111l-10.673-30.997c-3.357-9.753-10.855-17.34-20.572-20.807a33.659 33.659 0 00-14.578-1.825 75.128 75.128 0 01-1.276-7.836l38.312 3.756c.156.202.308.406.473.601 4.044 4.923 9.76 7.975 16.098 8.594.784.077 1.566.116 2.34.116 12.11 0 22.505-9.222 23.71-21.518.174-1.785.14-3.543-.073-5.255l37.976-16.516a5.86 5.86 0 00-4.672-10.745l-37.577 16.339c-3.863-5.399-9.942-9.177-17.056-9.876-5.96-.586-11.63 1.099-16.162 4.337l-39.233-3.842c9.64-26.084 33.627-45.243 61.499-48.468a5.86 5.86 0 005.145-6.494 5.857 5.857 0 00-6.494-5.149c-17.255 1.996-33.34 9.076-46.518 20.475-11.267 9.744-19.724 22.045-24.744 35.873l-10.55-7.22c0-.147-.006-.287-.009-.43.003-.013.01-.022.012-.031 15.253-37.567 51.306-61.838 91.852-61.838 51.22 0 93.61 38.385 98.605 89.285a5.863 5.863 0 005.826 5.289 5.857 5.857 0 005.838-6.433c-2.673-27.24-15.329-52.439-35.632-70.954-20.444-18.64-46.951-28.906-74.637-28.906-22.485 0-44.135 6.696-62.61 19.37-14.126 9.689-25.68 22.36-33.972 37.1a37.001 37.001 0 00-4.767-6.647c10.745-6.366 17.685-18.057 17.685-31.006 0-12.518-6.345-23.83-16.605-30.359a5.817 5.817 0 00-.354-1.272l-12.524-30.6c-3.137-7.666-10.825-12.128-18.67-11.551a22.24 22.24 0 00-3.599-9.189 22.327 22.327 0 00-10.751-8.362 18.884 18.884 0 00-2.502-5.295 18.973 18.973 0 00-10.49-7.556 15.062 15.062 0 00-1.812-3.628c-4.685-6.879-14.1-8.664-20.978-3.977A14.984 14.984 0 0051.9 12.28a15.01 15.01 0 002.356 11.316 15.015 15.015 0 002.71 3.012 18.99 18.99 0 003.192 12.528 18.976 18.976 0 004.01 4.27 22.297 22.297 0 003.845 13.064 22.141 22.141 0 005.759 5.786 18.537 18.537 0 00.897 11.355l11.832 28.91a35.976 35.976 0 006.677 35.34 37.119 37.119 0 00-8.05 6.106c-7.002 6.988-10.856 16.29-10.856 26.19v58.114l-3.46 3.104a9.778 9.778 0 00-3.245 7.272v11.25c0 3.905 2.216 7.323 5.783 8.916.84.373 1.7.61 2.567.745.064.214.134.424.201.635-.1.433-.161.882-.161 1.349v32.92a5.859 5.859 0 1011.718 0v-16.279a41.14 41.14 0 0013.562 8.17V381.5a6.79 6.79 0 01-6.78 6.781 6.79 6.79 0 01-6.782-6.78v-60.34a5.859 5.859 0 10-11.719 0v60.34c0 10.201 8.298 18.499 18.5 18.499s18.5-8.3 18.5-18.5v-92.782c.662.033 1.328.052 1.993.052 14.102 0 27.67-6.669 38.174-13.822a110.49 110.49 0 0029.267 25.998l14.084 40.915a18.516 18.516 0 0017.492 12.482c2.048 0 4.074-.342 6.021-1.014a18.362 18.362 0 0010.605-9.38 18.379 18.379 0 00.867-14.133l-4.62-13.419c4.419.531 8.88.809 13.345.809 26.58 0 52.289-9.558 72.382-26.908 19.882-17.172 33.056-40.85 37.088-66.671zm-270.37 21.89v-6l47.842-42.92 3.796 2.6-51.639 46.32zm57.342-35.693v20.764h-23.148l23.148-20.764zm11.718 1.272a17.128 17.128 0 005.622 2.237c.33 4.13.952 8.222 1.864 12.244a33.663 33.663 0 00-3.22 1.755l-4.266 2.633v-18.869zm8.512-9.155a5.43 5.43 0 01-2.527-.919l-41.107-28.15a5.358 5.358 0 01-2.262-3.466 5.367 5.367 0 01.855-4.05 5.373 5.373 0 013.467-2.258 5.367 5.367 0 014.05.855l38.72 26.51c.815.559 1.758.9 2.74.998l39.979 3.919a23.94 23.94 0 00-1.443 10.724l-42.472-4.163zm66.195-10.239c.394 0 .79.019 1.19.058a12.048 12.048 0 018.185 4.367 12.057 12.057 0 012.698 8.878 12.051 12.051 0 01-4.37 8.185 12.037 12.037 0 01-8.874 2.697 12.045 12.045 0 01-8.185-4.37 12.041 12.041 0 01-2.698-8.874c.61-6.253 5.899-10.94 12.054-10.94zM95.817 94.345l-3.315-8.093 30.692-12.525 3.302 8.063-30.68 12.555zm20.373-37.729l2.567 6.265-30.695 12.525-2.551-6.235a6.921 6.921 0 01.021-5.328 6.91 6.91 0 013.784-3.75l17.792-7.285a6.964 6.964 0 012.63-.52 6.971 6.971 0 016.452 4.328zM69.843 32.538a7.265 7.265 0 01-.772-6.674 5.861 5.861 0 00-3.485-7.602 3.325 3.325 0 01-1.645-1.267 3.384 3.384 0 01.891-4.696 3.386 3.386 0 014.697.89c.503.74.589 1.493.576 1.993a5.839 5.839 0 001.633 4.233 5.843 5.843 0 004.163 1.798 7.26 7.26 0 015.926 3.161 7.129 7.129 0 011.236 3.696 5.863 5.863 0 004.947 5.493 10.418 10.418 0 017.071 4.465 10.512 10.512 0 011.816 6.296l-12.018 4.92a18.713 18.713 0 00-4.96 3.005 10.583 10.583 0 01-2.224-2.377 10.428 10.428 0 01-1.565-8.219 5.86 5.86 0 00-3.296-6.613 7.1 7.1 0 01-2.991-2.502zm26.355 81.866c0-2.801.473-5.526 1.395-8.123l33.548-13.73c8.352 4.055 13.66 12.45 13.66 21.853 0 10.4-6.63 19.593-16.322 22.956a36.777 36.777 0 00-17.169-4.236c-1.944 0-3.866.152-5.752.445a24.294 24.294 0 01-9.36-19.165zm-10.208 55.75c0-6.763 2.634-13.12 7.419-17.902 4.779-4.779 11.139-7.41 17.901-7.41 10.422 0 19.388 6.33 23.264 15.345l-8.624-5.905a17.008 17.008 0 00-12.827-2.701 17.004 17.004 0 00-10.98 7.156 17.026 17.026 0 00-2.704 12.827 17.02 17.02 0 007.16 10.98l10.574 7.239-31.183 27.975v-47.604zm76.49 97.735a131.815 131.815 0 006.533-5.795l6.747 19.599a98.863 98.863 0 01-13.28-13.804zm57.58 70.923a6.736 6.736 0 01-3.888 3.437 6.781 6.781 0 01-2.207.372 6.787 6.787 0 01-6.411-4.575l-29.175-84.75a8.452 8.452 0 00-5.167-5.228 8.444 8.444 0 00-7.321.772 5.99 5.99 0 00-1.251 1.038c-.247.272-25.03 27.173-49.692 27.173-13.507 0-25.247-9.506-28.223-22.464l13.69-12.28h27.683l-3.137 1.892a5.86 5.86 0 003.03 10.88 5.807 5.807 0 003.021-.846l14.5-8.743.027-.019c.009-.006.018-.009.024-.015l13.205-8.154a21.932 21.932 0 0119-2.005 21.929 21.929 0 0113.431 13.586l29.178 84.75a6.74 6.74 0 01-.317 5.18z"/><path fill="#000" d="M333.231 113.9a5.847 5.847 0 004.132-1.702l6.073-6.04a5.86 5.86 0 00-8.261-8.31l-6.073 6.04a5.857 5.857 0 004.13 10.013zM314.625 101.785a5.862 5.862 0 007.19-4.123l2.24-8.267a5.856 5.856 0 00-4.12-7.187 5.86 5.86 0 00-7.19 4.12l-2.24 8.267a5.86 5.86 0 004.12 7.19zM339.383 126.685a5.863 5.863 0 005.658 4.36c.498 0 1.001-.064 1.505-.198l8.28-2.191a5.86 5.86 0 10-3.004-11.328l-8.276 2.191a5.86 5.86 0 00-4.163 7.166zM341.944 297.095a5.857 5.857 0 00-8.286-.025 5.857 5.857 0 00-.024 8.286l6.036 6.073a5.848 5.848 0 004.157 1.727 5.857 5.857 0 004.153-9.988l-6.036-6.073zM359.498 280.737l-8.265-2.24a5.86 5.86 0 00-3.067 11.31l8.268 2.24c.512.14 1.028.208 1.535.208a5.861 5.861 0 005.651-4.33 5.856 5.856 0 00-4.122-7.188zM326.31 311.539a5.865 5.865 0 00-7.166-4.166 5.86 5.86 0 00-4.162 7.166l2.19 8.279a5.864 5.864 0 005.662 4.361c.497 0 1-.064 1.504-.198a5.856 5.856 0 004.163-7.163l-2.191-8.28z"/></g></svg>
