<svg xmlns="http://www.w3.org/2000/svg" viewBox="0 0 512 512"><path fill="#55d3fa" d="M215.531 314.761l102.028-102.028 186.955 189.756-102.028 102.028z"/><path fill="#56c4f0" d="M215.531 314.761l186.955 189.756 18.615-18.616-188.354-188.354z"/><path fill="#f74fa4" d="M249.541 280.752l34.009-34.009 186.955 189.755-34.01 34.009z"/><path fill="#ffb577" d="M175.853 173.055l141.706 39.678-102.028 102.028z"/><path fill="#ff9d4a" d="M215.531 314.761l19.82-19.82-58.677-118.955z"/><path fill="#725e63" d="M175.853 173.055l20.149 71.961 51.812-51.812z"/><path fill="#614a50" d="M196.002 245.016l9.86-9.86-29.188-59.17z"/><path d="M509.868 397.214L322.913 207.46c-.907-.92-2.083-1.614-3.327-1.962l-139.695-39.116c14.547-14.204 28.86-29.358 43.048-44.381 51.948-55.01 101.016-106.968 152.92-106.968 14.136 0 24.745 3.945 31.531 11.726 11.992 13.749 9.153 35.611 9.125 35.81-.587 4.109 2.269 7.915 6.377 8.502 4.107.588 7.916-2.268 8.502-6.377.166-1.163 3.882-28.721-12.594-47.719C409.032 5.713 394.585.003 375.859.003c-26.494 0-54.29 11.637-84.972 35.579-26.646 20.791-53.198 48.908-78.877 76.1-52.357 55.442-106.497 112.773-164.415 112.773-13.554 0-22.761-5.064-28.144-15.481-4.283-8.291-4.42-16.962-4.422-17.113-.016-4.136-3.375-7.486-7.515-7.486-4.151 0-7.515 3.365-7.515 7.515 0 .481.065 11.926 5.804 23.401 5.519 11.037 17.249 24.195 41.792 24.195 43.511 0 83.373-27.269 121.477-62.772l39.221 140.076c.322 1.207 1.009 2.361 1.884 3.249l186.955 189.755c3.076 3.122 8.313 2.895 11.123-.461 2.452-2.926 2.26-7.372-.416-10.088l-181.72-184.441 23.382-23.381 181.641 184.362c3.076 3.122 8.313 2.895 11.123-.461 2.452-2.926 2.26-7.372-.416-10.088L260.13 280.791l23.381-23.381 47.315 48.025c3.076 3.122 8.312 2.894 11.123-.461 2.452-2.926 2.26-7.372-.417-10.088l-47.394-48.104 23.38-23.381 181.641 184.362c2.873 2.917 7.712 2.952 10.627.079 2.919-2.873 2.955-7.711.082-10.628zM204.424 247.223l45.596-45.596 53.139 14.879-83.856 83.856-14.879-53.139zm28.989-50.246l-33.639 33.639-13.081-46.721 46.72 13.082z"/><path d="M369.126 322.893c-2.915-2.958-7.672-2.991-10.627-.079-2.957 2.913-2.992 7.671-.079 10.627l106.733 108.331c3.076 3.122 8.312 2.894 11.123-.461 2.452-2.926 2.26-7.372-.417-10.088l-106.733-108.33z"/></svg>
