<svg xmlns="http://www.w3.org/2000/svg" viewBox="0 0 64 64"><path fill="#fcd770" d="M20 4v2h-4V4c0-.55.22-1.05.59-1.41.36-.37.86-.59 1.41-.59 1.1 0 2 .9 2 2z"/><path fill="#e6e9ed" d="M8 12c0-.77-.29-1.47-.77-2H14v4H7.23c.48-.53.77-1.23.77-2zM22 10h6.77c-.48.53-.77 1.23-.77 2s.29 1.47.77 2H22z"/><path fill="#5cd6b3" d="M7.23 10c.48.53.77 1.23.77 2s-.29 1.47-.77 2h-.01c-.53.62-1.33 1-2.22 1-1.66 0-3-1.34-3-3s1.34-3 3-3c.89 0 1.69.38 2.22 1zM31 9c1.66 0 3 1.34 3 3s-1.34 3-3 3c-.89 0-1.69-.38-2.22-1h-.01c-.48-.53-.77-1.23-.77-2s.29-1.47.77-2h.01c.53-.62 1.33-1 2.22-1z"/><path fill="#aab2bd" d="M22 14v4h-8V8c0-1.1.9-2 2-2h4c1.1 0 2 .9 2 2v2z"/><path fill="#ffeaa7" d="M60 28h-4v4c0 1.1-.9 2-2 2H40c-1.1 0-2-.9-2-2v-4h-4c-1.1 0-2 .9-2 2v18h30V30c0-1.1-.9-2-2-2z"/><path fill="#e6e9ed" d="M54 26H40c-1.1 0-2 .9-2 2v4c0 1.1.9 2 2 2h14c1.1 0 2-.9 2-2v-4c0-1.1-.9-2-2-2z"/><path fill="#fcd770" d="M62 48v2c0 1.1-.9 2-2 2H44l-1.41 1.41c-.38.38-.89.59-1.42.59H34c-1.1 0-2-.9-2-2v-4z"/><path fill="#5cd6b3" d="M46 40c1.1 0 4 .9 4 2s-2.9 2-4 2-2-.9-2-2 .9-2 2-2z"/><path fill="#ccd1d9" d="M50 26v4h-6v-8H24l-1.45 2.89c-.34.68-1.03 1.11-1.79 1.11H12c-1.1 0-2-.9-2-2v-4c0-1.1.9-2 2-2h36c1.1 0 2 .9 2 2zM50 52v8c0 1.1-.9 2-2 2H12c-1.1 0-2-.9-2-2v-4c0-1.1.9-2 2-2h8.76c.76 0 1.45.43 1.79 1.11L24 58h20v-6z"/><path fill="#aab2bd" d="M18 38c1.1 0 2 .9 2 2 0 .55-.22 1.05-.59 1.41-.36.37-.86.59-1.41.59h-4c-1.1 0-2-.9-2-2 0-.55.22-1.05.59-1.41.36-.37.86-.59 1.41-.59zM18 34c1.1 0 2 .9 2 2 0 .55-.22 1.05-.59 1.41-.36.37-.86.59-1.41.59h-4c-1.1 0-2-.9-2-2 0-.55.22-1.05.59-1.41.36-.37.86-.59 1.41-.59zM18 30c1.1 0 2 .9 2 2 0 .55-.22 1.05-.59 1.41-.36.37-.86.59-1.41.59h-4c-1.1 0-2-.9-2-2 0-.55.22-1.05.59-1.41.36-.37.86-.59 1.41-.59zM18 42c1.1 0 2 .9 2 2 0 .55-.22 1.05-.59 1.41-.36.37-.86.59-1.41.59h-4c-1.1 0-2-.9-2-2 0-.55.22-1.05.59-1.41.36-.37.86-.59 1.41-.59zM18 46c1.1 0 2 .9 2 2 0 .55-.22 1.05-.59 1.41-.36.37-.86.59-1.41.59h-4c-1.1 0-2-.9-2-2 0-.55.22-1.05.59-1.41.36-.37.86-.59 1.41-.59zM18 50c1.1 0 2 .9 2 2 0 .55-.22 1.05-.59 1.41-.36.37-.86.59-1.41.59h-4c-1.1 0-2-.9-2-2 0-.55.22-1.05.59-1.41.36-.37.86-.59 1.41-.59zM18 26c1.1 0 2 .9 2 2 0 .55-.22 1.05-.59 1.41-.36.37-.86.59-1.41.59h-4c-1.1 0-2-.9-2-2 0-.55.22-1.05.59-1.41.36-.37.86-.59 1.41-.59z"/><g><path d="M60 27h-3.184c-.414-1.161-1.514-2-2.816-2h-3v-5c0-1.654-1.346-3-3-3H23v-2h5.382c.703.615 1.612 1 2.618 1 2.206 0 4-1.794 4-4s-1.794-4-4-4c-1.006 0-1.915.385-2.618 1H23V8c0-1.302-.839-2.402-2-2.816V4c0-1.654-1.346-3-3-3s-3 1.346-3 3v1.184c-1.161.414-2 1.514-2 2.816v1H7.618C6.915 8.385 6.006 8 5 8c-2.206 0-4 1.794-4 4s1.794 4 4 4c1.006 0 1.915-.385 2.618-1H13v2h-1c-1.654 0-3 1.346-3 3v4c0 1.383.945 2.539 2.22 2.884-.139.346-.22.721-.22 1.116 0 .771.301 1.468.78 2-.48.532-.78 1.229-.78 2s.301 1.468.78 2c-.48.532-.78 1.229-.78 2s.301 1.468.78 2c-.48.532-.78 1.229-.78 2s.301 1.468.78 2c-.48.532-.78 1.229-.78 2s.301 1.468.78 2c-.48.532-.78 1.229-.78 2s.301 1.468.78 2c-.48.532-.78 1.229-.78 2 0 .395.081.77.22 1.116C9.945 53.461 9 54.617 9 56v4c0 1.654 1.346 3 3 3h36c1.654 0 3-1.346 3-3v-7h9c1.654 0 3-1.346 3-3V30c0-1.654-1.346-3-3-3zm1 3v11h-2v2h2v4H33v-4h2v-2h-2V30c0-.552.448-1 1-1h3v3c0 1.654 1.346 3 3 3h14c1.654 0 3-1.346 3-3v-3h3c.552 0 1 .448 1 1zM13 52c0-.552.448-1 1-1h4c.552 0 1 .448 1 1s-.448 1-1 1h-4c-.552 0-1-.448-1-1zm0-4c0-.552.448-1 1-1h4c.552 0 1 .448 1 1s-.448 1-1 1h-4c-.552 0-1-.448-1-1zm0-4c0-.552.448-1 1-1h4c.552 0 1 .448 1 1s-.448 1-1 1h-4c-.552 0-1-.448-1-1zm0-4c0-.552.448-1 1-1h4c.552 0 1 .448 1 1s-.448 1-1 1h-4c-.552 0-1-.448-1-1zm0-4c0-.552.448-1 1-1h4c.552 0 1 .448 1 1s-.448 1-1 1h-4c-.552 0-1-.448-1-1zm0-4c0-.552.448-1 1-1h4c.552 0 1 .448 1 1s-.448 1-1 1h-4c-.552 0-1-.448-1-1zm0-4c0-.552.448-1 1-1h4c.552 0 1 .448 1 1s-.448 1-1 1h-4c-.552 0-1-.448-1-1zm7.22 22c.48-.532.78-1.229.78-2s-.301-1.468-.78-2c.48-.532.78-1.229.78-2s-.301-1.468-.78-2c.48-.532.78-1.229.78-2s-.301-1.468-.78-2c.48-.532.78-1.229.78-2s-.301-1.468-.78-2c.48-.532.78-1.229.78-2s-.301-1.468-.78-2c.48-.532.78-1.229.78-2 0-.354-.073-.688-.185-1.004 1.123-.019 2.129-.648 2.633-1.655L24.618 23H43v2h-3c-1.302 0-2.402.839-2.816 2H34c-1.654 0-3 1.346-3 3v22c0 1.654 1.346 3 3 3h7.172c.673 0 1.305-.232 1.828-.638V57H24.618l-1.171-2.342c-.504-1.007-1.51-1.636-2.633-1.655.113-.315.186-.649.186-1.003 0-.771-.301-1.468-.78-2zM54 27c.552 0 1 .448 1 1v4c0 .552-.448 1-1 1H40c-.552 0-1-.448-1-1v-4c0-.552.448-1 1-1h3v4h8v-4zM31 10c1.103 0 2 .897 2 2s-.897 2-2 2-2-.897-2-2 .897-2 2-2zm-3.858 1c-.084.322-.142.653-.142 1s.058.678.142 1H23v-2zM18 3c.552 0 1 .448 1 1v1h-2V4c0-.552.448-1 1-1zM5 14c-1.103 0-2-.897-2-2s.897-2 2-2 2 .897 2 2-.897 2-2 2zm3.858-1c.084-.322.142-.653.142-1s-.058-.678-.142-1H13v2zM15 8c0-.552.448-1 1-1h4c.552 0 1 .448 1 1v9h-6zm-4 12c0-.552.448-1 1-1h36c.552 0 1 .448 1 1v9h-4v-8H23.382l-1.724 3.447c-.17.341-.512.553-.894.553H12c-.552 0-1-.448-1-1zm38 40c0 .552-.448 1-1 1H12c-.552 0-1-.448-1-1v-4c0-.552.448-1 1-1h8.764c.382 0 .725.212.895.553L23.382 59H45v-6h4zm11-9H43.586l-1.707 1.707c-.187.187-.444.293-.707.293H34c-.552 0-1-.448-1-1v-3h28v1c0 .552-.448 1-1 1z"/><path d="M46 39c-1.302 0-2.402.839-2.816 2H41v2h2.184c.414 1.161 1.514 2 2.816 2 .956 0 3.708-.632 4.665-2H53v-2h-2.335c-.957-1.368-3.709-2-4.665-2zm0 4c-.552 0-1-.448-1-1s.448-1 1-1c.826 0 2.436.571 2.915 1-.479.429-2.089 1-2.915 1zM55 41h2v2h-2zM37 41h2v2h-2z"/></g></svg>
