<svg xmlns="http://www.w3.org/2000/svg" viewBox="0 0 401 400"><g fill="none" fill-rule="evenodd"><path fill="#F9F9FD" d="M6.5 6h200v194H6.5z"/><path fill="#DCD7D8" d="M6.5 6h13v194h-13z"/><path fill="#AAB2BD" d="M25.5 25h163v138h-163z"/><path fill="#CCD1D9" d="M37.5 37h138v113h-138z"/><path fill="#FCCA75" d="M106.5 61.3835729c-26.6110149-31.9780226-58.5434531 0-47.8990472 26.6490028C68.4260186 112.629133 106.5 136 106.5 136s38.073981-23.370867 47.899047-47.9674243C165.043453 61.3835729 133.111015 29.4047696 106.5 61.3835729z"/><path fill="#F3B141" d="M77.5706109 88.0277593c-6.1707524-15.2898732 1.8205808-32.3271159 14.8309187-38.0431533-22.4062992-9.3435078-42.6162423 16.1448194-33.7788235 38.0431533C68.5504251 112.626786 107.026048 136 107.026048 136s3.871983-2.352468 9.473952-6.347683c-12.061052-8.601773-32.1496756-24.826231-38.9293891-41.6245577z"/><path fill="#CEBFE2" d="M298.499963 250.702205c-51.091793-61.413005-112.403196 0-91.966323 51.177113C225.397845 349.117017 298.499963 394 298.499963 394s73.102899-44.882199 91.966322-92.119899c20.436874-51.177896-40.872965-112.590901-91.966322-51.177896z"/><path fill="#B69FD4" d="M230.163054 301.877458c-12.681129-31.863234 6.218976-67.690278 34.578877-75.377405-39.611578-10.432027-73.065755 35.567751-57.221747 75.377405C226.319745 349.116513 299.178175 394 299.178175 394s4.40605-2.714348 11.321825-7.504604c-21.227448-14.702131-66.156215-48.987519-80.336946-84.617938z"/><path fill="#000" d="M188.614383 19H25.3856169C22.1342756 19 19.5 21.6362397 19.5 24.8900052V163.109995C19.5 166.36376 22.1342756 169 25.3856169 169H141.790213c3.251342 0 5.885617-2.63624 5.885617-5.890005 0-3.253766-2.634275-5.890005-5.885617-5.890005H31.2712337V30.7800103H182.728766V157.219206h-14.256724c-3.251341 0-5.885617 2.63624-5.885617 5.890005 0 3.253766 2.634276 5.890005 5.885617 5.890005h20.142341c3.251341 0 5.885617-2.636239 5.885617-5.890005V24.8900052C194.5 21.6370233 191.865724 19 188.614383 19z"/><path fill="#000" fill-rule="nonzero" d="M145.420374 47.1324625c-9.924734-5.9082895-24.900156-6.8650407-38.965015 6.4764093-14.0640776-13.3406696-29.0402805-12.3831381-38.9650142-6.4764093-14.5299103 8.6497795-20.9046251 27.9221501-14.5119336 43.8763266C63.432287 117.101718 101.758736 140.784821 103.386023 141.780591c1.86333 1.140922 4.276124 1.140922 6.139454 0 1.626506-.99499 39.954517-24.678873 50.407612-50.7718019 6.391128-15.9541765.017195-35.2265471-14.512715-43.8763266zm3.603167 39.5194411c-7.450194 18.5981184-33.574332 37.1650214-42.570527 43.1435454-8.9961948-5.9715-35.1007926-24.51031-42.5658369-43.1435454-4.8029208-11.9874832 1.1200302-24.3846681 9.6191289-29.4438995 2.8559598-1.7004574 5.851044-2.5362489 8.9016217-2.5362489 6.5396321 0 13.3317203 3.8449534 19.5329203 11.2757726 2.311967 2.7711447 6.713147 2.7711447 9.025896 0 9.094676-10.898847 19.45945-14.0828149 28.436105-8.7395237 8.500662 5.0607922 14.423613 17.4571967 9.620692 29.4438995zM370.580834 227.166339c-11.380851-6.776077-24.127154-8.861264-36.86017-6.030029-12.404745 2.757097-24.143568 9.947558-34.969485 21.407502-10.825916-11.459163-22.565521-18.650405-34.970266-21.407502-12.733016-2.829674-25.479319-.743707-36.860952 6.030029-25.600467 15.239345-36.818746 49.230543-25.539502 77.382907 19.353934 48.30969 91.248462 92.727603 94.300603 94.595063 1.86333 1.140921 4.276123 1.140921 6.139453 0 3.05136-1.86746 74.945887-46.285373 94.300603-94.595063 11.280025-28.152364.060965-62.142782-25.540284-77.382907zm14.6323 73.026802c-15.757801 39.332149-72.576863 77.993167-86.460392 86.99568-13.883528-9.002513-70.703371-47.662751-86.460391-86.99568-10.258476-25.603629 2.442494-52.114064 20.646698-62.95048 6.419266-3.820761 13.117562-5.701488 19.902616-5.701488 14.022653 0 28.409531 8.038739 41.397348 23.601163 2.311967 2.771144 6.713147 2.771144 9.025896 0 19.274211-23.092352 41.616195-29.614024 61.299182-17.899675 18.206548 10.837197 30.905956 37.346071 20.649043 62.95048z"/><path fill="#000" fill-rule="nonzero" d="M179.259818 275.79134c-1.549231-2.849465-5.116137-3.905227-7.970601-2.358286-2.853682 1.546942-3.910224 5.109359-2.361776 7.958823l8.976312 16.510342c-43.156365-9.992259-75.121667-47.629559-77.6992873-92.088707H207.010681c3.24705 0 5.877849-2.626911 5.877849-5.869164v-99.827319c47.238639 5.700492 84.370912 44.710595 88.224047 91.748239l-15.131004-14.883749c-2.310943-2.273949-6.032694-2.246618-8.312355.061691-2.278097 2.309089-2.249943 6.025341.061781 8.300071l26.254811 25.824789c2.34457 2.306746 6.261051 2.198984 8.474238-.233486l23.511397-25.824789c2.18347-2.39811 2.006728-6.111239-.395714-8.291482-2.400878-2.181023-6.119501-2.004542-8.303753.39513l-14.293434 15.699779c-1.5985-25.691257-11.926184-49.980036-29.496387-69.029048-18.543066-20.102432-43.538784-32.6817765-70.593627-35.5866845V5.86916356C212.88853 2.62691142 210.257731 0 207.010681 0H6.37784931C3.13079897 0 .5 2.62691142.5 5.86916356V199.944348c0 3.242253 2.63079897 5.869164 5.87784931 5.869164H88.43078c2.5854404 49.816048 38.213059 92.095735 86.444113 103.438932l-14.899519 11.215131c-2.357084 1.774962-3.02886 5.138252-1.521078 7.676142 1.76273 2.966598 5.834837 3.77638 8.59702 1.697653l25.471201-19.172393c2.323456-1.749192 3.016348-4.932877 1.627436-7.486385l-14.890135-27.391252zM12.2556986 11.7383271H201.13205V194.075185H12.2556986V11.7383271z"/><path fill="#000" d="M76.5 91.3214286h3.8958333v3.5357143l.2125.0714285c.5430583.2380965 1.1392329.4345231 1.7885417.5892857.6493088.1547627 1.3399269.2321429 2.071875.2321429 1.3222288 0 2.3493019-.2678545 3.08125-.8035714.7319481-.535717 1.0979167-1.2559479 1.0979167-2.1607143 0-.8095279-.3010387-1.4642832-.903125-1.9642857-.6020864-.5000025-1.3458289-.9404743-2.23125-1.3214286-.8854211-.3809543-1.853467-.7619029-2.9041667-1.1428571-1.0506997-.3809543-2.0187456-.8630924-2.9041667-1.4464286-.8854211-.5833363-1.6291636-1.3154718-2.23125-2.1964286-.6020863-.8809568-.903125-2.0238025-.903125-3.4285714 0-1.0714339.2065952-2.053567.6197917-2.9464286.4131965-.8928616.9916629-1.6607111 1.7354167-2.3035714.7437537-.6428604 1.6350642-1.1428554 2.6739583-1.5C82.6388941 74.1785696 83.795827 74 85.0708333 74c1.440285 0 2.8569375.1309511 4.25.3928571 1.3930626.2619061 2.5027737.6190454 3.3291667 1.0714286v7.25h-3.8958333V78.75c-.0708337 0-.1416663-.0119046-.2125-.0357143-.5194471-.1428578-1.0802054-.255952-1.6822917-.3392857-.6020863-.0833337-1.1982609-.125-1.7885417-.125-1.133339 0-2.0246495.2261882-2.6739583.6785714-.6493088.4523832-.9739583 1.05952-.9739583 1.8214286 0 .7857182.3010386 1.4285689.903125 1.9285714.6020863.5000025 1.3458289.952379 2.23125 1.3571429.8854211.4047639 1.8534669.8095218 2.9041666 1.2142857 1.0506997.4047639 2.0187456.8988066 2.9041667 1.4821429.8854211.5833362 1.6291637 1.3154717 2.23125 2.1964285C93.1989613 89.8095282 93.5 90.91666 93.5 92.25c0 1.2857207-.2361088 2.4107095-.7083333 3.375-.4722246.9642905-1.1333291 1.7738063-1.9833334 2.4285714-.8500042.6547652-1.8534664 1.1428556-3.0104166 1.4642857C86.6409664 99.8392873 85.3895901 100 84.04375 100c-.8972267 0-1.7295101-.0714279-2.496875-.2142857-.7673649-.1428579-1.4756912-.3214275-2.125-.5357143s-1.2218725-.440475-1.7177083-.6785714c-.4958358-.2380965-.8972207-.4404754-1.2041667-.6071429v-6.6428571zm29.716495 2h.180412L111.376289 75H116.5l-7.57732 25h-5.628866L95.5 75h5.520619l5.195876 18.3214286zm23.010428-6.8571429H137.5V97.75c-.784619.7380989-1.805763 1.2976171-3.063462 1.6785714-1.257698.3809543-2.544224.5714286-3.859615.5714286-1.546161 0-2.994224-.2738068-4.344231-.8214286-1.350006-.5476218-2.521149-1.3749944-3.513461-2.4821428-.992313-1.1071484-1.77692-2.4761823-2.353846-4.1071429-.576926-1.6309605-.865385-3.5416557-.865385-5.7321428 0-2.3095354.34615-4.2738015 1.038462-5.8928572.692311-1.6190557 1.586533-2.9464234 2.682692-3.9821428 1.096159-1.0357195 2.324993-1.7916643 3.686538-2.2678572 1.361546-.4761928 2.711532-.7142857 4.05-.7142857 1.384623 0 2.538457.1130941 3.461539.3392857.923081.2261916 1.765381.5178554 2.526923.875v7.3928572h-3.807692v-3.9642858L132.584615 78.5c-.46154-.0952386-.969228-.1428571-1.523077-.1428571-.946158 0-1.823072.166665-2.630769.5-.807696.333335-1.505766.8511869-2.094231 1.5535714-.588464.7023844-1.044229 1.601185-1.367307 2.6964286-.323079 1.0952435-.484616 2.4047542-.484616 3.9285714 0 1.3571496.161537 2.5714232.484616 3.6428571.323078 1.071434.773074 1.9761868 1.35 2.7142857.576926.738099 1.263457 1.2976172 2.059615 1.6785715.796158.3809543 1.655765.5714285 2.578846.5714285.600003 0 1.148075-.0714278 1.644231-.2142857.496156-.1428578.836538-.2857135 1.021154-.4285714v-4.9642857h-4.396154v-3.5714286zM243.074661 271H270.5v30.067416c0 2.56181-.317116 4.966281-.951357 7.213483-.634242 2.247202-1.782421 4.247182-3.444571 6-1.049779 1.078657-2.176087 1.932581-3.378959 2.561798-1.202872.629216-2.37292 1.101122-3.510181 1.41573-1.13726.314608-2.208894.516853-3.214932.606742-1.006038.089888-1.837101.134831-2.493213.134831-2.099558 0-4.133474-.235953-6.10181-.707865-1.968335-.471913-3.936641-1.314601-5.904977-2.52809l3.214932-7.41573c1.66215.988769 3.09464 1.640447 4.297511 1.955056 1.202872.314608 2.591622.47191 4.16629.47191.962297 0 2.001126-.191009 3.116516-.573034 1.11539-.382024 2.088608-1.022467 2.919683-1.921348 1.530928-1.707874 2.29638-4.089872 2.29638-7.146068v-21.910112h-18.436651V271zM280.5 303.644231h7.333333v6.663461l.4.134616c1.022228.44872 2.144439.818908 3.366667 1.110577 1.222228.291668 2.522215.4375 3.9.4375 2.488901 0 4.422215-.504803 5.8-1.514423 1.377785-1.009621 2.066667-2.366979 2.066667-4.072116 0-1.525648-.566661-2.759611-1.7-3.701923-1.133339-.942312-2.533325-1.772432-4.2-2.490385-1.666675-.717952-3.488879-1.435893-5.466667-2.153846-1.977788-.717952-3.799992-1.626597-5.466667-2.725961-1.666675-1.099365-3.066661-2.479159-4.2-4.139423-1.133339-1.660265-1.7-3.81409-1.7-6.461539 0-2.019241.388885-3.870184 1.166667-5.552884.777782-1.682701 1.86666-3.129802 3.266667-4.341347 1.400007-1.211544 3.077768-2.153842 5.033333-2.826923 1.955565-.67308 4.133321-1.009615 6.533333-1.009615 2.711125 0 5.377765.246792 8 .740385 2.622236.493592 4.711104 1.166662 6.266667 2.01923v13.663462h-7.333333v-7.471154c-.133334 0-.266666-.022436-.4-.067308-.977783-.269232-2.033328-.482371-3.166667-.639423-1.133339-.157052-2.25555-.235577-3.366667-.235577-2.133344 0-3.811105.426278-5.033333 1.278847-1.222228.852568-1.833333 1.996787-1.833333 3.432692 0 1.480776.566661 2.692303 1.7 3.634615 1.133339.942313 2.533325 1.794868 4.2 2.557693 1.666675.762824 3.488879 1.525637 5.466666 2.288461 1.977788.762824 3.799992 1.693905 5.466667 2.793269 1.666675 1.099365 3.066661 2.479159 4.2 4.139423 1.133339 1.660265 1.7 3.746783 1.7 6.259616 0 2.423089-.44444 4.54326-1.333333 6.360577-.888894 1.817316-2.133326 3.342942-3.733334 4.576923-1.600008 1.23398-3.488878 2.153843-5.666666 2.759615C299.588878 319.697118 297.233346 320 294.7 320c-1.688897 0-3.255548-.134614-4.7-.403846-1.444452-.269232-2.777772-.605767-4-1.009616-1.222228-.403848-2.299995-.830125-3.233333-1.278846-.933338-.44872-1.688886-.830126-2.266667-1.14423v-12.519231zm50.151618-8.748517L317.496593 272h10.630324l6.776831 12.757143 1.528109 3.424286 1.461669-3.424286L344.803237 272h10.298126l-13.354344 22.962857L355.5 319h-10.630324l-7.109029-13.428571-1.793867-3.625715-1.727427 3.625715L326.798126 319H316.5l14.151618-24.104286z"/></g></svg>
