<?xml version="1.0" encoding="UTF-8"?>
<svg width="401px" height="400px" viewBox="0 0 401 400" version="1.1" xmlns="http://www.w3.org/2000/svg" xmlns:xlink="http://www.w3.org/1999/xlink">
    <!-- Generator: Sketch 52.5 (67469) - http://www.bohemiancoding.com/sketch -->
    <title>svg-compression</title>
    <desc>Created with Sketch.</desc>
    <g id="Page-1" stroke="none" stroke-width="1" fill="none" fill-rule="evenodd">
        <g id="svg-compression" transform="translate(0.500000, 0.000000)">
            <path d="M122.580645,19.3548387 L122.580645,32.2580645 L96.7741935,32.2580645 L96.7741935,19.3548387 C96.7741935,15.8064516 98.1935484,12.5806452 100.580645,10.2580645 C102.903226,7.87096774 106.129032,6.4516129 109.677419,6.4516129 C116.774194,6.4516129 122.580645,12.2580645 122.580645,19.3548387 Z" id="Path" fill="#FCCA75"></path>
            <path d="M45.1612903,70.9677419 C45.1612903,66 43.2903226,61.483871 40.1935484,58.0645161 L83.8709677,58.0645161 L83.8709677,83.8709677 L40.1935484,83.8709677 C43.2903226,80.4516129 45.1612903,75.9354839 45.1612903,70.9677419 Z M135.483871,58.0645161 L179.16129,58.0645161 C176.064516,61.483871 174.193548,66 174.193548,70.9677419 C174.193548,75.9354839 176.064516,80.4516129 179.16129,83.8709677 L135.483871,83.8709677 L135.483871,58.0645161 Z" id="Shape" fill="#E6E9ED" fill-rule="nonzero"></path>
            <path d="M40.1935484,58.0645161 C43.2903226,61.483871 45.1612903,66 45.1612903,70.9677419 C45.1612903,75.9354839 43.2903226,80.4516129 40.1935484,83.8709677 L40.1290323,83.8709677 C36.7096774,87.8709677 31.5483871,90.3225806 25.8064516,90.3225806 C15.0967742,90.3225806 6.4516129,81.6774194 6.4516129,70.9677419 C6.4516129,60.2580645 15.0967742,51.6129032 25.8064516,51.6129032 C31.5483871,51.6129032 36.7096774,54.0645161 40.1290323,58.0645161 L40.1935484,58.0645161 Z M193.548387,51.6129032 C204.258065,51.6129032 212.903226,60.2580645 212.903226,70.9677419 C212.903226,81.6774194 204.258065,90.3225806 193.548387,90.3225806 C187.806452,90.3225806 182.645161,87.8709677 179.225806,83.8709677 L179.16129,83.8709677 C176.064516,80.4516129 174.193548,75.9354839 174.193548,70.9677419 C174.193548,66 176.064516,61.483871 179.16129,58.0645161 L179.225806,58.0645161 C182.645161,54.0645161 187.806452,51.6129032 193.548387,51.6129032 Z" id="Shape" fill="#9E7FC6" fill-rule="nonzero"></path>
            <path d="M135.483871,83.8709677 L135.483871,109.677419 L83.8709677,109.677419 L83.8709677,45.1612903 C83.8709677,38.0645161 89.6774194,32.2580645 96.7741935,32.2580645 L122.580645,32.2580645 C129.677419,32.2580645 135.483871,38.0645161 135.483871,45.1612903 L135.483871,58.0645161 L135.483871,83.8709677 Z" id="Path" fill="#AAB2BD"></path>
            <path d="M380.645161,174.193548 L354.83871,174.193548 L354.83871,200 C354.83871,207.096774 349.032258,212.903226 341.935484,212.903226 L251.612903,212.903226 C244.516129,212.903226 238.709677,207.096774 238.709677,200 L238.709677,174.193548 L212.903226,174.193548 C205.806452,174.193548 200,180 200,187.096774 L200,303.225806 L393.548387,303.225806 L393.548387,187.096774 C393.548387,180 387.741935,174.193548 380.645161,174.193548 Z" id="Path" fill="#FCCA75"></path>
            <path d="M341.935484,161.290323 L251.612903,161.290323 C244.516129,161.290323 238.709677,167.096774 238.709677,174.193548 L238.709677,200 C238.709677,207.096774 244.516129,212.903226 251.612903,212.903226 L341.935484,212.903226 C349.032258,212.903226 354.83871,207.096774 354.83871,200 L354.83871,174.193548 C354.83871,167.096774 349.032258,161.290323 341.935484,161.290323 Z" id="Path" fill="#E6E9ED"></path>
            <path d="M393.548387,303.225806 L393.548387,316.129032 C393.548387,323.225806 387.741935,329.032258 380.645161,329.032258 L277.419355,329.032258 L268.322581,338.129032 C265.870968,340.580645 262.580645,341.935484 259.16129,341.935484 L212.903226,341.935484 C205.806452,341.935484 200,336.129032 200,329.032258 L200,303.225806 L393.548387,303.225806 Z" id="Path" fill="#F3B141"></path>
            <path d="M316.129032,161.290323 L316.129032,187.096774 L277.419355,187.096774 L277.419355,135.483871 L148.387097,135.483871 L139.032258,154.129032 C136.83871,158.516129 132.387097,161.290323 127.483871,161.290323 L70.9677419,161.290323 C63.8709677,161.290323 58.0645161,155.483871 58.0645161,148.387097 L58.0645161,122.580645 C58.0645161,115.483871 63.8709677,109.677419 70.9677419,109.677419 L303.225806,109.677419 C310.322581,109.677419 316.129032,115.483871 316.129032,122.580645 L316.129032,161.290323 Z M316.129032,329.032258 L316.129032,380.645161 C316.129032,387.741935 310.322581,393.548387 303.225806,393.548387 L70.9677419,393.548387 C63.8709677,393.548387 58.0645161,387.741935 58.0645161,380.645161 L58.0645161,354.83871 C58.0645161,347.741935 63.8709677,341.935484 70.9677419,341.935484 L127.483871,341.935484 C132.387097,341.935484 136.83871,344.709677 139.032258,349.096774 L148.387097,367.741935 L277.419355,367.741935 L277.419355,329.032258 L316.129032,329.032258 Z" id="Shape" fill="#CCD1D9" fill-rule="nonzero"></path>
            <path d="M109.677419,238.709677 C116.774194,238.709677 122.580645,244.516129 122.580645,251.612903 C122.580645,255.16129 121.16129,258.387097 118.774194,260.709677 C116.451613,263.096774 113.225806,264.516129 109.677419,264.516129 L83.8709677,264.516129 C76.7741935,264.516129 70.9677419,258.709677 70.9677419,251.612903 C70.9677419,248.064516 72.3870968,244.83871 74.7741935,242.516129 C77.0967742,240.129032 80.3225806,238.709677 83.8709677,238.709677 L109.677419,238.709677 Z M109.677419,212.903226 C116.774194,212.903226 122.580645,218.709677 122.580645,225.806452 C122.580645,229.354839 121.16129,232.580645 118.774194,234.903226 C116.451613,237.290323 113.225806,238.709677 109.677419,238.709677 L83.8709677,238.709677 C76.7741935,238.709677 70.9677419,232.903226 70.9677419,225.806452 C70.9677419,222.258065 72.3870968,219.032258 74.7741935,216.709677 C77.0967742,214.322581 80.3225806,212.903226 83.8709677,212.903226 L109.677419,212.903226 Z M109.677419,187.096774 C116.774194,187.096774 122.580645,192.903226 122.580645,200 C122.580645,203.548387 121.16129,206.774194 118.774194,209.096774 C116.451613,211.483871 113.225806,212.903226 109.677419,212.903226 L83.8709677,212.903226 C76.7741935,212.903226 70.9677419,207.096774 70.9677419,200 C70.9677419,196.451613 72.3870968,193.225806 74.7741935,190.903226 C77.0967742,188.516129 80.3225806,187.096774 83.8709677,187.096774 L109.677419,187.096774 Z M109.677419,264.516129 C116.774194,264.516129 122.580645,270.322581 122.580645,277.419355 C122.580645,280.967742 121.16129,284.193548 118.774194,286.516129 C116.451613,288.903226 113.225806,290.322581 109.677419,290.322581 L83.8709677,290.322581 C76.7741935,290.322581 70.9677419,284.516129 70.9677419,277.419355 C70.9677419,273.870968 72.3870968,270.645161 74.7741935,268.322581 C77.0967742,265.935484 80.3225806,264.516129 83.8709677,264.516129 L109.677419,264.516129 Z M109.677419,290.322581 C116.774194,290.322581 122.580645,296.129032 122.580645,303.225806 C122.580645,306.774194 121.16129,310 118.774194,312.322581 C116.451613,314.709677 113.225806,316.129032 109.677419,316.129032 L83.8709677,316.129032 C76.7741935,316.129032 70.9677419,310.322581 70.9677419,303.225806 C70.9677419,299.677419 72.3870968,296.451613 74.7741935,294.129032 C77.0967742,291.741935 80.3225806,290.322581 83.8709677,290.322581 L109.677419,290.322581 Z M109.677419,316.129032 C116.774194,316.129032 122.580645,321.935484 122.580645,329.032258 C122.580645,332.580645 121.16129,335.806452 118.774194,338.129032 C116.451613,340.516129 113.225806,341.935484 109.677419,341.935484 L83.8709677,341.935484 C76.7741935,341.935484 70.9677419,336.129032 70.9677419,329.032258 C70.9677419,325.483871 72.3870968,322.258065 74.7741935,319.935484 C77.0967742,317.548387 80.3225806,316.129032 83.8709677,316.129032 L109.677419,316.129032 Z M109.677419,161.290323 C116.774194,161.290323 122.580645,167.096774 122.580645,174.193548 C122.580645,177.741935 121.16129,180.967742 118.774194,183.290323 C116.451613,185.677419 113.225806,187.096774 109.677419,187.096774 L83.8709677,187.096774 C76.7741935,187.096774 70.9677419,181.290323 70.9677419,174.193548 C70.9677419,170.645161 72.3870968,167.419355 74.7741935,165.096774 C77.0967742,162.709677 80.3225806,161.290323 83.8709677,161.290323 L109.677419,161.290323 Z" id="Shape" fill="#AAB2BD" fill-rule="nonzero"></path>
            <path d="M380.645161,167.741935 L360.103226,167.741935 C357.432258,160.251613 350.335484,154.83871 341.935484,154.83871 L322.580645,154.83871 L322.580645,122.580645 C322.580645,111.909677 313.896774,103.225806 303.225806,103.225806 L141.935484,103.225806 L141.935484,90.3225806 L176.658065,90.3225806 C181.193548,94.2903226 187.058065,96.7741935 193.548387,96.7741935 C207.780645,96.7741935 219.354839,85.2 219.354839,70.9677419 C219.354839,56.7354839 207.780645,45.1612903 193.548387,45.1612903 C187.058065,45.1612903 181.193548,47.6451613 176.658065,51.6129032 L141.935484,51.6129032 L141.935484,45.1612903 C141.935484,36.7612903 136.522581,29.6645161 129.032258,26.9935484 L129.032258,19.3548387 C129.032258,8.68387097 120.348387,0 109.677419,0 C99.0064516,0 90.3225806,8.68387097 90.3225806,19.3548387 L90.3225806,26.9935484 C82.8322581,29.6645161 77.4193548,36.7612903 77.4193548,45.1612903 L77.4193548,51.6129032 L42.6967742,51.6129032 C38.1612903,47.6451613 32.2967742,45.1612903 25.8064516,45.1612903 C11.5741935,45.1612903 0,56.7354839 0,70.9677419 C0,85.2 11.5741935,96.7741935 25.8064516,96.7741935 C32.2967742,96.7741935 38.1612903,94.2903226 42.6967742,90.3225806 L77.4193548,90.3225806 L77.4193548,103.225806 L70.9677419,103.225806 C60.2967742,103.225806 51.6129032,111.909677 51.6129032,122.580645 L51.6129032,148.387097 C51.6129032,157.309677 57.7096774,164.767742 65.9354839,166.993548 C65.0387097,169.225806 64.516129,171.645161 64.516129,174.193548 C64.516129,179.167742 66.4580645,183.664516 69.5483871,187.096774 C66.4516129,190.529032 64.516129,195.025806 64.516129,200 C64.516129,204.974194 66.4580645,209.470968 69.5483871,212.903226 C66.4516129,216.335484 64.516129,220.832258 64.516129,225.806452 C64.516129,230.780645 66.4580645,235.277419 69.5483871,238.709677 C66.4516129,242.141935 64.516129,246.63871 64.516129,251.612903 C64.516129,256.587097 66.4580645,261.083871 69.5483871,264.516129 C66.4516129,267.948387 64.516129,272.445161 64.516129,277.419355 C64.516129,282.393548 66.4580645,286.890323 69.5483871,290.322581 C66.4516129,293.754839 64.516129,298.251613 64.516129,303.225806 C64.516129,308.2 66.4580645,312.696774 69.5483871,316.129032 C66.4516129,319.56129 64.516129,324.058065 64.516129,329.032258 C64.516129,331.580645 65.0387097,334 65.9354839,336.232258 C57.7096774,338.458065 51.6129032,345.916129 51.6129032,354.83871 L51.6129032,380.645161 C51.6129032,391.316129 60.2967742,400 70.9677419,400 L303.225806,400 C313.896774,400 322.580645,391.316129 322.580645,380.645161 L322.580645,335.483871 L380.645161,335.483871 C391.316129,335.483871 400,326.8 400,316.129032 L400,187.096774 C400,176.425806 391.316129,167.741935 380.645161,167.741935 Z M387.096774,187.096774 L387.096774,258.064516 L374.193548,258.064516 L374.193548,270.967742 L387.096774,270.967742 L387.096774,296.774194 L206.451613,296.774194 L206.451613,270.967742 L219.354839,270.967742 L219.354839,258.064516 L206.451613,258.064516 L206.451613,187.096774 C206.451613,183.535484 209.341935,180.645161 212.903226,180.645161 L232.258065,180.645161 L232.258065,200 C232.258065,210.670968 240.941935,219.354839 251.612903,219.354839 L341.935484,219.354839 C352.606452,219.354839 361.290323,210.670968 361.290323,200 L361.290323,180.645161 L380.645161,180.645161 C384.206452,180.645161 387.096774,183.535484 387.096774,187.096774 Z M77.4193548,329.032258 C77.4193548,325.470968 80.3096774,322.580645 83.8709677,322.580645 L109.677419,322.580645 C113.23871,322.580645 116.129032,325.470968 116.129032,329.032258 C116.129032,332.593548 113.23871,335.483871 109.677419,335.483871 L83.8709677,335.483871 C80.3096774,335.483871 77.4193548,332.593548 77.4193548,329.032258 Z M77.4193548,303.225806 C77.4193548,299.664516 80.3096774,296.774194 83.8709677,296.774194 L109.677419,296.774194 C113.23871,296.774194 116.129032,299.664516 116.129032,303.225806 C116.129032,306.787097 113.23871,309.677419 109.677419,309.677419 L83.8709677,309.677419 C80.3096774,309.677419 77.4193548,306.787097 77.4193548,303.225806 Z M77.4193548,277.419355 C77.4193548,273.858065 80.3096774,270.967742 83.8709677,270.967742 L109.677419,270.967742 C113.23871,270.967742 116.129032,273.858065 116.129032,277.419355 C116.129032,280.980645 113.23871,283.870968 109.677419,283.870968 L83.8709677,283.870968 C80.3096774,283.870968 77.4193548,280.980645 77.4193548,277.419355 Z M77.4193548,251.612903 C77.4193548,248.051613 80.3096774,245.16129 83.8709677,245.16129 L109.677419,245.16129 C113.23871,245.16129 116.129032,248.051613 116.129032,251.612903 C116.129032,255.174194 113.23871,258.064516 109.677419,258.064516 L83.8709677,258.064516 C80.3096774,258.064516 77.4193548,255.174194 77.4193548,251.612903 Z M77.4193548,225.806452 C77.4193548,222.245161 80.3096774,219.354839 83.8709677,219.354839 L109.677419,219.354839 C113.23871,219.354839 116.129032,222.245161 116.129032,225.806452 C116.129032,229.367742 113.23871,232.258065 109.677419,232.258065 L83.8709677,232.258065 C80.3096774,232.258065 77.4193548,229.367742 77.4193548,225.806452 Z M77.4193548,200 C77.4193548,196.43871 80.3096774,193.548387 83.8709677,193.548387 L109.677419,193.548387 C113.23871,193.548387 116.129032,196.43871 116.129032,200 C116.129032,203.56129 113.23871,206.451613 109.677419,206.451613 L83.8709677,206.451613 C80.3096774,206.451613 77.4193548,203.56129 77.4193548,200 Z M77.4193548,174.193548 C77.4193548,170.632258 80.3096774,167.741935 83.8709677,167.741935 L109.677419,167.741935 C113.23871,167.741935 116.129032,170.632258 116.129032,174.193548 C116.129032,177.754839 113.23871,180.645161 109.677419,180.645161 L83.8709677,180.645161 C80.3096774,180.645161 77.4193548,177.754839 77.4193548,174.193548 Z M124,316.129032 C127.096774,312.696774 129.032258,308.2 129.032258,303.225806 C129.032258,298.251613 127.090323,293.754839 124,290.322581 C127.096774,286.890323 129.032258,282.393548 129.032258,277.419355 C129.032258,272.445161 127.090323,267.948387 124,264.516129 C127.096774,261.083871 129.032258,256.587097 129.032258,251.612903 C129.032258,246.63871 127.090323,242.141935 124,238.709677 C127.096774,235.277419 129.032258,230.780645 129.032258,225.806452 C129.032258,220.832258 127.090323,216.335484 124,212.903226 C127.096774,209.470968 129.032258,204.974194 129.032258,200 C129.032258,195.025806 127.090323,190.529032 124,187.096774 C127.096774,183.664516 129.032258,179.167742 129.032258,174.193548 C129.032258,171.909677 128.56129,169.754839 127.83871,167.716129 C135.083871,167.593548 141.574194,163.535484 144.825806,157.03871 L152.374194,141.935484 L270.967742,141.935484 L270.967742,154.83871 L251.612903,154.83871 C243.212903,154.83871 236.116129,160.251613 233.445161,167.741935 L212.903226,167.741935 C202.232258,167.741935 193.548387,176.425806 193.548387,187.096774 L193.548387,329.032258 C193.548387,339.703226 202.232258,348.387097 212.903226,348.387097 L259.174194,348.387097 C263.516129,348.387097 267.593548,346.890323 270.967742,344.270968 L270.967742,361.290323 L152.374194,361.290323 L144.819355,346.180645 C141.567742,339.683871 135.077419,335.625806 127.832258,335.503226 C128.56129,333.470968 129.032258,331.316129 129.032258,329.032258 C129.032258,324.058065 127.090323,319.56129 124,316.129032 Z M341.935484,167.741935 C345.496774,167.741935 348.387097,170.632258 348.387097,174.193548 L348.387097,200 C348.387097,203.56129 345.496774,206.451613 341.935484,206.451613 L251.612903,206.451613 C248.051613,206.451613 245.16129,203.56129 245.16129,200 L245.16129,174.193548 C245.16129,170.632258 248.051613,167.741935 251.612903,167.741935 L270.967742,167.741935 L270.967742,193.548387 L322.580645,193.548387 L322.580645,167.741935 L341.935484,167.741935 Z M193.548387,58.0645161 C200.664516,58.0645161 206.451613,63.8516129 206.451613,70.9677419 C206.451613,78.083871 200.664516,83.8709677 193.548387,83.8709677 C186.432258,83.8709677 180.645161,78.083871 180.645161,70.9677419 C180.645161,63.8516129 186.432258,58.0645161 193.548387,58.0645161 Z M168.658065,64.516129 C168.116129,66.5935484 167.741935,68.7290323 167.741935,70.9677419 C167.741935,73.2064516 168.116129,75.3419355 168.658065,77.4193548 L141.935484,77.4193548 L141.935484,64.516129 L168.658065,64.516129 Z M109.677419,12.9032258 C113.23871,12.9032258 116.129032,15.7935484 116.129032,19.3548387 L116.129032,25.8064516 L103.225806,25.8064516 L103.225806,19.3548387 C103.225806,15.7935484 106.116129,12.9032258 109.677419,12.9032258 Z M25.8064516,83.8709677 C18.6903226,83.8709677 12.9032258,78.083871 12.9032258,70.9677419 C12.9032258,63.8516129 18.6903226,58.0645161 25.8064516,58.0645161 C32.9225806,58.0645161 38.7096774,63.8516129 38.7096774,70.9677419 C38.7096774,78.083871 32.9225806,83.8709677 25.8064516,83.8709677 Z M50.6967742,77.4193548 C51.2387097,75.3419355 51.6129032,73.2064516 51.6129032,70.9677419 C51.6129032,68.7290323 51.2387097,66.5935484 50.6967742,64.516129 L77.4193548,64.516129 L77.4193548,77.4193548 L50.6967742,77.4193548 Z M90.3225806,45.1612903 C90.3225806,41.6 93.2129032,38.7096774 96.7741935,38.7096774 L122.580645,38.7096774 C126.141935,38.7096774 129.032258,41.6 129.032258,45.1612903 L129.032258,103.225806 L90.3225806,103.225806 L90.3225806,45.1612903 Z M64.516129,122.580645 C64.516129,119.019355 67.4064516,116.129032 70.9677419,116.129032 L303.225806,116.129032 C306.787097,116.129032 309.677419,119.019355 309.677419,122.580645 L309.677419,180.645161 L283.870968,180.645161 L283.870968,129.032258 L144.4,129.032258 L133.277419,151.270968 C132.180645,153.470968 129.974194,154.83871 127.509677,154.83871 L70.9677419,154.83871 C67.4064516,154.83871 64.516129,151.948387 64.516129,148.387097 L64.516129,122.580645 Z M309.677419,380.645161 C309.677419,384.206452 306.787097,387.096774 303.225806,387.096774 L70.9677419,387.096774 C67.4064516,387.096774 64.516129,384.206452 64.516129,380.645161 L64.516129,354.83871 C64.516129,351.277419 67.4064516,348.387097 70.9677419,348.387097 L127.509677,348.387097 C129.974194,348.387097 132.187097,349.754839 133.283871,351.954839 L144.4,374.193548 L283.870968,374.193548 L283.870968,335.483871 L309.677419,335.483871 L309.677419,380.645161 Z M380.645161,322.580645 L274.748387,322.580645 L263.735484,333.593548 C262.529032,334.8 260.870968,335.483871 259.174194,335.483871 L212.903226,335.483871 C209.341935,335.483871 206.451613,332.593548 206.451613,329.032258 L206.451613,309.677419 L387.096774,309.677419 L387.096774,316.129032 C387.096774,319.690323 384.206452,322.580645 380.645161,322.580645 Z" id="Shape" fill="#000000" fill-rule="nonzero"></path>
            <path d="M248,266.646978 L254.416667,266.646978 L254.416667,272.494505 L254.766667,272.612637 C255.661116,273.006412 256.64305,273.331272 257.7125,273.587225 C258.78195,273.843179 259.919438,273.971154 261.125,273.971154 C263.302789,273.971154 264.994438,273.528164 266.2,272.64217 C267.405562,271.756177 268.008333,270.565026 268.008333,269.068681 C268.008333,267.729847 267.512505,266.646982 266.520833,265.820055 C265.529162,264.993128 264.304174,264.264655 262.845833,263.634615 C261.387493,263.004576 259.793064,262.374545 258.0625,261.744505 C256.331936,261.114466 254.737507,260.317084 253.279167,259.352335 C251.820826,258.387587 250.595838,257.176747 249.604167,255.71978 C248.612495,254.262813 248.116667,252.372722 248.116667,250.049451 C248.116667,248.277464 248.456941,246.653167 249.1375,245.176511 C249.818059,243.699855 250.770827,242.42995 251.995833,241.366758 C253.220839,240.303566 254.68888,239.476651 256.4,238.885989 C258.11112,238.295327 260.016656,238 262.116667,238 C264.488901,238 266.822211,238.216573 269.116667,238.649725 C271.411123,239.082878 273.238882,239.673531 274.6,240.421703 L274.6,252.412088 L268.183333,252.412088 L268.183333,245.855769 C268.066666,245.855769 267.950001,245.836081 267.833333,245.796703 C266.977773,245.560438 266.054172,245.373398 265.0625,245.235577 C264.070828,245.097756 263.088894,245.028846 262.116667,245.028846 C260.249991,245.028846 258.78195,245.402927 257.7125,246.151099 C256.64305,246.899271 256.108333,247.903382 256.108333,249.163462 C256.108333,250.462919 256.604162,251.526095 257.595833,252.353022 C258.587505,253.179949 259.812493,253.92811 261.270833,254.597527 C262.729174,255.266945 264.323602,255.936352 266.054167,256.605769 C267.784731,257.275186 269.379159,258.092257 270.8375,259.057005 C272.295841,260.021754 273.520828,261.232593 274.5125,262.68956 C275.504172,264.146527 276,265.977553 276,268.182692 C276,270.309077 275.611115,272.169635 274.833333,273.764423 C274.055552,275.359211 272.966674,276.698026 271.566667,277.780907 C270.16666,278.863787 268.513898,279.671014 266.608333,280.20261 C264.702768,280.734206 262.641678,281 260.425,281 C258.947215,281 257.576395,280.881869 256.3125,280.645604 C255.048605,280.409339 253.88195,280.114013 252.8125,279.759615 C251.74305,279.405218 250.800004,279.031138 249.983333,278.637363 C249.166663,278.243588 248.505558,277.908884 248,277.633242 L248,266.646978 Z M297.860825,269.047143 L298.161512,269.047143 L306.460481,239 L315,239 L302.371134,280 L292.989691,280 L280,239 L289.201031,239 L297.860825,269.047143 Z M335.211538,258.614011 L349,258.614011 L349,277.278846 C347.692301,278.499548 345.990395,279.424905 343.894231,280.054945 C341.798066,280.684985 339.653857,281 337.461538,281 C334.884603,281 332.471165,280.547166 330.221154,279.641484 C327.971143,278.735801 326.019239,277.367454 324.365385,275.536401 C322.71153,273.705348 321.403851,271.441176 320.442308,268.743819 C319.480764,266.046461 319,262.886465 319,259.263736 C319,255.44412 319.576917,252.195526 320.730769,249.517857 C321.884621,246.840188 323.374991,244.644926 325.201923,242.932005 C327.028855,241.219085 329.076912,239.968868 331.346154,239.181319 C333.615396,238.393769 335.865373,238 338.096154,238 C340.403858,238 342.326915,238.18704 343.865385,238.561126 C345.403854,238.935212 346.807686,239.417579 348.076923,240.008242 L348.076923,252.23489 L341.730769,252.23489 L341.730769,245.678571 L340.807692,245.442308 C340.038458,245.284798 339.192312,245.206044 338.269231,245.206044 C336.6923,245.206044 335.230776,245.481682 333.884615,246.032967 C332.538455,246.584252 331.375005,247.440699 330.394231,248.602335 C329.413457,249.763971 328.653849,251.250449 328.115385,253.061813 C327.57692,254.873178 327.307692,257.038907 327.307692,259.559066 C327.307692,261.803583 327.57692,263.811804 328.115385,265.583791 C328.653849,267.355778 329.403841,268.8521 330.365385,270.072802 C331.326928,271.293504 332.471147,272.218861 333.798077,272.848901 C335.125007,273.478941 336.557685,273.793956 338.096154,273.793956 C339.096159,273.793956 340.009611,273.675825 340.836538,273.43956 C341.663466,273.203296 342.230768,272.967034 342.538462,272.730769 L342.538462,264.520604 L335.211538,264.520604 L335.211538,258.614011 Z" id="SVG" fill="#000000"></path>
        </g>
    </g>
</svg>