<svg xmlns="http://www.w3.org/2000/svg" viewBox="0 0 401 400"><g fill="none" fill-rule="evenodd"><path fill="#FCCA75" d="M123.080645 19.3548387v12.9032258H97.2741935V19.3548387c0-3.5483871 1.4193549-6.7741935 3.8064515-9.0967742 2.322581-2.38709676 5.548387-3.8064516 9.096774-3.8064516 7.096775 0 12.903226 5.8064516 12.903226 12.9032258z"/><path fill="#E6E9ED" fill-rule="nonzero" d="M45.6612903 70.9677419c0-4.9677419-1.8709677-9.4838709-4.9677419-12.9032258h43.6774193v25.8064516H40.6935484c3.0967742-3.4193548 4.9677419-7.9354838 4.9677419-12.9032258zm90.3225807-12.9032258h43.677419C176.564516 61.483871 174.693548 66 174.693548 70.9677419c0 4.967742 1.870968 9.483871 4.967742 12.9032258h-43.677419V58.0645161z"/><path fill="#9E7FC6" fill-rule="nonzero" d="M40.6935484 58.0645161C43.7903226 61.483871 45.6612903 66 45.6612903 70.9677419c0 4.967742-1.8709677 9.483871-4.9677419 12.9032258h-.0645161c-3.4193549 4-8.5806452 6.4516129-14.3225807 6.4516129-10.7096774 0-19.3548387-8.6451612-19.3548387-19.3548387 0-10.7096774 8.6451613-19.3548387 19.3548387-19.3548387 5.7419355 0 10.9032258 2.4516129 14.3225807 6.4516129h.0645161zm153.3548386-6.4516129c10.709678 0 19.354839 8.6451613 19.354839 19.3548387 0 10.7096775-8.645161 19.3548387-19.354839 19.3548387-5.741935 0-10.903226-2.4516129-14.322581-6.4516129h-.064516c-3.096774-3.4193548-4.967742-7.9354838-4.967742-12.9032258 0-4.9677419 1.870968-9.4838709 4.967742-12.9032258h.064516c3.419355-4 8.580646-6.4516129 14.322581-6.4516129z"/><path fill="#AAB2BD" d="M135.983871 83.8709677v25.8064513H84.3709677V45.1612903c0-7.0967742 5.8064517-12.9032258 12.9032258-12.9032258h25.8064515c7.096774 0 12.903226 5.8064516 12.903226 12.9032258v38.7096774z"/><path fill="#FCCA75" d="M381.145161 174.193548H355.33871V200c0 7.096774-5.806452 12.903226-12.903226 12.903226h-90.322581c-7.096774 0-12.903226-5.806452-12.903226-12.903226v-25.806452h-25.806451C206.306452 174.193548 200.5 180 200.5 187.096774v116.129032h193.548387V187.096774c0-7.096774-5.806452-12.903226-12.903226-12.903226z"/><path fill="#E6E9ED" d="M342.435484 161.290323h-90.322581c-7.096774 0-12.903226 5.806451-12.903226 12.903225V200c0 7.096774 5.806452 12.903226 12.903226 12.903226h90.322581c7.096774 0 12.903226-5.806452 12.903226-12.903226v-25.806452c0-7.096774-5.806452-12.903225-12.903226-12.903225z"/><path fill="#F3B141" d="M394.048387 303.225806v12.903226c0 7.096774-5.806452 12.903226-12.903226 12.903226H277.919355l-9.096774 9.096774c-2.451613 2.451613-5.741936 3.806452-9.161291 3.806452h-46.258064c-7.096774 0-12.903226-5.806452-12.903226-12.903226v-25.806452h193.548387z"/><path fill="#CCD1D9" fill-rule="nonzero" d="M316.629032 161.290323v25.806451h-38.709677v-51.612903H148.887097l-9.354839 18.645161c-2.193548 4.387097-6.645161 7.161291-11.548387 7.161291H71.4677419c-7.0967742 0-12.9032258-5.806452-12.9032258-12.903226v-25.806452c0-7.096774 5.8064516-12.903226 12.9032258-12.903226H303.725806c7.096775 0 12.903226 5.806452 12.903226 12.903226v38.709678zm0 167.741935v51.612903c0 7.096774-5.806451 12.903226-12.903226 12.903226H71.4677419c-7.0967742 0-12.9032258-5.806452-12.9032258-12.903226V354.83871c0-7.096775 5.8064516-12.903226 12.9032258-12.903226h56.5161291c4.903226 0 9.354839 2.774193 11.548387 7.16129l9.354839 18.645161h129.032258v-38.709677h38.709677z"/><path fill="#AAB2BD" fill-rule="nonzero" d="M110.177419 238.709677c7.096775 0 12.903226 5.806452 12.903226 12.903226 0 3.548387-1.419355 6.774194-3.806451 9.096774-2.322581 2.387097-5.548388 3.806452-9.096775 3.806452H84.3709677c-7.0967742 0-12.9032258-5.806452-12.9032258-12.903226 0-3.548387 1.4193549-6.774193 3.8064516-9.096774 2.3225807-2.387097 5.5483871-3.806452 9.0967742-3.806452h25.8064513zm0-25.806451c7.096775 0 12.903226 5.806451 12.903226 12.903226 0 3.548387-1.419355 6.774193-3.806451 9.096774-2.322581 2.387097-5.548388 3.806451-9.096775 3.806451H84.3709677c-7.0967742 0-12.9032258-5.806451-12.9032258-12.903225 0-3.548387 1.4193549-6.774194 3.8064516-9.096775 2.3225807-2.387096 5.5483871-3.806451 9.0967742-3.806451h25.8064513zm0-25.806452c7.096775 0 12.903226 5.806452 12.903226 12.903226 0 3.548387-1.419355 6.774194-3.806451 9.096774-2.322581 2.387097-5.548388 3.806452-9.096775 3.806452H84.3709677c-7.0967742 0-12.9032258-5.806452-12.9032258-12.903226 0-3.548387 1.4193549-6.774194 3.8064516-9.096774 2.3225807-2.387097 5.5483871-3.806452 9.0967742-3.806452h25.8064513zm0 77.419355c7.096775 0 12.903226 5.806452 12.903226 12.903226 0 3.548387-1.419355 6.774193-3.806451 9.096774-2.322581 2.387097-5.548388 3.806452-9.096775 3.806452H84.3709677c-7.0967742 0-12.9032258-5.806452-12.9032258-12.903226 0-3.548387 1.4193549-6.774194 3.8064516-9.096774 2.3225807-2.387097 5.5483871-3.806452 9.0967742-3.806452h25.8064513zm0 25.806452c7.096775 0 12.903226 5.806451 12.903226 12.903225 0 3.548388-1.419355 6.774194-3.806451 9.096775-2.322581 2.387096-5.548388 3.806451-9.096775 3.806451H84.3709677c-7.0967742 0-12.9032258-5.806451-12.9032258-12.903226 0-3.548387 1.4193549-6.774193 3.8064516-9.096774 2.3225807-2.387097 5.5483871-3.806451 9.0967742-3.806451h25.8064513zm0 25.806451c7.096775 0 12.903226 5.806452 12.903226 12.903226 0 3.548387-1.419355 6.774194-3.806451 9.096774-2.322581 2.387097-5.548388 3.806452-9.096775 3.806452H84.3709677c-7.0967742 0-12.9032258-5.806452-12.9032258-12.903226 0-3.548387 1.4193549-6.774193 3.8064516-9.096774 2.3225807-2.387097 5.5483871-3.806452 9.0967742-3.806452h25.8064513zm0-154.838709c7.096775 0 12.903226 5.806451 12.903226 12.903225 0 3.548387-1.419355 6.774194-3.806451 9.096775-2.322581 2.387096-5.548388 3.806451-9.096775 3.806451H84.3709677c-7.0967742 0-12.9032258-5.806451-12.9032258-12.903226 0-3.548387 1.4193549-6.774193 3.8064516-9.096774 2.3225807-2.387097 5.5483871-3.806451 9.0967742-3.806451h25.8064513z"/><path fill="#000" fill-rule="nonzero" d="M381.145161 167.741935h-20.541935c-2.670968-7.490322-9.767742-12.903225-18.167742-12.903225h-19.354839v-32.258065c0-10.670968-8.683871-19.354839-19.354839-19.354839H142.435484V90.3225806h34.722581c4.535483 3.967742 10.4 6.4516129 16.890322 6.4516129 14.232258 0 25.806452-11.5741935 25.806452-25.8064516 0-14.232258-11.574194-25.8064516-25.806452-25.8064516-6.490322 0-12.354839 2.483871-16.890322 6.4516129h-34.722581v-6.4516129c0-8.4-5.412903-15.4967742-12.903226-18.1677419v-7.6387097C129.532258 8.68387097 120.848387 0 110.177419 0 99.5064516 0 90.8225806 8.68387097 90.8225806 19.3548387v7.6387097c-7.4903225 2.6709677-12.9032258 9.7677419-12.9032258 18.1677419v6.4516129H43.1967742c-4.5354839-3.9677419-10.4-6.4516129-16.8903226-6.4516129C12.0741935 45.1612903.5 56.7354839.5 70.9677419.5 85.2 12.0741935 96.7741935 26.3064516 96.7741935c6.4903226 0 12.3548387-2.4838709 16.8903226-6.4516129h34.7225806v12.9032254h-6.4516129c-10.6709677 0-19.3548387 8.683871-19.3548387 19.354839v25.806452c0 8.92258 6.0967742 16.380645 14.3225807 18.606451-.8967742 2.232258-1.4193549 4.651613-1.4193549 7.2 0 4.974194 1.9419355 9.470968 5.0322581 12.903226C66.9516129 190.529032 65.016129 195.025806 65.016129 200s1.9419355 9.470968 5.0322581 12.903226c-3.0967742 3.432258-5.0322581 7.929032-5.0322581 12.903226 0 4.974193 1.9419355 9.470967 5.0322581 12.903225-3.0967742 3.432258-5.0322581 7.929033-5.0322581 12.903226 0 4.974194 1.9419355 9.470968 5.0322581 12.903226-3.0967742 3.432258-5.0322581 7.929032-5.0322581 12.903226 0 4.974193 1.9419355 9.470968 5.0322581 12.903226-3.0967742 3.432258-5.0322581 7.929032-5.0322581 12.903225 0 4.974194 1.9419355 9.470968 5.0322581 12.903226-3.0967742 3.432258-5.0322581 7.929033-5.0322581 12.903226 0 2.548387.5225807 4.967742 1.4193549 7.2-8.2258065 2.225807-14.3225807 9.683871-14.3225807 18.606452v25.806451c0 10.670968 8.683871 19.354839 19.3548387 19.354839H303.725806c10.670968 0 19.354839-8.683871 19.354839-19.354839v-45.16129h58.064516c10.670968 0 19.354839-8.683871 19.354839-19.354839V187.096774c0-10.670968-8.683871-19.354839-19.354839-19.354839zm6.451613 19.354839v70.967742h-12.903226v12.903226h12.903226v25.806452H206.951613v-25.806452h12.903226v-12.903226h-12.903226v-70.967742c0-3.56129 2.890322-6.451613 6.451613-6.451613h19.354839V200c0 10.670968 8.68387 19.354839 19.354838 19.354839h90.322581c10.670968 0 19.354839-8.683871 19.354839-19.354839v-19.354839h19.354838c3.561291 0 6.451613 2.890323 6.451613 6.451613zM77.9193548 329.032258c0-3.56129 2.8903226-6.451613 6.4516129-6.451613h25.8064513c3.561291 0 6.451613 2.890323 6.451613 6.451613s-2.890322 6.451613-6.451613 6.451613H84.3709677c-3.5612903 0-6.4516129-2.890323-6.4516129-6.451613zm0-25.806452c0-3.56129 2.8903226-6.451612 6.4516129-6.451612h25.8064513c3.561291 0 6.451613 2.890322 6.451613 6.451612 0 3.561291-2.890322 6.451613-6.451613 6.451613H84.3709677c-3.5612903 0-6.4516129-2.890322-6.4516129-6.451613zm0-25.806451c0-3.56129 2.8903226-6.451613 6.4516129-6.451613h25.8064513c3.561291 0 6.451613 2.890323 6.451613 6.451613s-2.890322 6.451613-6.451613 6.451613H84.3709677c-3.5612903 0-6.4516129-2.890323-6.4516129-6.451613zm0-25.806452c0-3.56129 2.8903226-6.451613 6.4516129-6.451613h25.8064513c3.561291 0 6.451613 2.890323 6.451613 6.451613 0 3.561291-2.890322 6.451613-6.451613 6.451613H84.3709677c-3.5612903 0-6.4516129-2.890322-6.4516129-6.451613zm0-25.806451c0-3.561291 2.8903226-6.451613 6.4516129-6.451613h25.8064513c3.561291 0 6.451613 2.890322 6.451613 6.451613 0 3.56129-2.890322 6.451613-6.451613 6.451613H84.3709677c-3.5612903 0-6.4516129-2.890323-6.4516129-6.451613zm0-25.806452c0-3.56129 2.8903226-6.451613 6.4516129-6.451613h25.8064513c3.561291 0 6.451613 2.890323 6.451613 6.451613s-2.890322 6.451613-6.451613 6.451613H84.3709677c-3.5612903 0-6.4516129-2.890323-6.4516129-6.451613zm0-25.806452c0-3.56129 2.8903226-6.451613 6.4516129-6.451613h25.8064513c3.561291 0 6.451613 2.890323 6.451613 6.451613 0 3.561291-2.890322 6.451613-6.451613 6.451613H84.3709677c-3.5612903 0-6.4516129-2.890322-6.4516129-6.451613zM124.5 316.129032c3.096774-3.432258 5.032258-7.929032 5.032258-12.903226 0-4.974193-1.941935-9.470967-5.032258-12.903225 3.096774-3.432258 5.032258-7.929033 5.032258-12.903226 0-4.974194-1.941935-9.470968-5.032258-12.903226 3.096774-3.432258 5.032258-7.929032 5.032258-12.903226 0-4.974193-1.941935-9.470968-5.032258-12.903226 3.096774-3.432258 5.032258-7.929032 5.032258-12.903225 0-4.974194-1.941935-9.470968-5.032258-12.903226 3.096774-3.432258 5.032258-7.929032 5.032258-12.903226s-1.941935-9.470968-5.032258-12.903226c3.096774-3.432258 5.032258-7.929032 5.032258-12.903226 0-2.283871-.470968-4.438709-1.193548-6.477419 7.245161-.122581 13.735484-4.180645 16.987096-10.677419l7.548388-15.103226h118.593548v12.903226h-19.354839c-8.4 0-15.496774 5.412903-18.167742 12.903225h-20.541935c-10.670968 0-19.354839 8.683871-19.354839 19.354839v141.935484c0 10.670968 8.683871 19.354839 19.354839 19.354839h46.270968c4.341935 0 8.419354-1.496774 11.793548-4.116129v17.019355H152.874194l-7.554839-15.109678c-3.251613-6.496774-9.741936-10.554839-16.987097-10.677419.729032-2.032258 1.2-4.187097 1.2-6.470968 0-4.974193-1.941935-9.470968-5.032258-12.903226zm217.935484-148.387097c3.56129 0 6.451613 2.890323 6.451613 6.451613V200c0 3.56129-2.890323 6.451613-6.451613 6.451613h-90.322581c-3.56129 0-6.451613-2.890323-6.451613-6.451613v-25.806452c0-3.56129 2.890323-6.451613 6.451613-6.451613h19.354839v25.806452h51.612903v-25.806452h19.354839zM194.048387 58.0645161c7.116129 0 12.903226 5.7870968 12.903226 12.9032258 0 7.1161291-5.787097 12.9032258-12.903226 12.9032258s-12.903226-5.7870967-12.903226-12.9032258c0-7.116129 5.787097-12.9032258 12.903226-12.9032258zm-24.890322 6.4516129c-.541936 2.0774194-.91613 4.2129033-.91613 6.4516129 0 2.2387097.374194 4.3741936.91613 6.4516129h-26.722581V64.516129h26.722581zm-58.980646-51.6129032c3.561291 0 6.451613 2.8903226 6.451613 6.4516129v6.4516129h-12.903226v-6.4516129c0-3.5612903 2.890323-6.4516129 6.451613-6.4516129zM26.3064516 83.8709677c-7.116129 0-12.9032258-5.7870967-12.9032258-12.9032258 0-7.116129 5.7870968-12.9032258 12.9032258-12.9032258s12.9032258 5.7870968 12.9032258 12.9032258c0 7.1161291-5.7870968 12.9032258-12.9032258 12.9032258zm24.8903226-6.4516129c.5419355-2.0774193.916129-4.2129032.916129-6.4516129 0-2.2387096-.3741935-4.3741935-.916129-6.4516129h26.7225806v12.9032258H51.1967742zm39.6258064-32.2580645c0-3.5612903 2.8903226-6.4516129 6.4516129-6.4516129h25.8064515c3.56129 0 6.451613 2.8903226 6.451613 6.4516129v58.0645157H90.8225806V45.1612903zM65.016129 122.580645c0-3.56129 2.8903226-6.451613 6.4516129-6.451613H303.725806c3.561291 0 6.451613 2.890323 6.451613 6.451613v58.064516h-25.806451v-51.612903H144.9l-11.122581 22.23871c-1.096774 2.2-3.303225 3.567742-5.767742 3.567742H71.4677419c-3.5612903 0-6.4516129-2.890323-6.4516129-6.451613v-25.806452zm245.16129 258.064516c0 3.561291-2.890322 6.451613-6.451613 6.451613H71.4677419c-3.5612903 0-6.4516129-2.890322-6.4516129-6.451613V354.83871c0-3.561291 2.8903226-6.451613 6.4516129-6.451613h56.5419351c2.464517 0 4.67742 1.367742 5.774194 3.567742L144.9 374.193548h139.470968v-38.709677h25.806451v45.16129zm70.967742-58.064516H275.248387l-11.012903 11.012903c-1.206452 1.206452-2.864516 1.890323-4.56129 1.890323h-46.270968c-3.561291 0-6.451613-2.890323-6.451613-6.451613v-19.354839h180.645161v6.451613c0 3.561291-2.890322 6.451613-6.451613 6.451613z"/><path fill="#000" d="M248.5 266.646978h6.416667v5.847527l.35.118132c.894449.393775 1.876383.718635 2.945833.974588 1.06945.255954 2.206938.383929 3.4125.383929 2.177789 0 3.869438-.44299 5.075-1.328984 1.205562-.885993 1.808333-2.077144 1.808333-3.573489 0-1.338834-.495828-2.421699-1.4875-3.248626-.991671-.826927-2.216659-1.5554-3.675-2.18544-1.45834-.630039-3.052769-1.26007-4.783333-1.89011-1.730564-.630039-3.324993-1.427421-4.783333-2.39217-1.458341-.964748-2.683329-2.175588-3.675-3.632555-.991672-1.456967-1.4875-3.347058-1.4875-5.670329 0-1.771987.340274-3.396284 1.020833-4.87294.680559-1.476656 1.633327-2.746561 2.858333-3.809753 1.225006-1.063192 2.693047-1.890107 4.404167-2.480769 1.71112-.590662 3.616656-.885989 5.716667-.885989 2.372234 0 4.705544.216573 7 .649725 2.294456.433153 4.122215 1.023806 5.483333 1.771978v11.990385h-6.416667v-6.556319c-.116667 0-.233332-.019688-.35-.059066-.85556-.236265-1.779161-.423305-2.770833-.561126-.991672-.137821-1.973606-.206731-2.945833-.206731-1.866676 0-3.334717.374081-4.404167 1.122253-1.06945.748172-1.604167 1.752283-1.604167 3.012363 0 1.299457.495829 2.362633 1.4875 3.18956.991672.826927 2.21666 1.575088 3.675 2.244505 1.458341.669418 3.052769 1.338825 4.783334 2.008242 1.730564.669417 3.324992 1.486488 4.783333 2.451236 1.458341.964749 2.683328 2.175588 3.675 3.632555.991672 1.456967 1.4875 3.287993 1.4875 5.493132 0 2.126385-.388885 3.986943-1.166667 5.581731-.777781 1.594788-1.866659 2.933603-3.266666 4.016484-1.400007 1.08288-3.052769 1.890107-4.958334 2.421703-1.905565.531596-3.966655.79739-6.183333.79739-1.477785 0-2.848605-.118131-4.1125-.354396-1.263895-.236265-2.43055-.531591-3.5-.885989-1.06945-.354397-2.012496-.728477-2.829167-1.122252-.81667-.393775-1.477775-.728479-1.983333-1.004121v-10.986264zm49.860825 2.400165h.300687L306.960481 239H315.5l-12.628866 41h-9.381443L280.5 239h9.201031l8.659794 30.047143zm37.350713-10.433132H349.5v18.664835c-1.307699 1.220702-3.009605 2.146059-5.105769 2.776099-2.096165.63004-4.240374.945055-6.432693.945055-2.576935 0-4.990373-.452834-7.240384-1.358516-2.250011-.905683-4.201915-2.27403-5.855769-4.105083-1.653855-1.831053-2.961534-4.095225-3.923077-6.792582-.961544-2.697358-1.442308-5.857354-1.442308-9.480083 0-3.819616.576917-7.06821 1.730769-9.745879 1.153852-2.677669 2.644222-4.872931 4.471154-6.585852 1.826932-1.71292 3.874989-2.963137 6.144231-3.750686 2.269242-.78755 4.519219-1.181319 6.75-1.181319 2.307704 0 4.230761.18704 5.769231.561126 1.538469.374086 2.942301.856453 4.211538 1.447116v12.226648h-6.346154v-6.556319l-.923077-.236263c-.769234-.15751-1.61538-.236264-2.538461-.236264-1.576931 0-3.038455.275638-4.384616.826923-1.34616.551285-2.50961 1.407732-3.490384 2.569368-.980774 1.161636-1.740382 2.648114-2.278846 4.459478-.538465 1.811365-.807693 3.977094-.807693 6.497253 0 2.244517.269228 4.252738.807693 6.024725.538464 1.771987 1.288456 3.268309 2.25 4.489011.961543 1.220702 2.105762 2.146059 3.432692 2.776099 1.32693.63004 2.759608.945055 4.298077.945055 1.000005 0 1.913457-.118131 2.740384-.354396.826928-.236264 1.39423-.472526 1.701924-.708791v-8.210165h-7.326924v-5.906593z"/></g></svg>
