<svg xmlns="http://www.w3.org/2000/svg" viewBox="0 0 512 512"><path fill="#edebec" d="M7.516 7.835h256.548v248.531H7.516z"/><path fill="#dcd7d8" d="M7.516 7.835H23.55v248.531H7.516z"/><path fill="#95868a" d="M31.567 31.886h208.445v176.377H31.567z"/><path fill="#a79a9e" d="M47.602 47.921h176.377v144.308H47.602z"/><path fill="#f74fa4" d="M135.79 78.809c-34.135-40.961-75.096 0-61.442 34.135 12.603 31.506 61.442 61.442 61.442 61.442s48.839-29.936 61.442-61.442c13.654-34.135-27.307-75.097-61.442-34.135z"/><path fill="#f2387f" d="M98.399 112.943c-7.833-19.583 2.311-41.404 18.826-48.725-28.442-11.967-54.096 20.678-42.878 48.725 12.602 31.506 61.442 61.442 61.442 61.442s4.915-3.013 12.026-8.13c-15.31-11.017-40.81-31.797-49.416-53.312z"/><path fill="#f74fa4" d="M381.82 321.245c-65.332-78.399-143.732 0-117.599 65.332 24.122 60.303 117.599 117.6 117.599 117.6s93.478-57.296 117.599-117.599c26.133-65.333-52.265-143.732-117.599-65.333z"/><path fill="#f2387f" d="M293.273 386.578c-16.27-40.675 7.979-86.41 44.365-96.223-50.822-13.317-93.744 45.404-73.416 96.223 24.12 60.303 117.598 117.599 117.598 117.599s5.653-3.465 14.526-9.58c-27.235-18.768-84.879-62.535-103.073-108.019z"/><path d="M240.012 24.37H31.567c-4.152 0-7.516 3.364-7.516 7.516v176.377c0 4.152 3.364 7.516 7.516 7.516h148.65c4.152 0 7.516-3.364 7.516-7.516s-3.364-7.516-7.516-7.516H39.083V39.402h193.413v161.344H214.29c-4.152 0-7.516 3.364-7.516 7.516s3.364 7.516 7.516 7.516h25.722c4.152 0 7.516-3.364 7.516-7.516V31.886c0-4.151-3.364-7.516-7.516-7.516z"/><path d="M185.643 59.51c-12.698-7.571-31.858-8.797-49.853 8.299-17.994-17.095-37.155-15.868-49.853-8.299-18.59 11.084-26.746 35.78-18.567 56.224 13.375 33.436 62.411 63.784 64.493 65.06 2.384 1.462 5.471 1.462 7.855 0 2.081-1.275 51.119-31.624 64.493-65.06 8.177-20.444.022-45.14-18.568-56.224zm4.61 50.641c-9.532 23.832-42.956 47.624-54.466 55.285-11.51-7.652-44.909-31.408-54.46-55.285-6.145-15.361 1.433-31.247 12.307-37.73 3.654-2.179 7.486-3.25 11.389-3.25 8.367 0 17.057 4.927 24.991 14.449 2.958 3.551 8.589 3.551 11.548 0 11.636-13.966 24.897-18.046 36.382-11.199 10.876 6.485 18.454 22.37 12.309 37.73zM473.72 290.209c-14.561-8.683-30.869-11.355-47.16-7.727-15.871 3.533-30.89 12.747-44.741 27.432-13.851-14.684-28.871-23.899-44.742-27.432-16.291-3.626-32.599-.953-47.161 7.727-32.754 19.528-47.107 63.085-32.676 99.16 24.762 61.905 116.746 118.823 120.651 121.216 2.384 1.462 5.471 1.462 7.855 0 3.904-2.393 95.888-59.311 120.651-121.216 14.432-36.075.078-79.631-32.677-99.16zm18.721 93.578c-20.161 50.401-92.857 99.942-110.62 111.478-17.763-11.536-90.46-61.076-110.62-111.478-13.125-32.809 3.125-66.78 26.416-80.666 8.213-4.896 16.783-7.306 25.464-7.306 17.941 0 36.348 10.301 52.965 30.243 2.958 3.551 8.589 3.551 11.548 0 24.66-29.591 53.245-37.948 78.428-22.937 23.294 13.887 39.542 47.856 26.419 80.666z"/><path d="M228.58 353.495c-1.981-3.649-6.542-5.001-10.192-3.02-3.649 1.981-5 6.543-3.02 10.192l11.478 21.143c-55.184-12.796-96.058-60.994-99.354-117.928h136.573c4.152 0 7.516-3.364 7.516-7.516V128.528c60.404 7.3 107.885 57.256 112.812 117.492l-19.348-19.06c-2.955-2.912-7.714-2.877-10.629.079-2.913 2.957-2.877 7.716.079 10.629l33.572 33.071c2.998 2.954 8.006 2.816 10.836-.299l30.064-33.071c2.792-3.071 2.566-7.826-.506-10.618-3.07-2.793-7.825-2.567-10.618.506l-18.277 20.105c-2.044-32.9-15.25-64.004-37.717-88.398-23.711-25.743-55.673-41.852-90.268-45.572V7.835c0-4.152-3.364-7.516-7.516-7.516H7.516C3.364.319 0 3.683 0 7.835v248.531c0 4.152 3.364 7.516 7.516 7.516h104.921c3.306 63.794 48.863 117.937 110.536 132.463l-19.052 14.362c-3.014 2.273-3.873 6.58-1.945 9.83 2.254 3.799 7.461 4.836 10.993 2.174l32.57-24.552c2.971-2.24 3.857-6.317 2.081-9.587l-19.04-35.077zM15.032 15.351h241.516V248.85H15.032V15.351z"/></svg>
