<svg xmlns="http://www.w3.org/2000/svg" viewBox="0 0 400 400"><g fill="none" fill-rule="evenodd"><path fill="#F9F9FD" d="M6 6h200v194H6z"/><path fill="#DCD7D8" d="M6 6h13v194H6z"/><path fill="#AAB2BD" d="M25 25h163v138H25z"/><path fill="#CCD1D9" d="M37 37h138v113H37z"/><path fill="#FCCA75" d="M106 61.384c-26.611-31.978-58.543 0-47.899 26.649C67.926 112.629 106 136 106 136s38.074-23.37 47.899-47.967c10.644-26.65-21.288-58.628-47.899-26.65z"/><path fill="#F3B141" d="M77.07 88.028C70.9 72.738 78.892 55.7 91.903 49.985c-22.407-9.344-42.617 16.144-33.78 38.043C68.05 112.627 106.527 136 106.527 136s3.872-2.352 9.474-6.348c-12.061-8.601-32.15-24.826-38.93-41.624z"/><path fill="#CEBFE2" d="M298 250.702c-51.092-61.413-112.403 0-91.966 51.177C224.898 349.117 298 394 298 394s73.103-44.882 91.966-92.12c20.437-51.178-40.873-112.59-91.966-51.178z"/><path fill="#B69FD4" d="M229.663 301.877c-12.681-31.863 6.219-67.69 34.579-75.377-39.612-10.432-73.066 35.568-57.222 75.377 18.8 47.24 91.658 92.123 91.658 92.123s4.406-2.714 11.322-7.505c-21.227-14.702-66.156-48.987-80.337-84.618z"/><path fill="#000" d="M188.114 19H24.886A5.887 5.887 0 0019 24.89v138.22a5.887 5.887 0 005.886 5.89H141.29a5.887 5.887 0 005.886-5.89 5.887 5.887 0 00-5.886-5.89H30.771V30.78H182.23v126.44h-14.257a5.887 5.887 0 00-5.886 5.89 5.887 5.887 0 005.886 5.89h20.142a5.887 5.887 0 005.886-5.89V24.89a5.887 5.887 0 00-5.886-5.89z"/><path fill="#000" fill-rule="nonzero" d="M144.92 47.132c-9.924-5.908-24.9-6.865-38.965 6.477-14.064-13.34-29.04-12.383-38.965-6.477-14.53 8.65-20.904 27.923-14.512 43.877 10.454 26.093 48.78 49.776 50.408 50.772a5.934 5.934 0 006.14 0c1.626-.995 39.954-24.68 50.407-50.772 6.391-15.954.017-35.227-14.513-43.877zm3.604 39.52c-7.45 18.598-33.575 37.165-42.571 43.143-8.996-5.971-35.1-24.51-42.566-43.143-4.803-11.988 1.12-24.385 9.62-29.444 2.855-1.7 5.85-2.536 8.9-2.536 6.54 0 13.333 3.845 19.534 11.276 2.312 2.77 6.713 2.77 9.026 0 9.094-10.9 19.46-14.083 28.436-8.74 8.5 5.06 14.423 17.457 9.62 29.444zM370.08 227.166c-11.381-6.776-24.127-8.86-36.86-6.03-12.405 2.757-24.144 9.948-34.97 21.408-10.826-11.46-22.565-18.65-34.97-21.408-12.733-2.83-25.48-.743-36.861 6.03-25.6 15.24-36.819 49.23-25.54 77.383 19.354 48.31 91.249 92.728 94.301 94.595a5.934 5.934 0 006.14 0c3.05-1.867 74.945-46.285 94.3-94.595 11.28-28.152.061-62.143-25.54-77.383zm14.632 73.027c-15.758 39.332-72.577 77.993-86.46 86.996-13.884-9.003-70.704-47.663-86.46-86.996-10.26-25.603 2.442-52.114 20.646-62.95 6.42-3.821 13.118-5.702 19.903-5.702 14.022 0 28.41 8.039 41.397 23.601 2.312 2.771 6.713 2.771 9.026 0 19.274-23.092 41.616-29.614 61.3-17.9 18.206 10.838 30.905 37.347 20.648 62.951z"/><path fill="#000" fill-rule="nonzero" d="M178.76 275.791a5.882 5.882 0 00-7.97-2.358 5.865 5.865 0 00-2.363 7.959l8.977 16.51c-43.157-9.992-75.122-47.63-77.7-92.088h106.807a5.872 5.872 0 005.878-5.87v-99.827c47.238 5.7 84.37 44.71 88.224 91.748l-15.131-14.883a5.886 5.886 0 00-8.313.061 5.864 5.864 0 00.062 8.3l26.255 25.825c2.344 2.307 6.26 2.2 8.474-.233l23.511-25.825a5.864 5.864 0 00-.395-8.292 5.883 5.883 0 00-8.304.395l-14.293 15.7c-1.599-25.691-11.927-49.98-29.497-69.029-18.543-20.102-43.539-32.682-70.593-35.587V5.87c0-3.242-2.631-5.869-5.878-5.869H5.878A5.872 5.872 0 000 5.87v194.074c0 3.243 2.63 5.87 5.878 5.87H87.93c2.585 49.816 38.213 92.095 86.444 103.438l-14.9 11.216c-2.357 1.775-3.028 5.138-1.52 7.676 1.762 2.966 5.834 3.776 8.596 1.697l25.472-19.172a5.863 5.863 0 001.627-7.486l-14.89-27.392zM11.756 11.738h188.876v182.337H11.756V11.738z"/><path fill="#000" d="M76 91.321h3.896v3.536l.212.072c.543.238 1.14.434 1.789.589.65.155 1.34.232 2.072.232 1.322 0 2.35-.268 3.081-.804.732-.535 1.098-1.256 1.098-2.16 0-.81-.301-1.465-.903-1.965-.602-.5-1.346-.94-2.231-1.321a53.583 53.583 0 00-2.905-1.143 13.814 13.814 0 01-2.904-1.446 8.03 8.03 0 01-2.231-2.197c-.602-.88-.903-2.024-.903-3.428 0-1.072.206-2.054.62-2.947a6.768 6.768 0 011.735-2.303c.744-.643 1.635-1.143 2.674-1.5S83.296 74 84.57 74c1.441 0 2.858.131 4.25.393 1.394.262 2.504.619 3.33 1.071v7.25h-3.896V78.75a.663.663 0 01-.212-.036c-.52-.143-1.08-.256-1.683-.339a13.033 13.033 0 00-1.788-.125c-1.134 0-2.025.226-2.674.679-.65.452-.974 1.06-.974 1.821 0 .786.301 1.429.903 1.929.602.5 1.346.952 2.231 1.357.886.404 1.854.81 2.904 1.214 1.051.405 2.02.899 2.905 1.482a8.03 8.03 0 012.23 2.197c.603.88.904 1.988.904 3.321 0 1.286-.236 2.41-.708 3.375a6.802 6.802 0 01-1.984 2.429c-.85.654-1.853 1.142-3.01 1.464-1.157.321-2.408.482-3.754.482-.897 0-1.73-.071-2.497-.214a16.316 16.316 0 01-2.125-.536 14.45 14.45 0 01-1.718-.679c-.496-.238-.897-.44-1.204-.607v-6.643zm29.716 2h.18L110.877 75H116l-7.577 25h-5.63L95 75h5.52l5.196 18.321zm23.01-6.857H137V97.75c-.785.738-1.806 1.298-3.063 1.679a13.242 13.242 0 01-3.86.571c-1.546 0-2.994-.274-4.344-.821a9.423 9.423 0 01-3.514-2.483c-.992-1.107-1.777-2.476-2.354-4.107-.577-1.63-.865-3.541-.865-5.732 0-2.31.346-4.274 1.038-5.893.693-1.619 1.587-2.946 2.683-3.982a10.258 10.258 0 013.687-2.268c1.361-.476 2.711-.714 4.05-.714 1.384 0 2.538.113 3.461.34.923.225 1.766.517 2.527.874v7.393h-3.808v-3.964l-.553-.143a7.548 7.548 0 00-1.523-.143c-.947 0-1.824.167-2.631.5a5.387 5.387 0 00-2.094 1.554c-.589.702-1.045 1.6-1.368 2.696-.323 1.095-.484 2.405-.484 3.929 0 1.357.161 2.571.484 3.643.323 1.071.773 1.976 1.35 2.714a5.742 5.742 0 002.06 1.678 5.897 5.897 0 002.579.572c.6 0 1.148-.072 1.644-.214.496-.143.836-.286 1.021-.429v-4.964h-4.396v-3.572zM242.575 271H270v30.067c0 2.562-.317 4.967-.951 7.214-.635 2.247-1.783 4.247-3.445 6-1.05 1.079-2.176 1.932-3.379 2.562-1.203.629-2.373 1.1-3.51 1.415a18.168 18.168 0 01-3.215.607c-1.006.09-1.837.135-2.493.135-2.1 0-4.134-.236-6.102-.708s-3.937-1.314-5.905-2.528l3.215-7.416c1.662.99 3.095 1.64 4.297 1.955 1.203.315 2.592.472 4.167.472.962 0 2-.19 3.116-.573a7.034 7.034 0 002.92-1.921c1.53-1.708 2.296-4.09 2.296-7.146v-21.91h-18.436V271zM280 303.644h7.333v6.664l.4.134c1.023.449 2.145.82 3.367 1.11a16.76 16.76 0 003.9.438c2.489 0 4.422-.504 5.8-1.514 1.378-1.01 2.067-2.367 2.067-4.072 0-1.526-.567-2.76-1.7-3.702-1.134-.942-2.534-1.773-4.2-2.49a100.79 100.79 0 00-5.467-2.154 25.99 25.99 0 01-5.467-2.726 15.124 15.124 0 01-4.2-4.14c-1.133-1.66-1.7-3.814-1.7-6.461 0-2.02.39-3.87 1.167-5.553a12.753 12.753 0 013.267-4.341c1.4-1.212 3.077-2.154 5.033-2.827 1.956-.673 4.133-1.01 6.533-1.01 2.711 0 5.378.247 8 .74 2.623.494 4.711 1.167 6.267 2.02v13.663h-7.333v-7.471c-.134 0-.267-.023-.4-.067a24.72 24.72 0 00-3.167-.64 24.504 24.504 0 00-3.367-.235c-2.133 0-3.81.426-5.033 1.278-1.222.853-1.833 1.997-1.833 3.433 0 1.48.566 2.692 1.7 3.635 1.133.942 2.533 1.795 4.2 2.557a97.343 97.343 0 005.466 2.289c1.978.763 3.8 1.694 5.467 2.793a15.124 15.124 0 014.2 4.14c1.133 1.66 1.7 3.746 1.7 6.26 0 2.422-.444 4.542-1.333 6.36a12.816 12.816 0 01-3.734 4.577c-1.6 1.234-3.489 2.154-5.666 2.76-2.178.605-4.534.908-7.067.908-1.689 0-3.256-.135-4.7-.404a30.682 30.682 0 01-4-1.01 27.18 27.18 0 01-3.233-1.278 52.987 52.987 0 01-2.267-1.145v-12.519zm50.152-8.748L316.997 272h10.63l6.777 12.757 1.528 3.424 1.462-3.424 6.91-12.757H354.6l-13.354 22.963L355 319h-10.63l-7.11-13.429-1.793-3.625-1.728 3.625L326.3 319H316l14.152-24.104z"/></g></svg>
