<?xml version="1.0" encoding="UTF-8"?>
<svg width="401px" height="400px" viewBox="0 0 401 400" version="1.1" xmlns="http://www.w3.org/2000/svg" xmlns:xlink="http://www.w3.org/1999/xlink">
    <!-- Generator: Sketch 52.5 (67469) - http://www.bohemiancoding.com/sketch -->
    <title>svg-to-jsx</title>
    <desc>Created with Sketch.</desc>
    <g id="Page-1" stroke="none" stroke-width="1" fill="none" fill-rule="evenodd">
        <g id="svg-to-jsx" transform="translate(0.500000, 0.000000)">
            <polygon id="Path" fill="#F9F9FD" points="6 6 206 6 206 200 6 200"></polygon>
            <polygon id="Path" fill="#DCD7D8" points="6 6 19 6 19 200 6 200"></polygon>
            <polygon id="Path" fill="#AAB2BD" points="25 25 188 25 188 163 25 163"></polygon>
            <polygon id="Path" fill="#CCD1D9" points="37 37 175 37 175 150 37 150"></polygon>
            <path d="M106,61.3835729 C79.3889851,29.4055503 47.4565469,61.3835729 58.1009528,88.0325757 C67.9260186,112.629133 106,136 106,136 C106,136 144.073981,112.629133 153.899047,88.0325757 C164.543453,61.3835729 132.611015,29.4047696 106,61.3835729 Z" id="Path" fill="#FCCA75"></path>
            <path d="M77.0706109,88.0277593 C70.8998585,72.7378861 78.8911917,55.7006434 91.9015296,49.984606 C69.4952304,40.6410982 49.2852873,66.1294254 58.1227061,88.0277593 C68.0504251,112.626786 106.526048,136 106.526048,136 C106.526048,136 110.398031,133.647532 116,129.652317 C103.938948,121.050544 83.8503244,104.826086 77.0706109,88.0277593 Z" id="Path" fill="#F3B141"></path>
            <path d="M297.999963,250.702205 C246.90817,189.2892 185.596767,250.702205 206.03364,301.879318 C224.897845,349.117017 297.999963,394 297.999963,394 C297.999963,394 371.102862,349.117801 389.966285,301.880101 C410.403159,250.702205 349.09332,189.2892 297.999963,250.702205 Z" id="Path" fill="#CEBFE2"></path>
            <path d="M229.663054,301.877458 C216.981925,270.014224 235.88203,234.18718 264.241931,226.500053 C224.630353,216.068026 191.176176,262.067804 207.020184,301.877458 C225.819745,349.116513 298.678175,394 298.678175,394 C298.678175,394 303.084225,391.285652 310,386.495396 C288.772552,371.793265 243.843785,337.507877 229.663054,301.877458 Z" id="Path" fill="#B69FD4"></path>
            <path d="M188.114383,19 L24.8856169,19 C21.6342756,19 19,21.6362397 19,24.8900052 L19,163.109995 C19,166.36376 21.6342756,169 24.8856169,169 L141.290213,169 C144.541555,169 147.17583,166.36376 147.17583,163.109995 C147.17583,159.856229 144.541555,157.21999 141.290213,157.21999 L30.7712337,157.21999 L30.7712337,30.7800103 L182.228766,30.7800103 L182.228766,157.219206 L167.972042,157.219206 C164.720701,157.219206 162.086425,159.855446 162.086425,163.109211 C162.086425,166.362977 164.720701,168.999216 167.972042,168.999216 L188.114383,168.999216 C191.365724,168.999216 194,166.362977 194,163.109211 L194,24.8900052 C194,21.6370233 191.365724,19 188.114383,19 Z" id="Path" fill="#000000"></path>
            <path d="M144.920374,47.1324625 C134.99564,41.224173 120.020218,40.2674218 105.955359,53.6088718 C91.8912814,40.2682022 76.9150785,41.2257337 66.9903448,47.1324625 C52.4604345,55.782242 46.0857197,75.0546126 52.4784112,91.0087891 C62.932287,117.101718 101.258736,140.784821 102.886023,141.780591 C104.749353,142.921513 107.162147,142.921513 109.025477,141.780591 C110.651983,140.785601 148.979994,117.101718 159.433089,91.0087891 C165.824217,75.0546126 159.450284,55.782242 144.920374,47.1324625 Z M148.523541,86.6519036 C141.073347,105.250022 114.949209,123.816925 105.953014,129.795449 C96.9568192,123.823949 70.8522214,105.285139 63.3871771,86.6519036 C58.5842563,74.6644204 64.5072073,62.2672355 73.006306,57.2080041 C75.8622658,55.5075467 78.85735,54.6717552 81.9079277,54.6717552 C88.4475598,54.6717552 95.239648,58.5167086 101.440848,65.9475278 C103.752815,68.7186725 108.153995,68.7186725 110.466744,65.9475278 C119.56142,55.0486808 129.926194,51.8647129 138.902849,57.2080041 C147.403511,62.2687963 153.326462,74.6652008 148.523541,86.6519036 Z M370.080834,227.166339 C358.699983,220.390262 345.95368,218.305075 333.220664,221.13631 C320.815919,223.893407 309.077096,231.083868 298.251179,242.543812 C287.425263,231.084649 275.685658,223.893407 263.280913,221.13631 C250.547897,218.306636 237.801594,220.392603 226.419961,227.166339 C200.819494,242.405684 189.601215,276.396882 200.880459,304.549246 C220.234393,352.858936 292.128921,397.276849 295.181062,399.144309 C297.044392,400.28523 299.457185,400.28523 301.320515,399.144309 C304.371875,397.276849 376.266402,352.858936 395.621118,304.549246 C406.901143,276.396882 395.682083,242.406464 370.080834,227.166339 Z M384.713134,300.193141 C368.955333,339.52529 312.136271,378.186308 298.252742,387.188821 C284.369214,378.186308 227.549371,339.52607 211.792351,300.193141 C201.533875,274.589512 214.234845,248.079077 232.439049,237.242661 C238.858315,233.4219 245.556611,231.541173 252.341665,231.541173 C266.364318,231.541173 280.751196,239.579912 293.739013,255.142336 C296.05098,257.91348 300.45216,257.91348 302.764909,255.142336 C322.03912,232.049984 344.381104,225.528312 364.064091,237.242661 C382.270639,248.079858 394.970047,274.588732 384.713134,300.193141 Z" id="Shape" fill="#000000" fill-rule="nonzero"></path>
            <path d="M178.759818,275.79134 C177.210587,272.941875 173.643681,271.886113 170.789217,273.433054 C167.935535,274.979996 166.878993,278.542413 168.427441,281.391877 L177.403753,297.902219 C134.247388,287.90996 102.282086,250.27266 99.7044657,205.813512 L206.510681,205.813512 C209.757731,205.813512 212.38853,203.186601 212.38853,199.944348 L212.38853,100.117029 C259.627169,105.817521 296.759442,144.827624 300.612577,191.865268 L285.481573,176.981519 C283.17063,174.70757 279.448879,174.734901 277.169218,177.04321 C274.891121,179.352299 274.919275,183.068551 277.230999,185.343281 L303.48581,211.16807 C305.83038,213.474816 309.746861,213.367054 311.960048,210.934584 L335.471445,185.109795 C337.654915,182.711685 337.478173,178.998556 335.075731,176.818313 C332.674853,174.63729 328.95623,174.813771 326.771978,177.213443 L312.478544,192.913222 C310.880044,167.221965 300.55236,142.933186 282.982157,123.884174 C264.439091,103.781742 239.443373,91.2023975 212.38853,88.2974895 L212.38853,5.86916356 C212.38853,2.62691142 209.757731,0 206.510681,0 L5.87784931,0 C2.63079897,4.33480609e-17 0,2.62691142 0,5.86916356 L0,199.944348 C0,203.186601 2.63079897,205.813512 5.87784931,205.813512 L87.93078,205.813512 C90.5162204,255.62956 126.143839,297.909247 174.374893,309.252444 L159.475374,320.467575 C157.11829,322.242537 156.446514,325.605827 157.954296,328.143717 C159.717026,331.110315 163.789133,331.920097 166.551316,329.84137 L192.022517,310.668977 C194.345973,308.919785 195.038865,305.7361 193.649953,303.182592 L178.759818,275.79134 Z M11.7556986,11.7383271 L200.63205,11.7383271 L200.63205,194.075185 L11.7556986,194.075185 L11.7556986,11.7383271 Z" id="Shape" fill="#000000" fill-rule="nonzero"></path>
            <path d="M76,91.3214286 L79.8958333,91.3214286 L79.8958333,94.8571429 L80.1083333,94.9285714 C80.6513916,95.1666679 81.2475662,95.3630945 81.896875,95.5178571 C82.5461838,95.6726198 83.2368019,95.75 83.96875,95.75 C85.2909788,95.75 86.3180519,95.4821455 87.05,94.9464286 C87.7819481,94.4107116 88.1479167,93.6904807 88.1479167,92.7857143 C88.1479167,91.9761864 87.846878,91.3214311 87.2447917,90.8214286 C86.6427053,90.3214261 85.8989628,89.8809543 85.0135417,89.5 C84.1281206,89.1190457 83.1600747,88.7380971 82.109375,88.3571429 C81.0586753,87.9761886 80.0906294,87.4940505 79.2052083,86.9107143 C78.3197872,86.327378 77.5760447,85.5952425 76.9739583,84.7142857 C76.371872,83.8333289 76.0708333,82.6904832 76.0708333,81.2857143 C76.0708333,80.2142804 76.2774285,79.2321473 76.690625,78.3392857 C77.1038215,77.4464241 77.6822879,76.6785746 78.4260417,76.0357143 C79.1697954,75.3928539 80.0611059,74.8928589 81.1,74.5357143 C82.1388941,74.1785696 83.295827,74 84.5708333,74 C86.0111183,74 87.4277708,74.1309511 88.8208333,74.3928571 C90.2138959,74.6547632 91.323607,75.0119025 92.15,75.4642857 L92.15,82.7142857 L88.2541667,82.7142857 L88.2541667,78.75 C88.183333,78.75 88.1125004,78.7380954 88.0416667,78.7142857 C87.5222196,78.5714279 86.9614613,78.4583337 86.359375,78.375 C85.7572887,78.2916663 85.1611141,78.25 84.5708333,78.25 C83.4374943,78.25 82.5461838,78.4761882 81.896875,78.9285714 C81.2475662,79.3809546 80.9229167,79.9880914 80.9229167,80.75 C80.9229167,81.5357182 81.2239553,82.1785689 81.8260417,82.6785714 C82.428128,83.1785739 83.1718706,83.6309504 84.0572917,84.0357143 C84.9427128,84.4404782 85.9107586,84.8452361 86.9614583,85.25 C88.012158,85.6547639 88.9802039,86.1488066 89.865625,86.7321429 C90.7510461,87.3154791 91.4947887,88.0476146 92.096875,88.9285714 C92.6989613,89.8095282 93,90.91666 93,92.25 C93,93.5357207 92.7638912,94.6607095 92.2916667,95.625 C91.8194421,96.5892905 91.1583376,97.3988063 90.3083333,98.0535714 C89.4583291,98.7083366 88.4548669,99.196427 87.2979167,99.5178571 C86.1409664,99.8392873 84.8895901,100 83.54375,100 C82.6465233,100 81.8142399,99.9285721 81.046875,99.7857143 C80.2795101,99.6428564 79.5711838,99.4642868 78.921875,99.25 C78.2725662,99.0357132 77.7000025,98.809525 77.2041667,98.5714286 C76.7083309,98.3333321 76.306946,98.1309532 76,97.9642857 L76,91.3214286 Z M105.716495,93.3214286 L105.896907,93.3214286 L110.876289,75 L116,75 L108.42268,100 L102.793814,100 L95,75 L100.520619,75 L105.716495,93.3214286 Z M128.726923,86.4642857 L137,86.4642857 L137,97.75 C136.215381,98.4880989 135.194237,99.0476171 133.936538,99.4285714 C132.67884,99.8095257 131.392314,100 130.076923,100 C128.530762,100 127.082699,99.7261932 125.732692,99.1785714 C124.382686,98.6309496 123.211543,97.803577 122.219231,96.6964286 C121.226918,95.5892802 120.442311,94.2202463 119.865385,92.5892857 C119.288459,90.9583252 119,89.04763 119,86.8571429 C119,84.5476075 119.34615,82.5833414 120.038462,80.9642857 C120.730773,79.34523 121.624995,78.0178623 122.721154,76.9821429 C123.817313,75.9464234 125.046147,75.1904786 126.407692,74.7142857 C127.769238,74.2380929 129.119224,74 130.457692,74 C131.842315,74 132.996149,74.1130941 133.919231,74.3392857 C134.842312,74.5654773 135.684612,74.8571411 136.446154,75.2142857 L136.446154,82.6071429 L132.638462,82.6071429 L132.638462,78.6428571 L132.084615,78.5 C131.623075,78.4047614 131.115387,78.3571429 130.561538,78.3571429 C129.61538,78.3571429 128.738466,78.5238079 127.930769,78.8571429 C127.123073,79.1904779 126.425003,79.7083298 125.836538,80.4107143 C125.248074,81.1130987 124.792309,82.0118993 124.469231,83.1071429 C124.146152,84.2023864 123.984615,85.5118971 123.984615,87.0357143 C123.984615,88.3928639 124.146152,89.6071375 124.469231,90.6785714 C124.792309,91.7500054 125.242305,92.6547582 125.819231,93.3928571 C126.396157,94.1309561 127.082688,94.6904743 127.878846,95.0714286 C128.675004,95.4523829 129.534611,95.6428571 130.457692,95.6428571 C131.057695,95.6428571 131.605767,95.5714293 132.101923,95.4285714 C132.598079,95.2857136 132.938461,95.1428579 133.123077,95 L133.123077,90.0357143 L128.726923,90.0357143 L128.726923,86.4642857 Z" id="SVG-Copy" fill="#000000"></path>
            <path d="M242.574661,271 L270,271 L270,301.067416 C270,303.629226 269.682884,306.033697 269.048643,308.280899 C268.414401,310.528101 267.266222,312.528081 265.604072,314.280899 C264.554293,315.359556 263.427985,316.21348 262.225113,316.842697 C261.022241,317.471913 259.852193,317.943819 258.714932,318.258427 C257.577672,318.573035 256.506038,318.77528 255.5,318.865169 C254.493962,318.955057 253.662899,319 253.006787,319 C250.907229,319 248.873313,318.764047 246.904977,318.292135 C244.936642,317.820222 242.968336,316.977534 241,315.764045 L244.214932,308.348315 C245.877082,309.337084 247.309572,309.988762 248.512443,310.303371 C249.715315,310.617979 251.104065,310.775281 252.678733,310.775281 C253.64103,310.775281 254.679859,310.584272 255.795249,310.202247 C256.910639,309.820223 257.883857,309.17978 258.714932,308.280899 C260.24586,306.573025 261.011312,304.191027 261.011312,301.134831 L261.011312,279.224719 L242.574661,279.224719 L242.574661,271 Z M280,303.644231 L287.333333,303.644231 L287.333333,310.307692 L287.733333,310.442308 C288.755561,310.891028 289.877772,311.261216 291.1,311.552885 C292.322228,311.844553 293.622215,311.990385 295,311.990385 C297.488901,311.990385 299.422215,311.485582 300.8,310.475962 C302.177785,309.466341 302.866667,308.108983 302.866667,306.403846 C302.866667,304.878198 302.300006,303.644235 301.166667,302.701923 C300.033328,301.759611 298.633342,300.929491 296.966667,300.211538 C295.299992,299.493586 293.477788,298.775645 291.5,298.057692 C289.522212,297.33974 287.700008,296.431095 286.033333,295.331731 C284.366658,294.232366 282.966672,292.852572 281.833333,291.192308 C280.699994,289.532043 280.133333,287.378218 280.133333,284.730769 C280.133333,282.711528 280.522218,280.860585 281.3,279.177885 C282.077782,277.495184 283.16666,276.048083 284.566667,274.836538 C285.966674,273.624994 287.644435,272.682696 289.6,272.009615 C291.555565,271.336535 293.733321,271 296.133333,271 C298.844458,271 301.511098,271.246792 304.133333,271.740385 C306.755569,272.233977 308.844437,272.907047 310.4,273.759615 L310.4,287.423077 L303.066667,287.423077 L303.066667,279.951923 C302.933333,279.951923 302.800001,279.929487 302.666667,279.884615 C301.688884,279.615383 300.633339,279.402244 299.5,279.245192 C298.366661,279.08814 297.24445,279.009615 296.133333,279.009615 C293.999989,279.009615 292.322228,279.435893 291.1,280.288462 C289.877772,281.14103 289.266667,282.285249 289.266667,283.721154 C289.266667,285.20193 289.833328,286.413457 290.966667,287.355769 C292.100006,288.298082 293.499992,289.150637 295.166667,289.913462 C296.833342,290.676286 298.655546,291.439099 300.633333,292.201923 C302.611121,292.964747 304.433325,293.895828 306.1,294.995192 C307.766675,296.094557 309.166661,297.474351 310.3,299.134615 C311.433339,300.79488 312,302.881398 312,305.394231 C312,307.81732 311.55556,309.937491 310.666667,311.754808 C309.777773,313.572124 308.533341,315.09775 306.933333,316.331731 C305.333325,317.565711 303.444455,318.485574 301.266667,319.091346 C299.088878,319.697118 296.733346,320 294.2,320 C292.511103,320 290.944452,319.865386 289.5,319.596154 C288.055548,319.326922 286.722228,318.990387 285.5,318.586538 C284.277772,318.18269 283.200005,317.756413 282.266667,317.307692 C281.333329,316.858972 280.577781,316.477566 280,316.163462 L280,303.644231 Z M330.151618,294.895714 L316.996593,272 L327.626917,272 L334.403748,284.757143 L335.931857,288.181429 L337.393526,284.757143 L344.303237,272 L354.601363,272 L341.247019,294.962857 L355,319 L344.369676,319 L337.260647,305.571429 L335.46678,301.945714 L333.739353,305.571429 L326.298126,319 L316,319 L330.151618,294.895714 Z" id="JSX" fill="#000000"></path>
        </g>
    </g>
</svg>