<?xml version="1.0" encoding="UTF-8"?>
<svg width="368px" height="400px" viewBox="0 0 368 400" version="1.1" xmlns="http://www.w3.org/2000/svg" xmlns:xlink="http://www.w3.org/1999/xlink">
    <!-- Generator: Sketch 52.5 (67469) - http://www.bohemiancoding.com/sketch -->
    <title>symbols-collection</title>
    <desc>Created with Sketch.</desc>
    <g id="Page-1" stroke="none" stroke-width="1" fill="none" fill-rule="evenodd">
        <g id="symbols-collection" transform="translate(0.500000, 0.000000)">
            <path d="M293.505155,41.5463918 C214.272623,41.5463918 159.862543,0.504009164 121.683849,0.504009164 C83.5051546,0.504009164 3.32187858,22.4513173 3.32187858,198.087056 C3.32187858,373.722795 111.191294,399.495991 153.184422,399.495991 C349.828179,399.507446 433.825888,41.5463918 293.505155,41.5463918 Z" id="Path" fill="#E7EAEE"></path>
            <path d="M289.232532,317.411226 L77.3195876,317.411226 C64.6620848,317.411226 54.4100802,307.159221 54.4100802,294.501718 L54.4100802,122.680412 L312.142039,122.680412 L312.142039,294.501718 C312.142039,307.159221 301.890034,317.411226 289.232532,317.411226 Z" id="Path" fill="#F3F3F1"></path>
            <path d="M312.142039,122.680412 L54.4100802,122.680412 L54.4100802,105.498282 C54.4100802,92.8407789 64.6620848,82.5887743 77.3195876,82.5887743 L289.232532,82.5887743 C301.890034,82.5887743 312.142039,92.8407789 312.142039,105.498282 L312.142039,122.680412 Z" id="Path" fill="#FCCA75"></path>
            <path d="M83.0469645,294.501718 L83.0469645,122.680412 L54.4100802,122.680412 L54.4100802,294.501718 C54.4100802,307.159221 64.6620848,317.411226 77.3195876,317.411226 L105.956472,317.411226 C93.2989691,317.411226 83.0469645,307.159221 83.0469645,294.501718 Z" id="Path" fill="#D5DBE1"></path>
            <path d="M103.092784,82.5887743 L77.3195876,82.5887743 C64.6620848,82.5887743 54.4100802,92.8407789 54.4100802,105.498282 L54.4100802,122.680412 L80.1832761,122.680412 L80.1832761,105.498282 C80.1832761,92.8407789 90.4352806,82.5887743 103.092784,82.5887743 Z" id="Path" fill="#F3B141"></path>
            <path d="M289.232532,326.002291 L77.3195876,326.002291 C59.9427262,326.002291 45.8190149,311.87858 45.8190149,294.501718 L45.8190149,105.498282 C45.8190149,88.1214204 59.9427262,73.997709 77.3195876,73.997709 L289.232532,73.997709 C306.609393,73.997709 320.733104,88.1214204 320.733104,105.498282 L320.733104,294.501718 C320.733104,311.87858 306.609393,326.002291 289.232532,326.002291 Z M77.3195876,91.1798396 C69.4272623,91.1798396 63.0011455,97.6059565 63.0011455,105.498282 L63.0011455,294.501718 C63.0011455,302.394044 69.4272623,308.82016 77.3195876,308.82016 L289.232532,308.82016 C297.124857,308.82016 303.550974,302.394044 303.550974,294.501718 L303.550974,105.498282 C303.550974,97.6059565 297.124857,91.1798396 289.232532,91.1798396 L77.3195876,91.1798396 Z" id="Shape" fill="#000000" fill-rule="nonzero"></path>
            <path d="M54.4100802,114.089347 L312.142039,114.089347 L312.142039,131.271478 L54.4100802,131.271478 L54.4100802,114.089347 Z M0,308.82016 L366.552119,308.82016 L366.552119,326.002291 L0,326.002291 L0,308.82016 Z" id="Shape" fill="#000000" fill-rule="nonzero"></path>
            <g id="at-sign" transform="translate(121.000000, 159.000000)" stroke="#000000" stroke-linecap="round" stroke-linejoin="round" stroke-width="17">
                <circle id="Oval" cx="62.5" cy="61" r="24"></circle>
                <path d="M86.6010929,36.6003377 L86.6010929,67.0988347 C86.6010929,77.2051475 94.8611946,85.3979328 105.050546,85.3979328 C115.239898,85.3979328 123.5,77.2051475 123.5,67.0988347 L123.5,60.9991353 C123.4982,32.6532501 103.80911,8.04407234 75.9781344,1.60207735 C48.1471588,-4.83991763 19.5095418,8.58314825 6.85797871,34.0001781 C-5.79358434,59.417208 0.875403407,90.1291874 22.9543414,108.127044 C45.0332794,126.1249 76.7029541,126.665047 99.392714,109.430748" id="Path"></path>
            </g>
        </g>
    </g>
</svg>