<svg xmlns="http://www.w3.org/2000/svg" viewBox="0 0 368 400"><g fill="none" fill-rule="evenodd"><path fill="#E7EAEE" d="M294.005155 41.5463918c-79.232532 0-133.642612-41.04238264-171.821306-41.04238264-38.1786944 0-118.36197042 21.94730814-118.36197042 197.58304684 0 175.635739 107.86941542 201.408935 149.86254342 201.408935 196.643757.011455 280.641466-357.9495992 140.320733-357.9495992z"/><path fill="#F3F3F1" d="M289.732532 317.411226H77.8195876c-12.6575028 0-22.9095074-10.252005-22.9095074-22.909508V122.680412H312.642039v171.821306c0 12.657503-10.252005 22.909508-22.909507 22.909508z"/><path fill="#FCCA75" d="M312.642039 122.680412H54.9100802v-17.18213c0-12.6575031 10.2520046-22.9095077 22.9095074-22.9095077H289.732532c12.657502 0 22.909507 10.2520046 22.909507 22.9095077v17.18213z"/><path fill="#D5DBE1" d="M83.5469645 294.501718V122.680412H54.9100802v171.821306c0 12.657503 10.2520046 22.909508 22.9095074 22.909508h28.6368844c-12.6575029 0-22.9095075-10.252005-22.9095075-22.909508z"/><path fill="#F3B141" d="M103.592784 82.5887743H77.8195876c-12.6575028 0-22.9095074 10.2520046-22.9095074 22.9095077v17.18213h25.7731959v-17.18213c0-12.6575031 10.2520045-22.9095077 22.9095079-22.9095077z"/><path fill="#000" fill-rule="nonzero" d="M289.732532 326.002291H77.8195876c-17.3768614 0-31.5005727-14.123711-31.5005727-31.500573V105.498282c0-17.3768616 14.1237113-31.500573 31.5005727-31.500573H289.732532c17.376861 0 31.500572 14.1237114 31.500572 31.500573v189.003436c0 17.376862-14.123711 31.500573-31.500572 31.500573zM77.8195876 91.1798396c-7.8923253 0-14.3184421 6.4261169-14.3184421 14.3184424v189.003436c0 7.892326 6.4261168 14.318442 14.3184421 14.318442H289.732532c7.892325 0 14.318442-6.426116 14.318442-14.318442V105.498282c0-7.8923255-6.426117-14.3184424-14.318442-14.3184424H77.8195876z"/><path fill="#000" fill-rule="nonzero" d="M54.9100802 114.089347H312.642039v17.182131H54.9100802v-17.182131zM.5 308.82016h366.552119v17.182131H.5V308.82016z"/><g stroke="#000" stroke-linecap="round" stroke-linejoin="round" stroke-width="17" transform="translate(121.5 159)"><circle cx="62.5" cy="61" r="24"/><path d="M86.6010929 36.6003377v30.498497c0 10.1063128 8.2601017 18.2990981 18.4494531 18.2990981 10.189352 0 18.449454-8.1927853 18.449454-18.2990981v-6.0996994c-.0018-28.3458852-19.69089-52.95506296-47.5218656-59.39705795C48.1471588-4.83991763 19.5095418 8.58314825 6.85797871 34.0001781-5.79358434 59.417208.87540341 90.1291874 22.9543414 108.127044c22.078938 17.997856 53.7486127 18.538003 76.4383726 1.303704"/></g></g></svg>
