<svg xmlns="http://www.w3.org/2000/svg" viewBox="0 0 36 36"><path fill="#efefef" d="M27.623 4.167c-6.917 0-11.667-3.583-15-3.583S2.29 2.5 2.29 17.833s9.417 17.583 13.083 17.583c17.167.001 24.5-31.249 12.25-31.249z"/><path fill="#a4afc1" d="M27.906838 2.6205l.707-.707 1.414 1.414-.707.707zM31.971162 6.6875l.707-.707 1.414 1.414-.707.707zM31.792361 3.323977l1.414-1.414.707.707-1.414 1.414z"/><path fill="#f3f3f1" d="M27.25 28.25H8.75c-1.105 0-2-.895-2-2v-15h22.5v15c0 1.105-.895 2-2 2z"/><path fill="#2fdf84" d="M29.25 11.25H6.75v-1.5c0-1.105.895-2 2-2h18.5c1.105 0 2 .895 2 2z"/><path fill="#d5dbe1" d="M9.25 26.25v-15h-2.5v15c0 1.105.895 2 2 2h2.5c-1.105 0-2-.895-2-2z"/><path fill="#00b871" d="M11 7.75H8.75c-1.105 0-2 .895-2 2v1.5H9v-1.5c0-1.105.895-2 2-2z"/><path d="M18 23c-1.654 0-3-1.346-3-3s1.346-3 3-3 3 1.346 3 3-1.346 3-3 3zm0-4.5c-.827 0-1.5.673-1.5 1.5s.673 1.5 1.5 1.5 1.5-.673 1.5-1.5-.673-1.5-1.5-1.5z"/><path d="M19.455 26H18c-3.309 0-6-2.691-6-6s2.691-6 6-6 6 2.691 6 6v1.818C24 23.021 23.021 24 21.818 24s-2.182-.979-2.182-2.182V17.75h1.5v4.068c0 .376.306.682.682.682s.682-.306.682-.682V20c0-2.481-2.019-4.5-4.5-4.5s-4.5 2.019-4.5 4.5 2.019 4.5 4.5 4.5h1.455z"/><path d="M27.25 29H8.75C7.233 29 6 27.767 6 26.25V9.75C6 8.233 7.233 7 8.75 7h18.5C28.767 7 30 8.233 30 9.75v16.5c0 1.517-1.233 2.75-2.75 2.75zM8.75 8.5c-.689 0-1.25.561-1.25 1.25v16.5c0 .689.561 1.25 1.25 1.25h18.5c.689 0 1.25-.561 1.25-1.25V9.75c0-.689-.561-1.25-1.25-1.25z"/><path d="M6.75 10.5h22.5V12H6.75zM2 27.5h32V29H2z"/></svg>
