<svg xmlns="http://www.w3.org/2000/svg" viewBox="0 0 379 390"><g fill="none" fill-rule="evenodd"><path fill="#FCCA75" d="M225.59620398 177.01600467L78.17371424 29.59351492 30.96687686 76.80035229l147.42248975 147.42248975 17.70607748-29.50076z"/><path fill="#FFF7D2" d="M178.38936661 224.22284204l5.89665113 5.89665113 47.1907134-.01612408.01612397-47.1907133-5.89665113-5.89665112-29.5007599 17.70607737z"/><path fill="#FEE9AB" d="M19.17357517 65.0070506l11.79399275 11.79399275L78.1750968 29.59351446 66.38110406 17.79952171c-13.02611833-13.02611832-34.15568994-13.01889873-47.190713.01612433C6.15536798 30.85066911 6.14745684 51.98093227 19.17357516 65.0070506z"/><path fill="#000" fill-rule="nonzero" d="M177.69313131 236.7123796c1.56244295 1.56244294 3.68574376 2.44655212 5.89783214 2.44026637l47.19071262-.01612472c4.6011393-.00157232 8.34222547-3.7426585 8.3437978-8.3437978l.01612472-47.19071262c.0062858-2.21208842-.87782341-4.33538921-2.44026636-5.89783215L71.58888966 12.5917361c-16.28022833-16.28299439-42.6959951-16.2732773-58.98804512.01877271-16.2920501 16.2920501-16.30176715 42.70781685-.0201558 58.9894282L177.69313131 236.7123796z"/><path fill="#FCCA75" fill-rule="nonzero" d="M196.70504501 184.91334574L77.47010774 65.67840847 65.66874411 77.4797721l119.23493727 119.23493727-8.8533837 14.75072638-133.9769103-133.9769103 35.40547378-35.40547379 133.9769103 133.9769103-14.75072645 8.85338378z"/><path fill="#F9F9FD" fill-rule="nonzero" d="M24.39483722 24.4045015c9.77799603-9.77799603 25.62206406-9.7834097 35.39338041-.01209336l5.89665085 5.89665084L30.2793947 65.69453276l-5.89665085-5.89665084c-9.77131634-9.77131635-9.76590273-25.61538432.01209337-35.39338042zM222.44712016 222.45678445l-33.55320162.01146418 12.5897886-20.9748772 20.97487713-12.58978854z"/><g transform="translate(120 131)"><path fill="#FCCA75" stroke="#000" stroke-width="18" d="M1.4182261 246.58577877L246.585795 1.420883c.781053-.781044 2.047383-.781037 2.828427.000016.375068.375072.585779.883777.585779 1.414206v245.16489505c0 1.1045695-.895431 2-2 2H2.83243195c-1.1045695 0-2-.8954305-2-2 0-.53043676.21071668-1.03914789.58579415-1.41422128z"/><path fill="#F9F9FD" stroke="#000" stroke-width="18" d="M120.577268 191.889816l73.266026-73.263356c.781063-.781034 2.047393-.781011 2.828427.000051.375057.375071.585761.883768.585761 1.414188v73.263356c0 1.10457-.89543 2-2 2h-73.266026c-1.104569 0-2-.89543-2-2 0-.530445.210724-1.039164.585812-1.414239z"/><rect width="16.6041261" height="24.4178325" x="41.9600667" y="224.605454" fill="#000" rx="8"/><rect width="16.6041261" height="24.4178325" x="75.168319" y="224.605454" fill="#000" rx="8"/><rect width="16.6041261" height="24.4178325" x="108.376571" y="224.605454" fill="#000" rx="8"/><rect width="16.6041261" height="24.4178325" x="141.584823" y="224.605454" fill="#000" rx="8"/><rect width="16.6041261" height="24.4178325" x="174.793076" y="224.605454" fill="#000" rx="8"/><rect width="16.6041261" height="24.4178325" x="208.001328" y="224.605454" fill="#000" rx="8"/><path fill="#000" d="M224.605454 217.582167v-.604126c0-4.418278 3.581722-8 8-8h8.417833c4.418278 0 8 3.581722 8 8v.604126c0 4.418278-3.581722 8-8 8h-8.417833c-4.418278 0-8-3.581722-8-8zM224.605454 184.373915v-.604126c0-4.418278 3.581722-8 8-8h8.417832c4.418278 0 8 3.581722 8 8v.604126c0 4.418278-3.581722 8-8 8h-8.417832c-4.418278 0-8-3.581722-8-8zM224.605454 151.165663v-.604126c0-4.418278 3.581722-8 8-8h8.417832c4.418278 0 8 3.581722 8 8v.604126c0 4.418278-3.581722 8-8 8h-8.417832c-4.418278 0-8-3.581722-8-8zM224.605453 117.957411v-.604126c0-4.418278 3.581722-8 8-8h8.417833c4.418278 0 8 3.581722 8 8v.604126c0 4.418278-3.581722 8-8 8h-8.417833c-4.418278 0-8-3.581722-8-8zM224.6054538 83.772445v-.604126c0-4.418278 3.581722-8 8-8h8.4178325c4.418278 0 8 3.581722 8 8v.604126c0 4.418278-3.581722 8-8 8h-8.4178325c-4.418278 0-8-3.581722-8-8zM224.6054535 50.564193v-.604126c0-4.418278 3.581722-8 8-8h8.4178325c4.418278 0 8 3.581722 8 8v.604126c0 4.418278-3.581722 8-8 8h-8.4178325c-4.418278 0-8-3.581722-8-8z"/></g></g></svg>
