<?xml version="1.0" encoding="UTF-8"?>
<svg width="379px" height="390px" viewBox="0 0 379 390" version="1.1" xmlns="http://www.w3.org/2000/svg" xmlns:xlink="http://www.w3.org/1999/xlink">
    <!-- Generator: Sketch 52.5 (67469) - http://www.bohemiancoding.com/sketch -->
    <title>triangle-generator</title>
    <desc>Created with Sketch.</desc>
    <g id="Page-1" stroke="none" stroke-width="1" fill="none" fill-rule="evenodd">
        <g id="triangle-generator" transform="translate(-18.000000, -18.000000)">
            <g id="pencil" transform="translate(142.544931, 142.819272) rotate(-315.000000) translate(-142.544931, -142.819272) translate(-15.955069, 100.319272)">
                <polygon id="Path" fill="#FCCA75" points="266.862704 7.95462325 58.3758196 7.95462325 58.3758196 74.7151729 266.862704 74.7151729 258.522604 41.334898"></polygon>
                <polygon id="Path" fill="#FFF7D2" points="266.862704 74.7151729 275.201828 74.7151729 308.5593 41.334898 275.201828 7.95462325 266.862704 7.95462325 258.522604 41.334898"></polygon>
                <path d="M41.6975724,74.7151729 L58.3767969,74.7151729 L58.3767969,7.9536453 L41.6975724,7.9536453 C23.2758592,7.9536453 8.34010085,22.8996137 8.34010085,41.3339201 C8.34010085,59.7682265 23.2758592,74.7151729 41.6975724,74.7151729 Z" id="Path" fill="#FEE9AB"></path>
                <path d="M275.201828,84.0389223 C277.411456,84.0389223 279.538016,83.1626815 281.097754,81.5940541 L314.455225,48.2137793 C317.70761,44.9591707 317.70761,39.6684759 314.455225,36.4138673 L281.097754,3.03359249 C279.538016,1.46496504 277.411456,0.588724268 275.201828,0.588724268 L41.6975724,0.588724268 C18.6718968,0.586768373 0,19.2724072 0,42.3128453 C0,65.3532835 18.6718968,84.0389223 41.6975724,84.0389223 L275.201828,84.0389223 Z" id="Path" fill="#000000" fill-rule="nonzero"></path>
                <polygon id="Path" fill="#FCCA75" fill-rule="nonzero" points="252.017833 33.9680211 83.3941676 33.9680211 83.3941676 50.6576696 252.017833 50.6576696 256.187884 67.3482959 66.7159204 67.3482959 66.7159204 17.2773947 256.187884 17.2773947 252.017833 33.9680211"></polygon>
                <path d="M16.6792244,42.3128453 C16.6792244,28.4846707 27.8788443,17.2773947 41.6975724,17.2773947 L50.036696,17.2773947 L50.036696,67.3482959 L41.6975724,67.3482959 C27.8788443,67.3482959 16.6792244,56.14102 16.6792244,42.3128453 Z" id="Path" fill="#F9F9FD" fill-rule="nonzero"></path>
                <polygon id="Path" fill="#F9F9FD" fill-rule="nonzero" points="296.767449 42.3128453 273.049859 66.0466481 267.120706 42.3128453 273.049859 18.5790426"></polygon>
            </g>
            <g id="triangle" transform="translate(138.000000, 149.000000)">
                <path d="M4.24798923,1.4195621 L249.412885,246.587131 C250.193929,247.368184 250.193922,248.634514 249.412869,249.415558 C249.037797,249.790626 248.529092,250.001337 247.998663,250.001337 L2.83376795,250.001337 C1.72919845,250.001337 0.833767954,249.105906 0.833767954,248.001337 L0.833767954,2.83376795 C0.833767954,1.72919845 1.72919845,0.833767954 2.83376795,0.833767954 C3.36420471,0.833767954 3.87291584,1.04448463 4.24798923,1.4195621 Z" id="Triangle" stroke="#000000" stroke-width="18" fill="#FCCA75" transform="translate(125.416216, 125.417552) rotate(-90.000000) translate(-125.416216, -125.417552) "></path>
                <path d="M123.40703,118.625176 L196.670386,191.891202 C197.45142,192.672265 197.451397,193.938595 196.670335,194.719629 C196.295264,195.094686 195.786567,195.30539 195.256147,195.30539 L121.992791,195.30539 C120.888221,195.30539 119.992791,194.40996 119.992791,193.30539 L119.992791,120.039364 C119.992791,118.934795 120.888221,118.039364 121.992791,118.039364 C122.523236,118.039364 123.031955,118.250088 123.40703,118.625176 Z" id="Triangle-Copy" stroke="#000000" stroke-width="18" fill="#F9F9FD" transform="translate(158.624469, 156.672377) rotate(-90.000000) translate(-158.624469, -156.672377) "></path>
                <rect id="Rectangle" fill="#000000" x="41.9600667" y="224.605454" width="16.6041261" height="24.4178325" rx="8"></rect>
                <rect id="Rectangle-Copy" fill="#000000" x="75.168319" y="224.605454" width="16.6041261" height="24.4178325" rx="8"></rect>
                <rect id="Rectangle-Copy-2" fill="#000000" x="108.376571" y="224.605454" width="16.6041261" height="24.4178325" rx="8"></rect>
                <rect id="Rectangle-Copy-3" fill="#000000" x="141.584823" y="224.605454" width="16.6041261" height="24.4178325" rx="8"></rect>
                <rect id="Rectangle-Copy-4" fill="#000000" x="174.793076" y="224.605454" width="16.6041261" height="24.4178325" rx="8"></rect>
                <rect id="Rectangle-Copy-5" fill="#000000" x="208.001328" y="224.605454" width="16.6041261" height="24.4178325" rx="8"></rect>
                <path d="M236.512307,205.071188 L237.116433,205.071188 C241.534711,205.071188 245.116433,208.65291 245.116433,213.071188 L245.116433,221.489021 C245.116433,225.907299 241.534711,229.489021 237.116433,229.489021 L236.512307,229.489021 C232.094029,229.489021 228.512307,225.907299 228.512307,221.489021 L228.512307,213.071188 C228.512307,208.65291 232.094029,205.071188 236.512307,205.071188 Z" id="Rectangle-Copy-6" fill="#000000" transform="translate(236.814370, 217.280104) rotate(-90.000000) translate(-236.814370, -217.280104) "></path>
                <path d="M236.512307,171.862936 L237.116433,171.862936 C241.534711,171.862936 245.116433,175.444658 245.116433,179.862936 L245.116433,188.280768 C245.116433,192.699046 241.534711,196.280768 237.116433,196.280768 L236.512307,196.280768 C232.094029,196.280768 228.512307,192.699046 228.512307,188.280768 L228.512307,179.862936 C228.512307,175.444658 232.094029,171.862936 236.512307,171.862936 Z" id="Rectangle-Copy-7" fill="#000000" transform="translate(236.814370, 184.071852) rotate(-90.000000) translate(-236.814370, -184.071852) "></path>
                <path d="M236.512307,138.654684 L237.116433,138.654684 C241.534711,138.654684 245.116433,142.236406 245.116433,146.654684 L245.116433,155.072516 C245.116433,159.490794 241.534711,163.072516 237.116433,163.072516 L236.512307,163.072516 C232.094029,163.072516 228.512307,159.490794 228.512307,155.072516 L228.512307,146.654684 C228.512307,142.236406 232.094029,138.654684 236.512307,138.654684 Z" id="Rectangle-Copy-8" fill="#000000" transform="translate(236.814370, 150.863600) rotate(-90.000000) translate(-236.814370, -150.863600) "></path>
                <path d="M236.512307,105.446431 L237.116433,105.446431 C241.534711,105.446431 245.116433,109.028153 245.116433,113.446431 L245.116433,121.864264 C245.116433,126.282542 241.534711,129.864264 237.116433,129.864264 L236.512307,129.864264 C232.094029,129.864264 228.512307,126.282542 228.512307,121.864264 L228.512307,113.446431 C228.512307,109.028153 232.094029,105.446431 236.512307,105.446431 Z" id="Rectangle-Copy-9" fill="#000000" transform="translate(236.814370, 117.655348) rotate(-90.000000) translate(-236.814370, -117.655348) "></path>
                <path d="M236.512307,71.2614658 L237.116433,71.2614658 C241.534711,71.2614658 245.116433,74.8431878 245.116433,79.2614658 L245.116433,87.6792983 C245.116433,92.0975763 241.534711,95.6792983 237.116433,95.6792983 L236.512307,95.6792983 C232.094029,95.6792983 228.512307,92.0975763 228.512307,87.6792983 L228.512307,79.2614658 C228.512307,74.8431878 232.094029,71.2614658 236.512307,71.2614658 Z" id="Rectangle-Copy-10" fill="#000000" transform="translate(236.814370, 83.470382) rotate(-90.000000) translate(-236.814370, -83.470382) "></path>
                <path d="M236.512307,38.0532135 L237.116433,38.0532135 C241.534711,38.0532135 245.116433,41.6349355 245.116433,46.0532135 L245.116433,54.471046 C245.116433,58.889324 241.534711,62.471046 237.116433,62.471046 L236.512307,62.471046 C232.094029,62.471046 228.512307,58.889324 228.512307,54.471046 L228.512307,46.0532135 C228.512307,41.6349355 232.094029,38.0532135 236.512307,38.0532135 Z" id="Rectangle-Copy-11" fill="#000000" transform="translate(236.814370, 50.262130) rotate(-90.000000) translate(-236.814370, -50.262130) "></path>
            </g>
        </g>
    </g>
</svg>